<?xml version="1.0" encoding="utf-8"?>
<!-- Generator: Adobe Illustrator 24.0.2, SVG Export Plug-In . SVG Version: 6.00 Build 0)  -->
<svg version="1.1" xmlns="http://www.w3.org/2000/svg" xmlns:xlink="http://www.w3.org/1999/xlink" x="0px" y="0px"
	 viewBox="0 0 24 24" style="enable-background:new 0 0 24 24;" xml:space="preserve">
<style type="text/css">
	.st0{fill:none;}
	.st1{fill:#121331;}
</style>
<g id="bounding_box">
	<rect class="st0" width="24" height="24"/>
</g>
<g id="design">
	<g>
		<path class="st1" d="M20.89,16.91l-1.65-2.71l-6.6-10.84c-0.27-0.45-1.01-0.45-1.28,0L4.76,14.2l-1.65,2.71
			c-0.2,0.32-0.12,0.74,0.17,0.98c2.46,1.97,5.55,3.06,8.72,3.06s6.26-1.09,8.72-3.06C21.01,17.65,21.09,17.23,20.89,16.91z
			 M8.63,10.72C8.87,10.9,9.17,11,9.5,11c0.83,0,1.5-0.67,1.5-1.5c0-0.59-0.33-1.09-0.82-1.32L12,5.19l5.61,9.22
			C15.94,15.46,14.01,16,12,16s-3.94-0.54-5.61-1.59L8.63,10.72z M12,19.45c-2.65,0-5.14-0.81-7.26-2.33l0.87-1.42
			c1.91,1.18,4.11,1.8,6.39,1.8s4.48-0.62,6.39-1.8l0.87,1.42C17.14,18.64,14.65,19.45,12,19.45z"/>
		<circle class="st1" cx="13.5" cy="12.5" r="1.5"/>
	</g>
</g>
</svg>
