<svg xmlns="http://www.w3.org/2000/svg" viewBox="0 0 400 300" width="406" height="306" class="illustration styles_illustrationTablet__1DWOa"><g id="_408_pizza_outline" data-name="#408_pizza_outline"><path d="M174.9,61.29a91.35,91.35,0,0,1,97.6,37.95l-10.39,6.94L196.57,150l78.36,8.67L287.35,160A91.32,91.32,0,1,1,174.9,61.29Z" fill="#fcbb68"></path><path d="M196.57,242.33a92.33,92.33,0,0,1-21.91-182h0a92.66,92.66,0,0,1,98.67,38.36,1,1,0,0,1-.27,1.39l-73.65,49.24,88,9.73a1,1,0,0,1,.67.37,1,1,0,0,1,.22.74,92.41,92.41,0,0,1-91.78,82.18ZM196.43,59.7a90.3,90.3,0,0,0-87.59,111.74,90.33,90.33,0,0,0,177.41-10.52L196.46,151a1,1,0,0,1-.86-.76,1,1,0,0,1,.41-1.07L271.11,99A90.7,90.7,0,0,0,196.43,59.7ZM174.9,61.29h0Z" fill="#093f68"></path><path d="M177.5,73.52a78.85,78.85,0,0,1,84.25,32.75l-65.54,43.82,78.36,8.67A78.83,78.83,0,1,1,177.5,73.52Z" fill="#fcbb68"></path><path d="M196.06,230a79.85,79.85,0,0,1-18.8-157.41h0a80.1,80.1,0,0,1,85.32,33.17,1,1,0,0,1,.15.75,1,1,0,0,1-.43.64L199,149.4l75.64,8.36a1,1,0,0,1,.88,1.11A80,80,0,0,1,196.06,230ZM177.74,74.49a77.82,77.82,0,1,0,36.93,151.2,78.09,78.09,0,0,0,58.79-66.05l-77.36-8.55a1,1,0,0,1-.45-1.83L260.36,106a78.09,78.09,0,0,0-82.62-31.51Zm-.24-1h0Z" fill="#093f68"></path><path d="M297.36,92.31a91.76,91.76,0,0,1,14.85,60.8l-12.42-1.37-78.36-8.66L287,99.25Z" fill="#fcbb68"></path><path d="M312.21,154.11h-.11l-90.78-10a1,1,0,0,1-.45-1.82L296.8,91.48a1,1,0,0,1,1.39.27,92.84,92.84,0,0,1,15,61.47A1,1,0,0,1,312.21,154.11Zm-87.95-11.72L311.32,152A90.78,90.78,0,0,0,297.08,93.7Z" fill="#093f68"></path><path d="M297.36,92.31a91.76,91.76,0,0,1,14.85,60.8l-12.42-1.37-78.36-8.66L287,99.25Z" fill="#fcbb68"></path><path d="M312.21,154.11h-.11l-90.78-10a1,1,0,0,1-.45-1.82L296.8,91.48a1,1,0,0,1,1.39.27,92.84,92.84,0,0,1,15,61.47A1,1,0,0,1,312.21,154.11Zm-87.95-11.72L311.32,152A90.78,90.78,0,0,0,297.08,93.7Z" fill="#093f68"></path><path d="M287,99.25a79.13,79.13,0,0,1,12.82,52.49l-78.36-8.66Z" fill="#fcbb68"></path><path d="M299.79,152.74h-.11l-78.36-8.66a1,1,0,0,1-.45-1.82l65.55-43.83a1,1,0,0,1,.75-.15,1,1,0,0,1,.63.43,80.19,80.19,0,0,1,13,53.15,1.05,1.05,0,0,1-.37.67A1,1,0,0,1,299.79,152.74Zm-75.53-10.35,74.64,8.24a78.15,78.15,0,0,0-12.21-50Z" fill="#093f68"></path><path d="M196.32,151.05h-.15L106,137a1,1,0,1,1,.31-2l90.19,14a1,1,0,0,1,.08,2h-.21Z" fill="#093f68"></path><path d="M250.19,224.8a1,1,0,0,1-.81-.41L141.66,76.91a1,1,0,1,1,1.61-1.18L251,223.21a1,1,0,0,1-.81,1.59Z" fill="#093f68"></path><path d="M182.27,241.29l-.15,0a1,1,0,0,1-.84-1.14L209.4,59.68a1,1,0,1,1,2,.31L183.26,240.44A1,1,0,0,1,182.27,241.29Z" fill="#093f68"></path><path d="M122.59,204.92a1,1,0,0,1-.59-1.81l73.74-53.86a1,1,0,1,1,1.18,1.61l-73.74,53.87A1,1,0,0,1,122.59,204.92Z" fill="#093f68"></path><circle cx="146.48" cy="110.73" r="9.28" fill="#f56132"></circle><path d="M146.48,121a10.29,10.29,0,1,1,10.29-10.28A10.29,10.29,0,0,1,146.48,121Zm0-18.57a8.29,8.29,0,1,0,8.29,8.29A8.3,8.3,0,0,0,146.48,102.44Z" fill="#093f68"></path><circle cx="226.03" cy="99.25" r="9.28" fill="#f56132"></circle><path d="M226,109.54a10.29,10.29,0,1,1,10.29-10.29A10.3,10.3,0,0,1,226,109.54ZM226,91a8.29,8.29,0,1,0,8.29,8.28A8.28,8.28,0,0,0,226,91Z" fill="#093f68"></path><circle cx="205.84" cy="194.68" r="9.28" fill="#f56132"></circle><path d="M205.84,205a10.29,10.29,0,1,1,10.28-10.29A10.31,10.31,0,0,1,205.84,205Zm0-18.57a8.29,8.29,0,1,0,8.28,8.28A8.29,8.29,0,0,0,205.84,186.4Z" fill="#093f68"></path><circle cx="280.54" cy="122.71" r="9.28" fill="#f56132"></circle><path d="M280.54,133a10.28,10.28,0,1,1,10.29-10.28A10.29,10.29,0,0,1,280.54,133Zm0-18.56a8.28,8.28,0,1,0,8.29,8.28A8.29,8.29,0,0,0,280.54,114.43Z" fill="#093f68"></path><circle cx="170.68" cy="203.92" r="9.28" fill="#ffbc0e"></circle><path d="M170.68,214.21A10.29,10.29,0,1,1,181,203.92,10.3,10.3,0,0,1,170.68,214.21Zm0-18.57a8.29,8.29,0,1,0,8.29,8.28A8.29,8.29,0,0,0,170.68,195.64Z" fill="#093f68"></path><circle cx="165.79" cy="129.28" r="7.92" fill="#ffbc0e"></circle><path d="M165.79,138.2a8.93,8.93,0,1,1,8.92-8.92A8.93,8.93,0,0,1,165.79,138.2Zm0-15.85a6.93,6.93,0,1,0,6.92,6.93A6.94,6.94,0,0,0,165.79,122.35Z" fill="#093f68"></path><path d="M186.85,87.78c-5.24,0-9.49,6.6-9.49,9.71,0,2.55,2.84,2,6.74,1.67l-.41,8.76c-.17,3.74,6.49,3.74,6.31,0l-.4-8.76c3.89.3,6.73.88,6.73-1.67C196.33,94.38,192.09,87.78,186.85,87.78Z" fill="#fff"></path><path d="M186.85,111.73a4.82,4.82,0,0,1-2.43-.64,3.44,3.44,0,0,1-1.72-3.22l.35-7.62h-.17c-2.53.22-4.54.4-5.69-.66a2.72,2.72,0,0,1-.83-2.11c0-3.57,4.54-10.71,10.49-10.71s10.48,7.14,10.48,10.71a2.71,2.71,0,0,1-.82,2.11c-1.16,1.06-3.16.88-5.7.66h-.16l.35,7.62a3.46,3.46,0,0,1-1.72,3.22A4.85,4.85,0,0,1,186.85,111.73ZM184.1,98.16a1,1,0,0,1,.7.28,1,1,0,0,1,.3.77l-.41,8.75a1.45,1.45,0,0,0,.75,1.41,3,3,0,0,0,2.81,0A1.43,1.43,0,0,0,189,108l-.4-8.75a1,1,0,0,1,.3-.77,1,1,0,0,1,.77-.28l1.32.11c1.8.16,3.66.32,4.17-.14,0,0,.17-.17.17-.64,0-2.45-3.76-8.71-8.48-8.71s-8.49,6.26-8.49,8.71c0,.47.14.6.18.64.51.46,2.37.3,4.17.14l1.32-.11Z" fill="#093f68"></path><path d="M258.13,184.34c.61-5.2-5.45-10.19-8.54-10.55-2.52-.3-2.28,2.59-2.44,6.5l-8.65-1.43c-3.7-.61-4.47,6-.73,6.27l8.74.61c-.75,3.84-1.65,6.59.87,6.89C250.47,193,257.52,189.54,258.13,184.34Z" fill="#fff"></path><path d="M247.84,193.65a5.17,5.17,0,0,1-.57,0,2.7,2.7,0,0,1-2-1.06c-.92-1.27-.51-3.24,0-5.73a.85.85,0,0,1,0-.17l-7.61-.54a3.45,3.45,0,0,1-3-2.08,4.93,4.93,0,0,1,.57-4.83,3.43,3.43,0,0,1,3.39-1.33l7.53,1.23a1,1,0,0,1,0-.17c.07-2.54.13-4.55,1.32-5.57a2.73,2.73,0,0,1,2.19-.58c1.86.22,4.32,1.7,6.27,3.77,2.34,2.49,3.45,5.29,3.15,7.9C258.47,190.06,251.58,193.65,247.84,193.65ZM238,179.82a1.43,1.43,0,0,0-1.18.61,3,3,0,0,0-.32,2.79,1.44,1.44,0,0,0,1.31.91l8.74.62a1,1,0,0,1,.91,1.18c-.08.45-.17.88-.26,1.3-.37,1.77-.74,3.6-.34,4.15,0,.05.14.2.61.26,2.45.29,9.09-2.73,9.64-7.42.32-2.71-1.5-5.1-2.62-6.29a10,10,0,0,0-5-3.15c-.47-.05-.61.06-.66.1-.52.45-.57,2.32-.62,4.12,0,.43,0,.87,0,1.33a1,1,0,0,1-.37.73,1,1,0,0,1-.79.21l-8.65-1.42Z" fill="#093f68"></path><path d="M128.4,170.57c-.61-5.21,5.45-10.19,8.54-10.55,2.53-.3,2.28,2.59,2.44,6.49l8.65-1.42c3.7-.61,4.48,6,.74,6.26L140,172c.75,3.84,1.66,6.59-.87,6.89C136.06,179.22,129,175.77,128.4,170.57Z" fill="#fff"></path><path d="M138.69,179.88c-3.74,0-10.63-3.59-11.28-9.2h0c-.31-2.6.81-5.4,3.14-7.89,1.95-2.07,4.41-3.55,6.27-3.77a2.73,2.73,0,0,1,2.2.58c1.18,1,1.24,3,1.32,5.58v.16l7.53-1.24a3.45,3.45,0,0,1,3.39,1.34,4.93,4.93,0,0,1,.57,4.83,3.44,3.44,0,0,1-3,2.08l-7.61.54,0,.16c.52,2.5.92,4.46,0,5.73a2.71,2.71,0,0,1-2,1.07A5.35,5.35,0,0,1,138.69,179.88Zm-9.3-9.43c.55,4.69,7.2,7.7,9.65,7.41.46-.05.57-.2.61-.25.4-.55,0-2.38-.35-4.15-.08-.42-.17-.85-.26-1.3a1,1,0,0,1,.19-.8A1,1,0,0,1,140,171l8.75-.61a1.48,1.48,0,0,0,1.31-.91,3,3,0,0,0-.33-2.79,1.41,1.41,0,0,0-1.48-.58l-8.66,1.42a1,1,0,0,1-.79-.21,1,1,0,0,1-.37-.74c0-.45,0-.89,0-1.31-.06-1.81-.11-3.68-.63-4.13-.05,0-.18-.15-.65-.1a10.06,10.06,0,0,0-5.05,3.15c-1.11,1.19-2.94,3.58-2.62,6.29Z" fill="#093f68"></path><path d="M250.84,128.37c-3.05,2.47-2.42,8.31-1,10.12,1.2,1.49,2.58-.19,4.71-2.19l3.89,5.29c1.66,2.26,5.53-.87,3.67-3l-4.35-4.91c2.41-1.66,4.33-2.66,3.14-4.14C259.47,127.76,253.89,125.91,250.84,128.37Z" fill="#fff"></path><path d="M260,143.38a2.85,2.85,0,0,1-2.32-1.2l-3.21-4.37c-1.36,1.31-2.47,2.32-3.7,2.25a2.27,2.27,0,0,1-1.65-.94,9,9,0,0,1-1.44-5.46,7.81,7.81,0,0,1,2.54-6.07c3.58-2.88,9.77-.79,11.5,1.35a2.31,2.31,0,0,1,.57,1.82c-.19,1.23-1.41,2.08-3,3.14l3.6,4.06a2.83,2.83,0,0,1,.56,2.94,3.93,3.93,0,0,1-3,2.44A2.09,2.09,0,0,1,260,143.38Zm-5.4-8.08h.1a1,1,0,0,1,.71.4l3.88,5.3a.82.82,0,0,0,.86.36,1.94,1.94,0,0,0,1.44-1.16.82.82,0,0,0-.18-.91l-4.35-4.92a1,1,0,0,1,.18-1.48l.82-.56c.92-.62,2.19-1.47,2.25-1.87a.57.57,0,0,0-.14-.26c-1.11-1.38-6.05-3.18-8.69-1-1.51,1.22-1.78,3.37-1.8,4.55a7.29,7.29,0,0,0,1,4.17c.11.13.2.19.23.19.42,0,1.5-1,2.3-1.81l.72-.68A1,1,0,0,1,254.59,135.3Z" fill="#093f68"></path><path d="M219.53,127.86a1,1,0,0,1-.85-.48l-5.56-9a1,1,0,0,1,1.7-1l5.56,9a1,1,0,0,1-.33,1.38A1,1,0,0,1,219.53,127.86Z" fill="#093f68"></path><path d="M287.35,143.38a1,1,0,0,1-.33-.06l-12.79-4.57a1,1,0,0,1,.68-1.88l12.78,4.56a1,1,0,0,1-.34,1.95Z" fill="#093f68"></path><path d="M147.78,131.3H135.39a1,1,0,0,1,0-2h12.39a1,1,0,1,1,0,2Z" fill="#093f68"></path><path d="M168.42,184.21a1,1,0,0,1-.12-2l11.54-1.48a1,1,0,1,1,.25,2l-11.54,1.48Z" fill="#093f68"></path><path d="M199.87,178a.84.84,0,0,1-.35-.07,1,1,0,0,1-.59-1.28l2.82-7.55a1,1,0,0,1,1.28-.59,1,1,0,0,1,.59,1.29l-2.82,7.55A1,1,0,0,1,199.87,178Z" fill="#093f68"></path><path d="M226,212.86a1,1,0,0,1-.47-.12l-7.87-4.22a1,1,0,0,1,.95-1.77L226.5,211a1,1,0,0,1-.47,1.88Z" fill="#093f68"></path><path d="M196.55,222.43a1,1,0,0,1-.66-1.75l6.13-5.35a1,1,0,0,1,1.32,1.5l-6.13,5.35A1,1,0,0,1,196.55,222.43Z" fill="#093f68"></path><path d="M153.78,206.66a1,1,0,0,1-.74-.33l-6-6.76a1,1,0,1,1,1.49-1.33l6,6.76a1,1,0,0,1-.75,1.66Z" fill="#093f68"></path><path d="M188.89,126.5a1,1,0,0,1-.72-1.7l5.35-5.49a1,1,0,1,1,1.43,1.4l-5.35,5.48A1,1,0,0,1,188.89,126.5Z" fill="#093f68"></path><path d="M174.14,88.78H174c-5-.85-7.89-1.66-8.52-2.41A1,1,0,0,1,166.93,85c.65.44,4.31,1.26,7.37,1.77a1,1,0,0,1-.16,2ZM167,85.07h0Zm-.07-.06Z" fill="#093f68"></path><circle cx="229.3" cy="166.44" r="7.2" fill="#70cc40"></circle><path d="M229.3,174.64a8.2,8.2,0,1,1,8.21-8.2A8.21,8.21,0,0,1,229.3,174.64Zm0-14.4a6.2,6.2,0,1,0,6.21,6.2A6.21,6.21,0,0,0,229.3,160.24Z" fill="#093f68"></path><circle cx="170.18" cy="155.66" r="5.57" fill="#70cc40"></circle><path d="M170.18,162.24a6.58,6.58,0,1,1,6.57-6.58A6.59,6.59,0,0,1,170.18,162.24Zm0-11.15a4.58,4.58,0,1,0,4.57,4.57A4.58,4.58,0,0,0,170.18,151.09Z" fill="#093f68"></path><path d="M153.78,156.66a1,1,0,0,1-.41-.09l-8.54-3.92a1,1,0,1,1,.83-1.82l8.54,3.93a1,1,0,0,1-.42,1.9Z" fill="#093f68"></path><path d="M126.38,154.11a1,1,0,0,1-.76-.34,1,1,0,0,1,.1-1.41l5.63-4.89a1,1,0,1,1,1.32,1.51L127,153.87A1,1,0,0,1,126.38,154.11Z" fill="#093f68"></path><path d="M204.09,133a1,1,0,0,1-.66-.24,1,1,0,0,1-.09-1.42l4.5-5.13a1,1,0,1,1,1.51,1.31l-4.51,5.14A1,1,0,0,1,204.09,133Z" fill="#093f68"></path><path d="M222.1,84.19h-7a1,1,0,0,1,0-2h7a1,1,0,0,1,0,2Z" fill="#093f68"></path><path d="M191.56,81.65a1,1,0,0,1-.17-2l8.31-1.41a1,1,0,0,1,.33,2l-8.3,1.41Z" fill="#093f68"></path><path d="M252.8,168.2a1,1,0,0,1-.13-2l11.54-1.52a1,1,0,1,1,.26,2l-11.54,1.52Z" fill="#093f68"></path><path d="M211.69,161a1,1,0,0,1-.21-2l5.06-1.07a1,1,0,1,1,.41,2l-5,1.07A.75.75,0,0,1,211.69,161Z" fill="#093f68"></path><line x1="239.28" y1="196.65" x2="235.32" y2="188.49" fill="#fcbb68"></line><path d="M239.29,197.65a1,1,0,0,1-.91-.56l-4-8.16a1,1,0,1,1,1.79-.88l4,8.17a1,1,0,0,1-.46,1.33A1,1,0,0,1,239.29,197.65Z" fill="#093f68"></path></g></svg>