<?xml version="1.0" encoding="iso-8859-1"?>
<!-- Generator: Adobe Illustrator 19.0.0, SVG Export Plug-In . SVG Version: 6.00 Build 0)  -->
<svg version="1.1" id="Layer_1" xmlns="http://www.w3.org/2000/svg" xmlns:xlink="http://www.w3.org/1999/xlink" x="0px" y="0px"
	 viewBox="0 0 501.052 501.052" style="enable-background:new 0 0 501.052 501.052;" xml:space="preserve">
<path style="fill:#FFD15C;" d="M339.592,167.207c20.898,34.482-59.559,122.253-94.041,143.151
	c-34.482,20.898-80.457,10.449-101.355-24.033s-10.449-80.457,24.033-101.355C203.755,164.072,318.694,132.726,339.592,167.207z"/>
<path style="fill:#E2E2E2;" d="M396.016,132.726c2.09-6.269,2.09-13.584-2.09-20.898c-6.269-10.449-20.898-14.629-31.347-7.314
	c-10.449,6.269-14.629,20.898-7.314,31.347c0,1.045,1.045,1.045,2.09,2.09l-29.257,17.763c5.224,2.09,10.449,6.269,12.539,10.449
	c3.135,4.18,4.18,10.449,3.135,16.718l29.257-17.763c0,1.045,1.045,2.09,1.045,2.09c6.269,10.449,20.898,14.629,31.347,7.314
	c10.449-6.269,14.629-20.898,7.314-31.347C409.6,136.905,402.286,133.77,396.016,132.726z"/>
<path style="fill:#FF7058;" d="M111.804,400.219h216.294c54.335,0,100.31-42.841,100.31-97.175v-1.045
	c0-85.682-70.008-155.69-155.69-155.69S0,216.317,0,301.999c0,29.257,20.898,56.424,52.245,79.412
	C70.008,393.95,90.906,400.219,111.804,400.219z"/>
<path style="fill:#F1543F;" d="M424.229,207.958c20.898,34.482-59.559,122.253-94.041,143.151s-80.457,10.449-101.355-24.033
	s-10.449-80.457,24.033-101.355C288.392,204.824,403.331,173.477,424.229,207.958z"/>
<path style="fill:#E2E2E2;" d="M480.653,173.477c2.09-6.269,2.09-13.584-2.09-20.898c-6.269-10.449-20.898-14.629-31.347-7.314
	c-10.449,6.269-14.629,20.898-7.314,31.347c0,1.045,1.045,1.045,2.09,2.09l-29.257,17.763c5.224,2.09,10.449,6.269,12.539,10.449
	c3.135,4.18,4.18,10.449,3.135,16.718l29.257-17.763c0,1.045,1.045,2.09,1.045,2.09c6.269,10.449,20.898,14.629,31.347,7.314
	c10.449-6.269,14.629-20.898,7.314-31.347C494.237,178.701,487.967,174.521,480.653,173.477z"/>
<g>
</g>
<g>
</g>
<g>
</g>
<g>
</g>
<g>
</g>
<g>
</g>
<g>
</g>
<g>
</g>
<g>
</g>
<g>
</g>
<g>
</g>
<g>
</g>
<g>
</g>
<g>
</g>
<g>
</g>
</svg>
