<?xml version="1.0" encoding="iso-8859-1"?>
<!-- Generator: Adobe Illustrator 19.0.0, SVG Export Plug-In . SVG Version: 6.00 Build 0)  -->
<svg version="1.1" id="Layer_1" xmlns="http://www.w3.org/2000/svg" xmlns:xlink="http://www.w3.org/1999/xlink" x="0px" y="0px"
	 viewBox="0 0 126.33 126.33" style="enable-background:new 0 0 126.33 126.33;" xml:space="preserve">
<g>
	<g>
		<g>
			<path d="M67.146,58.112c-5.201-5.863-13.813-10.603-21.684-11.634c-4.495-0.589-8.798-0.068-13.017,0.951
				c-0.933,0.015-1.964,0.13-2.89,0.217c-0.24-0.521-0.623-0.567-1.326-0.305c-0.306,0.114-0.615,0.312-0.92,0.538
				c-3.667,0.569-7.525,2.354-10.588,4.205C9.237,56.61,5.344,64.245,3.975,72.63c-0.081,0.117-0.168,0.225-0.248,0.344
				c-0.101,0.15-0.002,0.324,0.139,0.396c-0.037,0.255-0.08,0.509-0.112,0.765c-0.707,5.585-2.608,10.753-3.581,16.21
				c-0.655,3.673,0.575,5.321,3.215,7.664c2.525,2.242,6.357,3.597,9.771,3.135c2.437-0.33,4.799-1.287,7.266-1.497
				c1.499-0.127,2.865,0.017,4.247,0.086c1.202,0.499,2.572,0.427,3.861,0.612c1.653,0.237,2.789,0.16,4.34-0.55
				c0.09-0.041,0.167-0.092,0.243-0.144c0.436,3.912-0.078,7.97-0.779,11.77c-0.528,2.867-1.113,5.247,0.611,7.801
				c0.569,0.842,1.312,1.639,2.159,2.279c-0.364,0.51-0.375,1.271,0.308,1.579c4.625,2.086,10.593,0.988,15.268-0.754
				c3.889-1.449,7.997-5.886,8.932-10.049c0.891-3.965-1.855-7.764-3.968-10.808c-1.194-1.721-2.142-3.469-2.939-5.395
				c0.323-0.114,0.633-0.251,0.904-0.371c0.19-0.084,0.399-0.183,0.61-0.291c0.352,0.307,0.875,0.438,1.322,0.179
				c1.791-1.033,3.819-1.292,5.7-2.091c2.135-0.907,4.051-2.284,5.918-3.639c2.793-2.029,6.451-4.343,6.684-8.136
				c0.265-4.319-2.574-8.468-3.065-12.715C70.315,64.981,69.903,61.219,67.146,58.112z M13.42,58.154
				c0.53-0.273,1.03-0.54,1.442-0.814c1.828-1.217,3.734-2.333,5.505-3.632c1.122-0.822,2.248-1.597,3.392-2.354
				c0.369-0.132,0.739-0.255,1.109-0.372c0.763-0.105,1.523-0.216,2.278-0.335c-1.415,1.083-2.907,2.094-4.414,3.005
				c-1.847,1.117-3.323,2.58-5.038,3.88c-2.269,1.719-5.385,3.303-7.641,5.392C10.97,61.199,12.095,59.606,13.42,58.154z
				 M6.838,75.879c1.398-1.078,2.738-2.294,4.015-3.573c-0.546,0.897-0.743,1.85,0.206,2.412c0.028,0.016,0.057,0.024,0.085,0.036
				c-1.242,1.439-2.477,2.909-3.585,4.432c-0.653,0.896-1.078,1.882-1.484,2.879C6.417,80.015,6.647,77.944,6.838,75.879z
				 M32.344,96.488c-0.263-0.062-0.546-0.072-0.851,0.035c-0.712,0.25-1.25,0.461-2.012,0.456c-0.207-0.001-0.41-0.02-0.615-0.036
				c-0.093-0.069-0.199-0.122-0.314-0.165c0.074-0.93,0.641-1.938,1.313-2.885c0.013,0.074,0.031,0.145,0.033,0.226
				c0.002,0.086,0.131,0.108,0.153,0.021c0.058-0.226,0.08-0.429,0.085-0.622c0.095-0.128,0.192-0.254,0.288-0.378
				c0.87,0.817,1.563,1.86,2.003,3.126C32.398,96.339,32.372,96.414,32.344,96.488z M26.365,85.869
				c-0.251,0.349-0.503,0.702-0.761,1.06c-0.485,0.672-1.033,1.334-1.587,2.002c-0.207-0.098-0.426-0.182-0.676-0.231
				c-0.998-0.193-1.867,0.072-2.809,0.412c-1.118,0.404-2.209,0.903-3.282,1.442c0.372-0.576,0.654-1.287,0.981-1.68
				c0.009-0.012,0.011-0.025,0.019-0.037c1.304-1.035,2.585-2.068,3.89-2.845c0.443-0.264,0.919-0.513,1.393-0.762
				C24.484,85.295,25.436,85.528,26.365,85.869z M25.645,84.203c0.218-0.097,0.432-0.197,0.655-0.293
				c0.048,0.029,0.104,0.051,0.177,0.049c0.451-0.01,0.909-0.042,1.363-0.039c-0.178,0.219-0.35,0.441-0.52,0.663
				C26.784,84.402,26.223,84.276,25.645,84.203z M23.636,91.017c1.292-0.131,2.567-0.008,3.745,0.363
				c-0.001,0.002-0.002,0.004-0.004,0.006c-0.34-0.036-0.683-0.051-1.009-0.05c-1.146,0.003-2.349,0.134-3.415,0.579
				C23.179,91.615,23.41,91.318,23.636,91.017z M25.087,89.102c0.248-0.327,0.494-0.658,0.744-0.983
				c0.478-0.621,0.896-1.279,1.324-1.932c0.903,0.392,1.776,0.867,2.598,1.369c-0.357,0.516-0.7,1.042-1.03,1.577
				C27.516,88.927,26.275,88.908,25.087,89.102z M35.441,82.963c0.27,0.314,0.527,0.631,0.772,0.957
				c-0.461,0.611-0.937,1.211-1.422,1.803c-0.459-0.505-1.05-0.93-1.532-1.198c0.596-0.676,1.208-1.339,1.835-1.989
				C35.206,82.675,35.318,82.819,35.441,82.963z M35.209,81c0.143-0.035,0.283-0.063,0.426-0.097
				c-0.084,0.081-0.165,0.166-0.248,0.248c-0.051-0.042-0.094-0.095-0.148-0.133C35.229,81.011,35.219,81.007,35.209,81z
				 M32.495,84.151c-1.041-0.455-2.124-0.697-3.227-0.809c0.208-0.267,0.423-0.537,0.645-0.803c1.154-0.392,2.318-0.747,3.482-1.065
				c0.147,0.039,0.292,0.082,0.411,0.111c0.314,0.077,0.544,0.224,0.75,0.396C33.851,82.688,33.164,83.411,32.495,84.151z
				 M31.329,85.029c0.093,0.036,0.193,0.078,0.291,0.118c-0.44,0.518-0.868,1.046-1.277,1.591c-0.57-0.822-1.361-1.426-2.268-1.852
				c0.066-0.085,0.125-0.174,0.194-0.258c0.143-0.175,0.31-0.391,0.486-0.62c0.12,0.022,0.241,0.035,0.359,0.069
				C29.876,84.296,30.586,84.742,31.329,85.029z M28.544,83.091c-0.055,0.061-0.104,0.124-0.158,0.186
				c-0.161-0.007-0.322-0.011-0.483-0.014c0.242-0.093,0.483-0.184,0.728-0.274C28.602,83.023,28.574,83.058,28.544,83.091z
				 M30.634,87.888c0.075-0.054,0.135-0.129,0.151-0.226c0.138-0.2,0.261-0.409,0.405-0.605c0.389-0.53,0.808-1.036,1.227-1.542
				c0.589,0.303,1.165,0.69,1.582,1.182c-0.312,0.383-0.625,0.766-0.929,1.159c-0.539,0.696-1.043,1.42-1.541,2.149
				c-0.586-0.281-1.209-0.498-1.849-0.667C29.983,88.845,30.31,88.367,30.634,87.888z M55.698,92.29
				c-0.081-0.085-0.165-0.168-0.273-0.235c-0.481-0.298-1.024-0.317-1.56-0.19c1.326-0.785,1.847-2.353,3.152-3.199
				c0.192-0.125,0.847-0.512,1.461-0.82c-0.405,0.595,0.565,1.14,0.991,0.562c0.28-0.379,0.557-0.728,0.905-1.046
				c0.231-0.211,0.235-0.643,0-0.852c-0.855-0.763-2.693,0.361-3.519,0.762c-1.726,0.838-2.723,2.583-3.737,4.139
				c-0.177,0.272,0.026,0.543,0.284,0.599c-0.586,0.231-1.138,0.607-1.55,0.978c-0.04,0.035-0.081,0.076-0.121,0.114
				c-0.329-1.767-0.034-3.151,0.603-4.473c0.445-0.274,0.954-0.472,1.406-0.747c0.749-0.456,1.356-1.095,2.041-1.634
				c1.295-1.019,4.354-3.513,6-2.294c0.369,0.273,0.747-0.297,0.469-0.607c-1.734-1.934-4.406,0.029-6.075,1.102
				c-0.8,0.515-1.539,1.097-2.289,1.665c0.414-0.588,0.858-1.2,1.313-1.864c0.142-0.207-0.145-0.503-0.353-0.353
				c-5.818,4.21-7.718,10.768-3.739,17.13c2.9,4.636,7.138,8.541,2.973,13.924c-3.111,4.021-8.903,5.406-14.199,5.86
				c-0.079-0.095-0.167-0.186-0.278-0.263c-1.264-0.877-2.172-1.726-2.804-2.692c0.706-2.669,2.023-5.324,3.455-7.534
				c0.973-1.503,2.017-2.956,2.956-4.482c0.882-1.431,1.498-3.244,2.519-4.572c0.201-0.261-0.255-0.617-0.46-0.355
				c-1.169,1.49-1.894,3.348-2.93,4.947c-1.183,1.827-2.546,3.538-3.679,5.396c-0.856,1.404-1.925,3.268-2.562,5.153
				c-0.371-1.109-0.492-2.402-0.384-4.055c0.076-1.168,0.278-2.315,0.481-3.463c0.094,0.286,0.326,0.48,0.782,0.495
				c0.286,0.009,0.33-0.351,0.134-0.495c-1.62-1.189,6.558-11.348,7.122-12.121c0.227-0.311-0.286-0.6-0.513-0.3
				c-2.353,3.12-4.843,6.108-6.678,9.58c-0.126,0.238-0.368,0.688-0.571,1.181c0.124-0.81,0.222-1.625,0.248-2.454
				c0.646-0.676,0.865-1.426,1.294-2.265c0.626-1.223,1.576-2.219,2.282-3.39c0.664-1.101,1.038-2.341,1.685-3.454
				c0.757-1.303,1.618-2.521,2.306-3.866c0.21-0.41-0.404-0.774-0.621-0.363c-1.221,2.317-2.604,4.589-3.872,6.877
				c-0.631,1.138-1.591,2.072-2.204,3.216c-0.336,0.628-0.56,1.296-0.84,1.941c0.022-1.413,0.001-3.009-0.139-4.577
				c0.258-0.669,0.496-1.352,0.765-2.032c1.146-2.894,2.591-5.739,3.89-8.574c0.179-0.39-0.399-0.732-0.58-0.339
				c-1.181,2.561-2.38,5.118-3.549,7.682c-0.26,0.569-0.489,1.145-0.713,1.721c-0.209-1.373-0.535-2.666-1.054-3.71
				c-0.061-0.122-0.14-0.23-0.207-0.348c0.301-0.531,0.608-1.06,0.924-1.584c1.147-1.903,2.635-3.847,3.296-5.98
				c0.163-0.527-0.625-0.723-0.814-0.224c-0.931,2.459-2.568,4.625-4.026,6.869c-0.593-0.748-1.312-1.386-2.134-1.891
				c0.679-0.961,1.395-1.897,2.12-2.827c0.008,0.027,0.022,0.05,0.029,0.077c0.086,0.346,0.627,0.442,0.792,0.104
				c0.207-0.422,0.167-0.843,0.005-1.245c0.476-0.615,0.947-1.234,1.401-1.863c0.256,0.443,0.488,0.886,0.893,1.215
				c0.284,0.231,0.809,0.109,0.787-0.326c-0.038-0.74-0.392-1.45-0.846-2.087c0.261-0.393,0.515-0.791,0.756-1.196
				c0.284-0.476-0.456-0.907-0.742-0.434c-0.187,0.31-0.398,0.601-0.6,0.898c-0.153-0.173-0.306-0.34-0.457-0.494
				c-0.202-0.207-0.398-0.43-0.602-0.646c0.353-0.358,0.704-0.716,1.06-1.07c0.483-0.103,0.95-0.19,1.419-0.278
				c0.017,0.007,0.031,0.02,0.05,0.022c1.067,0.133,1.254,2.04,1.271,2.786c0.011,0.505,0.081,0.9,0.366,1.317
				c0.198,0.29,0.358,0.699,0.623,0.923c0.089,0.075,0.212,0.13,0.331,0.087c0.036-0.013,0.073-0.026,0.109-0.039
				c0.262-0.094,0.391-0.281,0.419-0.551c0.072-0.672-0.457-1.095-0.525-1.737c-0.075-0.711-0.116-1.286-0.435-1.942
				c-0.206-0.424-0.485-0.839-0.825-1.114c1.74-0.285,3.489-0.495,5.244-0.62c-0.106,0.203-0.202,0.416-0.289,0.641
				c-0.223,0.579-0.378,1.141-0.739,1.659c-0.268,0.385-0.621,0.695-0.85,1.109c-0.443,0.801-0.788,3.6,0.889,3.09
				c0.185-0.056,0.339-0.314,0.201-0.493c-0.773-1.006,0.087-2.122,0.697-2.956c0.574-0.785,0.69-2.134,1.323-2.891
				c0.25,0.087,0.544-0.025,0.665-0.26c1.313-0.048,2.628-0.044,3.943,0.01c-0.935,0.597-1.778,1.433-2.532,2.105
				c-1.373,1.224-2.685,3.347-2.229,5.255c0.084,0.353,0.586,0.323,0.686,0c0.513-1.676,1.012-3.231,2.357-4.442
				c1.191-1.073,2.584-2.689,4.3-2.649c0.116,0.003,0.203-0.031,0.277-0.078c0.68,0.067,1.383,0.135,2.096,0.211
				c-3.235,0.408-5.712,2.41-8.163,5.073c-0.359,0.39,0.186,0.931,0.58,0.58c1.444-1.287,2.87-2.667,4.59-3.583
				c1.923-1.025,4.092-1.063,6.194-1.439c0.093-0.017,0.142-0.087,0.169-0.168c1.235,0.22,2.446,0.509,3.569,0.92
				c1.625,0.595,2.475,1.661,4.188,1.691c0.168,0.003,0.297-0.243,0.149-0.36c-3.777-2.97-7.105-5.201-12.089-6.055
				c-4.903-0.84-9.903-0.477-14.79,0.374c-5.652,0.984-11.25,3.164-16.487,5.474c-5.095,2.248-8.518,6.461-12.425,10.215
				c-0.147,0.141,0.005,0.38,0.194,0.333c1.818-0.453,3.493-1.515,5.109-2.724c-0.218,0.307-0.473,0.578-0.822,0.759
				c-0.208,0.108-0.184,0.352-0.048,0.49c-1.167,0.657-2.305,1.363-3.391,2.115c-0.177,0.123-0.073,0.413,0.151,0.357
				c2.792-0.703,5.261-2.285,7.927-3.331c0.63-0.247,1.178-0.366,1.718-0.394c-0.683,0.371-1.312,0.826-1.845,1.387
				c-0.176,0.185,0.045,0.422,0.256,0.331c0.527-0.226,1.066-0.398,1.608-0.534c-0.319,0.46-0.604,0.935-0.857,1.423
				c-1.661,0.867-3.406,1.955-4.575,3.21c-0.234,0.252,0.064,0.668,0.374,0.485c1.224-0.724,2.532-1.199,3.79-1.847
				c1.259-0.648,2.308-1.519,3.721-1.825c0.467-0.101,1.255-0.218,2.08-0.236c-0.622,0.993-1.223,1.911-1.075,3.142
				c0.04,0.333,0.567,0.485,0.645,0.087c0.217-1.116,0.833-2.178,1.463-3.191c0.647,0.07,1.236,0.243,1.635,0.57
				c-0.623,0.85-1.626,2.26-1.825,3.49c-3.184-0.569-6.097-0.972-9.339-0.356c-4.365,0.829-8.963,2.269-12.571-1.287
				c-3.013-2.969-1.226-5.675-0.331-9.214c0.063-0.248,0.116-0.499,0.174-0.748c1.161-1.315,1.493-3.04,2.425-4.533
				c1.457-2.333,3.517-4.534,5.332-6.606c3.558-4.063,7.364-7.935,11.022-11.911c0.37-0.403-0.228-1.005-0.602-0.602
				c-2.991,3.214-6.111,6.336-9.09,9.57c-0.044-0.217-0.126-0.427-0.288-0.589c-0.411-0.411-0.938-0.39-1.391-0.146
				c0.471-0.515,0.935-1.031,1.386-1.544c2.676-3.051,5.612-5.827,8.467-8.708c0.362-0.365-0.196-0.922-0.563-0.563
				c-2.906,2.833-5.886,5.553-8.585,8.59c-0.229,0.258-0.471,0.508-0.712,0.758c0.043-0.101,0.086-0.201,0.102-0.324
				c0.105-0.826,1.322-1.576,1.864-2.154c0.545-0.581,1.387-1.325,1.065-2.213c-0.091-0.25-0.429-0.481-0.689-0.28
				c-1.556,1.201-4.441,2.259-4.343,4.647c0.036,0.884,0.809,1.169,1.411,0.924c-1.753,1.734-3.686,3.34-5.34,5.149
				c0.027-0.314,0.055-0.628,0.081-0.941c0.111-1.297,0.304-2.552,0.563-3.772c0.187-0.22,0.377-0.438,0.574-0.65
				c1.56-1.681,3.505-2.949,5.27-4.399c1.844-1.515,3.645-3.093,5.341-4.773c1.694-1.678,3.611-3.007,5.442-4.518
				c0.371-0.306-0.157-0.818-0.525-0.525c-1.744,1.39-3.596,2.566-5.209,4.116c-1.831,1.761-3.732,3.444-5.707,5.043
				c-1.645,1.332-3.265,2.633-4.778,4.039c0.296-1.068,0.654-2.102,1.072-3.099c3.322-2.572,6.905-4.821,10.139-7.506
				c3.004-2.493,6.348-4.541,9.344-7.047c0.046-0.008,0.093-0.015,0.138-0.023c4.849-0.926,9.182-1.328,14.091-0.773
				c7.06,0.797,15.132,4.091,20.027,9.353c1.482,1.592,2.731,2.907,3.488,4.987c0.855,2.347,0.549,4.863,0.931,7.268
				c0.455,2.864,2.363,5.525,2.529,8.388C70.231,87.389,60.58,88.418,55.698,92.29z"/>
			<path d="M123.416,85.433c-2.298-3.174-2.48-6.722-4.052-10.224c-1.237-2.756-3.106-5.266-5.404-7.204
				c-1.886-1.591-3.593-2.646-5.891-3.179c-4.379-2.035-11.008,0.794-14.358,3.613c-1.06,0.892-2.042,1.86-2.979,2.874
				c0.509-3.231,0.284-6.692,0.167-9.745c-0.104-2.711-0.547-5.406-1.013-8.093c-0.549-3.165-1.844-5.983-2.683-9.003
				c0.176-0.036,0.354-0.058,0.53-0.096c1.755-0.385,3.686-0.716,5.637-1.102c0.542,0.843,2.128,0.885,2.36-0.309
				c-0.154,0.796,6.061-1.039,6.679-1.245c2.039-0.68,4.382-1.159,6.343-2.042c2.684-1.208,5.538-3.444,7.267-5.847
				c5.177-7.193-1.12-12.269-6.007-17.112c-3.103-3.075-5.476-6.242-9.289-8.52c-3.992-2.384-7.858-4.304-12.467-5.181
				c-4.033-0.767-8.897-1.147-13.597-0.74c-3.633-0.487-7.692,1.009-10.943,2.253c-1.615,0.618-3.195,1.352-4.733,2.17
				c-1.075,0.428-2.15,0.855-3.235,1.253c-1.017,0.373-2.666,0.501-3.507,1.243c-0.77,0.679-0.792,1.37,0.167,1.667
				c0.32,0.099,0.429-0.369,0.135-0.49c-0.811-0.333,2.412-1.396,2.517-1.428c0.125-0.038,0.247-0.091,0.372-0.133
				c-2.463,1.638-4.754,3.531-6.782,5.65c-1.795,1.876-3.421,3.842-5.024,5.818c-0.085,0.053-0.178,0.097-0.259,0.153
				c-0.091,0.063-0.11,0.176-0.08,0.266c-1.671,2.065-3.338,4.127-5.144,6.105c-0.077,0.027-0.153,0.057-0.23,0.084
				c-0.166,0.059-0.19,0.205-0.135,0.319c-0.646,0.695-1.307,1.381-2.001,2.048c-2.843,2.733-4.763,7.049-1.647,10.25
				c1.605,1.648,3.605,2.374,5.795,2.836c3.012,0.636,6.032,1.606,9.077,2.013c6.532,0.873,13.498,1.106,20.095,1.138
				c1.541,0.007,3.089,0.024,4.639,0.026c0.307,1.427,0.755,2.825,1.219,4.207c1.29,3.839,2.174,7.678,3.022,11.6
				c1.518,7.021,2.236,14.615,2.096,21.794c-0.003,0.172,0.042,0.323,0.117,0.451c-3.116,3.001-2.175,5.482,0.177,7.47
				c-0.941,2.424-1.636,4.85-2.369,7.349c-1.144,3.904-3.018,7.641-3.835,11.651c-0.83,4.072-0.042,9.023,4.823,9.697
				c4.54,0.628,5.972-2.994,6.85-6.814c1.167-5.076,3.899-12.649,2.56-17.967c2.169,0.512,4.386,0.699,6.798,0.918
				c0.884,0.08,1.774,0.144,2.664,0.209c-0.057,1.229-0.235,2.416-0.481,3.582c-0.238,0.258-0.451,0.53-0.612,0.83
				c-0.13,0.241,0.137,0.425,0.343,0.307c-0.924,3.605-2.529,7.019-3.991,10.653c-1.341,3.334,0.707,6.664,4.098,7.881
				c10.006,3.592,9.929-16.433,9.591-21.598c2.663,0.275,5.249,0.29,8.132,0.181c2.6-0.098,6.22-0.071,8.529-1.426
				C128.427,93.585,125.957,88.943,123.416,85.433z M102.244,66.474c0.012,0.001,0.023,0.003,0.035,0.004
				c-0.345,0.233-0.799,0.349-1.285,0.419C101.407,66.745,101.822,66.595,102.244,66.474z M40.101,30.037
				c1.648-1.576,2.91-3.185,4.079-4.858c0.403-0.171,0.802-0.336,1.192-0.483c1.563-0.586,3.14-1.135,4.721-1.673
				c-0.135,0.142-0.252,0.298-0.32,0.486c-0.157,0.254-0.272,0.533-0.325,0.827c-0.011,0.063,0.002,0.115,0,0.174
				c-0.918-0.155-1.973-0.3-2.601,0.48c-0.367,0.456-0.265,0.942,0.036,1.227c-0.06,0.039-0.122,0.073-0.181,0.113
				c-1.979,1.308-4.098,2.393-6.175,3.534c-0.197,0.108-0.39,0.209-0.579,0.31C40,30.128,40.054,30.081,40.101,30.037z
				 M61.82,41.293c-1.899-0.154-3.843-0.17-5.793-0.197c1.212-0.726,2.307-1.722,3.466-2.471c2.206-1.426,4.454-2.773,6.699-4.137
				c0.468-0.284,0.04-1.021-0.43-0.735c-2.125,1.289-4.295,2.514-6.36,3.899c-1.558,1.045-2.878,2.4-4.443,3.425
				c-2.484-0.046-4.962-0.163-7.361-0.642c0.71,0.126,3.355-1.853,4.167-2.212c1.356-0.599,2.67-1.203,3.967-1.928
				c2.936-1.64,5.892-2.944,8.929-4.357c0.429-0.2,0.056-0.829-0.371-0.634c-1.431,0.655-2.942,1.098-4.362,1.776
				c-1.863,0.89-3.61,2.024-5.435,2.987c-2.477,1.308-5.604,2.01-7.452,4.24c-0.342-0.077-0.686-0.141-1.024-0.236
				c-1.363-0.381-2.752-0.613-4.128-0.899c1.383-0.922,3.056-1.361,4.506-2.182c2.016-1.143,3.852-2.393,6.005-3.298
				c4.166-1.752,8.223-3.726,12.266-5.744c0.437-0.218,0.054-0.869-0.382-0.654c-4.449,2.188-8.978,4.121-13.492,6.16
				c-1.969,0.889-3.661,2.243-5.584,3.211c-1.384,0.696-2.82,1.129-3.926,2.263c-0.028,0.029-0.028,0.066-0.039,0.101
				c-0.354-0.08-0.709-0.158-1.059-0.252c-1.826-0.493-2.909-1.271-3.313-2.328c0.526-0.43,1.505-0.679,2.048-0.947
				c1.179-0.582,2.231-1.337,3.445-1.858c1.947-0.835,3.627-1.88,5.489-2.871c4.276-2.274,9.041-3.493,13.261-5.915
				c0.308-0.177,0.037-0.626-0.276-0.472c-3.804,1.865-8.043,3.113-11.881,4.979c-0.089-0.257-0.315-0.469-0.681-0.494
				c-0.702-0.048-1.372,0.088-2.007,0.397c-0.268,0.131-0.268,0.578,0,0.708c0.301,0.147,0.608,0.251,0.922,0.318
				c-0.329,0.186-0.663,0.364-0.982,0.565c-2.018,1.265-4.264,1.964-6.298,3.197c-0.897,0.544-2.408,0.999-3.184,1.853
				c-0.159-0.998,0.187-2.207,1.008-3.63c0.167-0.29,0.443-0.584,0.755-0.871c-0.108,0.205-0.19,0.435-0.227,0.715
				c-0.023,0.175,0.251,0.287,0.36,0.149c1.084-1.373,3.186-2.088,4.694-2.904c1.675-0.906,3.239-1.931,4.846-2.948
				c0.01-0.007,0.022-0.013,0.033-0.019c0.124,0.036,0.254,0.068,0.366,0.107c0.393,0.138,0.784,0.214,1.204,0.197
				c0.527-0.021,0.984-0.389,1.047-0.925c0.007-0.057-0.007-0.121-0.01-0.182c0.281-0.085,0.533-0.439,0.675-0.801
				c0.021-0.009,0.033-0.175,0.052-0.175c0.002,0,0.004,0,0.006,0c-0.002,0,0.04,0.156,0.045,0.152
				c0.068-0.002,0.136,0.071,0.204,0.073c0.263,0.006,0.525,0.077,0.785,0.006c0.397-0.109,0.626-0.376,0.866-0.688
				c0.111-0.144,0.161-0.344,0.158-0.553c2.169-0.946,4.399-1.783,6.489-2.599c0.486-0.19,0.277-0.979-0.218-0.789
				c-2.165,0.831-4.402,1.681-6.589,2.636c-0.266-0.318-0.585-0.534-1.037-0.561c0.626-0.211,1.252-0.422,1.878-0.634
				c2.627-0.889,5.269-1.631,7.933-2.389c2.803-0.797,5.271-2.45,7.949-3.564c0.109-0.045,0.064-0.225-0.05-0.181
				c-2.571,0.993-4.969,2.443-7.638,3.174c-2.804,0.768-5.595,1.428-8.366,2.335c-3.106,1.017-6.158,2.164-9.205,3.317
				c1-1.478,1.966-3.006,3.088-4.613c0.045-0.064,0.095-0.129,0.141-0.193c1.073-0.3,2.142-0.618,3.194-1.025
				c2.626-1.017,5.184-2.192,7.88-3.021c2.774-0.853,5.57-1.633,8.344-2.489c2.521-0.778,5.479-2.407,8.088-2.586
				c0.394-0.027,0.398-0.643,0-0.617c-2.413,0.155-4.671,1.501-6.964,2.191c-3.066,0.922-6.141,1.8-9.212,2.705
				c-2.853,0.841-5.557,2.054-8.328,3.12c-0.691,0.266-1.45,0.475-2.226,0.674c1.077-1.4,2.315-2.79,3.68-4.125
				c3.525-1.123,7.074-2.111,10.62-3.211c3.729-1.156,8.52-1.865,11.658-4.316c0.287-0.224-0.096-0.727-0.393-0.509
				c-1.855,1.363-4.654,2.071-6.852,2.77c-2.08,0.662-4.206,1.176-6.295,1.812c-2.259,0.688-4.689,1.143-7.006,1.849
				c3.337-2.923,7.263-5.464,11.384-7.081c5.521-1.214,12.265-0.291,17.698,0.048c7.589,0.473,16.035,4.138,21.033,9.992
				c4.148,4.859,14.433,11.249,7.008,17.642c-2.739,2.359-6.397,3.957-10.096,5.261c-1.481,0.176-3.069,0.047-4.493,0.206
				c-1.872,0.209-3.678,0.703-5.531,1.038c-4.697,0.848-9.29,1.691-14.084,1.824C71.949,41.845,66.908,41.706,61.82,41.293z
				 M76.288,45.502c0.66-0.01,1.319-0.027,1.978-0.051c-0.179,0.213-0.362,0.424-0.534,0.638c-0.238,0.298-0.524,0.598-0.816,0.9
				C76.717,46.48,76.511,45.979,76.288,45.502z M77.814,49.527c-0.184-0.573-0.378-1.145-0.583-1.71
				c0.068-0.071,0.136-0.142,0.199-0.217c0.537-0.638,0.987-1.341,1.533-1.975c0.063-0.073,0.128-0.144,0.19-0.218
				c1.46-0.07,2.916-0.184,4.364-0.355c-1.628,1.422-3.33,2.768-5.082,4.033C78.223,49.238,78.015,49.382,77.814,49.527z
				 M78.044,50.252c0.756-0.678,1.692-1.23,2.442-1.808c1.279-0.986,2.531-2.003,3.737-3.078c0.14-0.125,0.131-0.281,0.054-0.401
				c0.013-0.002,0.026-0.003,0.039-0.004c0.288,0.999,0.649,1.969,1.011,2.94c-0.015,0.008-0.031,0.012-0.046,0.024
				c-1.178,0.923-2.364,1.819-3.581,2.688c-0.972,0.693-2.044,1.359-2.875,2.223C78.579,52.015,78.32,51.142,78.044,50.252z
				 M80.119,57.668c0.802-0.009,0.795-0.089-0.021-0.097c-0.27-1.228-0.57-2.447-0.942-3.643c-0.049-0.159-0.1-0.329-0.15-0.494
				c0.042-0.005,0.085-0.018,0.128-0.045c1.208-0.767,2.307-1.745,3.458-2.6c1.004-0.746,2.016-1.498,2.935-2.35
				c0.457,1.231,0.895,2.471,1.171,3.777c0.604,2.861,1.115,5.886,1.413,8.799c0.473,4.624,0.037,9.057-0.209,13.611
				c-1.605,1.988-3.159,4.029-4.841,5.946c-0.012-0.764-0.111-1.567-0.154-2.343c-0.265-4.813-1.342-9.437-1.796-14.205
				C80.908,61.896,80.575,59.767,80.119,57.668z M91.181,80.671c-2.131,0.727-4.064,1.802-6.055,2.777
				c0.651-0.806,1.271-1.652,1.835-2.497c1.38,0.062,2.75-0.449,4.098-1.1C90.99,80.129,91.032,80.427,91.181,80.671z
				 M79.867,116.63c-2.168-0.671-2.98-3.853-2.638-5.744c0.201-1.111,0.554-2.223,0.871-3.307c0.704-2.406,1.69-4.749,2.348-7.161
				c0.697-2.555,1.135-5.777,0.954-8.595c0.892,0.616,1.895,1.18,2.923,1.689c0.789,0.39,1.573,0.697,2.358,0.957
				C85.43,98.135,84.068,117.93,79.867,116.63z M103.384,105.589c-0.033,2.389-0.172,4.859-0.922,7.152
				c-0.48,2.735-2.399,3.573-5.758,2.515c-0.615-1.774-0.489-3.358,0.378-4.752c0.892-2.568,1.943-4.732,2.147-7.508
				c0.103-1.395,0.033-2.642-0.109-3.851c0.541-0.418,1.087-0.83,1.607-1.274c0.348-0.298-0.156-0.798-0.503-0.503
				c-0.368,0.314-0.792,0.618-1.219,0.929c-0.105-0.714-0.223-1.426-0.352-2.151c1.278,0.088,2.559,0.166,3.842,0.239
				c-0.115,0.286-0.001,0.685,0.338,0.753c0.45,0.091,0.891,0.169,1.33,0.243C103.159,100.199,103.424,102.642,103.384,105.589z
				 M117.952,94.023c-2.354,0.318-4.685,0.602-7.014,0.9c-0.09-0.134-0.2-0.257-0.353-0.346c-5.03-2.919-10.647-1.922-16.19-2.501
				c-3.411-0.356-6.186-0.604-9.192-2.235c2.681-1.846,5.597-3.366,8.43-4.952c0.352-0.197,0.038-0.731-0.315-0.54
				c-2.997,1.622-6.031,3.152-8.737,5.188c-0.978-0.395-2.175-0.334-2.599-1.696c-0.499-1.602,0.776-1.798,1.756-2.799
				c0.93-0.333,1.796-0.836,2.682-1.346c1.843-1.061,3.68-1.871,5.711-2.522c0.052-0.017,0.105-0.033,0.157-0.05
				c0.749,0.032,1.775,0.096,2.226-0.467c0.077-0.097,0.129-0.195,0.163-0.295c2.911-0.936,5.783-1.933,8.479-3.433
				c0.404-0.225,0.042-0.846-0.363-0.621c-2.617,1.456-5.428,2.407-8.265,3.298c-0.007-0.009-0.008-0.017-0.015-0.026
				c-0.404-0.505-1.265-0.506-1.98-0.477c1.118-0.577,2.218-1.13,3.293-1.39c1.903-0.46,3.55-1.158,5.331-1.946
				c1.322-0.585,3.006-0.856,4.063-1.903c0.319-0.316-0.166-0.797-0.492-0.492c-1.035,0.971-3.009,1.326-4.326,1.905
				c-1.82,0.8-3.551,1.296-5.46,1.815c-2.595,0.705-4.828,2.099-7.369,2.914c0.007-0.011,0.015-0.023,0.022-0.034
				c0.961-1.549,1.974-2.808,3.099-4.137c1.285-0.385,2.594-0.698,3.872-1.113c3.331-1.08,6.667-2.247,9.94-3.488
				c0.143-0.054,0.089-0.274-0.064-0.234c-4.343,1.144-8.739,2.448-13.007,3.966c0.089-0.104,0.172-0.202,0.262-0.308
				c0.467-0.547,0.877-1.113,1.275-1.676c4.258-1.419,8.64-2.665,12.652-4.609c0.345-0.167,0.044-0.675-0.3-0.513
				c-3.614,1.705-7.649,2.524-11.439,3.845c0.719-0.964,1.51-1.864,2.622-2.572c0.643-0.409,1.381-0.823,2.157-1.218
				c0.068-0.021,0.132-0.049,0.201-0.069c1.282-0.381,2.727-0.175,3.767-1.073c0.083-0.072,0.071-0.174,0.025-0.258
				c3.536,0.388,6.212,0.778,9.235,3.834c3.937,3.979,4.637,8.804,6.369,13.843c0.5,1.453,1.228,2.313,2.147,3.497
				c0.53,0.682,1.38,1.364,1.571,2.261C122.614,92.92,120.115,93.731,117.952,94.023z"/>
			<path d="M92.043,82.065l-0.16,0.124c0.163-0.137,0.161-0.161-0.006-0.071c-0.104,0.031-0.172,0.09-0.264,0.138
				c-0.153,0.079-0.301,0.172-0.456,0.248c0.028-0.013-0.318,0.128-0.385,0.151c-0.164,0.057-0.334,0.094-0.499,0.147
				c-0.339,0.109-0.706,0.26-1.02,0.433c-0.286,0.158-0.293,0.613,0,0.769c0.672,0.356,1.391,0.64,2.168,0.623
				c1.114-0.025,2.301-0.993,1.747-2.184C92.94,81.956,92.503,81.899,92.043,82.065z"/>
			<path d="M9.43,83.822c0.879-1.077,1.6-2.355,2.426-3.473c1.515-2.05,3.204-3.745,4.861-5.662
				c1.622-1.877,2.603-4.182,4.569-5.758c0.441-0.354-0.182-0.96-0.619-0.619c-1.638,1.278-2.5,2.923-3.718,4.563
				c-1.395,1.879-3.314,3.241-4.677,5.141c-1.435,2.001-2.794,4.127-4.404,5.977c-1.183,1.358-1.548,3.994-3.01,4.927
				c-0.216,0.138-0.082,0.511,0.181,0.428c1.391-0.438,1.74-1.885,2.368-3.049C7.937,85.314,8.736,84.672,9.43,83.822z"/>
			<path d="M24.333,68.976c-3.915,4.014-7.763,8.019-11.298,12.372c-1.591,1.959-3.177,4.038-4.396,6.253
				c-0.853,1.551-2.202,3.252-1.953,5.099c0.049,0.367,0.553,0.222,0.591-0.08c0.253-2.007,2.247-4.756,3.347-6.418
				c1.441-2.177,3.061-4.254,4.815-6.183c3.164-3.48,6.003-7.265,9.181-10.756C24.795,69.071,24.516,68.788,24.333,68.976z"/>
			<path d="M21.128,75.772c-2.442,2.429-4.179,5.465-6.402,8.086c-1.703,2.007-2.884,4.074-3.051,6.762
				c-0.021,0.342,0.505,0.403,0.591,0.08c0.857-3.223,2.561-5.258,4.587-7.82c1.688-2.133,3.034-4.478,4.971-6.412
				C22.273,76.02,21.578,75.324,21.128,75.772z"/>
			<path d="M61.519,39.62c-0.012,0.276-0.137,0.519-0.316,0.727c-0.276,0.319,0.073,0.843,0.469,0.607
				c0.517-0.308,0.735-0.736,0.762-1.334C62.46,39.032,61.545,39.033,61.519,39.62z"/>
		</g>
	</g>
</g>
<g>
</g>
<g>
</g>
<g>
</g>
<g>
</g>
<g>
</g>
<g>
</g>
<g>
</g>
<g>
</g>
<g>
</g>
<g>
</g>
<g>
</g>
<g>
</g>
<g>
</g>
<g>
</g>
<g>
</g>
</svg>
