<?xml version="1.0" encoding="iso-8859-1"?>
<!-- Generator: Adobe Illustrator 19.0.0, SVG Export Plug-In . SVG Version: 6.00 Build 0)  -->
<svg version="1.1" id="Layer_1" xmlns="http://www.w3.org/2000/svg" xmlns:xlink="http://www.w3.org/1999/xlink" x="0px" y="0px"
	 viewBox="0 0 512 512" style="enable-background:new 0 0 512 512;" xml:space="preserve">
<path style="fill:#DE2A4E;" d="M183.493,237.491c-52.216,0-94.545,42.329-94.545,94.545s42.329,94.546,94.545,94.546h233.962
	c52.215,0,94.545-42.329,94.545-94.546c0-52.215-42.329-94.545-94.545-94.545H183.493z"/>
<path style="opacity:0.15;enable-background:new    ;" d="M215.093,318.837h-75.418c-4.513,0-8.17-3.658-8.17-8.17
	c0-4.512,3.657-8.17,8.17-8.17h75.418c4.513,0,8.17,3.658,8.17,8.17C223.264,315.179,219.607,318.837,215.093,318.837z"/>
<path style="opacity:0.15;enable-background:new    ;" d="M317.481,396.848h-75.418c-4.513,0-8.17-3.658-8.17-8.17
	s3.657-8.17,8.17-8.17h75.418c4.513,0,8.17,3.658,8.17,8.17S321.993,396.848,317.481,396.848z"/>
<path style="opacity:0.15;enable-background:new    ;" d="M404.032,285.047h-75.419c-4.513,0-8.17-3.658-8.17-8.17
	c0-4.512,3.657-8.17,8.17-8.17h75.419c4.513,0,8.17,3.658,8.17,8.17C412.202,281.389,408.544,285.047,404.032,285.047z"/>
<g>
	<path style="opacity:0.15;fill:#FFFFFF;enable-background:new    ;" d="M451.189,327.375h-50.65c-4.513,0-8.17-3.658-8.17-8.17
		c0-4.512,3.657-8.17,8.17-8.17h50.65c4.513,0,8.17,3.658,8.17,8.17C459.359,323.717,455.701,327.375,451.189,327.375z"/>
	<path style="opacity:0.15;fill:#FFFFFF;enable-background:new    ;" d="M192.508,365.799h-25.864c-4.513,0-8.17-3.658-8.17-8.17
		c0-4.512,3.657-8.17,8.17-8.17h25.864c4.513,0,8.17,3.658,8.17,8.17C200.678,362.141,197.02,365.799,192.508,365.799z"/>
</g>
<path style="opacity:0.05;enable-background:new    ;" d="M432.374,405.756H198.412c-52.215,0-94.545-42.329-94.545-94.545
	c0-15.926,3.943-30.929,10.899-44.095c-16.004,16.935-25.819,39.781-25.819,64.922c0,52.215,42.329,94.545,94.545,94.545h233.962
	c36.29,0,67.797-20.449,83.647-50.449C483.865,394.371,459.45,405.756,432.374,405.756z"/>
<path style="opacity:0.15;fill:#FFFFFF;enable-background:new    ;" d="M254.995,276.315h-25.864c-4.513,0-8.17-3.658-8.17-8.17
	c0-4.512,3.657-8.17,8.17-8.17h25.864c4.513,0,8.17,3.658,8.17,8.17C263.165,272.657,259.508,276.315,254.995,276.315z"/>
<path style="opacity:0.15;enable-background:new    ;" d="M352.8,350.663h-25.863c-4.513,0-8.17-3.658-8.17-8.17
	c0-4.512,3.657-8.17,8.17-8.17H352.8c4.513,0,8.17,3.658,8.17,8.17C360.97,347.005,357.313,350.663,352.8,350.663z"/>
<path style="opacity:0.05;enable-background:new    ;" d="M183.492,237.491c-19.447,0-37.519,5.878-52.548,15.946
	c16.731,26.596,46.324,44.284,80.065,44.284c40.107,0,74.355-24.986,88.096-60.23H183.492z"/>
<circle style="fill:#FF496A;" cx="94.546" cy="235.597" r="94.546"/>
<g style="opacity:0.15;">
	<circle cx="109.927" cy="253.887" r="8.17"/>
	<circle cx="101.757" cy="295.697" r="8.17"/>
	<circle cx="130.854" cy="205.018" r="8.17"/>
	<circle cx="40.611" cy="199.43" r="8.17"/>
	<circle cx="156.944" cy="232.557" r="8.17"/>
	<circle cx="78.197" cy="176.063" r="8.17"/>
	<circle cx="34.62" cy="257.58" r="8.17"/>
</g>
<g style="opacity:0.15;">
	<circle style="fill:#FFFFFF;" cx="50.427" cy="224.387" r="8.17"/>
	<circle style="fill:#FFFFFF;" cx="97.977" cy="229.529" r="8.17"/>
	<circle style="fill:#FFFFFF;" cx="68.27" cy="279.356" r="8.17"/>
	<circle style="fill:#FFFFFF;" cx="145.757" cy="271.186" r="8.17"/>
	<circle style="fill:#FFFFFF;" cx="118.098" cy="176.063" r="8.17"/>
</g>
<path style="opacity:0.1;enable-background:new    ;" d="M135.705,150.46c-7.155,13.31-11.223,28.527-11.223,44.698
	c0,37.462,21.791,69.831,53.385,85.135c7.155-13.31,11.223-28.527,11.223-44.698C189.09,198.134,167.3,165.764,135.705,150.46z"/>
<circle style="fill:#FF496A;" cx="234.224" cy="179.963" r="94.546"/>
<g style="opacity:0.15;">
	<circle cx="255.641" cy="162.838" r="8.17"/>
	<circle cx="297.45" cy="171.009" r="8.17"/>
	<circle cx="206.783" cy="141.912" r="8.17"/>
	<circle cx="201.183" cy="232.154" r="8.17"/>
	<circle cx="234.322" cy="115.811" r="8.17"/>
	<circle cx="177.827" cy="194.571" r="8.17"/>
	<circle cx="259.344" cy="238.146" r="8.17"/>
</g>
<g style="opacity:0.15;">
	<circle style="fill:#FFFFFF;" cx="226.151" cy="222.339" r="8.17"/>
	<circle style="fill:#FFFFFF;" cx="231.293" cy="174.789" r="8.17"/>
	<circle style="fill:#FFFFFF;" cx="281.11" cy="204.496" r="8.17"/>
	<circle style="fill:#FFFFFF;" cx="272.94" cy="127.009" r="8.17"/>
	<circle style="fill:#FFFFFF;" cx="177.827" cy="154.668" r="8.17"/>
</g>
<g>
</g>
<g>
</g>
<g>
</g>
<g>
</g>
<g>
</g>
<g>
</g>
<g>
</g>
<g>
</g>
<g>
</g>
<g>
</g>
<g>
</g>
<g>
</g>
<g>
</g>
<g>
</g>
<g>
</g>
</svg>
