<?xml version="1.0" encoding="iso-8859-1"?>
<!-- Generator: Adobe Illustrator 19.0.0, SVG Export Plug-In . SVG Version: 6.00 Build 0)  -->
<svg xmlns="http://www.w3.org/2000/svg" xmlns:xlink="http://www.w3.org/1999/xlink" version="1.1" id="Capa_1" x="0px" y="0px" viewBox="0 0 504.75 504.75" style="enable-background:new 0 0 504.75 504.75;" xml:space="preserve" width="512" height="512">
<g>
	<rect x="209.414" y="333.007" style="fill:#FABA45;" width="85.923" height="141.21"/>
	<path style="fill:#FABA45;" d="M252.375,253.438c-5.059,0.001-9.977-0.591-14.708-1.673v81.242h29.416v-81.242   C262.353,252.847,257.435,253.438,252.375,253.438z"/>
	<path style="fill:#E95B2D;" d="M150.043,171.843h273.764c20.101,0,37.749-10.447,47.849-26.197   c2.589,1.662,5.661,2.638,8.968,2.638c9.183,0,16.627-7.444,16.627-16.627c0-9.184-7.444-16.628-16.627-16.628   c9.183,0,16.627-7.446,16.627-16.627c0-9.185-7.444-16.629-16.627-16.629c-3.307,0-6.379,0.978-8.968,2.64   c-10.1-15.752-27.748-26.199-47.849-26.198L80.943,58.213c-20.101,0-37.749,10.447-47.851,26.199   c-2.587-1.662-5.66-2.64-8.966-2.64c-9.184,0-16.627,7.444-16.627,16.629c0,9.181,7.443,16.627,16.627,16.627   c-9.184,0-16.627,7.444-16.627,16.628c0,9.183,7.443,16.627,16.627,16.627c3.306,0,6.379-0.976,8.966-2.638   c10.102,15.75,27.75,26.197,47.85,26.197h49.099"/>
	<path style="fill:#0F2639;" d="M504.75,98.401c0-13.305-10.823-24.129-24.127-24.129c-2.169,0-4.313,0.292-6.38,0.861   c-12.156-15.399-30.578-24.421-50.437-24.42h-98.24V23.033h-15v27.681l-116.384-0.001l0.001-27.68h-15l-0.001,27.68H80.943   c-19.857,0-38.28,9.022-50.438,24.421c-2.066-0.569-4.21-0.861-6.379-0.861C10.823,74.272,0,85.097,0,98.401   c0,6.438,2.535,12.296,6.659,16.627C2.535,119.359,0,125.218,0,131.656c0,13.304,10.823,24.127,24.127,24.127   c2.169,0,4.313-0.292,6.379-0.86c12.157,15.398,30.58,24.42,50.437,24.42h49.099v-15H80.942c-16.874,0-32.401-8.503-41.536-22.746   l-4.053-6.318l-6.314,4.058c-1.475,0.946-3.173,1.447-4.912,1.447c-5.032,0-9.127-4.095-9.127-9.127   c0-5.033,4.095-9.128,9.127-9.128v-15c-5.032,0-9.127-4.095-9.127-9.127c0-5.033,4.095-9.129,9.127-9.129   c1.737,0,3.435,0.501,4.912,1.449l6.314,4.058l4.053-6.318c9.135-14.244,24.662-22.748,41.537-22.748h70.953l-36.132,36.134   l10.607,10.605l46.736-46.739h32.208l-36.132,36.134l10.607,10.605l46.737-46.739h32.205l-36.132,36.133l10.608,10.607   l46.739-46.74l32.205,0.001l-36.132,36.132l10.607,10.607l46.739-46.739h32.205l-36.131,36.132l10.607,10.607l46.738-46.739h37.018   c16.875-0.001,32.402,8.503,41.535,22.746l4.051,6.317l6.314-4.054c1.478-0.949,3.179-1.451,4.916-1.451   c5.032,0,9.127,4.096,9.127,9.129c0,5.032-4.095,9.127-9.127,9.127v15c5.032,0,9.127,4.095,9.127,9.128   c0,5.032-4.095,9.127-9.127,9.127c-1.739,0-3.439-0.501-4.916-1.449l-6.314-4.054l-4.051,6.316   c-9.133,14.243-24.66,22.746-41.535,22.746H150.043v15h29.141v8.401c-0.001,19.551,7.612,37.932,21.437,51.756   c8.414,8.414,18.52,14.511,29.547,18.008v67.999h-28.253v156.21h100.923v-156.21h-28.254v-67.999   c11.026-3.496,21.134-9.594,29.547-18.007c13.824-13.825,21.438-32.205,21.436-51.757v-8.401h98.24   c19.857,0,38.28-9.021,50.437-24.42c2.067,0.568,4.211,0.86,6.38,0.86c13.304,0,24.127-10.823,24.127-24.127   c0-6.438-2.535-12.297-6.659-16.628C502.215,110.697,504.75,104.84,504.75,98.401z M287.837,340.507v18.624h-48.42v15h48.42v92.586   h-70.923v-126.21h13.253h44.416H287.837z M259.583,325.507h-14.416v-64.919c2.362,0.23,4.748,0.347,7.152,0.349   c0.019,0,0.036,0.001,0.055,0.001h0.001c0.001,0,0.001,0,0.001,0c2.423,0,4.827-0.118,7.207-0.35V325.507z M310.566,187.744   c0,15.545-6.053,30.159-17.043,41.15c-7.474,7.473-16.624,12.656-26.6,15.213l-1.513,0.346c-8.585,1.965-17.437,1.977-26.071,0   l-1.504-0.344c-9.98-2.557-19.133-7.74-26.608-15.216c-10.991-10.991-17.044-25.605-17.044-41.149v-8.401h116.383V187.744z"/>
</g>















</svg>
