<?xml version="1.0" encoding="iso-8859-1"?>
<!-- Generator: Adobe Illustrator 19.0.0, SVG Export Plug-In . SVG Version: 6.00 Build 0)  -->
<svg version="1.1" id="Layer_1" xmlns="http://www.w3.org/2000/svg" xmlns:xlink="http://www.w3.org/1999/xlink" x="0px" y="0px"
	 viewBox="0 0 495 495" style="enable-background:new 0 0 495 495;" xml:space="preserve">
<g>
	<path style="fill:#FF5023;" d="M67.61,123.312H55.565c-8.583,0-15.565-6.983-15.565-15.566S46.982,92.18,55.565,92.18h201.938v-40
		H55.565C24.927,52.18,0,77.107,0,107.746s24.927,55.566,55.565,55.566h13.752c-1.117-6.503-1.708-13.185-1.708-20.002V123.312z"/>
	<path style="fill:#FF5023;" d="M448.71,171.1c-5.17-5.3-10.64-10.19-16.35-14.65L320.84,267.97c4.17,4.17,6.75,9.92,6.75,16.271
		H495C495,241.82,478.56,201.64,448.71,171.1z"/>
	<path style="fill:#FF7956;" d="M327.59,284.24c0,6.34-2.58,12.1-6.75,16.27l110.61,110.61C470.01,382.16,495,336.06,495,284.24
		H327.59z"/>
	<path style="fill:#FF7956;" d="M336.42,123.31h-31.85H67.61v20c0,6.817,0.59,13.499,1.708,20.002
		c1.743,10.147,4.781,19.857,8.948,28.948H304.57v68.95c6.35,0,12.11,2.59,16.27,6.76l111.52-111.52
		C404.82,134.95,371.45,123.31,336.42,123.31z"/>
	<path style="fill:#FF5023;" d="M304.57,307.26v132.35c10.44,2.14,21.11,3.21,31.85,3.21c35.62,0,68.53-11.8,95.03-31.7
		L320.84,300.51C316.67,304.68,310.92,307.26,304.57,307.26z"/>
	<path style="fill:#FF7956;" d="M224.12,307.26v111.41l70.31,18.53c3.35,0.91,6.73,1.72,10.14,2.41V307.26H224.12z"/>
	<path style="fill:#FF5023;" d="M304.57,192.26H78.265c18.628,40.646,59.699,68.95,107.255,68.95h119.05V192.26z"/>
	<polygon style="fill:#FF5023;" points="143.87,307.26 143.87,397.52 224.12,418.67 224.12,307.26 	"/>
	<polygon style="fill:#CD2A00;" points="36.19,307.26 36.19,442.82 98.57,442.82 143.87,397.72 143.87,307.26 	"/>
</g>
<g>
</g>
<g>
</g>
<g>
</g>
<g>
</g>
<g>
</g>
<g>
</g>
<g>
</g>
<g>
</g>
<g>
</g>
<g>
</g>
<g>
</g>
<g>
</g>
<g>
</g>
<g>
</g>
<g>
</g>
</svg>
