<?xml version="1.0" standalone="no"?>
<!DOCTYPE svg PUBLIC "-//W3C//DTD SVG 20010904//EN"
 "http://www.w3.org/TR/2001/REC-SVG-20010904/DTD/svg10.dtd">
<svg version="1.0" xmlns="http://www.w3.org/2000/svg"
 width="512.000000pt" height="512.000000pt" viewBox="0 0 512.000000 512.000000"
 preserveAspectRatio="xMidYMid meet">

<g transform="translate(0.000000,512.000000) scale(0.100000,-0.100000)"
fill="#000000" stroke="none">
<path d="M435 2458 c-84 -50 -207 -172 -253 -250 -60 -101 -102 -254 -102
-368 0 -75 36 -222 72 -301 70 -150 185 -267 333 -339 128 -63 178 -71 461
-77 l251 -6 5 55 c6 73 56 176 113 233 78 78 147 104 342 126 314 36 284 28
300 74 65 184 54 373 -34 555 -39 81 -59 108 -137 186 -62 61 -112 101 -156
123 l-65 34 -103 -52 -103 -51 81 -117 c44 -64 79 -118 77 -119 -2 -2 -110 32
-240 76 l-236 80 -237 -81 c-129 -44 -238 -79 -240 -77 -2 3 32 57 76 121 l81
117 -101 50 c-55 27 -103 50 -107 50 -5 0 -39 -19 -78 -42z"/>
</g>
</svg>
