<svg xmlns="http://www.w3.org/2000/svg" xmlns:xlink="http://www.w3.org/1999/xlink" viewBox="0 0 400 300" width="406" height="306" class="illustration styles_illustrationTablet__1DWOa"><defs><linearGradient id="linear-gradient" x1="2906.44" y1="126.84" x2="2786.71" y2="240.68" gradientTransform="translate(-2662.23)" gradientUnits="userSpaceOnUse"><stop offset="0" stop-color="#7f4e00"></stop><stop offset="1" stop-color="#fff"></stop></linearGradient></defs><title>PP</title><g style="isolation: isolate;"><g id="Layer_5" data-name="Layer 5"><path d="M197.31,281,24.81,179c-5.49-3.08-10.2-8.15-4.85-11.46L193.08,67.78c2.6-1.61,6.54-2.66,9.18-1.13L383.34,171.74c5.49,3.19,6.48,12.1,1,15.29L220,280.81A22.94,22.94,0,0,1,197.31,281Z" fill="#dd5e57"></path><path d="M183.55,273.93s104.71-60.62,106.52-61.87L116.4,138.73,44,188.38C46.36,190.11,181.17,272.22,183.55,273.93Z" opacity="0.68" fill="url(#linear-gradient)" style="mix-blend-mode: multiply;"></path><path d="M210.09,111.41C153,111.41,106.78,139,106.78,173c0,10.1,4.07,19.63,11.28,28h0s3.38,8,0,12.32c-3.18,4.1-7.14,7.49-12.23,8.84-7,1.85-14.41,1.25-21.43,3C74.32,227.82,66.67,237,73.53,247A24.08,24.08,0,0,0,83.46,255c11.33,4.86,21.56-1.52,29.71-9.14,5.65-5.28,11-13.45,18.94-15.28,10.45-2.4,42.78.41,42.78.41h0a167,167,0,0,0,35.21,3.67c57.06,0,103.31-27.6,103.31-61.64S267.15,111.41,210.09,111.41Z" fill="#fcbb68"></path><polygon points="70.91 230.75 70.95 240.14 80.22 235.45 70.91 230.75" fill="#fcbb68"></polygon><path d="M210.09,111.41C153,111.41,106.78,139,106.78,173c0,10.1,4.07,19.63,11.28,28h0s3.38,8,0,12.32c-3.18,4.1-7.14,7.49-12.23,8.84-7,1.85-14.41,1.25-21.43,3C74.32,227.82,66.67,237,73.53,247A24.08,24.08,0,0,0,83.46,255c11.33,4.86,21.56-1.52,29.71-9.14,5.65-5.28,11-13.45,18.94-15.28,10.45-2.4,42.78.41,42.78.41h0a167,167,0,0,0,35.21,3.67c57.06,0,103.31-27.6,103.31-61.64S267.15,111.41,210.09,111.41Z" opacity="0.33"></path><polygon points="70.91 230.75 70.95 240.14 80.22 235.45 70.91 230.75" opacity="0.33"></polygon><path d="M210.09,103.09c-57.06,0-103.31,27.6-103.31,61.64,0,10.1,4.07,19.63,11.28,28h0s3.38,8,0,12.32c-3.18,4.1-7.14,7.49-12.23,8.84-7,1.85-14.41,1.25-21.43,3-10.08,2.56-17.73,11.76-10.86,21.68a24.08,24.08,0,0,0,9.92,8.08c11.33,4.86,21.56-1.52,29.71-9.14,5.65-5.28,11-13.45,18.94-15.28,10.45-2.4,42.78.41,42.78.41h0a167,167,0,0,0,35.21,3.67c57.06,0,103.31-27.6,103.31-61.64S267.15,103.09,210.09,103.09Z" fill="#fcbb68"></path><ellipse cx="212.22" cy="161.89" rx="92.54" ry="55.85" fill="#f6d6a7"></ellipse><path d="M212.22,209.45c-24,0-46.62-5.69-63.74-16-18.09-10.92-28.06-25.77-28.06-41.81s10-30.89,28.06-41.81c17.12-10.33,39.76-16,63.74-16s46.62,5.69,63.74,16C294.06,120.72,304,135.57,304,151.61s-10,30.89-28.06,41.81C258.84,203.76,236.2,209.45,212.22,209.45Zm0-103.4c-43.11,0-79.52,20.86-79.52,45.56s36.42,45.56,79.52,45.56,79.52-20.86,79.52-45.56S255.33,106.05,212.22,106.05Z" fill="#fdb86a"></path><ellipse cx="253.29" cy="133.85" rx="8.61" ry="4.88" fill="#e04a31"></ellipse><ellipse cx="192.16" cy="130.92" rx="8.61" ry="4.88" fill="#e04a31"></ellipse><ellipse cx="227.03" cy="124.08" rx="8.61" ry="4.88" fill="#e04a31"></ellipse><ellipse cx="211.4" cy="179.91" rx="8.61" ry="4.88" fill="#e04a31"></ellipse><ellipse cx="158.88" cy="147.05" rx="8.61" ry="4.88" fill="#e04a31"></ellipse><ellipse cx="178.94" cy="173.47" rx="8.61" ry="4.88" fill="#e04a31"></ellipse><ellipse cx="263.93" cy="153.57" rx="8.61" ry="4.88" fill="#e04a31"></ellipse><ellipse cx="212.22" cy="150.5" rx="8.61" ry="4.88" fill="#e04a31"></ellipse><ellipse cx="240.07" cy="174.91" rx="8.61" ry="4.88" fill="#e04a31"></ellipse><path d="M223.51,138.73,228,135.8s16.47,1.83,13.69,15.81l-6.05,2S241.47,142.45,223.51,138.73Z" fill="#9fc359"></path><path d="M266.56,160.06l3.5,4.06s.39,16.56-13.84,15.68l-2.74-5.74S265.28,178.36,266.56,160.06Z" fill="#9fc359"></path><path d="M195.17,162.09l-5.36-.16s-12.48-10.9-2.22-20.79l6.08,1.85S182.54,148.79,195.17,162.09Z" fill="#9fc359"></path><path d="M202,175.75l.4,5.34s-9.54,13.54-20.45,4.37l1.21-6.24S190.07,189.7,202,175.75Z" fill="#9fc359"></path><path d="M173.91,139.76l-5.32-.69s-11.35-12.07-.17-20.91l5.87,2.44S162.64,125.29,173.91,139.76Z" fill="#9fc359"></path><path d="M160,153.7l3.5,4.06s.39,16.56-13.84,15.68l-2.74-5.74S158.72,172,160,153.7Z" fill="#9fc359"></path><path d="M246.79,112.68l3.5,4.06s.39,16.56-13.84,15.68l-2.74-5.74S245.51,131,246.79,112.68Z" fill="#9fc359"></path><path d="M211.57,159.75a11.08,11.08,0,0,0-15-2.55c-3.49,2.16-5.46,6.17-4.42,9.81a13.27,13.27,0,0,0-7,3.2,10.23,10.23,0,0,0-2.47,9.46c1.45,7.12,11.29,8.83,16.94,6,3.2-1.63.38-6.44-2.82-4.82a7.3,7.3,0,0,1-5.39.21c-2.17-.61-3.43-1.47-3.38-3.94.08-4.06,4.33-4.54,7.54-5a2.17,2.17,0,0,0,1.92-1.54,2.77,2.77,0,0,0,.51-4.26c-2.07-2.17,1.43-4.53,3.26-5.12,2.76-.88,4.68.48,6.36,2.54C209.89,166.48,213.82,162.51,211.57,159.75Z" fill="#f88f58"></path><path d="M222.64,120a10.69,10.69,0,0,0-9.52-8.25c-4.7-.45-8.89,1.75-12.06,5-2.44-1.9-5.17-3.3-8.44-2.93a17.85,17.85,0,0,0-10.51,5.67c-2.49,2.59,1.45,6.54,3.95,3.95a12.91,12.91,0,0,1,6.22-3.89c2.74-.64,4.6.85,6.56,2.6a2.7,2.7,0,0,0,2.23.7,2.23,2.23,0,0,0,2.69-.76c3.14-3.83,11.74-8.3,13.5-.61C218.06,124.94,223.44,123.46,222.64,120Z" fill="#f88f58"></path><path d="M276.25,136.37c-4.42-6.12-12.65-5.58-18.47-2-3,1.89-.24,6.72,2.82,4.82s6.84-3.07,9.93-.78c2.21,1.64,3.1,5.7-.12,6.9a3,3,0,0,0-.89,5.05,17,17,0,0,1,1.27,5.24c.11,2.75-1.47,3.85-3.64,5.14-3.7,2.22-8.08,1.65-10.5-2.14-1.93-3-6.76-.22-4.82,2.82a13,13,0,0,0,17.16,4.7c2.84-1.48,5.85-3.49,6.9-6.66,1.12-3.41.22-7.25-1-10.57A9.33,9.33,0,0,0,276.25,136.37Z" fill="#f88f58"></path><path d="M184.11,156c-2.64-5.46-6.41-10-13-9a15.38,15.38,0,0,0-9.92,5.66c-5.21-4.71-14.83-3.65-19.41,2.07-2.22,2.78,1.7,6.75,3.95,3.95,2.65-3.31,11-5.66,12.88-.31a3,3,0,0,0,5.3.48,3,3,0,0,0,.37-.67,9.51,9.51,0,0,1,7.25-5.61c4.38-.84,6.14,2.88,7.77,6.24S185.67,159.2,184.11,156Z" fill="#f88f58"></path><path d="M215.3,129.06c-3.59,0-3.6,5.58,0,5.58S218.9,129.06,215.3,129.06Z" fill="#4d2122"></path><path d="M196.06,140.72c-3.59,0-3.6,5.58,0,5.58S199.65,140.72,196.06,140.72Z" fill="#4d2122"></path><path d="M173.9,119.73c-3.59,0-3.6,5.58,0,5.58S177.49,119.73,173.9,119.73Z" fill="#4d2122"></path><path d="M225.21,151.8c-3.59,0-3.6,5.58,0,5.58S228.81,151.8,225.21,151.8Z" fill="#4d2122"></path><path d="M225.21,185c-3.59,0-3.6,5.58,0,5.58S228.81,185,225.21,185Z" fill="#4d2122"></path><path d="M250.87,156.47c-3.59,0-3.6,5.58,0,5.58S254.47,156.47,250.87,156.47Z" fill="#4d2122"></path><path d="M157.57,131.39c-3.59,0-3.6,5.58,0,5.58S161.17,131.39,157.57,131.39Z" fill="#4d2122"></path><path d="M231.86,167.16a5.94,5.94,0,0,0-7-4.14,2.17,2.17,0,0,0-.88.39,1.62,1.62,0,0,0-.67.28c-2.49,1.86-5.18,4.65-3.64,8,1.38,3,5.49,4,8.41,2.86A6.41,6.41,0,0,0,231.86,167.16Zm-5.46,3.28c-.6.26-2.41.26-2.73-.56s1.32-1.94,1.85-2.33l.22-.19.27,0C228,166.91,227.89,169.81,226.4,170.45Z" fill="#4daa3d"></path><path d="M264.76,123.14a6.43,6.43,0,0,0-6.44-4.23,2.29,2.29,0,0,0-1.07.36,2.09,2.09,0,0,0-2.27,1c-1.57,2.55-1.89,5.84.07,8.28a5.44,5.44,0,0,0,7.17,1.24A5.71,5.71,0,0,0,264.76,123.14Zm-4.79,2.8a1,1,0,0,1-1.57-.33,2.35,2.35,0,0,1,0-2.24C259.75,123.32,261.63,124.83,260,125.94Z" fill="#4daa3d"></path><path d="M265,156.6c-.37-3.1-1.89-5.69-4.88-6.82-1.88-.71-3,1.18-2.61,2.73-4.85,2.91-2.28,13.36,4.14,11.33C264.7,162.88,265.36,159.36,265,156.6Zm-4.4,2.09c-.45,2.67-2.08-2-.72-2.4a2.38,2.38,0,0,0,.55-.24A6.44,6.44,0,0,1,260.62,158.7Z" fill="#4daa3d"></path><path d="M179.12,134.85a2.31,2.31,0,0,0-1.16.09,2.63,2.63,0,0,0-2.08.09,6.35,6.35,0,0,0-3.57,6.56,5.88,5.88,0,1,0,6.81-6.74Zm-1.17,7.23c-1.91-.25-1.27-2.18-.19-3l.17,0c.83.14,1.69.63,1.62,1.6A1.48,1.48,0,0,1,177.95,142.09Z" fill="#4daa3d"></path><path d="M169.55,171.82a8.87,8.87,0,0,0-9-3.14c-2.22.42-1.95,3.16-.37,4.06-1.14,2.34-1.46,5.07.71,7.07s6.57,3.19,8.91.7C171.95,178.18,171.29,174.18,169.55,171.82Zm-3,5.4c-.41.64-2.16-.08-2.64-.64-.74-.86.22-2.2.91-3.09a3.79,3.79,0,0,1,.62.41C166.15,174.49,167.19,176.27,166.58,177.22Z" fill="#4daa3d"></path><path d="M209.63,133.15c-.66-2.79-5-1.61-4.3,1.19a6.58,6.58,0,0,1-.32,4.17,2.3,2.3,0,0,0,.8,3.05,2.25,2.25,0,0,0,3.05-.8A11.65,11.65,0,0,0,209.63,133.15Z" fill="#e8ac18"></path><path d="M229.27,145.62l-3.4-3.29a2.23,2.23,0,0,0-3.16,3.16l3.4,3.29a2.23,2.23,0,0,0,3.16-3.16Z" fill="#e8ac18"></path><path d="M211.33,163.69a2.28,2.28,0,0,0-3.05.8l-3,4.22a2.25,2.25,0,0,0,.8,3.05,2.28,2.28,0,0,0,3.05-.8l3-4.22A2.25,2.25,0,0,0,211.33,163.69Z" fill="#e8ac18"></path><path d="M244.57,161.07l-3.22-4a2.25,2.25,0,0,0-3.16,0,2.29,2.29,0,0,0,0,3.16l3.22,4a2.25,2.25,0,0,0,3.16,0A2.29,2.29,0,0,0,244.57,161.07Z" fill="#e8ac18"></path><path d="M247.05,183.72a2.25,2.25,0,0,0-2.75-1.56,33.27,33.27,0,0,1-7,1.88,2.25,2.25,0,0,0-1.56,2.75,2.29,2.29,0,0,0,2.75,1.56,33.27,33.27,0,0,0,7-1.88A2.3,2.3,0,0,0,247.05,183.72Z" fill="#e8ac18"></path><path d="M215.24,187.69l-3.43-.55a2.29,2.29,0,0,0-2.75,1.56,2.26,2.26,0,0,0,1.56,2.75L214,192a2.29,2.29,0,0,0,2.75-1.56A2.26,2.26,0,0,0,215.24,187.69Z" fill="#e8ac18"></path><path d="M284.67,146c-.48-2.83-4.78-1.63-4.3,1.19a9.9,9.9,0,0,1-.94,6.08c-1.28,2.56,2.57,4.83,3.85,2.25A15.07,15.07,0,0,0,284.67,146Z" fill="#e8ac18"></path><path d="M238.79,112.11l-3.47-.54a2.29,2.29,0,0,0-2.75,1.56,2.26,2.26,0,0,0,1.56,2.75l3.47.54a2.29,2.29,0,0,0,2.75-1.56A2.26,2.26,0,0,0,238.79,112.11Z" fill="#e8ac18"></path><path d="M199.65,113.74Z" fill="#e8ac18"></path><path d="M201.91,109.65a6.26,6.26,0,0,0-3.33-.23,2.24,2.24,0,0,0-1.56,2.75,2.3,2.3,0,0,0,2.75,1.56l-.12,0h.43l.18,0a4.61,4.61,0,0,1,.47.16,2.24,2.24,0,0,0,2.75-1.56A2.3,2.3,0,0,0,201.91,109.65Z" fill="#e8ac18"></path><path d="M143,138a20.44,20.44,0,0,0-3.07,9.66c-.19,2.87,4.28,2.86,4.46,0a15.67,15.67,0,0,1,2.46-7.4C148.39,137.81,144.53,135.56,143,138Z" fill="#e8ac18"></path><path d="M150.78,159.59c-2.87,0-2.88,4.46,0,4.46S153.66,159.59,150.78,159.59Z" fill="#e8ac18"></path><path d="M178.38,159.93a50.19,50.19,0,0,1-6.42-1.85,2.25,2.25,0,0,0-2.75,1.56,2.28,2.28,0,0,0,1.56,2.75,50.19,50.19,0,0,0,6.42,1.85C180,164.84,181.19,160.54,178.38,159.93Z" fill="#e8ac18"></path><path d="M178.59,184.45a4.93,4.93,0,0,1-2.35-.76,2.23,2.23,0,0,0-2.25,3.85,10.07,10.07,0,0,0,4.6,1.37,2.25,2.25,0,0,0,2.23-2.23A2.28,2.28,0,0,0,178.59,184.45Z" fill="#e8ac18"></path><path d="M213.08,124.91a13.31,13.31,0,0,0-3.7-2.11,2.24,2.24,0,0,0-2.75,1.56,2.29,2.29,0,0,0,1.56,2.75l.17.06.2.09.52.27.5.3c.07,0,.72.53.34.23a2.29,2.29,0,0,0,3.16,0A2.26,2.26,0,0,0,213.08,124.91Z" fill="#e8ac18"></path><path d="M160.95,122.89a2.28,2.28,0,0,0-3.05-.8,24.52,24.52,0,0,0-4.83,3,2.24,2.24,0,0,0,0,3.16,2.29,2.29,0,0,0,3.16,0,19.93,19.93,0,0,1,3.92-2.32A2.25,2.25,0,0,0,160.95,122.89Z" fill="#e8ac18"></path><path d="M259.57,95.39l-54.25,38.95,98.7,13S304,117.95,259.57,95.39Z" fill="#fcbb68"></path><path d="M259.57,95.39l-54.25,38.95,98.7,13S304,117.95,259.57,95.39Z" fill="#146666"></path><polygon points="219.18 136.7 270.06 107.1 248.18 99.89 205.32 134.34 219.18 136.7" fill="#ddaf73"></polygon><path d="M226.74,88.37v9.39a8.94,8.94,0,0,0,6.47,8.59l63.31,18.15a7.77,7.77,0,0,0,9.23-4.27l5.82-12.87" fill="#ddaf73"></path><path d="M226.74,88.37l.88,38.08s.16,2,1.65,2.24,1.72-2.52,1.72-2.52-.57-14.42,1.26-13.92-1.68,22.87,1.39,23-.82-25,3.77-24.66,3.67,9.29,6.88,6-2.64-19.69,1.49-19.59,1.25,5.65,6.19,5.28,4.45-3.48,7.27-1.86-1.3,6.79,3.4,8.79,5.65-7.8,9.09-7.58Z" fill="#fdb86a"></path><path d="M308.33,112.25c2.28-4.36,5-9.17,5-14,0-15.88-10.33-28.37-30.68-36.57-18.62,9-37.3,17.79-56,26.66C255.5,96.67,279.55,104,308.33,112.25Z" fill="#f6d6a7"></path><path d="M305.8,91.35c0,6.39-3,12.47-8.18,17.8l10.71,3.1a33.94,33.94,0,0,0,7.52-20.9c0-13.14-8.16-25.3-23-34.24l-.31-.18-11.35,5.48C296.1,69.32,305.8,79.82,305.8,91.35Z" fill="#fdb86a"></path><ellipse cx="274.32" cy="76.8" rx="7.05" ry="4" fill="#e04a31"></ellipse><ellipse cx="283.03" cy="92.95" rx="7.05" ry="4" fill="#e04a31"></ellipse><path d="M244.87,93.64c1.73-.73,2.86-1.89,2.86-3.21,0-2.21-3.16-4-7-4s-7,1.75-7,3.93Z" fill="#e04a31"></path><path d="M249.93,80.8l3.68-2.4s13.48,1.5,11.21,12.95l-5,1.6S264.64,83.84,249.93,80.8Z" fill="#9fc359"></path><path d="M287.45,106.18a18.76,18.76,0,0,0,.6-4.59l-2.87-3.32a20.87,20.87,0,0,1-1.46,6.81Z" fill="#9fc359"></path><path d="M259.24,72.92l1.29,2.7c7.21.45,9.83-4.57,10.79-8.46Z" fill="#9fc359"></path><path d="M277,103.09l4.73,1.39a10.72,10.72,0,0,0,5.49-1.23c2.32-1.21,4.79-2.85,5.65-5.45.92-2.79.18-5.94-.82-8.65a7.64,7.64,0,0,0,1.11-10.29c-3.62-5-10.36-4.57-15.12-1.61-2.49,1.55-.2,5.51,2.31,3.95s5.6-2.52,8.13-.64c1.81,1.34,2.54,4.67-.1,5.65a2.47,2.47,0,0,0-.73,4.14,13.91,13.91,0,0,1,1,4.29c.09,2.25-1.2,3.15-3,4.21-3,1.81-6.62,1.35-8.6-1.76-1.58-2.47-5.53-.18-3.95,2.31A11.16,11.16,0,0,0,277,103.09Z" fill="#f88f58"></path><path d="M252.35,95.84c1.85-.93,1.52-4.34-1-4.34A2.29,2.29,0,0,0,249.41,95Z" fill="#4d2122"></path><path d="M272.33,95.33c-2.94,0-2.95,4.57,0,4.57S275.28,95.33,272.33,95.33Z" fill="#4d2122"></path><path d="M283.71,68a5.26,5.26,0,0,0-5.27-3.47,1.87,1.87,0,0,0-.88.3,1.71,1.71,0,0,0-1.86.83,5.84,5.84,0,0,0,.06,6.78,4.45,4.45,0,0,0,5.87,1A4.68,4.68,0,0,0,283.71,68Zm-3.92,2.29a.83.83,0,0,1-1.29-.27,1.92,1.92,0,0,1,0-1.84C279.6,68.18,281.14,69.41,279.79,70.32Z" fill="#4daa3d"></path><path d="M283.92,95.44a6.37,6.37,0,0,0-4-5.59c-1.54-.58-2.46,1-2.14,2.23-4,2.38-1.87,10.94,3.39,9.28C283.66,100.58,284.19,97.69,283.92,95.44Zm-3.6,1.71c-.37,2.18-1.7-1.65-.59-2a2,2,0,0,0,.45-.2A5.28,5.28,0,0,1,280.32,97.15Z" fill="#4daa3d"></path><path d="M254.65,86.44l-2.78-2.69a1.83,1.83,0,1,0-2.59,2.59L252.06,89a1.83,1.83,0,1,0,2.59-2.59Z" fill="#e8ac18"></path><path d="M262.24,98.75l5.45,1.61a2.25,2.25,0,0,0-.51-1.27l-2.63-3.28a1.84,1.84,0,0,0-2.59,0,1.87,1.87,0,0,0,0,2.59Z" fill="#e8ac18"></path><path d="M300,86.75c-.39-2.31-3.91-1.33-3.53,1a8.11,8.11,0,0,1-.77,5c-1,2.1,2.1,4,3.16,1.85A12.34,12.34,0,0,0,300,86.75Z" fill="#e8ac18"></path><path d="M281.23,62.41s-1.61-3.91,3.72-6.06,7.93.76,7.93.76" fill="#fdb86a"></path><path d="M297.62,109.15a5.24,5.24,0,0,0,3.57,4.42c3.32,1,7.15-1.32,7.15-1.32" fill="#fdb86a"></path><polygon points="226.74 106.85 215.3 106.18 223.51 94.2 226.51 94.44 226.74 106.85" fill="#e5994c"></polygon></g></g></svg>