<svg id="Layer_1" data-name="Layer 1" xmlns="http://www.w3.org/2000/svg" viewBox="0 0 400 300" width="406" height="306" class="illustration styles_illustrationTablet__1DWOa"><title>_</title><path d="M197.15,63.75A226.75,226.75,0,0,0,119.9,84.46c-20,9.51-38.33,22.6-47.62,43.27C58.72,157.91,57,205.31,83.55,229.6c15.27,14,37.47,16.29,58,19.12,32.67,4.51,65.32,12,98.24,10,34.8-2.15,70.38-17,87.51-48.84,7-13.08,10-28,11.32-42.79,3-32.24-8.08-71.18-34.3-92.73-10.16-8.35-23.14-9.68-35.8-10.62A439,439,0,0,0,197.15,63.75Z" fill="#dddbdb" opacity="0.18"></path><path d="M305.07,191.4c-1.07.31-16.9,2.3-39.67,5.09-23.9,2.91-55.45,6.7-85.57,10.29v17.41a8.16,8.16,0,0,1-7.43,8.23,8,8,0,0,1-8.49-7.95l.69-20a8,8,0,1,0-15.92,0l-1.05,26.89A8,8,0,0,1,135,237.76V254.5a8,8,0,0,1-8.48,7.95,8.14,8.14,0,0,1-7.44-8.21V214l-25.31,3a4.88,4.88,0,0,1-4.5-7.74c19.13-26.06,78.38-100.89,111.31-142.19,13.32-16.68,22.33-27.89,22.68-28.21,1.4-1.27,4.77-4.61,18.45,3.56s37.71,36.31,58.22,82.86S309.11,190.27,305.07,191.4Z" fill="#fcbb68"></path><path d="M305.07,191.4c-.5.15-4.12.65-10.1,1.41-7,.9-17.28,2.18-29.57,3.68a46,46,0,0,1,1-25.88,5.17,5.17,0,0,0,.46-2.88,5.81,5.81,0,0,0-2-2.6,21,21,0,0,1-6.49-17.53c.46-3.91,2-7.72,1.77-11.64-.44-7-6.37-12.31-12.1-16.39s-12.12-8.28-14.34-14.94c-2.59-7.75,1.22-16.81-2.35-24.15-3.88-8-14.15-9.85-22.89-11.36a51.71,51.71,0,0,1-8-2c6.12-7.67,11.32-14.16,15.2-19,4.57-5.69,7.29-9.05,7.48-9.22,1.4-1.27,4.77-4.61,18.45,3.56s37.71,36.31,58.22,82.86S309.11,190.27,305.07,191.4Z" opacity="0.1"></path><circle cx="215.74" cy="98.44" r="12.31" fill="#fff" opacity="0.4"></circle><circle cx="236.85" cy="142.58" r="12.31" fill="#fff" opacity="0.4"></circle><circle cx="165.56" cy="142.58" r="11.93" fill="#fff" opacity="0.4"></circle><path d="M114.94,184.81A11.93,11.93,0,1,1,108,207.65Z" fill="#fff" opacity="0.4"></path><path d="M210.31,159.91A11.93,11.93,0,0,1,187.47,153Z" fill="#fff" opacity="0.4"></path><path d="M156.34,175.83s2.52-11.78-6.92-14.85-7.25,8.85-7.25,8.85-11.93-1.48-12,1.17.09,10.47,3.45,9.66,9.29-5.09,9.29-5.09.45,5.24,5.1,6.66S155,180.34,156.34,175.83Z" fill="#ffd200"></path><path d="M229.1,167.74s-9.55,7.33-4.36,15.8,11.26-2,11.26-2,8.13,8.86,9.88,6.87,6.71-8,3.63-9.59-10.37-2.15-10.37-2.15,3.05-4.28.43-8.38S233,165.16,229.1,167.74Z" fill="#ffd200"></path><path d="M213.26,130s1.36-12-8.34-14.1-6.34,9.52-6.34,9.52-12-.31-11.81,2.34,1.12,10.41,4.38,9.27,8.75-6,8.75-6,1,5.17,5.73,6.14S212.38,134.66,213.26,130Z" fill="#ffd200"></path><path d="M188.36,175.16s-9.88,2.25-8.88,10.55,9.32,2.38,9.32,2.38,3.11,9.63,5.15,8.72,8-3.78,6.14-6.05-7.18-5.29-7.18-5.29,3.84-2.2,3.28-6.25S192.27,174.57,188.36,175.16Z" fill="#ffd200"></path><path d="M305.07,191.4c-.5.15-4.12.65-10.1,1.41a53.8,53.8,0,0,1,.37-7.18c.36-2.94,1-5.95.21-8.82-1-4-4.47-7-5.74-10.88-1.14-3.56-.36-7.43-.46-11.17a37.54,37.54,0,0,0-3.22-13,94.31,94.31,0,0,0-11.05-19.85c-2.94-4-6.26-8-7.65-12.79-.87-3-.91-6.21-1.34-9.33A32.62,32.62,0,0,0,255,79.24c-2.77-2.29-5.94-4-8.7-6.36-5-4.15-8.32-9.9-12.84-14.52a39.21,39.21,0,0,0-17.71-10.27c4.57-5.69,7.29-9.05,7.48-9.22,1.4-1.27,4.77-4.61,18.45,3.56s37.71,36.31,58.22,82.86S309.11,190.27,305.07,191.4Z" fill="#24285b"></path><path d="M192.46,104.15a7.14,7.14,0,0,0-5.78,1.17,8.27,8.27,0,0,0-2.18,2.27,7.11,7.11,0,0,0-1,3.1,1.9,1.9,0,0,0,.55,1.33,1.94,1.94,0,0,0,1.34.56,1.88,1.88,0,0,0,1.34-.56,2.07,2.07,0,0,0,.52-1.12l0,.11a5.88,5.88,0,0,1,.18-.81l.08-.2a1.79,1.79,0,0,1,.09-.19c.07-.13.14-.26.22-.38a1,1,0,0,1,.13-.17c.15-.17.29-.34.45-.5l.27-.23.07,0a6.65,6.65,0,0,1,.73-.43l0,0c.12,0,.25-.1.35-.13s.42-.1.63-.14a5.61,5.61,0,0,1,.82,0l.15,0a1.89,1.89,0,1,0,1-3.64Z" opacity="0.1"></path><path d="M225,158.78a1.9,1.9,0,0,0-2.32-1.32,1.94,1.94,0,0,0-1.32,2.33v.1c0,.15,0,.3,0,.45s0,.3,0,.46,0,.16,0,.25v0a5.5,5.5,0,0,1-.17.75c0,.15-.09.29-.15.44s0,.07,0,.11a6.23,6.23,0,0,1-.44.8l-.16.26h0l-.17.2a7.17,7.17,0,0,1-.68.67l0,0-.05,0-.42.27a1.89,1.89,0,1,0,1.9,3.26,8.47,8.47,0,0,0,3.39-3.74A9,9,0,0,0,225,158.78Z" opacity="0.1"></path><path d="M175.62,171.84a2.21,2.21,0,0,0-1.34-.56,12.63,12.63,0,0,0-9.72,3,1.89,1.89,0,0,0,0,2.67,1.93,1.93,0,0,0,2.67,0c.09-.07.5-.49.14-.12a2.75,2.75,0,0,1,.44-.32,10.64,10.64,0,0,1,.92-.55l.48-.24.18-.09c.33-.12.66-.24,1-.34a9.92,9.92,0,0,1,1.05-.24l.27-.05c.21,0,.17,0-.11,0a1.94,1.94,0,0,1,.54,0,11,11,0,0,1,2.14.07,1.87,1.87,0,0,0,1.34-.55,1.93,1.93,0,0,0,.55-1.34A1.9,1.9,0,0,0,175.62,171.84Z" opacity="0.1"></path><path d="M139.75,208.6a1.91,1.91,0,0,0-2.33-1.32,12.15,12.15,0,0,1-2.08.51,11.78,11.78,0,0,1-2.72,0c-.21,0-.41-.06-.62-.11a1.89,1.89,0,0,0-1,3.65,13.8,13.8,0,0,0,7.43-.4A1.92,1.92,0,0,0,139.75,208.6Z" opacity="0.1"></path><path d="M148.91,152.17a9.33,9.33,0,0,0-5.82-2.55,1.89,1.89,0,0,0-1.89,1.89,1.91,1.91,0,0,0,.55,1.34,2.14,2.14,0,0,0,1.34.55h.11a7.13,7.13,0,0,1,1.44.39,8.21,8.21,0,0,1,1.19.69l.41.35a2,2,0,0,0,1.33.56,1.89,1.89,0,0,0,1.89-1.89A2,2,0,0,0,148.91,152.17Z" opacity="0.1"></path><path d="M221.6,190.19a1.93,1.93,0,0,0-1.13-.87,4.87,4.87,0,0,1-.83-.23,6,6,0,0,1-.88-.52,6.34,6.34,0,0,1-.69-.68,6.87,6.87,0,0,1-.48-.83c0-.12-.09-.23-.12-.35a2,2,0,0,0-.87-1.13,1.91,1.91,0,0,0-1.46-.19,1.93,1.93,0,0,0-1.32,2.33,7.57,7.57,0,0,0,5.64,5.25,2,2,0,0,0,1.46-.19,1.93,1.93,0,0,0,.87-1.13A1.91,1.91,0,0,0,221.6,190.19Z" opacity="0.1"></path></svg>