<?xml version="1.0" standalone="no"?>
<!DOCTYPE svg PUBLIC "-//W3C//DTD SVG 20010904//EN"
 "http://www.w3.org/TR/2001/REC-SVG-20010904/DTD/svg10.dtd">
<svg version="1.0" xmlns="http://www.w3.org/2000/svg"
 width="800.000000pt" height="550.000000pt" viewBox="0 0 800.000000 550.000000"
 preserveAspectRatio="xMidYMid meet">

<g transform="translate(0.000000,550.000000) scale(0.100000,-0.100000)"
fill="#000000" stroke="none">
<path d="M3781 4884 c-25 -25 -48 -33 -35 -13 4 7 1 10 -7 7 -8 -3 -14 -11
-14 -19 0 -15 -18 -19 -249 -44 -161 -18 -172 -16 -159 32 6 25 -6 30 -25 11
-15 -15 -15 -59 -1 -109 11 -34 9 -45 -15 -97 -14 -33 -26 -64 -26 -69 0 -6
18 -13 39 -17 22 -3 48 -9 58 -12 17 -6 17 -6 1 7 -10 8 -19 25 -21 38 -2 14
-9 27 -15 29 -16 5 -15 23 1 20 7 -2 13 9 14 27 2 27 2 28 -7 8 -5 -13 -12
-23 -14 -23 -10 0 7 35 23 49 12 10 13 15 4 18 -21 8 -15 39 10 51 30 16 130
30 262 38 61 3 119 7 130 9 11 1 31 -2 45 -8 14 -5 52 -10 85 -10 49 0 52 -1
15 -4 -33 -3 -40 -7 -30 -14 11 -8 8 -8 -10 -3 -23 6 -24 6 -6 -12 14 -14 35
-19 85 -19 36 -1 72 3 79 9 9 7 16 6 22 -3 5 -9 18 -11 39 -6 l31 7 -16 -34
c-19 -40 -41 -45 -57 -11 -10 22 -15 24 -90 21 -61 -2 -81 -7 -84 -18 -4 -13
-3 -13 6 0 10 13 11 13 11 0 0 -13 1 -13 10 0 9 13 10 13 10 0 0 -13 1 -13 10
0 9 13 10 13 10 0 0 -13 1 -13 10 0 9 13 10 13 10 0 0 -13 1 -13 10 0 9 13 10
13 10 0 0 -13 1 -13 10 0 9 13 10 13 10 0 0 -12 2 -12 9 -2 7 11 9 11 14 -2 6
-14 -5 -16 -73 -16 l-80 0 0 -80 c0 -66 2 -78 15 -74 10 4 15 0 16 -12 0 -18
1 -17 9 1 5 11 9 15 9 9 1 -14 31 -14 31 0 0 5 7 1 15 -10 8 -11 15 -14 15 -6
0 6 5 12 11 12 8 0 8 -4 0 -14 -7 -8 -22 -11 -38 -8 -16 3 -24 1 -19 -6 3 -5
28 -10 56 -10 49 -1 57 5 51 41 -2 16 27 6 32 -12 6 -24 -23 -49 -60 -51 -51
-4 -93 0 -92 8 3 19 -3 28 -20 29 -20 2 -30 -19 -23 -49 4 -20 104 -38 110
-19 2 6 8 11 13 11 6 0 7 -4 4 -10 -3 -5 -1 -10 4 -10 6 0 11 6 11 13 0 9 2 9
8 -1 10 -14 249 -15 258 0 3 5 11 5 17 1 9 -5 9 -3 0 8 -8 9 -10 40 -7 87 3
45 1 72 -6 72 -5 0 -10 16 -10 35 0 21 -5 35 -12 35 -10 0 -10 2 -1 8 18 12
21 85 3 99 -13 10 -11 11 8 6 13 -3 22 -1 22 6 0 6 5 11 10 11 6 0 9 -5 8 -11
-2 -6 3 -14 10 -16 7 -3 11 1 10 9 -7 32 342 13 400 -22 27 -17 28 -21 27 -86
-1 -38 -7 -86 -14 -107 -7 -21 -10 -41 -7 -44 3 -3 29 1 58 9 47 13 53 18 50
39 -1 13 -13 46 -27 72 -24 46 -24 50 -10 109 14 60 14 60 -12 84 -14 13 -35
24 -47 24 -16 0 -18 -2 -7 -9 8 -5 11 -16 8 -24 -3 -9 -2 -17 3 -19 5 -2 6 -8
2 -14 -5 -8 -41 -8 -132 2 -69 7 -172 16 -230 19 -126 7 -231 25 -223 38 3 5
-7 6 -25 2 -24 -5 -31 -3 -35 12 -4 14 -5 13 -6 -4 -1 -27 -41 -33 -41 -7 0
10 6 14 15 10 9 -3 15 0 15 9 0 8 -9 15 -20 15 -14 0 -20 -7 -20 -22 0 -18 -2
-20 -9 -9 -5 8 -22 15 -38 17 -164 14 -167 14 -192 -12z m307 -41 c-10 -2 -28
-2 -40 0 -13 2 -5 4 17 4 22 1 32 -1 23 -4z m50 -38 c-6 -14 -15 -25 -20 -25
-4 0 -8 11 -8 25 0 18 5 25 20 25 17 0 18 -3 8 -25z m-66 -2 c-6 -2 -10 -9 -6
-14 3 -5 1 -9 -4 -9 -6 0 -12 7 -16 15 -4 11 1 15 17 14 12 0 16 -3 9 -6z
m-119 -20 c-7 -2 -19 -2 -25 0 -7 3 -2 5 12 5 14 0 19 -2 13 -5z m271 -2 c10
-15 -22 -20 -34 -5 -10 11 -9 14 8 14 12 0 23 -4 26 -9z m-38 -76 c9 -8 11
-15 6 -15 -6 0 -12 -33 -14 -73 l-3 -73 33 1 c21 2 32 -3 32 -11 0 -9 -12 -14
-36 -14 -19 0 -43 -7 -52 -16 -10 -11 -17 -13 -20 -6 -6 19 -3 27 11 27 8 0
13 24 15 80 2 48 8 82 15 87 8 5 6 8 -6 8 -10 0 -15 5 -12 10 8 14 14 13 31
-5z m54 -235 c0 -12 -108 -11 -115 0 -3 4 22 8 55 9 36 1 60 -3 60 -9z m-300
-10 c0 -5 -4 -10 -10 -10 -5 0 -10 5 -10 10 0 6 5 10 10 10 6 0 10 -4 10 -10z"/>
<path d="M4120 4901 c0 -5 11 -11 25 -13 17 -4 25 -1 25 8 0 8 -11 14 -25 14
-14 0 -25 -4 -25 -9z"/>
<path d="M4668 4883 c7 -3 16 -2 19 1 4 3 -2 6 -13 5 -11 0 -14 -3 -6 -6z"/>
<path d="M4180 4870 c0 -5 4 -10 9 -10 6 0 13 5 16 10 3 6 -1 10 -9 10 -9 0
-16 -4 -16 -10z"/>
<path d="M3227 4454 c-3 -21 -6 -542 -7 -1157 -1 -1066 0 -1118 17 -1123 48
-14 71 -36 135 -127 38 -54 77 -108 88 -120 27 -28 25 -39 -5 -25 -14 6 -25
14 -25 18 0 3 -17 12 -37 19 -35 13 -36 14 -17 28 18 14 17 15 -9 9 -18 -4
-35 -2 -44 5 -13 11 -11 15 9 31 20 15 21 18 5 18 -10 0 -26 -4 -35 -9 -19
-10 -50 10 -68 42 -14 24 -16 -1123 -3 -1175 5 -20 29 -58 53 -85 24 -26 53
-64 65 -83 15 -25 21 -30 21 -16 0 26 12 12 14 -15 0 -12 7 -24 14 -27 20 -6
14 57 -8 85 -11 14 -20 32 -20 40 0 8 -6 13 -12 11 -7 -3 -21 6 -31 19 -10 13
-27 23 -38 23 -10 0 -19 7 -19 15 0 8 5 15 11 15 5 0 8 -4 5 -8 -3 -5 1 -9 9
-9 8 0 12 4 10 8 -3 3 24 4 60 1 46 -3 65 -1 65 7 0 12 -63 44 -87 44 -10 0
-13 97 -13 452 0 347 -3 454 -12 464 -22 22 43 1 78 -25 34 -27 185 -99 226
-109 22 -6 30 -17 44 -58 9 -29 23 -59 30 -67 10 -10 9 3 -6 44 -11 33 -18 61
-15 64 13 13 34 -13 55 -68 15 -40 26 -57 31 -48 6 10 9 9 14 -4 11 -29 1 -52
-27 -62 -23 -8 -32 -6 -52 13 -14 13 -22 29 -19 37 8 20 -3 17 -31 -10 -34
-31 -33 -46 9 -86 19 -19 35 -29 35 -24 0 6 -14 23 -30 39 -19 18 -27 32 -21
38 16 16 55 0 74 -30 10 -15 16 -21 14 -12 -4 12 3 18 24 23 20 4 33 14 40 33
8 22 12 24 19 13 6 -8 10 -28 10 -43 0 -22 12 -40 50 -74 28 -25 50 -50 50
-57 0 -17 -78 -72 -146 -102 -71 -31 -165 -41 -219 -22 l-40 13 0 54 c1 40 6
57 20 67 40 29 120 12 190 -42 38 -29 49 -24 13 7 -17 13 -19 19 -8 19 19 1
-17 23 -40 25 -8 1 -32 7 -53 14 -81 27 -147 -14 -147 -91 0 -47 35 -88 77
-89 15 0 44 -2 63 -3 19 -1 64 4 100 11 36 7 70 11 77 8 7 -2 19 3 28 11 9 9
22 13 30 10 8 -3 17 -1 20 4 3 4 -1 11 -7 13 -10 4 -10 6 -1 6 14 1 28 -22 37
-64 5 -22 4 -26 -4 -15 -8 13 -10 12 -10 -3 0 -11 -6 -17 -12 -15 -13 5 -14 9
-17 45 -1 13 -4 14 -13 5 -7 -7 -21 -12 -32 -13 -21 0 -21 0 -1 -10 17 -8 16
-9 -7 -6 -16 3 -28 0 -28 -4 0 -5 10 -9 23 -9 22 0 22 -1 22 -149 1 -115 4
-153 15 -167 14 -16 13 -17 -21 -12 -27 5 -38 2 -47 -12 -7 -12 -18 -16 -33
-13 -12 3 -24 0 -29 -7 -6 -9 -13 -9 -28 -1 -28 15 -84 14 -107 -2 -17 -13
-17 -15 3 -35 26 -26 28 -34 5 -25 -15 6 -16 5 -3 -9 8 -9 17 -12 18 -7 7 17
22 9 22 -12 0 -18 -4 -20 -27 -15 -21 5 -24 4 -13 -4 8 -5 29 -10 45 -11 30
-2 30 -2 -5 -9 -34 -7 -34 -7 -5 -8 17 -1 44 5 60 13 29 13 30 13 5 15 -22 1
-23 2 -8 13 20 16 11 31 -21 35 -44 5 -42 23 2 26 17 1 23 5 19 16 -5 12 -3
13 9 3 14 -11 119 -16 299 -13 51 0 61 3 47 11 -10 6 -25 8 -34 5 -9 -4 -50
-3 -92 1 -71 6 -73 7 -36 14 22 4 108 8 190 9 83 1 165 2 183 2 17 0 32 5 32
10 0 5 10 6 23 3 16 -5 18 -4 8 3 -16 11 -103 8 -123 -4 -11 -6 -11 -5 0 8 7
9 22 15 33 13 19 -4 20 1 18 105 -2 61 -4 110 -5 110 -2 0 -14 -4 -28 -10 -40
-15 -31 -3 15 19 22 11 48 17 57 14 13 -4 14 -3 4 5 -11 7 -10 10 3 16 24 9
27 8 19 -6 -4 -8 -3 -10 2 -5 5 5 9 14 9 20 0 10 29 30 200 137 28 17 77 51
110 75 33 24 64 41 69 38 5 -4 6 -1 2 5 -3 6 1 9 11 7 10 -2 20 -4 22 -4 2 -1
-3 -9 -12 -19 -11 -11 -13 -22 -7 -28 5 -5 10 -73 11 -150 l1 -141 -36 -47
c-39 -51 -50 -80 -44 -117 3 -21 10 -25 53 -30 28 -3 55 -2 62 3 7 6 14 4 19
-3 5 -8 3 -9 -5 -5 -8 5 -12 3 -10 -5 3 -27 -1 -40 -11 -34 -5 3 -10 1 -10 -4
0 -6 -7 -11 -17 -11 -9 0 -14 -3 -10 -6 3 -4 -7 -26 -24 -50 -16 -24 -27 -44
-24 -44 3 0 1 -9 -5 -20 -7 -14 -7 -20 0 -20 14 0 50 37 50 51 0 7 25 41 55
76 30 36 55 71 55 78 0 7 5 15 10 17 7 2 9 259 8 761 l-3 758 -50 -36 c-42
-30 -51 -33 -54 -18 -2 9 1 19 7 21 6 2 31 17 56 33 43 29 46 34 46 74 0 37
-4 45 -22 50 -66 19 -158 62 -158 73 0 7 -10 16 -22 21 -13 5 -17 10 -10 15 6
4 46 -11 89 -32 43 -22 88 -43 101 -46 l22 -7 0 539 0 540 -32 13 c-42 17 -92
62 -120 107 -20 32 -23 50 -23 132 0 88 3 100 34 165 21 43 55 90 88 122 l53
52 0 138 c0 85 -4 133 -9 127 -5 -5 -20 -38 -34 -74 -19 -53 -30 -68 -58 -82
-19 -10 -28 -18 -21 -18 10 0 12 -11 6 -45 -4 -33 -3 -45 6 -45 9 0 9 -4 2
-12 -15 -19 -23 -80 -9 -71 6 4 2 -7 -10 -23 -44 -63 -67 -144 -67 -239 0 -81
3 -96 29 -145 16 -30 29 -58 30 -62 0 -3 4 -10 9 -15 5 -5 6 -2 1 6 -5 9 -4
12 2 8 5 -3 8 -25 7 -49 -5 -89 -5 -264 0 -285 6 -28 -15 -83 -31 -83 -8 0
-13 -13 -13 -31 0 -28 3 -31 25 -27 21 4 25 1 25 -18 0 -12 -4 -25 -9 -28 -5
-3 -7 -23 -4 -44 2 -20 0 -70 -5 -110 l-9 -74 28 4 c30 5 37 -4 35 -37 -2 -24
-35 -65 -53 -65 -7 0 -15 -11 -19 -24 -3 -13 -14 -26 -23 -29 -21 -5 -32 -49
-16 -64 7 -6 20 -7 34 -1 21 7 23 6 19 -17 -3 -13 -1 -22 3 -19 5 3 9 -2 9
-10 0 -23 -14 -27 -49 -13 -18 7 -29 17 -27 24 3 7 2 13 -2 13 -5 0 -18 -20
-30 -45 -19 -40 -20 -45 -5 -37 41 21 59 -20 24 -52 -12 -11 -27 -15 -39 -12
-24 8 -49 -31 -97 -149 -28 -70 -36 -81 -61 -86 -29 -7 -29 -7 -3 -8 15 0 32
6 40 15 23 28 65 43 102 37 33 -5 41 -1 95 51 32 31 63 56 69 56 18 0 45 -37
33 -45 -6 -4 -17 1 -25 11 -13 18 -14 17 -20 -9 -4 -15 -5 -55 -3 -87 4 -54 2
-62 -22 -85 -24 -23 -30 -24 -58 -14 -54 19 -96 -24 -131 -133 -14 -43 -63
-87 -161 -144 -73 -43 -63 -41 -155 -21 -75 16 -106 28 -145 53 -19 12 -17 9
7 -14 33 -32 86 -52 138 -52 56 0 59 -15 8 -38 -100 -44 -227 -71 -335 -72
l-48 0 0 48 c0 26 -5 54 -10 62 -7 12 -13 6 -26 -28 -20 -50 -44 -56 -44 -12
0 34 38 80 65 80 8 0 38 -16 67 -35 62 -43 84 -49 151 -41 87 11 81 21 -12 21
-85 0 -91 1 -135 34 -47 33 -63 35 -121 16 -26 -8 -102 45 -116 82 -12 32 7
141 22 126 6 -6 6 -20 0 -36 -11 -27 -6 -57 9 -57 22 0 80 121 80 166 0 13 -3
12 -24 -1 -31 -21 -45 -2 -20 26 35 39 58 18 105 -91 50 -120 108 -182 181
-195 34 -6 36 -5 31 14 -7 27 10 47 56 67 42 19 177 84 203 99 10 5 18 13 18
17 0 5 8 8 18 8 13 0 14 2 3 9 -8 5 -10 14 -5 22 4 8 -13 -5 -40 -28 -51 -45
-138 -93 -168 -93 -20 0 -41 64 -36 113 3 32 3 32 55 29 68 -5 111 16 169 85
44 52 49 54 83 49 34 -6 35 -5 17 9 -24 18 -58 19 -75 3 -10 -11 -10 -8 -2 12
6 14 16 37 22 53 11 28 19 31 57 21 19 -6 22 -13 23 -63 1 -35 5 -14 9 54 5
61 18 148 29 194 23 88 23 140 0 59 -9 -34 -18 -48 -30 -48 -38 0 -49 -12 -49
-52 0 -31 4 -41 20 -45 16 -4 20 -14 20 -45 0 -31 -3 -39 -14 -35 -8 3 -33 11
-56 17 -38 10 -84 43 -74 53 3 2 -8 2 -23 0 -27 -4 -27 -4 -8 12 17 14 18 17
5 25 -8 5 -16 5 -18 1 -2 -5 -17 -2 -33 6 -17 8 -28 17 -25 20 2 2 13 0 24 -6
15 -8 23 -7 30 2 12 15 11 89 -1 98 -5 3 6 9 25 13 22 4 29 9 20 14 -9 6 -2
20 27 51 21 23 56 76 77 118 34 66 39 87 42 157 5 113 -19 176 -99 255 -46 45
-70 61 -100 66 -21 4 -39 11 -39 17 0 6 11 8 28 4 15 -4 35 -8 45 -10 10 -1
23 -9 28 -17 8 -11 9 -10 7 6 -2 14 -16 23 -48 31 -36 8 -40 12 -22 16 22 6
22 7 22 235 -1 242 -6 273 -47 259 -16 -5 -16 -4 1 9 26 19 34 19 39 -2 3 -10
5 -3 6 15 0 18 -4 32 -10 32 -8 0 -7 6 2 17 12 15 12 16 -4 10 -10 -4 -21 -7
-23 -7 -3 0 -2 -4 1 -10 4 -6 -1 -7 -11 -3 -15 5 -12 9 14 21 21 10 30 22 29
34 -2 20 58 60 171 113 36 17 52 31 52 44 0 33 -16 33 -85 1 -60 -27 -142 -44
-106 -21 8 5 20 7 28 4 7 -3 13 0 13 6 0 6 30 26 68 45 92 48 63 45 -50 -5
-173 -77 -386 -154 -396 -144 -10 10 13 24 67 39 69 19 300 111 314 125 5 5
-10 5 -40 0 -58 -12 -415 -15 -431 -5 -12 7 -13 -5 -17 -139 -2 -46 4 -76 14
-71 3 2 15 0 26 -5 17 -6 17 -8 3 -8 -10 -1 -20 0 -22 2 -2 1 -12 -5 -22 -15
-11 -9 -43 -24 -72 -33 -44 -15 -53 -21 -50 -39 3 -23 11 -23 173 -16 84 4
130 1 121 -7 -3 -4 -44 -8 -89 -9 l-82 -3 -3 -77 c-3 -73 -2 -76 18 -71 11 3
20 2 20 -2 0 -18 -108 -36 -255 -41 l-160 -6 165 -2 c179 -2 303 13 415 50 88
28 94 21 65 -73 -28 -93 -162 -362 -206 -413 -42 -50 -74 -132 -74 -194 0 -27
-9 -88 -20 -138 -12 -49 -24 -146 -27 -215 l-6 -126 -141 -42 c-194 -58 -193
-58 -201 -31 -25 78 46 302 177 565 33 66 55 116 49 110 -5 -5 -43 -77 -84
-160 -84 -169 -140 -326 -158 -445 -12 -76 -11 -82 8 -108 11 -15 29 -28 41
-30 11 -2 71 13 134 32 62 20 137 40 167 46 30 6 57 13 60 16 3 3 5 60 4 127
-1 78 2 109 7 87 l7 -35 3 35 c1 19 1 43 0 54 -1 12 3 16 10 11 6 -4 10 -16 7
-26 -4 -16 -1 -18 21 -14 15 3 20 2 12 -2 -32 -14 -42 -33 -36 -66 4 -18 6
-43 6 -56 0 -13 4 -29 10 -35 11 -14 9 -57 -2 -50 -4 3 -8 0 -8 -6 0 -6 -4 -9
-9 -5 -6 3 -15 -4 -21 -15 -6 -11 -18 -20 -26 -20 -8 0 -12 -5 -9 -10 4 -6 11
-8 16 -5 10 7 7 -30 -3 -40 -7 -7 49 -70 62 -70 6 0 10 -3 10 -7 0 -5 0 -15 0
-23 0 -9 -6 -12 -15 -9 -8 4 -15 10 -15 16 0 5 4 7 9 3 5 -3 12 -1 16 4 3 6
-3 8 -15 6 -13 -2 -20 1 -20 11 0 8 -4 14 -10 14 -14 0 -12 -27 3 -33 9 -3 9
-9 -1 -26 -9 -15 -9 -21 -1 -21 8 0 7 -5 -1 -15 -11 -13 -15 -13 -21 -3 -6 9
-9 6 -9 -10 0 -20 -3 -22 -39 -16 -33 5 -41 3 -55 -17 -18 -26 -14 -29 -56 38
-24 37 -45 47 -70 33 -19 -10 -24 -27 -36 -113 l-7 -49 -61 7 c-95 11 -109 22
-112 86 -2 66 -8 96 -19 106 -4 5 -5 1 0 -7 5 -8 5 -12 1 -8 -6 5 -7 333 -3
941 0 21 4 27 23 27 12 0 46 15 75 33 48 30 60 32 158 37 58 3 123 4 144 2
l38 -3 -22 -37 c-47 -77 -53 -89 -28 -57 13 16 46 60 72 98 l49 68 -44 -5
c-24 -3 -99 -8 -168 -11 -152 -7 -174 -11 -222 -41 -76 -48 -80 -35 -44 126
19 84 29 109 51 127 14 13 22 23 17 23 -22 0 -61 -56 -82 -118 -12 -37 -24
-68 -25 -70 -1 -1 -2 15 -1 38 0 22 3 40 6 40 3 0 5 167 5 372 l-1 371 -22 10
c-14 7 -31 35 -50 85 l-29 76 -6 -40z m860 -240 c-3 -3 -12 -4 -19 -1 -8 3 -5
6 6 6 11 1 17 -2 13 -5z m-130 -20 c2 -7 -8 -10 -24 -9 -40 3 -43 4 -43 16 0
14 62 7 67 -7z m63 -3 c-6 -13 -17 -17 -30 -14 -35 9 -20 30 23 32 14 1 16 -3
7 -18z m80 -1 c0 -5 -4 -10 -9 -10 -6 0 -13 5 -16 10 -3 6 1 10 9 10 9 0 16
-4 16 -10z m47 4 c-3 -3 -12 -4 -19 -1 -8 3 -5 6 6 6 11 1 17 -2 13 -5z m-268
-35 c3 -11 1 -12 -11 -2 -8 7 -19 9 -23 5 -5 -4 -5 -1 -1 6 9 16 28 11 35 -9z
m210 7 c-11 -9 -69 -14 -69 -6 0 6 17 10 37 10 20 0 34 -2 32 -4z m-140 -37
c-8 -5 -15 -4 -17 1 -2 6 -11 6 -23 -1 -14 -7 -18 -16 -14 -32 4 -12 3 -17 -2
-11 -12 17 -58 30 -48 14 5 -8 4 -11 -3 -7 -9 6 -9 15 -2 47 0 3 5 -3 11 -12
12 -21 31 -24 23 -5 -2 7 3 14 13 15 35 4 53 8 60 16 4 4 9 2 12 -5 2 -6 -3
-15 -10 -20z m151 -34 c0 -6 -56 -35 -67 -35 -4 1 8 9 27 20 39 22 40 22 40
15z m-220 -35 c0 -5 -4 -10 -10 -10 -5 0 -10 5 -10 10 0 6 5 10 10 10 6 0 10
-4 10 -10z m44 -16 c9 -3 13 -11 10 -16 -4 -6 -10 -5 -15 3 -6 10 -9 11 -9 2
0 -7 -4 -13 -10 -13 -5 0 -7 7 -4 15 7 17 7 17 28 9z m56 2 c0 -2 -7 -7 -16
-10 -8 -3 -12 -2 -9 4 6 10 25 14 25 6z m185 -26 c-4 -7 3 -9 22 -5 15 3 21 2
13 -1 -8 -4 -22 -11 -32 -15 -12 -7 -15 -5 -13 9 5 23 4 22 11 22 3 0 2 -5 -1
-10z m-55 -24 c0 -2 -9 -6 -20 -9 -11 -3 -18 -1 -14 4 5 9 34 13 34 5z m10
-31 c0 -18 41 -20 57 -4 8 8 17 8 29 1 15 -9 14 -12 -16 -27 -27 -14 -34 -14
-41 -3 -7 10 -9 10 -9 1 0 -8 -13 -13 -30 -13 -25 0 -30 4 -30 23 0 13 3 27 7
30 12 13 33 7 33 -8z m-136 -10 c-10 -8 -23 -14 -29 -14 -5 0 -1 6 9 14 11 8
24 15 30 15 5 0 1 -7 -10 -15z m196 -297 l0 -242 -21 23 c-16 17 -20 30 -15
54 4 22 3 27 -3 17 -16 -24 -22 -6 -8 23 6 15 17 25 23 23 9 -3 12 27 13 106
1 92 -2 109 -14 104 -8 -3 -17 -1 -20 4 -4 6 -3 10 2 10 10 0 33 50 32 69 -1
9 -4 5 -8 -8 -7 -28 -31 -41 -31 -18 0 9 -10 17 -22 19 -18 3 -14 7 20 16 24
8 42 19 42 27 0 8 2 15 5 15 3 0 5 -109 5 -242z m-134 185 c-6 -15 -4 -15 14
2 19 18 20 18 20 -2 0 -11 -6 -20 -12 -20 -7 0 -25 -4 -39 -7 -20 -6 -28 -3
-33 9 -9 24 1 35 31 35 19 0 24 -4 19 -17z m59 -43 c17 -4 22 -8 13 -9 -9 0
-24 -4 -34 -8 -13 -5 -15 -3 -9 7 6 10 4 11 -11 5 -10 -5 -29 -9 -41 -9 -11
-1 -19 -5 -16 -9 3 -5 17 -6 32 -3 l26 6 -25 -14 c-14 -8 -27 -11 -30 -7 -3 5
-16 12 -29 16 -30 9 -16 22 29 28 51 6 62 5 95 -3z m47 -189 c-5 -3 -13 -16
-17 -29 -4 -13 -9 -22 -11 -19 -8 8 18 67 28 61 7 -4 7 -9 0 -13z m-44 -121
c1 -22 -3 -40 -8 -40 -6 0 -9 -6 -7 -12 3 -18 -25 -16 -31 1 -3 9 0 11 8 6 9
-5 10 -2 5 15 -5 15 -4 20 4 16 6 -4 12 -2 12 3 1 6 3 16 4 21 1 6 3 15 4 20
3 23 8 7 9 -30z m32 -58 c0 -5 -7 -9 -15 -9 -8 0 -12 4 -9 9 3 4 9 8 15 8 5 0
9 -4 9 -8z m19 -26 c-9 -8 -99 -13 -99 -5 0 5 23 9 52 9 28 0 49 -2 47 -4z
m169 -158 c25 -25 2 -211 -32 -263 -10 -15 -40 -37 -67 -48 -45 -19 -49 -24
-55 -64 -3 -23 -11 -46 -18 -51 -17 -14 -76 -23 -76 -12 0 5 16 100 35 210 19
110 35 203 35 205 0 2 17 7 38 10 20 4 46 10 57 15 29 13 69 12 83 -2z m-237
-200 l-26 -158 -35 -6 c-19 -3 -51 -9 -71 -13 -45 -10 -77 2 -84 32 -5 18 30
267 38 273 1 1 19 4 40 7 44 7 45 5 22 -123 -19 -105 -19 -130 -1 -130 17 0
19 8 42 154 l19 115 35 9 c19 5 38 6 41 3 4 -3 -5 -77 -20 -163z m-213 -239
c12 -19 11 -19 -8 -9 -11 6 -20 15 -20 20 0 17 15 11 28 -11z m912 -4 c0 -9
-6 -12 -16 -8 -10 4 -17 -1 -21 -15 -2 -11 -15 -23 -28 -26 -12 -3 -25 -15
-28 -26 -3 -11 -13 -20 -22 -20 -12 0 -15 5 -11 16 3 9 6 20 6 25 0 5 3 8 8 8
20 -3 30 3 35 21 3 12 14 20 25 20 12 0 24 5 27 10 9 15 25 12 25 -5z m-856
-50 c4 -10 -1 -15 -15 -15 -17 0 -18 2 -7 15 16 18 15 18 22 0z m-61 -34 c-4
-3 -11 -10 -15 -15 -5 -5 -8 0 -8 12 0 15 4 20 16 15 9 -3 12 -9 7 -12z m124
-11 c4 -12 3 -13 -5 -1 -7 9 -20 12 -39 8 -16 -3 -35 -2 -41 2 -7 4 8 7 34 7
33 -1 49 -6 51 -16z m734 -3 c-10 -9 -11 -8 -5 6 3 10 9 15 12 12 3 -3 0 -11
-7 -18z m-524 -2 c0 -9 -14 -19 -30 -23 -17 -4 -33 -14 -35 -21 -3 -9 0 -11 8
-6 9 5 11 4 6 -4 -10 -16 -26 -4 -26 19 0 10 -6 21 -12 24 -7 3 -2 3 11 0 15
-4 21 -2 17 4 -4 6 5 12 21 15 16 2 31 5 34 6 3 0 6 -6 6 -14z m-127 -20 c7
-8 8 -15 3 -15 -6 0 -15 -10 -21 -22 -7 -15 -11 -18 -12 -8 0 10 -6 6 -16 -10
-14 -24 -14 -24 -8 15 4 22 9 43 11 48 7 12 30 8 43 -8z m-171 -50 c14 -60 30
-81 30 -38 0 41 15 86 31 91 9 3 11 -1 6 -14 -14 -35 -19 -131 -7 -138 19 -12
13 -94 -9 -116 -24 -24 -25 -54 -5 -176 20 -126 19 -123 63 -113 22 5 41 4 46
-1 16 -16 -5 -28 -58 -32 -35 -2 -51 1 -56 12 -5 8 -13 68 -20 133 -14 141
-24 175 -53 179 -28 4 -58 81 -39 100 9 9 12 6 12 -18 0 -35 43 -86 65 -78 8
3 21 19 29 35 14 28 14 29 -9 29 -26 0 -52 25 -36 34 6 4 23 4 38 1 26 -5 26
-5 6 6 -24 13 -63 94 -63 133 0 45 16 28 29 -29z m100 8 c-3 -25 11 -73 22
-73 5 0 9 -4 9 -10 0 -18 -19 -10 -25 11 -5 15 -10 18 -20 9 -11 -9 -13 -7
-10 12 7 50 30 97 24 51z m211 3 c0 -7 -9 -16 -20 -19 -22 -6 -23 -5 -14 17 8
20 34 21 34 2z m220 -28 c0 -32 -15 -52 -34 -45 -19 7 -21 38 -4 55 19 19 38
14 38 -10z m-213 -4 c-3 -3 -12 -4 -19 -1 -8 3 -5 6 6 6 11 1 17 -2 13 -5z
m-172 -24 c3 -5 2 -10 -4 -10 -5 0 -13 5 -16 10 -3 6 -2 10 4 10 5 0 13 -4 16
-10z m53 -39 c-7 -11 -16 -21 -20 -21 -5 0 -8 -8 -8 -17 0 -15 -2 -16 -10 -3
-7 11 -4 20 11 33 12 9 16 17 9 17 -10 0 -10 3 0 15 19 23 35 2 18 -24z m112
3 c0 -2 -9 0 -20 6 -11 6 -20 13 -20 16 0 2 9 0 20 -6 11 -6 20 -13 20 -16z
m-210 -4 c0 -5 -2 -10 -4 -10 -3 0 -8 5 -11 10 -3 6 -1 10 4 10 6 0 11 -4 11
-10z m683 -4 c13 -10 14 -15 5 -23 -17 -13 -65 -30 -107 -38 -29 -6 -33 -5
-28 10 4 9 7 19 7 21 0 2 16 4 35 4 24 0 39 6 47 20 15 23 17 24 41 6z m-801
-8 c-18 -18 -15 -42 8 -56 20 -12 28 -42 12 -42 -12 0 -37 30 -45 53 -8 21 8
57 25 57 9 0 9 -3 0 -12z m168 -38 c0 -5 -2 -10 -4 -10 -3 0 -8 5 -11 10 -3 6
-1 10 4 10 6 0 11 -4 11 -10z m658 -21 c-16 -25 -88 -102 -88 -94 0 4 12 27
26 52 22 36 44 56 72 62 1 1 -3 -8 -10 -20z m-585 -30 c-8 -8 -13 -7 -18 2 -5
8 -4 10 3 5 15 -9 16 6 2 22 -5 7 -2 5 7 -3 12 -11 14 -18 6 -26z m87 25 c0
-2 -7 -4 -15 -4 -8 0 -15 4 -15 10 0 5 7 7 15 4 8 -4 15 -8 15 -10z m-185 -16
c-15 -9 -15 -11 1 -29 18 -20 54 -26 54 -8 0 5 5 7 11 4 6 -5 4 -12 -8 -21
-17 -13 -17 -14 2 -7 20 6 20 6 1 -15 -10 -12 -23 -20 -29 -19 -6 1 -11 -7
-12 -17 0 -11 -7 -22 -15 -24 -13 -5 -13 -3 -1 12 12 14 12 16 -3 10 -9 -3
-16 -1 -16 5 0 6 -5 11 -11 11 -5 0 -7 -6 -3 -12 4 -7 3 -9 -1 -5 -5 4 -10 14
-11 22 -2 12 2 13 18 4 25 -13 56 7 37 25 -8 8 -13 8 -16 0 -4 -12 -50 -7 -59
7 -3 5 3 6 12 2 12 -5 15 -3 9 6 -6 10 -3 11 14 2 14 -8 21 -8 21 -1 0 5 -4
10 -10 10 -5 0 -10 9 -10 20 0 11 5 20 11 20 5 0 7 4 4 10 -4 6 1 7 11 3 15
-6 15 -7 -1 -15z m615 12 c0 -5 -14 -32 -30 -59 -27 -43 -35 -49 -65 -49 -18
0 -39 -3 -45 -7 -15 -9 -5 27 19 69 11 21 29 33 61 41 60 16 60 16 60 5z
m-415 -19 c-3 -6 -11 -11 -17 -11 -6 0 -6 6 2 15 14 17 26 13 15 -4z m79 13
c17 -7 10 -34 -9 -34 -8 0 -17 -5 -21 -12 -5 -8 -2 -9 11 -4 15 5 16 4 5 -9
-7 -8 -16 -12 -21 -9 -5 3 -9 -3 -10 -13 0 -11 -3 -13 -6 -5 -2 6 -8 10 -13 7
-4 -3 -6 4 -3 15 3 11 9 17 14 14 5 -3 9 -1 9 5 0 5 7 16 15 25 14 13 13 15
-4 13 -11 0 -17 -6 -14 -14 3 -7 0 -13 -6 -13 -6 0 -11 9 -11 20 0 20 30 27
64 14z m-92 -32 c9 1 17 -1 17 -7 0 -5 -7 -9 -16 -7 -9 2 -20 -2 -25 -10 -7
-10 -8 -9 -4 5 3 11 0 17 -9 17 -16 0 -20 12 -8 23 3 4 11 0 18 -9 6 -9 18
-14 27 -12z m-55 -55 c-1 -6 7 -12 19 -13 11 0 28 -5 38 -11 15 -8 16 -11 2
-22 -19 -16 -70 -1 -72 20 -1 8 -2 21 -3 29 -1 13 -2 13 -11 0 -5 -8 -10 -10
-10 -4 0 6 3 13 6 17 9 9 34 -3 31 -16z m-27 -25 c0 -12 -36 -62 -44 -62 -6 0
-5 5 2 12 21 21 13 32 -10 12 l-23 -19 19 22 c10 13 23 20 29 16 6 -4 8 0 5 9
-4 9 0 15 8 15 8 0 14 -2 14 -5z m650 -21 c-10 -20 -30 -29 -30 -14 0 10 33
44 37 39 3 -2 0 -14 -7 -25z m-1130 -83 c62 -85 66 -93 51 -117 -7 -10 -20 3
-51 53 -23 36 -46 66 -51 66 -10 0 -25 -58 -32 -123 -4 -44 -2 -49 19 -57 15
-6 24 -18 24 -31 0 -21 -1 -21 -18 -6 -10 10 -23 17 -28 17 -5 0 -16 15 -24
33 -14 29 -14 41 0 127 15 95 23 120 40 120 5 0 37 -37 70 -82z m507 62 c9 0
13 -6 9 -15 -3 -8 -1 -15 3 -15 5 0 11 7 15 15 3 8 13 15 23 14 11 0 13 -3 5
-6 -6 -2 -9 -10 -6 -15 5 -7 2 -8 -6 -3 -9 6 -12 4 -8 -6 5 -14 1 -15 -56 -10
-6 1 -1 8 10 16 15 11 16 15 4 16 -8 1 -18 1 -22 0 -4 0 -4 7 -1 16 4 11 8 13
11 5 2 -7 11 -12 19 -12z m-846 -13 c-10 -9 -11 -8 -5 6 3 10 9 15 12 12 3 -3
0 -11 -7 -18z m571 -15 c-7 -2 -12 -10 -12 -18 0 -9 4 -12 10 -9 6 3 7 -1 4
-9 -5 -13 -10 -12 -35 6 -34 25 -38 33 -9 18 19 -10 25 -4 21 22 0 4 7 4 16 1
11 -4 13 -8 5 -11z m98 8 c0 -5 -2 -10 -4 -10 -3 0 -8 5 -11 10 -3 6 -1 10 4
10 6 0 11 -4 11 -10z m776 -37 c-3 -10 -20 -27 -37 -37 -36 -21 -32 -8 10 36
29 29 36 29 27 1z m-726 -3 c-12 -12 -18 -25 -15 -30 4 -6 1 -10 -4 -10 -21 0
-11 -19 12 -23 19 -4 19 -4 -5 -6 -28 -1 -45 13 -28 24 5 3 10 11 10 16 0 6
-5 7 -12 3 -7 -5 -8 -3 -4 5 5 7 11 10 14 7 3 -3 11 3 19 14 8 11 18 20 24 20
5 0 0 -9 -11 -20z m-185 -49 c1 -12 -3 -17 -12 -14 -7 3 -13 11 -13 18 0 8 -5
17 -12 21 -7 4 -8 3 -4 -4 4 -7 5 -12 2 -12 -3 0 -10 10 -17 21 -8 15 -8 19 0
15 6 -4 11 -1 11 6 0 20 43 -29 45 -51z m220 49 c-3 -5 -12 -10 -18 -10 -7 0
-6 4 3 10 19 12 23 12 15 0z m-711 -58 c41 -24 67 -62 73 -109 4 -30 12 -44
28 -51 16 -8 22 -7 22 1 -2 77 13 96 47 58 16 -17 16 -21 -5 -57 -20 -37 -20
-38 -1 -16 31 34 72 23 72 -21 0 -17 -2 -17 -22 -3 -12 9 -27 16 -33 16 -5 0
5 -10 23 -21 37 -24 41 -39 10 -40 -21 0 -21 -1 -4 -8 14 -5 16 -10 8 -15 -7
-4 -12 -20 -12 -37 0 -19 -5 -29 -15 -29 -8 0 -15 5 -15 11 0 5 -4 8 -9 5 -4
-3 -27 17 -50 44 -40 47 -51 68 -32 55 22 -13 -110 174 -143 202 -19 17 -32
34 -28 38 9 8 51 -3 86 -23z m261 18 c3 -5 1 -10 -4 -10 -6 0 -11 5 -11 10 0
6 2 10 4 10 3 0 8 -4 11 -10z m1015 -10 c12 -9 4 -21 -49 -70 -35 -33 -66 -58
-68 -56 -9 9 41 107 61 121 24 18 36 18 56 5z m-1364 -16 c19 -15 19 -15 -1
-6 -11 5 -27 12 -35 15 -13 5 -13 6 1 6 8 1 24 -6 35 -15z m624 1 c0 -2 -6 -5
-13 -8 -8 -3 -14 1 -14 8 0 7 6 11 14 8 7 -3 13 -6 13 -8z m817 -10 c0 -8 -4
-15 -9 -15 -4 0 -7 -3 -6 -7 4 -11 -55 -93 -91 -127 l-30 -29 33 76 c38 89 50
104 79 110 12 2 22 5 23 6 0 0 1 -6 1 -14z m-1082 -12 c-4 -10 -10 -26 -12
-35 -3 -10 -9 -15 -14 -12 -14 8 -11 52 4 57 23 10 29 7 22 -10z m-115 -25 c0
-15 -5 -18 -19 -13 -12 4 -23 0 -28 -9 -5 -8 -13 -12 -18 -8 -9 6 -35 47 -35
54 0 2 22 1 50 0 42 -3 50 -7 50 -24z m-121 -96 c22 -34 39 -62 36 -62 -2 0
-32 42 -65 93 -33 50 -49 78 -36 62 14 -17 43 -59 65 -93z m516 108 c-3 -5
-12 -10 -18 -10 -7 0 -6 4 3 10 19 12 23 12 15 0z m-9 -35 c-7 -19 3 -47 15
-39 5 3 15 -1 23 -9 12 -11 11 -15 -4 -25 -15 -9 -22 -8 -37 6 -11 9 -13 13
-6 8 16 -10 17 -1 2 26 -8 15 -13 17 -19 9 -5 -9 -9 -8 -13 4 -4 9 -3 13 3 10
5 -3 15 1 22 9 17 20 22 20 14 1z m711 -2 c-2 -5 -18 -37 -36 -73 -17 -36 -46
-81 -65 -100 -44 -46 -104 -99 -87 -78 7 9 27 50 45 91 24 56 45 85 84 121 50
43 68 56 59 39z m109 -2 c-4 -5 -1 -11 6 -13 7 -3 8 -10 4 -17 -7 -10 -10 -10
-16 -1 -5 8 -9 7 -13 -5 -4 -9 -3 -13 3 -10 16 10 15 -51 -1 -71 -5 -6 -6 -13
-3 -16 11 -12 -24 -75 -52 -93 -109 -71 -169 -275 -81 -275 10 0 30 -9 44 -20
30 -24 51 -25 77 -5 11 8 25 15 30 15 6 0 4 -5 -4 -10 -8 -5 -10 -10 -3 -10 6
0 11 -15 10 -35 -1 -19 -5 -35 -10 -35 -4 0 -5 -5 -1 -11 21 -34 -425 -323
-471 -305 -21 8 -19 27 5 33 23 6 26 21 7 29 -9 3 -14 22 -14 49 0 41 2 45 26
46 18 1 12 4 -19 11 -44 11 -45 11 -17 20 15 5 25 14 22 18 -3 5 -12 7 -20 4
-9 -4 -16 3 -20 19 -10 38 -2 60 25 74 14 7 19 13 13 13 -9 0 -13 22 -13 74 0
62 3 75 18 80 9 3 5 4 -10 2 -35 -4 -25 12 18 30 19 8 34 20 34 28 0 7 45 47
100 87 55 41 150 127 212 191 108 112 126 129 114 109z m-1116 -22 c0 -5 -4
-9 -10 -9 -5 0 -10 7 -10 16 0 8 5 12 10 9 6 -3 10 -10 10 -16z m-135 -9 c3
-5 1 -10 -4 -10 -6 0 -11 5 -11 10 0 6 2 10 4 10 3 0 8 -4 11 -10z m505 -35
c-7 -8 -17 -15 -22 -15 -11 0 14 29 26 30 5 0 3 -7 -4 -15z m-320 -93 c-10 -2
-28 2 -39 8 -17 9 -19 14 -9 29 10 17 13 16 39 -8 25 -23 26 -26 9 -29z m820
51 c0 -13 -61 -129 -81 -153 l-20 -25 5 25 c6 25 6 25 -7 -2 -21 -45 -49 -69
-129 -109 -43 -21 -80 -39 -82 -39 -3 0 8 25 25 56 16 31 29 67 29 80 0 23 25
44 54 44 9 0 24 -17 35 -37 24 -45 27 -37 6 14 -8 19 -15 37 -15 38 0 2 22 17
49 34 44 26 50 28 54 13 4 -13 5 -11 6 5 1 27 71 82 71 56z m-1159 -40 c13
-16 12 -17 -3 -4 -17 13 -22 21 -14 21 2 0 10 -8 17 -17z m79 -52 c0 -5 12
-11 28 -14 45 -10 58 -23 43 -41 -9 -11 -10 -16 -2 -16 6 0 11 5 11 10 0 6 4
10 9 10 9 0 24 -60 17 -67 -7 -8 -166 128 -166 143 0 13 4 13 30 -1 17 -9 30
-19 30 -24z m326 16 c3 -3 3 -22 0 -41 -8 -44 -25 -39 -47 13 l-17 39 29 -2
c16 -1 31 -5 35 -9z m-63 -29 c12 -15 18 -30 15 -34 -8 -7 -78 47 -78 59 0 18
44 0 63 -25z m-333 16 c0 -8 -19 -13 -24 -6 -3 5 1 9 9 9 8 0 15 -2 15 -3z
m284 -33 c10 -11 15 -25 11 -30 -10 -17 -45 6 -45 29 0 25 12 25 34 1z m-216
-27 c15 -14 48 -39 75 -56 64 -43 59 -47 -10 -8 -60 34 -103 68 -103 82 0 14
10 9 38 -18z m150 -38 c25 -33 20 -51 -9 -36 -11 6 -17 15 -14 20 3 5 1 11 -5
15 -5 3 -10 16 -10 28 0 22 3 20 38 -27z m638 -49 c-14 -29 -38 -59 -53 -68
-30 -18 -117 -39 -159 -39 l-24 0 29 41 c16 22 32 52 36 67 5 24 16 30 98 57
86 28 92 29 95 12 2 -10 -8 -42 -22 -70z m-448 66 c88 -20 96 -38 12 -29 -72
8 -122 25 -114 37 7 13 19 12 102 -8z m-159 -19 c3 -16 1 -17 -13 -5 -19 16
-21 34 -3 29 6 -3 14 -13 16 -24z m41 -11 c1 -10 7 -35 14 -55 8 -21 12 -38 9
-38 -2 0 -27 10 -56 22 -46 20 -49 23 -27 28 18 4 26 14 28 33 4 30 32 38 32
10z m145 -18 c6 -2 -14 -1 -43 2 l-53 6 7 -29 c4 -16 11 -37 16 -47 11 -21 5
-32 -14 -24 -11 4 -48 97 -48 119 0 5 112 -18 135 -27z m235 -29 c-6 -20 -25
-50 -42 -66 -25 -25 -37 -30 -76 -29 -71 1 -97 11 -100 38 -3 18 0 22 11 18
16 -6 27 12 27 44 0 16 8 19 48 20 26 0 67 4 92 8 25 4 47 6 48 5 2 -2 -1 -19
-8 -38z m-267 -32 c11 -34 12 -44 2 -44 -7 0 -20 21 -29 47 -19 56 -19 54 -2
47 8 -3 21 -25 29 -50z m37 3 c0 -36 -15 -27 -25 16 -6 22 -4 26 9 21 10 -4
16 -18 16 -37z m460 -31 c0 -2 -8 -10 -17 -17 -16 -13 -17 -12 -4 4 13 16 21
21 21 13z m-41 -44 c-5 -2 -9 -43 -9 -90 0 -60 -3 -82 -10 -72 -8 12 -10 9
-10 -12 0 -35 13 -36 29 -2 14 32 25 26 13 -7 -4 -13 -8 -36 -7 -51 1 -28 -9
-37 -20 -19 -3 5 -1 12 5 16 18 11 10 23 -11 18 -21 -6 -22 -3 -16 38 3 24 9
55 13 68 6 21 5 22 -13 13 -12 -7 -25 -7 -34 -1 -23 15 -39 10 -39 -11 0 -13
7 -20 20 -20 28 0 25 -17 -4 -22 -28 -6 -60 10 -38 19 21 8 3 23 -29 23 -16 0
-32 6 -35 14 -4 11 -13 12 -35 6 -17 -5 -53 -6 -81 -3 -42 5 -50 4 -44 -8 4
-8 -4 -2 -18 14 -14 15 -34 27 -45 27 -12 0 -23 11 -30 32 -6 17 -9 33 -7 36
3 2 22 -2 43 -9 21 -7 49 -14 63 -15 14 -1 33 -2 43 -3 25 -1 11 -21 -16 -22
-43 -2 36 -21 103 -25 36 -2 82 -6 102 -8 24 -2 41 1 49 10 6 8 18 14 25 14 8
0 14 9 14 20 0 11 -3 20 -8 20 -4 0 -13 -9 -20 -20 -12 -19 -52 -28 -52 -12 0
5 -12 13 -27 19 l-28 12 29 -6 c16 -3 27 -2 23 3 -3 5 6 10 19 10 16 1 24 -4
24 -15 1 -14 2 -14 11 2 5 9 19 17 29 17 14 0 20 7 21 23 0 21 1 21 8 2 5 -11
4 -21 0 -23z m-189 -37 c36 -7 54 -13 40 -14 -14 0 -43 4 -65 9 -25 6 -44 5
-49 0 -16 -16 -28 -11 -14 5 15 17 8 17 88 0z m-100 -90 c0 -10 9 -15 28 -14
15 0 21 3 14 6 -21 8 -3 23 29 23 22 0 29 -5 29 -19 0 -17 -15 -26 -62 -37
-10 -2 -18 1 -18 6 0 6 -5 10 -11 10 -5 0 -7 -4 -4 -10 3 -5 1 -18 -4 -29 -7
-13 -8 -21 -1 -24 6 -3 6 -5 0 -3 -7 1 -12 6 -12 11 0 6 -5 16 -11 24 -10 12
-9 13 7 8 15 -6 17 -5 8 6 -7 8 -8 17 -4 22 4 4 -5 0 -19 -9 l-26 -16 5 30 c3
24 9 30 28 30 15 0 24 -6 24 -15z m914 -6 c-54 -61 -293 -235 -439 -320 -61
-35 -249 -129 -259 -129 -3 0 -6 4 -6 9 0 5 39 28 88 51 116 56 327 188 492
309 74 55 137 100 139 100 2 1 -4 -9 -15 -20z m-804 -54 c0 -8 -7 -15 -16 -15
-14 0 -14 3 -4 15 7 8 14 15 16 15 2 0 4 -7 4 -15z m-61 -33 c8 -14 11 -72 4
-72 -1 0 -7 10 -14 21 -8 15 -8 19 0 15 6 -4 11 -2 11 4 0 6 -7 13 -15 16 -16
7 -21 34 -5 34 5 0 14 -8 19 -18z m55 -23 c3 -3 -4 -5 -14 -6 -11 -1 -20 2
-20 7 0 8 25 8 34 -1z m-4 -29 c0 -5 -5 -10 -11 -10 -8 0 -8 -4 0 -14 8 -10 9
-15 1 -18 -6 -2 -12 -11 -13 -20 -6 -35 -47 -64 -47 -33 0 8 7 15 15 15 9 0
15 10 15 26 0 15 4 23 10 19 7 -4 9 2 4 19 -5 20 -2 26 10 26 9 0 16 -4 16
-10z m-285 -28 c-3 -3 -11 0 -18 7 -9 10 -8 11 6 5 10 -3 15 -9 12 -12z m475
8 c0 -5 -7 -10 -15 -10 -8 0 -15 5 -15 10 0 6 7 10 15 10 8 0 15 -4 15 -10z
m-249 -43 c-10 -9 -11 -8 -5 6 3 10 9 15 12 12 3 -3 0 -11 -7 -18z m273 -29
c13 -22 -11 -68 -36 -68 -10 0 -18 5 -18 10 0 6 5 10 10 10 6 0 10 16 10 36 0
37 14 42 34 12z m-314 2 c0 -5 -5 -10 -11 -10 -5 0 -7 5 -4 10 3 6 8 10 11 10
2 0 4 -4 4 -10z m110 -10 c0 -5 -9 -10 -20 -10 -11 0 -20 5 -20 10 0 6 9 10
20 10 11 0 20 -4 20 -10z m-95 -10 c-4 -6 6 -10 24 -10 21 0 32 -6 36 -19 4
-12 12 -18 21 -14 8 3 14 -1 14 -9 0 -7 -9 -14 -19 -14 -11 0 -19 5 -18 10 1
5 -9 10 -23 10 -14 1 -30 10 -37 21 -10 18 -9 35 3 35 3 0 2 -4 -1 -10z m229
-91 c-5 -8 1 -10 19 -5 32 8 45 -9 18 -23 -25 -14 -41 -14 -21 -1 17 11 1 13
-25 4 -12 -5 -13 -9 -4 -14 8 -5 1 -13 -22 -24 -24 -12 -29 -13 -16 -2 17 13
15 14 -16 14 -22 0 -43 8 -56 21 -12 12 -21 22 -21 24 0 2 18 4 40 5 31 2 38
0 34 -12 -9 -22 13 -28 43 -12 24 13 25 15 8 16 l-20 1 20 9 c27 12 27 12 19
-1z m-119 -69 c-3 -5 -13 -10 -21 -10 -8 0 -14 5 -14 10 0 6 9 10 21 10 11 0
17 -4 14 -10z m45 -21 c0 -7 8 -18 18 -26 9 -8 11 -11 3 -7 -9 4 -12 2 -9 -7
3 -8 13 -13 23 -11 11 2 15 -1 10 -10 -3 -7 -1 -6 7 2 7 9 24 17 38 17 14 1
36 5 48 8 15 4 21 2 17 -5 -3 -5 -19 -10 -36 -10 -16 0 -29 -5 -29 -11 0 -5
-4 -8 -9 -5 -5 4 -11 0 -14 -6 -3 -10 -12 -9 -36 4 -27 15 -33 15 -45 2 -19
-18 -37 -18 -30 1 4 8 10 13 14 10 13 -8 23 16 12 27 -11 11 -5 38 9 38 5 0 9
-5 9 -11z m-55 -30 c2 -9 -3 -16 -10 -16 -8 0 -13 9 -12 19 2 21 19 19 22 -3z
m205 -39 c0 -5 -9 -10 -19 -10 -11 0 -23 5 -26 10 -4 6 5 10 19 10 14 0 26 -4
26 -10z m-40 -76 c0 -52 -4 -70 -17 -80 -20 -15 -53 -18 -53 -5 0 4 10 8 23 7
21 -1 22 3 25 72 4 90 22 95 22 6z m-170 -94 c-24 -15 -36 -11 -14 4 10 8 21
12 24 10 2 -3 -2 -9 -10 -14z m85 10 c-6 -9 -65 -11 -65 -2 0 4 15 8 34 8 19
0 33 -3 31 -6z m-142 -7 c-7 -2 -19 -2 -25 0 -7 3 -2 5 12 5 14 0 19 -2 13 -5z
m-323 -43 c12 -8 9 -10 -13 -10 -16 0 -26 4 -22 10 8 12 16 12 35 0z m-270
-46 c0 -8 -4 -12 -10 -9 -5 3 -10 10 -10 16 0 5 5 9 10 9 6 0 10 -7 10 -16z"/>
<path d="M4162 3480 c0 -14 2 -19 5 -12 2 6 2 18 0 25 -3 6 -5 1 -5 -13z"/>
<path d="M4225 3188 c-2 -7 -10 -55 -18 -105 -12 -77 -12 -93 -1 -93 7 0 17 8
22 18 14 26 35 168 28 181 -9 15 -26 14 -31 -1z"/>
<path d="M4190 2340 c0 -5 7 -7 15 -4 8 4 15 8 15 10 0 2 -7 4 -15 4 -8 0 -15
-4 -15 -10z"/>
<path d="M3522 1964 c10 -10 20 -16 22 -13 3 3 -5 11 -17 18 -21 13 -21 12 -5
-5z"/>
<path d="M3495 1917 c22 -29 30 -35 41 -26 8 6 13 19 13 28 -1 13 -2 13 -6 -2
-6 -24 -28 -15 -27 11 0 15 -3 19 -11 12 -7 -6 -16 -5 -25 3 -7 6 -1 -5 15
-26z"/>
<path d="M3920 2060 c0 -5 5 -10 11 -10 5 0 7 5 4 10 -3 6 -8 10 -11 10 -2 0
-4 -4 -4 -10z"/>
<path d="M4288 1416 c-22 -16 -23 -26 -4 -26 7 0 16 9 19 20 3 11 4 20 4 20
-1 0 -10 -7 -19 -14z"/>
<path d="M4248 1373 c7 -3 16 -2 19 1 4 3 -2 6 -13 5 -11 0 -14 -3 -6 -6z"/>
<path d="M4288 1253 c7 -3 16 -2 19 1 4 3 -2 6 -13 5 -11 0 -14 -3 -6 -6z"/>
<path d="M4268 1223 c-10 -2 -18 -9 -18 -14 0 -6 10 -5 23 2 37 20 36 23 -5
12z"/>
<path d="M4391 1894 c0 -11 3 -14 6 -6 3 7 2 16 -1 19 -3 4 -6 -2 -5 -13z"/>
<path d="M3835 1620 c-3 -6 1 -7 9 -4 18 7 21 14 7 14 -6 0 -13 -4 -16 -10z"/>
<path d="M3815 1580 c-3 -5 -2 -10 4 -10 5 0 13 5 16 10 3 6 2 10 -4 10 -5 0
-13 -4 -16 -10z"/>
<path d="M3342 4430 c0 -41 2 -49 8 -30 8 24 8 24 9 3 2 -43 21 -23 21 22 0
26 -5 45 -11 45 -6 0 -9 -7 -5 -15 3 -8 1 -15 -4 -15 -5 0 -11 10 -13 23 -2
12 -4 -3 -5 -33z"/>
<path d="M4718 4473 c-2 -5 -1 -28 3 -53 6 -44 6 -44 7 -8 1 20 5 43 8 52 6
16 -11 23 -18 9z"/>
<path d="M4286 4462 c-3 -5 1 -9 9 -9 8 0 12 4 9 9 -3 4 -7 8 -9 8 -2 0 -6 -4
-9 -8z"/>
<path d="M3392 4418 c-2 -37 2 -48 13 -48 10 0 15 9 14 28 -2 27 -2 27 -7 2
-5 -20 -7 -17 -13 20 l-6 45 -1 -47z"/>
<path d="M3808 4453 c7 -3 16 -2 19 1 4 3 -2 6 -13 5 -11 0 -14 -3 -6 -6z"/>
<path d="M4670 4438 c0 -13 -3 -34 -6 -48 -5 -20 -3 -22 5 -10 10 13 12 13 21
0 8 -12 10 -10 10 10 0 35 -11 70 -21 70 -5 0 -9 -10 -9 -22z"/>
<path d="M4632 4423 c-10 -26 -10 -26 -11 -5 -1 13 -5 20 -11 17 -5 -3 -9 -25
-9 -48 1 -29 3 -34 7 -17 4 23 5 24 13 5 l8 -20 1 20 1 20 9 -20 c6 -15 9 -8
9 28 1 54 -3 59 -17 20z"/>
<path d="M3462 4408 c-1 -21 -7 -38 -13 -38 -5 0 -7 -5 -3 -11 12 -21 25 8 21
47 l-4 39 -1 -37z"/>
<path d="M3481 4390 l1 -45 10 34 c6 23 6 37 -1 44 -8 8 -11 -2 -10 -33z"/>
<path d="M3506 4399 c-3 -17 -2 -38 4 -47 7 -13 9 -5 10 31 0 54 -5 60 -14 16z"/>
<path d="M4559 4408 c0 -22 -1 -22 -9 -3 -6 15 -9 9 -8 -25 0 -36 2 -40 7 -20
l8 25 5 -25 c3 -16 6 -8 7 23 0 26 -1 47 -4 47 -3 0 -5 -10 -6 -22z"/>
<path d="M3432 4400 c0 -14 2 -19 5 -12 2 6 2 18 0 25 -3 6 -5 1 -5 -13z"/>
<path d="M3530 4382 c0 -43 6 -53 26 -45 16 6 19 33 3 33 -5 0 -8 -4 -4 -9 3
-5 1 -12 -5 -16 -6 -4 -10 9 -10 32 0 28 3 34 10 23 8 -13 10 -12 10 3 0 9 -7
17 -15 17 -11 0 -15 -11 -15 -38z"/>
<path d="M3597 4404 c-10 -10 -8 -56 2 -73 10 -15 31 -7 30 12 0 9 -2 8 -6 -1
-7 -19 -23 -4 -23 23 0 26 15 42 23 25 3 -6 4 -5 3 2 -3 14 -20 21 -29 12z"/>
<path d="M4491 4393 c0 -13 3 -23 8 -23 5 0 12 -8 14 -17 3 -10 5 -2 6 17 0
24 -2 31 -8 21 -7 -11 -10 -10 -14 5 -4 16 -5 16 -6 -3z"/>
<path d="M3643 4360 c-1 -25 1 -37 4 -27 6 24 21 21 26 -5 2 -13 4 -3 4 22 1
25 -1 37 -4 28 -6 -25 -21 -22 -26 5 -2 12 -4 2 -4 -23z"/>
<path d="M4456 4370 c8 -43 14 -51 14 -19 0 13 -5 31 -10 39 -7 11 -8 5 -4
-20z"/>
<path d="M3700 4376 c0 -8 5 -18 10 -21 6 -3 10 3 10 14 0 12 -4 21 -10 21 -5
0 -10 -6 -10 -14z"/>
<path d="M3741 4345 c1 -40 3 -45 9 -25 8 24 8 24 9 3 1 -13 6 -23 11 -23 6 0
9 19 9 43 -1 23 -4 33 -6 23 -5 -18 -6 -18 -19 5 -13 23 -13 21 -13 -26z"/>
<path d="M4095 4380 c3 -5 -3 -10 -14 -10 -19 0 -21 -6 -19 -47 l1 -48 7 45 7
45 1 -42 c2 -38 5 -43 26 -43 14 0 28 5 32 11 4 8 9 7 15 -2 6 -9 8 4 8 36 0
37 -3 45 -9 30 -7 -17 -9 -17 -9 -2 -1 9 -8 17 -16 17 -8 0 -15 5 -15 10 0 6
-5 10 -11 10 -5 0 -7 -4 -4 -10z m25 -55 c0 -19 -4 -35 -9 -35 -5 0 -9 16 -8
35 1 19 5 35 9 35 4 0 8 -16 8 -35z"/>
<path d="M4266 4380 c-3 -8 -7 -31 -9 -50 -4 -35 -4 -34 -5 5 -2 38 -4 41 -29
40 -26 0 -28 -4 -31 -42 l-3 -42 38 1 c21 0 43 5 50 10 7 5 14 5 18 -2 9 -14
25 -3 25 18 0 15 -2 15 -10 2 -7 -11 -10 -6 -10 20 0 26 3 31 10 20 8 -13 10
-12 10 3 0 19 -30 24 -31 5 0 -7 -4 -4 -9 7 -6 16 -9 17 -14 5z m-39 -47 c2
-6 -3 -13 -12 -16 -10 -5 -15 0 -15 14 0 21 21 22 27 2z"/>
<path d="M4347 4382 c6 -4 13 -23 15 -42 l3 -35 6 43 c4 37 2 42 -16 42 -12 0
-16 -3 -8 -8z"/>
<path d="M4393 4350 c0 -25 2 -35 4 -22 2 12 8 22 13 22 4 0 11 7 14 16 5 14
4 15 -8 5 -11 -10 -15 -8 -19 6 -3 10 -5 -2 -4 -27z"/>
<path d="M3792 4335 c0 -39 2 -45 8 -25 8 24 8 24 9 3 2 -43 21 -23 21 22 0
25 -4 45 -10 45 -5 0 -10 -8 -11 -17 0 -15 -2 -15 -9 2 -6 15 -9 7 -8 -30z"/>
<path d="M3854 4364 c3 -9 6 -29 6 -45 0 -16 4 -29 8 -29 5 0 7 13 4 29 -2 16
1 32 7 35 7 5 11 -5 11 -26 0 -18 7 -41 15 -52 13 -17 14 -15 20 20 3 22 8 50
11 64 4 17 2 22 -5 15 -5 -5 -11 -26 -14 -45 l-4 -35 -1 36 c-2 29 -7 38 -24
43 -35 9 -41 7 -34 -10z"/>
<path d="M3961 4322 c0 -36 3 -42 9 -27 7 17 9 17 9 3 2 -39 21 -15 21 25 0
36 -3 43 -20 44 -17 2 -20 -4 -19 -45z"/>
<path d="M4011 4325 c0 -37 3 -45 9 -30 7 17 9 17 9 3 1 -10 6 -18 11 -18 6 0
10 20 10 45 0 25 -4 45 -10 45 -5 0 -10 -8 -11 -17 0 -15 -2 -15 -9 2 -6 15
-9 7 -9 -30z"/>
<path d="M4442 4350 c0 -14 2 -19 5 -12 2 6 2 18 0 25 -3 6 -5 1 -5 -13z"/>
<path d="M3692 4330 c0 -14 2 -19 5 -12 2 6 2 18 0 25 -3 6 -5 1 -5 -13z"/>
<path d="M3710 4333 c0 -4 5 -15 10 -23 8 -13 10 -13 10 2 0 9 -4 20 -10 23
-5 3 -10 3 -10 -2z"/>
<path d="M4487 4253 c-4 -3 -7 -17 -7 -30 0 -16 6 -23 20 -23 21 0 40 27 33
48 -5 13 -35 17 -46 5z"/>
<path d="M4270 4002 c0 -23 4 -42 9 -42 6 0 7 17 4 38 -8 51 -13 53 -13 4z"/>
<path d="M4716 3895 c-21 -21 -21 -79 0 -96 14 -11 18 -10 30 6 32 44 5 125
-30 90z m24 -46 c0 -28 -4 -39 -12 -37 -24 8 -22 78 2 78 5 0 10 -18 10 -41z"/>
<path d="M3683 3258 c-15 -18 -35 -58 -29 -58 2 0 13 16 25 35 20 35 22 46 4
23z"/>
<path d="M4610 3191 c-7 -15 -6 -23 5 -35 17 -17 40 -12 49 10 15 39 -34 62
-54 25z"/>
<path d="M4500 2937 c-17 -9 -24 -20 -23 -35 2 -12 -2 -22 -7 -22 -16 0 -11
-50 5 -56 10 -4 14 -13 9 -28 -5 -19 -4 -19 12 3 16 23 16 25 -2 38 -18 13
-18 15 -1 27 20 15 22 32 5 39 -9 4 -5 12 12 26 29 24 26 26 -10 8z"/>
<path d="M4560 2919 c-7 -11 -9 -23 -6 -26 3 -3 -5 -14 -17 -24 -18 -15 -20
-21 -10 -37 9 -16 9 -24 -2 -38 -24 -32 -16 -41 8 -10 17 21 26 26 31 17 5 -7
0 -22 -11 -34 l-18 -22 23 19 c17 15 21 26 17 47 -5 22 -2 28 19 33 20 5 26
13 26 35 0 16 6 32 13 35 6 3 3 4 -8 3 -15 -2 -19 -9 -17 -30 2 -18 -2 -27
-12 -27 -8 0 -22 -7 -30 -16 -9 -8 -20 -12 -26 -9 -17 11 -11 25 16 35 18 7
24 15 20 26 -4 9 -1 23 5 30 8 10 8 14 1 14 -6 0 -16 -9 -22 -21z"/>
<path d="M4650 2896 c-5 -5 -10 -20 -10 -32 0 -13 -8 -24 -20 -27 -14 -4 -20
-14 -20 -34 0 -16 -6 -35 -12 -43 -11 -12 -10 -12 5 -1 9 7 17 24 17 37 0 17
8 28 25 34 18 7 25 17 25 35 0 21 5 25 29 25 17 0 32 4 35 8 7 12 -61 11 -74
-2z"/>
<path d="M4683 2869 c-6 -6 -9 -17 -7 -23 3 -7 -7 -18 -21 -24 -19 -9 -25 -19
-25 -44 0 -25 3 -29 10 -18 5 8 10 23 10 32 0 10 9 18 23 20 14 2 23 11 25 26
3 16 10 22 30 23 24 0 25 1 7 9 -28 12 -39 12 -52 -1z"/>
<path d="M3822 2653 c-2 -43 1 -51 13 -47 8 4 15 1 15 -5 0 -6 -4 -11 -10 -11
-5 0 -10 -5 -10 -12 0 -8 7 -5 18 5 16 17 16 19 0 31 -9 7 -18 30 -21 52 -3
35 -4 33 -5 -13z"/>
<path d="M4270 2691 c0 -6 4 -13 10 -16 6 -3 7 1 4 9 -7 18 -14 21 -14 7z"/>
<path d="M4510 2500 c-9 -6 -10 -10 -3 -10 6 0 15 5 18 10 8 12 4 12 -15 0z"/>
<path d="M4360 2170 c0 -5 -9 -10 -19 -10 -10 0 -21 -6 -24 -14 -5 -11 -1 -11
24 1 25 12 40 33 24 33 -3 0 -5 -4 -5 -10z"/>
<path d="M3230 2131 c0 -5 9 -7 20 -4 11 3 20 7 20 9 0 2 -9 4 -20 4 -11 0
-20 -4 -20 -9z"/>
<path d="M4340 2131 c0 -9 38 -12 44 -3 2 4 -7 8 -20 8 -13 1 -24 -1 -24 -5z"/>
<path d="M4247 2103 c-4 -3 -7 -13 -7 -22 1 -13 3 -13 11 2 11 19 8 33 -4 20z"/>
<path d="M3272 2079 c-13 -5 -21 -13 -17 -19 7 -11 55 8 55 22 0 10 -8 9 -38
-3z"/>
<path d="M4350 2072 c0 -6 -8 -13 -17 -15 -16 -4 -16 -5 -1 -6 18 -1 34 16 24
26 -3 4 -6 1 -6 -5z"/>
<path d="M4202 2057 c15 -7 42 -26 60 -42 18 -17 26 -22 18 -11 -13 16 -12 20
9 37 13 11 19 19 13 19 -5 0 -15 -7 -22 -15 -11 -13 -15 -14 -29 -2 -9 8 -29
17 -46 20 l-30 6 27 -12z"/>
<path d="M3704 1528 c12 -7 25 -7 40 0 18 8 15 10 -18 10 -32 0 -36 -2 -22
-10z"/>
<path d="M3525 1450 c-20 -14 -40 -19 -60 -16 -28 5 -29 5 -11 -9 27 -21 41
-19 83 9 40 27 68 23 110 -16 13 -12 25 -19 28 -16 3 3 -10 19 -30 37 -42 36
-77 40 -120 11z"/>
<path d="M3700 1416 c0 -2 11 -6 25 -8 13 -3 22 -1 19 3 -5 9 -44 13 -44 5z"/>
<path d="M3833 1403 c9 -2 17 -13 17 -24 0 -23 -4 -24 -24 -3 -9 8 -16 11 -16
6 0 -5 7 -15 16 -22 12 -11 18 -11 30 2 20 19 8 48 -20 47 -16 -1 -17 -2 -3
-6z"/>
<path d="M3718 1383 c7 -3 16 -2 19 1 4 3 -2 6 -13 5 -11 0 -14 -3 -6 -6z"/>
<path d="M3850 1325 c-25 -19 -63 -41 -85 -49 -22 -8 -32 -15 -21 -15 26 -1
129 55 144 79 15 25 16 25 -38 -15z"/>
<path d="M3548 1253 c6 -2 18 -2 25 0 6 3 1 5 -13 5 -14 0 -19 -2 -12 -5z"/>
<path d="M3635 1250 l-50 -7 45 0 c25 -1 56 3 70 7 31 10 8 10 -65 0z"/>
<path d="M3450 870 c0 -16 7 -20 30 -20 28 0 30 2 20 20 -6 11 -20 20 -30 20
-13 0 -20 -7 -20 -20z"/>
<path d="M3538 807 c-3 -17 0 -23 14 -23 21 0 22 5 4 29 -13 16 -14 16 -18 -6z"/>
<path d="M4588 823 c7 -3 16 -2 19 1 4 3 -2 6 -13 5 -11 0 -14 -3 -6 -6z"/>
<path d="M4128 813 c-85 -7 -51 -23 47 -23 52 0 95 4 95 9 0 14 -26 21 -38 9
-6 -6 -12 -6 -16 1 -4 6 -15 10 -24 9 -9 -1 -38 -3 -64 -5z"/>
<path d="M4290 806 c0 -9 5 -16 10 -16 6 0 10 4 10 9 0 6 -4 13 -10 16 -5 3
-10 -1 -10 -9z"/>
<path d="M4334 811 c-11 -11 -1 -21 21 -21 14 0 25 4 25 9 0 5 8 12 18 14 9 3
0 4 -21 3 -21 0 -40 -3 -43 -5z"/>
<path d="M4480 800 c12 -23 33 -26 49 -6 13 15 -4 26 -40 26 -17 0 -18 -3 -9
-20z m37 4 c-3 -3 -12 -4 -19 -1 -8 3 -5 6 6 6 11 1 17 -2 13 -5z"/>
<path d="M4443 788 c1 -7 -8 -14 -20 -16 -13 -2 -23 -9 -23 -17 0 -7 -5 -15
-10 -17 -19 -6 -20 -47 -2 -52 52 -14 73 -16 68 -7 -4 5 -2 12 4 16 15 9 12
25 -5 25 -9 0 -12 6 -9 15 4 8 14 15 23 15 12 0 13 2 3 8 -7 5 -10 16 -6 25 4
12 1 17 -10 17 -9 0 -15 -6 -13 -12z m-25 -67 c10 -6 9 -10 -7 -14 -21 -5 -36
5 -24 17 8 8 15 7 31 -3z"/>
<path d="M3635 660 c-3 -5 -2 -10 4 -10 5 0 13 5 16 10 3 6 2 10 -4 10 -5 0
-13 -4 -16 -10z"/>
<path d="M3714 654 c19 -19 19 -19 -10 -25 -16 -4 39 -7 121 -7 83 0 158 4
169 10 13 7 16 7 12 -1 -5 -8 16 -11 69 -11 67 0 76 2 73 18 -4 21 -57 29 -69
10 -7 -10 -12 -11 -28 -1 -12 8 -63 12 -136 12 -63 0 -139 4 -168 7 -51 7 -51
7 -33 -12z m103 -20 c-3 -3 -12 -4 -19 -1 -8 3 -5 6 6 6 11 1 17 -2 13 -5z"/>
<path d="M4306 654 c-5 -12 -2 -15 10 -10 12 4 15 2 10 -9 -4 -12 2 -15 29
-15 18 0 37 4 40 10 3 5 0 7 -8 4 -8 -3 -18 -1 -22 5 -3 6 -1 11 5 11 6 0 8 5
5 10 -10 16 -62 12 -69 -6z"/>
<path d="M4472 663 c-6 -2 -10 -9 -6 -14 3 -5 -1 -9 -10 -9 -8 0 -17 6 -19 13
-4 9 -8 8 -16 -3 -8 -12 -5 -16 15 -18 14 -2 31 1 38 7 8 6 20 9 28 6 9 -4 15
0 15 10 0 15 -19 18 -45 8z"/>
<path d="M4180 653 l24 -5 -24 -14 c-25 -13 -24 -13 15 -13 22 -1 47 3 55 9 9
5 19 5 26 -1 9 -8 11 -5 7 10 -6 24 -23 27 -42 9 -11 -10 -14 -10 -18 0 -3 6
-19 11 -36 11 -27 -2 -28 -2 -7 -6z"/>
<path d="M3575 641 c36 -10 91 -13 83 -5 -4 3 -30 7 -60 9 -41 3 -46 2 -23 -4z"/>
</g>
</svg>
