<?xml version="1.0" standalone="no"?>
<!DOCTYPE svg PUBLIC "-//W3C//DTD SVG 20010904//EN"
 "http://www.w3.org/TR/2001/REC-SVG-20010904/DTD/svg10.dtd">
<svg version="1.0" xmlns="http://www.w3.org/2000/svg"
 width="800.000000pt" height="550.000000pt" viewBox="0 0 800.000000 550.000000"
 preserveAspectRatio="xMidYMid meet">

<g transform="translate(0.000000,550.000000) scale(0.100000,-0.100000)"
fill="#000000" stroke="none">
<path d="M3720 4800 c0 -5 5 -10 10 -10 6 0 10 5 10 10 0 6 -4 10 -10 10 -5 0
-10 -4 -10 -10z"/>
<path d="M3773 4803 c15 -2 37 -2 50 0 12 2 0 4 -28 4 -27 0 -38 -2 -22 -4z"/>
<path d="M3871 4806 c8 -7 79 -35 79 -31 0 7 -58 35 -71 35 -7 0 -10 -2 -8 -4z"/>
<path d="M4045 4799 c17 -5 71 -10 121 -9 90 1 174 -19 174 -42 0 -5 -4 -6
-10 -3 -5 3 -10 1 -10 -4 0 -6 9 -11 20 -11 11 0 20 7 20 15 0 8 5 15 11 15 6
0 9 -12 6 -27 -2 -16 -2 -22 0 -15 3 7 9 9 15 6 6 -4 8 2 3 16 -5 16 -4 20 5
15 6 -4 10 -18 7 -31 -2 -13 0 -24 4 -24 5 0 9 15 10 33 l1 32 11 -33 c7 -24
16 -33 31 -31 43 3 55 -1 50 -16 -4 -9 1 -17 12 -21 11 -3 28 -10 39 -15 11
-5 45 -11 75 -14 30 -2 68 -7 83 -11 l28 -7 -3 49 c-3 47 -4 49 -35 51 -24 2
-33 -1 -33 -12 0 -8 -9 -15 -20 -15 -11 0 -20 5 -20 10 0 6 7 10 15 10 8 0 15
5 15 11 0 6 -7 8 -16 5 -9 -3 -23 -6 -32 -6 -15 0 -15 -2 -2 -10 26 -17 -6
-11 -51 9 -24 11 -47 17 -51 15 -4 -3 -8 -1 -8 4 0 5 -9 12 -20 15 -11 3 -20
12 -20 20 0 18 -57 25 -285 32 -125 3 -162 2 -140 -6z"/>
<path d="M3478 4783 c12 -2 30 -2 40 0 9 3 -1 5 -23 4 -22 0 -30 -2 -17 -4z"/>
<path d="M3408 4773 c6 -2 18 -2 25 0 6 3 1 5 -13 5 -14 0 -19 -2 -12 -5z"/>
<path d="M4515 4770 c27 -12 35 -12 35 0 0 6 -12 10 -27 9 -25 0 -26 -1 -8 -9z"/>
<path d="M3315 4758 c-56 -19 -60 -23 -60 -69 0 -24 -4 -49 -8 -55 -8 -14 17
-26 29 -14 5 5 28 10 52 11 45 3 68 19 59 43 -4 10 4 15 27 18 30 3 32 2 28
-24 -3 -22 0 -28 14 -28 178 -4 215 -2 233 14 9 9 23 16 29 16 21 0 13 18 -10
26 -22 8 -21 8 7 14 l30 7 -29 12 c-21 9 -42 9 -75 2 -37 -8 -48 -7 -57 4 -6
8 -17 15 -25 15 -8 0 -6 -6 7 -15 18 -14 18 -14 -8 -15 -17 0 -31 7 -38 20
-15 28 -42 26 -35 -2 6 -22 3 -23 -65 -25 -64 -3 -70 -1 -70 17 0 12 10 24 23
30 22 9 22 9 -3 8 -14 0 -38 -5 -55 -10z m-28 -50 c-3 -8 -6 -5 -6 6 -1 11 2
17 5 13 3 -3 4 -12 1 -19z"/>
<path d="M3673 4623 c-23 -4 -38 -36 -31 -69 2 -10 24 -26 53 -37 163 -65 299
-126 365 -165 120 -70 197 -108 180 -86 -8 10 -10 15 -3 11 6 -4 14 -3 18 3 9
15 25 2 25 -21 0 -20 63 -66 68 -49 2 5 10 6 18 3 11 -4 12 -8 4 -13 -8 -5 -7
-9 4 -13 10 -4 16 -1 16 9 0 8 4 13 10 9 5 -3 7 -13 4 -23 -4 -12 -3 -13 3 -4
9 12 63 13 63 1 0 -3 11 -4 25 -1 14 2 25 8 25 13 0 5 5 9 11 9 7 0 10 -12 7
-30 -3 -20 0 -30 9 -30 7 0 13 4 13 8 0 4 33 9 73 10 68 3 73 1 74 -19 1 -14
-11 -34 -31 -53 -18 -17 -31 -37 -29 -43 3 -7 0 -13 -7 -13 -6 0 -8 -4 -5 -10
3 -5 3 -16 -2 -22 -4 -7 -9 -23 -11 -36 -1 -12 -8 -35 -14 -50 -16 -42 -23 -7
-7 41 10 32 11 41 1 45 -7 2 -9 8 -6 14 4 6 -1 8 -15 3 -12 -3 -21 -2 -21 4 0
5 -14 12 -31 16 -17 4 -28 9 -25 12 3 3 -20 18 -52 34 -31 15 -50 28 -42 29
10 1 9 4 -5 9 -12 5 -23 4 -27 -3 -5 -7 -8 -5 -8 5 0 18 -26 33 -41 23 -5 -3
-9 0 -9 7 0 7 -3 9 -7 6 -3 -4 -12 -2 -20 4 -15 13 -16 9 -13 -61 2 -44 22
-80 44 -80 8 0 8 2 0 8 -15 10 -25 42 -14 42 6 0 10 -5 10 -11 0 -5 4 -8 9 -4
6 3 9 -9 8 -27 -1 -23 2 -33 13 -33 8 -1 14 -6 13 -13 -2 -6 3 -9 11 -6 9 3
13 -1 13 -13 -1 -9 3 -18 8 -18 21 -1 57 -34 50 -46 -5 -7 -4 -10 2 -6 6 4 13
-3 16 -14 3 -12 10 -18 16 -14 6 3 14 -1 17 -9 3 -9 13 -16 21 -16 10 0 13 -6
8 -17 -4 -10 -9 -33 -12 -50 -5 -30 -10 -35 -29 -32 -4 0 -10 -4 -14 -10 -19
-32 -110 -29 -110 4 0 8 -5 15 -11 15 -6 0 -10 30 -8 83 2 79 1 84 -28 116
-41 44 -49 26 -18 -41 21 -47 24 -64 19 -116 -4 -34 -10 -59 -15 -57 -9 6 -19
-8 -24 -35 -2 -13 2 -20 11 -20 8 0 15 10 15 23 1 16 3 17 6 5 5 -21 61 -33
111 -23 98 19 92 19 92 -8 0 -22 -5 -27 -37 -32 -69 -11 -83 -15 -83 -25 0 -5
17 -7 38 -4 80 11 104 9 116 -8 18 -30 -8 -42 -102 -48 -71 -4 -80 -6 -49 -12
46 -8 148 7 159 24 4 7 8 21 8 31 0 9 15 26 32 37 l33 20 10 -29 c15 -45 25
-48 25 -8 0 43 3 44 48 17 38 -23 33 -39 -18 -60 -17 -7 -30 -16 -30 -21 0
-26 71 19 98 62 25 41 67 223 43 189 -8 -12 -12 -10 -19 10 -8 19 -5 32 9 56
10 17 19 35 19 40 0 5 -9 -6 -20 -23 -14 -23 -24 -31 -36 -26 -13 5 -15 2 -10
-14 5 -15 -2 -23 -30 -37 l-36 -17 6 36 c8 43 -3 45 -26 5 -21 -37 -31 -37
-52 -5 -21 32 -15 42 29 51 31 5 50 24 26 24 -6 0 -9 10 -7 23 6 57 30 109 71
155 25 27 45 55 45 61 0 6 11 11 25 11 26 0 26 1 23 73 l-3 72 -34 3 c-18 2
-38 -1 -44 -7 -14 -14 -60 -15 -52 -1 9 14 -8 13 -23 -2 -7 -7 -12 -8 -12 -2
0 6 -14 9 -32 7 -35 -5 -78 -22 -78 -33 0 -7 102 -30 152 -33 21 -1 33 -6 28
-11 -5 -5 -49 -7 -99 -4 -50 2 -91 1 -91 -4 0 -4 -5 -8 -11 -8 -5 0 -7 5 -4
10 3 6 1 10 -4 10 -6 0 -11 10 -11 23 0 16 -3 18 -9 8 -5 -8 -17 -11 -32 -6
-42 11 -89 39 -89 51 0 7 -6 14 -12 17 -7 2 -11 7 -8 10 3 4 19 -1 35 -9 51
-27 105 -44 105 -33 0 6 4 8 9 5 5 -4 8 1 7 10 -2 14 -29 34 -66 49 -8 4 -22
10 -30 15 -8 5 -35 19 -60 32 -25 12 -78 41 -118 65 -40 24 -77 43 -82 43 -6
0 -10 4 -10 9 0 5 -7 12 -16 15 -10 4 -13 2 -8 -7 4 -6 -8 2 -27 19 -72 65
-91 71 -249 77 -80 3 -155 3 -167 0z m524 -235 c-3 -8 -6 -5 -6 6 -1 11 2 17
5 13 3 -3 4 -12 1 -19z m70 -14 c-3 -3 -12 -4 -19 -1 -8 3 -5 6 6 6 11 1 17
-2 13 -5z m19 -29 c-8 -8 -17 -15 -19 -15 -3 0 -7 7 -11 15 -4 11 2 15 20 15
23 0 24 -2 10 -15z m44 -15 c0 -5 -4 -10 -10 -10 -5 0 -10 5 -10 10 0 6 5 10
10 10 6 0 10 -4 10 -10z m70 -309 c0 -4 10 -7 23 -8 12 -1 32 -14 45 -28 12
-14 22 -22 22 -16 0 6 10 0 23 -12 13 -12 33 -30 45 -39 25 -20 29 -48 8 -48
-8 0 -27 15 -43 33 -15 17 -42 41 -58 51 -16 11 -35 24 -42 30 -70 58 -97 92
-48 60 14 -9 25 -19 25 -23z m188 -204 c18 -49 15 -57 -23 -73 -45 -18 -45
-18 -45 13 0 24 37 93 50 93 4 0 11 -15 18 -33z m184 -37 c4 -25 1 -30 -16
-30 -40 0 -48 14 -25 43 24 32 35 28 41 -13z m-86 -24 c8 -33 -3 -64 -27 -77
-39 -21 -65 33 -39 82 16 28 58 25 66 -5z m-100 -57 c3 -5 -5 -26 -17 -45
l-22 -36 -13 32 c-17 40 -18 57 -1 63 16 5 46 -3 53 -14z m184 -1 c-1 -13 -7
-34 -14 -48 l-14 -24 -21 34 c-25 42 -26 47 -3 53 40 11 52 7 52 -15z"/>
<path d="M4634 3745 c-4 -8 -3 -23 0 -32 6 -15 8 -15 23 -1 16 17 12 48 -7 48
-6 0 -13 -7 -16 -15z"/>
<path d="M3468 4603 c7 -3 16 -2 19 1 4 3 -2 6 -13 5 -11 0 -14 -3 -6 -6z"/>
<path d="M4220 4595 c7 -8 17 -12 22 -9 6 4 5 10 -3 15 -22 14 -33 10 -19 -6z"/>
<path d="M4548 4590 c13 -6 28 -8 33 -4 5 3 9 -1 9 -9 0 -10 17 -17 53 -21
107 -14 118 -17 106 -32 -9 -12 -5 -14 25 -14 20 0 36 4 36 9 0 5 -10 7 -22 5
-21 -4 -21 -4 1 6 21 9 23 13 10 25 -8 8 -26 16 -41 19 -15 2 -32 7 -37 10 -5
3 -51 8 -103 11 -65 3 -86 1 -70 -5z"/>
<path d="M4275 4570 c-4 -6 3 -10 14 -10 10 0 21 -5 23 -12 3 -8 6 -9 11 -1 3
5 -5 15 -18 21 -15 7 -26 8 -30 2z"/>
<path d="M3420 4420 c-15 -28 -22 -130 -9 -130 5 0 9 -7 9 -15 0 -9 6 -12 15
-9 8 4 15 14 15 24 0 15 13 18 90 24 95 8 113 4 103 -19 -3 -10 2 -15 17 -15
11 0 19 -3 17 -7 -3 -5 16 -7 41 -6 l47 2 -50 -10 c-27 -6 -55 -15 -62 -21
-19 -15 -5 -30 18 -18 62 34 269 17 376 -30 25 -11 51 -20 59 -20 7 0 17 -6
21 -13 12 -20 102 -69 113 -62 6 3 10 26 10 51 0 35 -3 44 -18 44 -10 0 -27 7
-39 15 -12 9 -39 22 -60 29 -21 8 -117 51 -213 95 -202 94 -268 117 -276 97
-4 -10 -23 -12 -70 -10 -44 3 -63 1 -59 -6 11 -18 -57 -1 -70 17 -11 15 -14
14 -25 -7z m75 -40 c3 -5 -1 -10 -10 -10 -9 0 -13 5 -10 10 3 6 8 10 10 10 2
0 7 -4 10 -10z m115 -40 c0 -5 -9 -10 -20 -10 -11 0 -20 5 -20 10 0 6 9 10 20
10 11 0 20 -4 20 -10z"/>
<path d="M4748 4423 c6 -2 10 -9 6 -14 -3 -5 11 -9 30 -9 27 0 34 3 30 15 -4
10 -19 15 -43 14 -20 0 -30 -3 -23 -6z"/>
<path d="M3197 4413 c-4 -3 -7 -46 -7 -94 0 -85 1 -89 24 -95 56 -14 61 -7 64
99 l3 97 -39 0 c-21 0 -42 -3 -45 -7z"/>
<path d="M3328 4394 c-3 -5 -2 -20 2 -34 6 -21 8 -22 14 -8 8 18 -8 57 -16 42z"/>
<path d="M3367 4386 c-4 -10 -3 -15 3 -11 6 3 10 1 10 -6 0 -7 3 -10 6 -6 3 3
2 13 -4 22 -8 16 -9 16 -15 1z"/>
<path d="M4524 4303 c10 -11 36 -12 36 -2 0 5 -10 9 -22 9 -12 0 -18 -3 -14
-7z"/>
<path d="M3423 4225 c-8 -22 6 -33 17 -15 13 20 12 30 0 30 -6 0 -13 -7 -17
-15z"/>
<path d="M3740 4203 c-55 -20 -102 -51 -95 -64 4 -5 1 -9 -4 -9 -6 0 -11 -7
-11 -15 0 -8 -9 -19 -20 -25 -11 -6 -20 -15 -20 -21 0 -5 -6 -17 -12 -25 -29
-34 -34 -41 -52 -77 -20 -39 -76 -107 -76 -92 0 16 -29 -30 -30 -46 0 -9 -7
-22 -15 -29 -8 -7 -13 -16 -10 -20 3 -4 -4 -10 -15 -13 -24 -6 -26 -22 -5 -31
9 -3 15 0 15 9 0 8 5 16 10 16 6 1 15 3 20 4 6 1 15 3 20 4 6 0 10 5 10 10 0
12 69 114 82 122 6 4 19 24 29 45 10 22 18 35 19 29 0 -5 11 3 25 18 14 15 32
27 39 27 7 0 25 13 41 30 16 16 59 48 96 71 60 36 77 41 147 46 68 5 84 3 122
-17 67 -34 166 -114 146 -118 -9 -2 -37 15 -63 38 -68 60 -105 73 -185 67
-120 -10 -283 -98 -302 -164 -4 -12 -22 -30 -40 -41 -19 -12 -41 -38 -54 -66
-27 -57 -28 -85 -2 -34 11 20 24 40 30 43 6 4 8 10 5 14 -2 5 14 5 37 1 49 -9
82 -42 97 -98 17 -58 14 -73 -29 -154 -22 -42 -41 -91 -42 -109 -3 -32 -2 -34
39 -39 59 -9 61 -15 9 -36 -25 -11 -46 -24 -46 -30 0 -7 -12 -19 -26 -29 -14
-9 -24 -19 -21 -21 3 -3 25 10 49 28 24 19 69 45 101 58 56 25 77 52 77 100 0
10 7 24 16 31 14 11 22 7 58 -31 l41 -45 152 0 c84 0 153 3 153 8 0 4 -10 7
-23 7 -57 0 -175 93 -208 165 -50 107 2 226 109 255 38 10 49 9 83 -8 24 -12
35 -14 29 -6 -18 21 -79 37 -121 31 -83 -11 -139 -84 -139 -182 0 -86 60 -184
138 -224 l35 -18 -52 -6 c-49 -6 -54 -4 -85 26 -125 125 -107 363 32 423 50
22 129 22 170 1 32 -17 32 -17 32 5 0 42 -135 149 -250 197 -72 31 -196 38
-260 14z m-113 -169 c-3 -3 -12 -4 -19 -1 -8 3 -5 6 6 6 11 1 17 -2 13 -5z
m285 -65 c23 -12 37 -25 34 -32 -3 -7 -9 -20 -12 -30 -4 -11 -13 -17 -23 -14
-98 29 -113 31 -149 21 -34 -9 -40 -8 -55 12 -20 26 -12 36 49 59 47 17 101
12 156 -16z m-86 -222 c50 -29 92 -77 123 -139 23 -46 40 -68 55 -71 17 -3 16
-5 -6 -6 -18 -1 -29 5 -33 17 -8 28 -114 126 -163 151 -28 14 -42 28 -42 41 0
23 32 27 66 7z m-63 -157 c21 -11 42 -18 46 -15 9 5 -2 -55 -13 -73 -4 -6 -20
-3 -43 9 -21 10 -50 19 -65 19 -33 0 -33 -1 -11 45 19 40 34 43 86 15z"/>
<path d="M3190 4125 c0 -8 9 -15 20 -15 11 0 20 7 20 15 0 8 -9 15 -20 15 -11
0 -20 -7 -20 -15z"/>
<path d="M3255 4110 c3 -5 11 -10 16 -10 6 0 7 5 4 10 -3 6 -11 10 -16 10 -6
0 -7 -4 -4 -10z"/>
<path d="M3427 4053 c-3 -21 -6 -56 -6 -77 0 -36 1 -38 13 -20 14 21 20 134 7
134 -5 0 -12 -17 -14 -37z"/>
<path d="M3200 4060 c20 -13 33 -13 25 0 -3 6 -14 10 -23 10 -15 0 -15 -2 -2
-10z"/>
<path d="M4535 4060 c3 -5 8 -10 11 -10 2 0 4 5 4 10 0 6 -5 10 -11 10 -5 0
-7 -4 -4 -10z"/>
<path d="M4782 4043 c-22 -18 -42 -83 -25 -83 12 0 56 77 51 91 -2 6 -13 3
-26 -8z"/>
<path d="M3193 3975 c0 -36 3 -65 8 -65 5 0 9 -7 9 -15 0 -8 -4 -15 -10 -15
-17 0 -11 -19 11 -30 19 -11 20 -9 17 27 -2 21 -7 41 -13 46 -6 4 -4 11 5 17
10 6 11 10 3 10 -7 0 -13 5 -13 11 0 5 5 7 10 4 6 -3 10 1 10 9 0 9 -5 15 -11
14 -6 -2 -14 3 -16 10 -3 7 4 12 17 12 19 0 20 2 10 15 -26 32 -37 17 -37 -50z"/>
<path d="M3260 3981 c0 -6 4 -13 10 -16 6 -3 7 1 4 9 -7 18 -14 21 -14 7z"/>
<path d="M4711 3928 c-20 -25 -22 -32 -10 -39 22 -14 39 -11 33 6 -4 8 -1 22
6 31 8 9 9 18 4 23 -5 5 -19 -4 -33 -21z"/>
<path d="M3271 3933 c0 -12 -4 -30 -7 -40 -5 -14 -4 -15 5 -7 7 6 11 24 8 40
-3 21 -4 23 -6 7z"/>
<path d="M4123 3888 c-15 -20 -25 -38 -20 -38 3 0 12 11 21 25 17 26 16 35 -1
13z"/>
<path d="M4135 3848 c-23 -27 -26 -38 -21 -70 4 -22 18 -57 32 -79 25 -40 87
-80 101 -64 5 4 4 9 -2 11 -5 2 -25 13 -44 25 l-34 21 39 22 c35 19 39 26 42
67 4 69 -9 94 -51 97 -28 2 -40 -3 -62 -30z m35 -4 c0 -8 -4 -12 -10 -9 -5 3
-10 10 -10 16 0 5 5 9 10 9 6 0 10 -7 10 -16z m58 -11 c13 -21 13 -23 -2 -23
-10 0 -16 8 -16 23 0 16 -3 18 -9 9 -7 -11 -9 -10 -15 3 -9 25 23 15 42 -12z
m-78 -12 c0 -6 -4 -13 -10 -16 -5 -3 -10 1 -10 9 0 9 5 16 10 16 6 0 10 -4 10
-9z m47 -35 c-4 -9 -12 -16 -19 -15 -10 0 -10 2 0 6 6 2 12 12 12 21 0 15 -2
15 -10 2 -5 -8 -10 -10 -10 -4 0 17 13 25 23 15 5 -5 7 -17 4 -25z m-47 -11
c0 -8 -4 -15 -9 -15 -5 0 -11 7 -15 15 -3 9 0 15 9 15 8 0 15 -7 15 -15z m90
6 c0 -20 -13 -42 -31 -52 -16 -8 -19 -6 -19 12 0 18 2 20 16 8 13 -11 14 -9 9
14 -6 21 -4 27 9 27 9 0 16 -4 16 -9z m-61 -50 c-3 -6 -10 -7 -18 -2 -7 5 -10
14 -6 21 9 14 29 -2 24 -19z"/>
<path d="M4358 3873 c7 -3 16 -2 19 1 4 3 -2 6 -13 5 -11 0 -14 -3 -6 -6z"/>
<path d="M3260 3850 c0 -5 5 -10 10 -10 6 0 10 5 10 10 0 6 -4 10 -10 10 -5 0
-10 -4 -10 -10z"/>
<path d="M4380 3845 c7 -8 16 -15 21 -15 5 0 6 7 3 15 -4 8 -13 15 -21 15 -13
0 -13 -3 -3 -15z"/>
<path d="M3190 3800 c0 -13 7 -20 19 -20 28 0 35 17 12 29 -27 15 -31 14 -31
-9z"/>
<path d="M4417 3795 c10 -13 24 -27 31 -29 8 -4 6 4 -5 19 -10 13 -24 27 -31
29 -8 4 -6 -4 5 -19z"/>
<path d="M3260 3796 c0 -9 5 -16 10 -16 6 0 10 4 10 9 0 6 -4 13 -10 16 -5 3
-10 -1 -10 -9z"/>
<path d="M4082 3780 c0 -19 2 -27 5 -17 2 9 2 25 0 35 -3 9 -5 1 -5 -18z"/>
<path d="M3206 3753 c-15 -4 -16 -7 -5 -14 10 -6 10 -9 2 -9 -8 0 -13 -14 -13
-37 l0 -36 25 23 c26 25 34 60 13 60 -9 0 -8 4 2 10 16 10 8 11 -24 3z"/>
<path d="M3256 3744 c-7 -18 0 -34 15 -34 5 0 9 11 9 25 0 28 -15 34 -24 9z"/>
<path d="M3330 3715 c33 -19 50 -18 26 0 -11 8 -27 15 -35 15 -10 -1 -7 -6 9
-15z"/>
<path d="M3427 3709 c-12 -7 -15 -15 -9 -22 5 -7 13 -22 16 -34 4 -13 21 -37
39 -54 26 -27 35 -30 56 -23 27 10 41 48 23 66 -10 10 -62 -9 -62 -24 0 -4 -5
-8 -11 -8 -15 0 -39 64 -32 88 6 25 5 25 -20 11z"/>
<path d="M4100 3695 c0 -3 17 -23 37 -46 35 -38 113 -88 113 -72 0 5 -14 14
-32 22 -18 8 -51 34 -75 57 -24 24 -43 41 -43 39z"/>
<path d="M4200 3696 c0 -2 11 -6 25 -8 14 -3 25 -1 25 3 0 5 -11 9 -25 9 -14
0 -25 -2 -25 -4z"/>
<path d="M4780 3639 c-14 -23 -52 -68 -85 -102 -34 -34 -47 -51 -29 -39 47 32
144 142 144 163 0 26 -1 25 -30 -22z"/>
<path d="M4280 3632 c0 -11 33 -22 68 -22 12 0 22 5 22 10 0 6 -13 10 -29 10
-16 0 -36 3 -45 6 -9 3 -16 2 -16 -4z"/>
<path d="M4589 3561 l24 -19 -21 -6 c-12 -4 -22 -11 -22 -15 0 -20 15 -18 47
6 l34 26 -38 13 c-50 18 -53 17 -24 -5z"/>
<path d="M3852 3522 c-7 -26 -29 -74 -49 -107 -42 -68 -46 -103 -18 -164 23
-52 41 -52 95 0 48 47 70 92 70 147 0 40 -39 129 -68 155 -17 16 -19 14 -30
-31z"/>
<path d="M4800 3544 c0 -12 -23 -37 -75 -83 -38 -33 -38 -34 -19 -50 10 -9 20
-23 22 -31 11 -56 48 -100 73 -85 12 8 10 205 -3 205 -5 0 -4 9 2 21 7 11 9
23 6 27 -3 3 -6 1 -6 -4z m-23 -176 c-3 -7 -5 -2 -5 12 0 14 2 19 5 13 2 -7 2
-19 0 -25z"/>
<path d="M4523 3496 c-12 -13 -37 -27 -55 -33 -18 -5 -32 -15 -30 -21 3 -15
-15 -16 -24 -1 -3 6 -18 18 -33 27 l-28 17 68 2 c38 1 77 7 86 13 15 9 13 10
-12 6 -49 -9 -168 -9 -200 -1 -16 4 3 -9 43 -29 46 -22 91 -55 122 -87 l50
-52 0 41 c0 52 20 64 97 60 l57 -3 32 -55 c17 -30 50 -89 72 -130 36 -64 42
-71 42 -46 0 16 -3 26 -7 23 -3 -4 -33 41 -66 101 -72 130 -74 133 -101 127
-11 -2 -57 -6 -101 -9 l-80 -6 53 26 c28 15 52 30 52 35 0 18 -17 16 -37 -5z
m-21 -99 l-4 -28 -29 27 c-16 15 -29 28 -29 29 0 0 15 1 33 1 31 0 33 -2 29
-29z"/>
<path d="M4600 3470 c-9 -6 -10 -10 -3 -10 6 0 15 5 18 10 8 12 4 12 -15 0z"/>
<path d="M3203 3415 c0 -22 2 -30 4 -17 2 12 2 30 0 40 -3 9 -5 -1 -4 -23z"/>
<path d="M3415 3414 c-18 -8 -23 -13 -12 -14 11 0 17 -8 17 -22 1 -22 1 -22
23 5 19 23 31 27 71 27 26 0 56 -5 67 -10 21 -12 27 4 7 17 -21 12 -141 10
-173 -3z"/>
<path d="M3232 3400 c0 -14 2 -19 5 -12 2 6 2 18 0 25 -3 6 -5 1 -5 -13z"/>
<path d="M3260 3385 c0 -8 5 -15 10 -15 6 0 10 7 10 15 0 8 -4 15 -10 15 -5 0
-10 -7 -10 -15z"/>
<path d="M3323 3393 c-13 -2 -23 -8 -23 -13 0 -5 7 -7 16 -3 11 4 23 -1 31
-13 15 -18 15 -18 9 3 -5 16 -2 23 11 26 15 4 15 5 -2 4 -11 0 -30 -2 -42 -4z"/>
<path d="M4588 3393 l-38 -4 0 -226 0 -225 23 14 c12 8 32 21 45 29 17 11 22
23 22 55 0 44 19 70 45 60 8 -3 15 -12 15 -21 0 -24 13 -17 48 27 l32 40 -41
77 c-81 148 -101 181 -107 179 -4 -1 -24 -3 -44 -5z m57 -174 c4 -17 1 -30 -9
-38 -14 -12 -16 -8 -16 35 0 50 13 52 25 3z"/>
<path d="M3548 3363 c-10 -2 -18 -8 -18 -11 0 -4 -16 -16 -36 -27 -28 -15 -37
-16 -44 -6 -10 17 -30 5 -30 -17 0 -15 -2 -15 -10 -2 -7 12 -10 12 -10 1 0 -7
-6 -11 -15 -7 -11 4 -15 -2 -15 -24 0 -33 25 -42 33 -12 4 14 6 14 12 -5 10
-32 32 -29 40 6 5 23 10 27 29 24 17 -4 29 3 45 26 12 16 28 28 35 25 7 -3 19
2 26 11 8 10 9 15 1 15 -6 0 -11 -4 -11 -10 0 -5 -5 -10 -11 -10 -6 0 -9 7 -5
15 3 8 4 14 3 14 -1 -1 -10 -3 -19 -6z"/>
<path d="M3215 3331 c3 -18 5 -68 6 -110 1 -65 2 -71 10 -41 9 37 2 132 -13
165 -6 15 -7 11 -3 -14z"/>
<path d="M4311 3198 c1 -79 4 -191 8 -250 l6 -108 50 24 c86 40 127 100 141
204 8 66 -9 128 -48 176 -29 36 -92 78 -135 91 l-23 6 1 -143z m107 -95 c2
-18 -4 -43 -12 -55 -15 -21 -16 -21 -16 -3 -1 11 -3 37 -6 58 -5 34 -3 38 13
35 12 -2 19 -14 21 -35z"/>
<path d="M4198 3308 l-48 -10 0 -84 c0 -61 -3 -84 -12 -84 -7 0 -46 18 -87 40
-41 22 -76 38 -77 37 -2 -1 21 -92 50 -202 l53 -200 39 3 c21 2 41 5 42 7 2 2
-2 29 -8 60 -6 31 -10 59 -7 61 3 3 35 -21 72 -52 l68 -57 -8 199 c-4 109 -10
200 -14 202 -4 1 -6 23 -5 47 2 25 0 44 -4 44 -4 -1 -28 -6 -54 -11z"/>
<path d="M3264 3180 c0 -89 2 -122 7 -95 10 50 10 138 1 190 -5 25 -8 -9 -8
-95z"/>
<path d="M3513 3253 c-3 -10 -8 -22 -10 -28 -3 -5 3 -1 11 9 16 20 21 36 11
36 -3 0 -8 -8 -12 -17z"/>
<path d="M3382 3190 c0 -14 2 -19 5 -12 2 6 2 18 0 25 -3 6 -5 1 -5 -13z"/>
<path d="M3321 3184 c0 -11 3 -14 6 -6 3 7 2 16 -1 19 -3 4 -6 -2 -5 -13z"/>
<path d="M3420 3190 c0 -5 6 -10 13 -11 6 0 3 -4 -8 -8 -18 -7 -17 -8 7 -13
20 -4 25 -1 23 11 -2 9 -4 19 -4 24 -1 11 -31 8 -31 -3z"/>
<path d="M3873 3159 c-42 -29 -42 -30 -28 -62 7 -18 33 -82 56 -144 l41 -112
32 6 c17 3 35 9 39 13 8 7 -83 330 -93 330 -3 -1 -24 -14 -47 -31z"/>
<path d="M3371 3133 c-1 -6 -4 -20 -7 -30 -5 -17 -5 -17 6 0 6 10 9 23 6 30
-3 9 -5 9 -5 0z"/>
<path d="M3410 3125 c-18 -22 -19 -67 -1 -92 19 -27 49 -29 67 -5 18 23 17 33
-1 26 -9 -4 -15 0 -15 10 0 10 5 13 17 9 13 -5 15 -2 10 11 -4 10 -7 20 -7 22
0 3 -5 2 -12 -2 -7 -4 -8 -3 -4 4 3 6 -2 16 -13 21 -25 14 -26 14 -41 -4z m10
-25 c0 -5 -5 -10 -11 -10 -5 0 -7 5 -4 10 3 6 8 10 11 10 2 0 4 -4 4 -10z m0
-40 c0 -5 -4 -10 -10 -10 -5 0 -10 5 -10 10 0 6 5 10 10 10 6 0 10 -4 10 -10z"/>
<path d="M3210 3116 c0 -8 -3 -21 -6 -30 -3 -9 -2 -16 4 -16 5 0 12 14 14 30
3 17 1 30 -4 30 -4 0 -8 -6 -8 -14z"/>
<path d="M4760 3059 c-28 -33 -48 -49 -59 -46 -12 3 -20 -5 -27 -29 -6 -18 -7
-31 -3 -28 4 2 11 0 14 -6 5 -8 12 -7 23 2 13 11 15 10 9 -4 -4 -13 -2 -15 10
-11 8 3 18 1 22 -4 3 -6 16 -13 27 -17 19 -6 22 -2 26 26 7 47 -2 110 -16 105
-6 -3 -10 -10 -8 -16 1 -7 -2 -10 -7 -7 -5 4 -13 1 -18 -6 -4 -7 -21 -19 -36
-27 -16 -9 -26 -20 -22 -28 2 -8 0 -11 -5 -8 -18 11 -11 23 25 45 29 18 106
110 92 110 -2 0 -23 -23 -47 -51z"/>
<path d="M3512 3065 c0 -16 2 -22 5 -12 2 9 2 23 0 30 -3 6 -5 -1 -5 -18z"/>
<path d="M3683 3078 c-18 -6 -33 -15 -33 -19 0 -5 -4 -9 -10 -9 -13 0 -50 -32
-50 -43 0 -5 7 -23 15 -40 8 -18 25 -66 38 -107 21 -63 95 -258 102 -268 2 -2
24 2 50 9 41 10 46 15 41 33 -4 12 -9 34 -13 50 l-6 29 67 -38 c37 -20 68 -36
69 -34 14 23 47 102 47 112 0 6 -39 27 -86 46 -77 30 -85 36 -79 55 4 11 9 48
12 82 6 76 -13 119 -62 140 -39 16 -57 16 -102 2z m65 -141 c2 -16 1 -36 -3
-45 -5 -13 -11 -9 -26 21 -21 40 -18 60 9 55 10 -2 18 -15 20 -31z"/>
<path d="M3201 3034 c0 -11 3 -14 6 -6 3 7 2 16 -1 19 -3 4 -6 -2 -5 -13z"/>
<path d="M3218 2931 c-13 -53 -18 -110 -17 -205 1 -74 4 -114 8 -91 6 37 7 33
24 -55 10 -52 21 -106 24 -120 3 -14 2 -22 -2 -18 -4 4 -16 40 -26 80 l-19 73
4 -61 c3 -42 15 -84 39 -137 55 -118 55 -124 -8 181 -42 209 -44 242 -12 243
19 0 20 2 6 11 -13 9 -14 19 -7 54 5 23 8 60 6 81 -3 35 -4 32 -20 -36z"/>
<path d="M3453 2993 c-18 -2 -33 -8 -33 -14 0 -14 34 -11 56 6 10 8 17 14 14
13 -3 -1 -20 -3 -37 -5z"/>
<path d="M3532 2957 c-7 -8 -8 -18 -4 -22 4 -5 1 -5 -5 -1 -7 4 -13 2 -13 -4
0 -6 -4 -9 -9 -5 -22 13 -21 -18 1 -58 16 -28 30 -41 41 -39 9 2 17 -2 17 -8
0 -5 -5 -10 -10 -10 -6 0 -4 -13 5 -30 9 -16 18 -30 21 -30 3 0 2 6 -2 13 -5
8 -2 8 9 -2 19 -15 24 -36 6 -26 -6 4 0 -9 12 -28 15 -22 29 -33 38 -29 10 4
12 1 6 -7 -6 -10 -3 -11 14 -2 l21 11 -27 55 c-15 30 -30 52 -35 49 -4 -3 -5
1 -3 9 3 7 -12 50 -33 95 -31 66 -41 80 -50 69z m-2 -68 c0 -18 -20 -18 -29 0
-9 16 -8 18 9 14 11 -3 20 -9 20 -14z m97 -161 c-3 -7 -5 -2 -5 12 0 14 2 19
5 13 2 -7 2 -19 0 -25z m23 -28 c0 -5 -5 -10 -11 -10 -5 0 -7 5 -4 10 3 6 8
10 11 10 2 0 4 -4 4 -10z"/>
<path d="M3370 2950 c0 -5 5 -10 10 -10 6 0 10 5 10 10 0 6 -4 10 -10 10 -5 0
-10 -4 -10 -10z"/>
<path d="M4674 2825 c0 -55 1 -76 3 -47 2 29 2 74 0 100 -2 26 -3 2 -3 -53z"/>
<path d="M3417 2730 c3 -165 0 -175 -37 -150 -13 9 -12 12 4 25 18 14 19 15 2
15 -15 0 -17 5 -11 28 3 15 11 29 16 30 5 2 9 8 9 13 0 4 -7 6 -15 3 -8 -4
-15 -2 -15 3 0 15 -48 34 -52 21 -7 -19 4 -68 13 -62 5 3 9 -4 9 -16 0 -12 -4
-18 -10 -15 -5 3 -10 -3 -10 -14 0 -12 7 -21 15 -21 8 0 15 -4 15 -10 0 -5 -7
-10 -15 -10 -8 0 -15 -4 -15 -10 0 -5 4 -10 8 -10 12 0 12 -43 0 -58 -10 -11
-7 -18 12 -32 16 -12 21 -24 17 -39 -3 -11 -1 -24 4 -27 5 -3 9 -1 9 4 0 5 10
14 23 20 18 9 19 11 4 11 -15 1 -16 4 -6 22 8 16 8 20 0 14 -18 -10 -40 13
-34 35 3 11 9 20 15 20 5 0 4 8 -2 19 -13 26 -13 31 3 31 7 0 29 -13 47 -30
42 -38 50 -38 45 0 -2 18 0 28 5 25 6 -3 7 1 3 10 -8 23 44 72 60 56 8 -8 8
-11 -1 -11 -6 0 -10 -6 -8 -12 1 -7 1 -10 -1 -5 -3 4 -9 7 -14 7 -5 0 3 -17
19 -38 22 -32 32 -38 57 -36 16 1 24 0 18 -3 -7 -2 -13 -9 -13 -14 0 -6 5 -7
12 -3 7 4 8 3 4 -4 -11 -17 -24 -15 -28 6 -2 9 -6 12 -10 7 -3 -6 0 -19 8 -29
14 -19 15 -19 44 9 25 24 28 31 17 44 -11 14 -10 14 6 2 9 -8 21 -11 25 -7 4
4 -1 13 -11 20 -9 7 -17 19 -18 27 0 8 -5 1 -11 -14 -8 -24 -15 -28 -42 -25
-27 3 -31 7 -28 28 1 14 9 32 18 40 13 13 16 13 24 0 5 -8 10 -10 10 -4 0 22
-56 83 -70 74 -7 -4 -9 -13 -6 -19 4 -6 3 -11 -2 -11 -14 0 -21 47 -9 59 8 8
4 18 -11 34 -12 13 -20 26 -17 29 3 3 -1 11 -9 17 -12 10 -14 7 -9 -21 3 -18
1 -30 -3 -26 -4 5 -8 26 -10 47 -2 35 -29 90 -45 91 -3 0 -4 -72 -2 -160z m88
10 c3 -5 1 -10 -4 -10 -6 0 -11 5 -11 10 0 6 2 10 4 10 3 0 8 -4 11 -10z m-20
-19 c3 -5 1 -12 -5 -16 -5 -3 -10 1 -10 9 0 18 6 21 15 7z m25 -31 c0 -5 -4
-10 -10 -10 -5 0 -10 5 -10 10 0 6 5 10 10 10 6 0 10 -4 10 -10z m-30 -40 c0
-22 -4 -40 -9 -40 -5 0 -9 18 -9 40 0 22 3 40 9 40 5 0 9 -18 9 -40z m17 -12
c-3 -8 -6 -5 -6 6 -1 11 2 17 5 13 3 -3 4 -12 1 -19z"/>
<path d="M3270 2861 c0 -6 5 -13 10 -16 6 -3 10 1 10 9 0 9 -4 16 -10 16 -5 0
-10 -4 -10 -9z"/>
<path d="M4730 2850 c-12 -8 -12 -10 -1 -10 8 0 11 -3 8 -7 -9 -8 24 -32 46
-33 12 0 17 8 17 30 0 26 -4 30 -27 30 -16 0 -35 -5 -43 -10z"/>
<path d="M4696 2815 c4 -8 8 -15 10 -15 2 0 4 7 4 15 0 8 -4 15 -10 15 -5 0
-7 -7 -4 -15z"/>
<path d="M3265 2810 c3 -5 11 -10 16 -10 6 0 7 5 4 10 -3 6 -11 10 -16 10 -6
0 -7 -4 -4 -10z"/>
<path d="M3326 2778 c3 -4 9 -8 15 -8 5 0 9 4 9 8 0 5 -7 9 -15 9 -8 0 -12 -4
-9 -9z"/>
<path d="M3243 2758 c2 -7 13 -58 23 -113 l19 -100 3 100 c2 85 0 102 -15 112
-22 17 -36 17 -30 1z"/>
<path d="M4746 2711 c15 -14 54 -23 54 -13 0 5 -10 12 -22 16 -33 8 -44 8 -32
-3z"/>
<path d="M4344 2698 c-4 -6 -2 -14 4 -16 6 -2 9 -9 6 -17 -3 -7 0 -16 7 -21 8
-4 10 -3 5 4 -9 16 7 15 22 0 9 -9 12 -9 12 0 0 7 -7 15 -15 18 -8 4 -15 10
-15 16 0 5 4 7 8 4 5 -3 9 2 9 10 0 10 -4 11 -11 4 -13 -13 -29 -13 -21 0 3 6
4 10 1 10 -3 0 -8 -5 -12 -12z"/>
<path d="M4245 2678 c-12 -39 -15 -88 -5 -88 5 0 10 3 11 8 1 12 8 45 14 69 6
24 -12 33 -20 11z"/>
<path d="M4662 2665 c0 -16 2 -22 5 -12 2 9 2 23 0 30 -3 6 -5 -1 -5 -18z"/>
<path d="M4148 2650 c-14 -8 -14 -16 -5 -47 14 -49 13 -49 42 -33 31 17 35 64
6 80 -23 12 -22 12 -43 0z m47 -40 c0 -22 -29 -18 -33 3 -3 14 1 18 15 15 10
-2 18 -10 18 -18z"/>
<path d="M4285 2640 c1 -13 7 -26 13 -28 16 -5 15 10 -1 33 -13 17 -14 16 -12
-5z"/>
<path d="M4050 2605 c-7 -8 -10 -25 -6 -39 11 -45 71 -45 82 0 8 30 -11 54
-41 54 -12 0 -28 -7 -35 -15z m50 -30 c0 -16 -6 -25 -15 -25 -9 0 -15 9 -15
25 0 16 6 25 15 25 9 0 15 -9 15 -25z"/>
<path d="M4652 2600 c0 -14 2 -19 5 -12 2 6 2 18 0 25 -3 6 -5 1 -5 -13z"/>
<path d="M4731 2594 c-8 -9 -23 -14 -37 -11 -21 4 -26 -1 -36 -35 -6 -22 -14
-34 -18 -27 -12 18 -22 -40 -11 -59 7 -12 10 -13 11 -3 0 8 7 11 20 8 11 -3
20 -2 20 2 0 11 58 12 65 1 3 -5 1 -10 -4 -10 -6 0 -11 -4 -11 -10 0 -5 16
-10 35 -10 l35 0 0 85 0 85 -27 0 c-16 -1 -34 -8 -42 -16z"/>
<path d="M3974 2576 c-24 -18 -11 -46 21 -46 14 0 25 -4 25 -10 0 -5 -9 -10
-20 -10 -11 0 -20 -4 -20 -10 0 -15 36 -12 50 5 18 22 5 45 -27 46 -27 0 -27
1 -5 9 26 11 27 16 8 23 -8 3 -22 0 -32 -7z"/>
<path d="M4641 2554 c0 -11 3 -14 6 -6 3 7 2 16 -1 19 -3 4 -6 -2 -5 -13z"/>
<path d="M3373 2491 c0 -11 5 -18 9 -15 4 3 5 11 1 19 -7 21 -12 19 -10 -4z"/>
<path d="M3920 2490 c0 -21 17 -46 25 -38 4 4 0 17 -9 30 -10 14 -16 17 -16 8z"/>
<path d="M4150 2458 c10 -18 28 -64 39 -103 23 -77 55 -281 46 -295 -3 -4 -37
-14 -75 -21 l-70 -12 0 -33 c0 -31 5 -36 58 -63 31 -15 68 -32 81 -36 l23 -7
-5 208 c-3 161 -8 222 -22 264 -27 85 -53 130 -75 130 -19 0 -19 -1 0 -32z
m-7 -445 c-7 -2 -19 -2 -25 0 -7 3 -2 5 12 5 14 0 19 -2 13 -5z"/>
<path d="M3431 2472 c0 -4 7 -23 14 -42 l13 -35 1 36 c1 24 -4 39 -14 43 -8 3
-15 2 -14 -2z"/>
<path d="M3901 2468 c-1 -12 -6 -15 -18 -11 -16 6 -16 4 1 -16 25 -27 45 -13
28 21 -8 18 -11 19 -11 6z"/>
<path d="M4596 2415 c-9 -26 -7 -32 5 -12 6 10 9 21 6 23 -2 3 -7 -2 -11 -11z"/>
<path d="M3205 2363 c4 -27 8 -66 9 -88 1 -25 14 -62 34 -97 55 -95 69 -90 26
8 -26 59 -54 140 -54 159 0 5 15 -22 34 -60 19 -39 35 -66 35 -61 1 4 -12 36
-28 70 -16 33 -33 73 -36 89 -12 48 -28 31 -20 -20z"/>
<path d="M3407 2403 c-4 -3 -7 -13 -7 -22 1 -13 3 -13 11 2 11 19 8 33 -4 20z"/>
<path d="M3375 2381 c-3 -5 -2 -12 3 -15 5 -3 9 1 9 9 0 17 -3 19 -12 6z"/>
<path d="M3460 2372 c0 -12 -11 -29 -26 -38 -14 -10 -21 -20 -16 -23 5 -3 15
-17 22 -30 7 -14 17 -30 22 -35 4 -6 22 -31 39 -54 17 -24 34 -41 37 -37 4 4
2 9 -3 11 -13 5 -10 65 4 93 7 12 9 26 6 31 -3 5 0 12 6 16 8 5 9 3 4 -5 -5
-9 -1 -9 14 1 12 7 21 16 21 20 0 13 82 8 122 -6 66 -24 154 -115 127 -131 -5
-4 -11 -5 -13 -4 -34 50 -73 90 -100 103 -38 18 -76 21 -76 6 0 -5 11 -10 25
-10 37 0 67 -18 98 -57 32 -42 34 -68 8 -82 -20 -11 -31 2 -31 38 0 21 -37 57
-65 63 -19 4 -95 -26 -95 -38 0 -2 9 0 19 6 39 20 49 13 41 -30 -4 -22 -4 -40
1 -40 5 0 4 -12 -1 -26 -12 -31 -13 -44 -1 -25 5 8 14 10 21 6 9 -5 4 -12 -16
-20 -25 -10 -31 -9 -42 7 -7 10 -18 18 -24 18 -7 0 -6 -6 2 -15 16 -19 7 -19
-30 0 -26 14 -29 14 -24 0 3 -8 10 -13 14 -10 5 3 10 0 12 -6 2 -6 25 -13 50
-16 46 -5 46 -6 37 -32 -6 -14 -10 -27 -10 -28 1 -2 1 -19 1 -38 0 -30 -3 -35
-23 -35 -23 0 -133 60 -152 83 -6 7 -21 21 -34 32 l-24 20 12 -23 c15 -27 114
-94 176 -117 37 -15 44 -21 47 -51 2 -18 0 -41 -5 -49 -6 -11 -3 -17 10 -22
34 -12 46 -49 13 -38 -33 11 -23 -2 30 -34 28 -17 50 -33 50 -36 0 -2 -21 4
-47 14 -27 10 -54 16 -61 14 -15 -6 -72 16 -72 27 0 4 -12 5 -26 2 -24 -4 -25
-6 -8 -15 11 -6 21 -13 24 -17 3 -4 20 -15 38 -24 18 -9 37 -28 42 -41 6 -15
21 -27 37 -31 15 -4 33 -11 39 -16 7 -5 46 -15 89 -23 42 -8 81 -18 86 -21 5
-3 9 -1 9 3 0 5 10 9 22 10 11 1 25 8 29 15 7 11 12 11 29 0 18 -11 21 -10 30
13 7 18 17 25 35 25 14 0 25 -4 25 -10 0 -16 27 -12 98 16 91 36 97 43 81 88
-7 20 -18 35 -24 32 -121 -52 -213 -86 -232 -86 -19 0 -23 -4 -18 -19 3 -11 1
-22 -5 -26 -7 -4 -14 2 -17 14 -3 13 -14 21 -27 22 -12 0 -3 6 22 14 23 7 49
18 57 25 8 6 18 9 23 6 10 -6 87 32 170 83 55 34 65 53 15 28 -40 -21 -143
-29 -136 -11 5 15 7 15 110 40 40 9 70 21 67 25 -3 5 -13 9 -22 9 -25 0 -126
40 -134 53 -5 7 -8 0 -8 -16 0 -66 -68 -151 -130 -164 -20 -3 -30 -12 -32 -27
-2 -14 -11 -22 -30 -24 -22 -3 -29 2 -34 22 -4 16 -21 34 -47 48 -83 46 -122
190 -78 282 17 35 35 52 79 77 140 78 244 182 227 227 -5 13 -9 10 -24 -14
-21 -34 -115 -124 -130 -124 -6 0 -22 17 -35 39 -71 112 -194 147 -279 81 -31
-24 -36 -25 -54 -2 -8 9 -12 11 -8 5 3 -7 1 -13 -6 -13 -8 0 -8 -4 -1 -12 17
-23 20 -77 3 -91 -12 -10 -14 -9 -8 6 4 10 3 16 -1 14 -4 -3 -17 15 -28 39
-12 24 -18 44 -14 44 10 0 24 59 16 67 -3 4 -6 -3 -6 -15z m276 -190 c3 -15 7
-32 9 -39 2 -7 0 -15 -5 -18 -6 -4 -10 1 -10 10 0 9 -9 34 -19 55 -19 39 -19
39 0 30 10 -6 21 -23 25 -38z m-46 13 c10 -12 10 -15 -4 -15 -9 0 -16 7 -16
15 0 8 2 15 4 15 2 0 9 -7 16 -15z m20 -41 c0 -8 -5 -12 -10 -9 -6 4 -8 11 -5
16 9 14 15 11 15 -7z m-10 -40 c0 -8 -4 -12 -10 -9 -5 3 -10 10 -10 16 0 5 5
9 10 9 6 0 10 -7 10 -16z m401 -369 c-24 -14 -55 -28 -70 -32 l-26 -6 20 23
c24 27 50 39 90 39 29 1 29 0 -14 -24z m-238 -92 c-7 -2 -21 -2 -30 0 -10 3
-4 5 12 5 17 0 24 -2 18 -5z m55 -41 c3 -16 -2 -22 -17 -22 -24 0 -35 15 -27
36 9 23 40 13 44 -14z"/>
<path d="M3885 1610 c3 -5 8 -10 11 -10 2 0 4 5 4 10 0 6 -5 10 -11 10 -5 0
-7 -4 -4 -10z"/>
<path d="M4742 2353 c-6 -2 -10 -9 -6 -14 3 -5 0 -9 -5 -9 -6 0 -11 6 -11 12
0 7 -7 2 -16 -11 -12 -16 -19 -20 -27 -12 -6 6 -18 11 -26 11 -11 0 -10 -5 6
-22 65 -72 72 -244 15 -353 -40 -76 -59 -99 -101 -120 -38 -19 -116 -22 -166
-5 -37 12 -115 93 -115 118 0 33 -14 -1 -17 -41 -4 -59 4 -87 26 -87 29 0 51
-33 51 -76 0 -22 4 -34 8 -27 4 7 16 12 27 12 11 0 31 2 45 3 18 2 28 -3 35
-19 11 -26 35 -31 35 -8 0 9 7 18 15 21 18 7 47 -14 39 -27 -3 -5 0 -9 5 -9 6
0 11 5 11 11 0 7 10 9 28 5 19 -5 23 -4 13 3 -12 8 -8 15 19 38 46 39 75 58
67 46 -5 -7 11 -12 43 -15 l50 -3 0 48 0 47 -35 0 c-19 0 -35 4 -35 9 0 17 26
30 48 24 22 -5 22 -4 22 121 0 103 -2 124 -14 120 -17 -6 -21 0 -31 44 -6 29
-5 32 18 32 23 0 26 5 32 55 4 30 5 61 1 70 -5 15 -29 18 -54 8z"/>
<path d="M3425 2200 c14 -28 30 -48 35 -45 10 6 -6 43 -33 78 -27 33 -27 17
-2 -33z"/>
<path d="M3310 2181 c0 -6 4 -13 10 -16 6 -3 7 1 4 9 -7 18 -14 21 -14 7z"/>
<path d="M3210 2062 c0 -86 3 -101 20 -117 17 -15 20 -16 20 -3 0 9 -7 18 -15
22 -9 3 -15 18 -15 36 0 23 4 30 19 30 23 0 28 -16 30 -85 0 -29 7 -55 16 -64
13 -14 15 -7 15 63 0 73 -2 82 -41 147 -23 38 -43 69 -45 69 -2 0 -4 -44 -4
-98z"/>
<path d="M3420 2120 c12 -17 31 -35 43 -41 14 -7 8 4 -18 30 -46 49 -54 52
-25 11z"/>
<path d="M3490 2125 c13 -14 26 -25 28 -25 3 0 -5 11 -18 25 -13 14 -26 25
-28 25 -3 0 5 -11 18 -25z"/>
<path d="M3605 2120 c-3 -5 -2 -10 4 -10 5 0 13 5 16 10 3 6 2 10 -4 10 -5 0
-13 -4 -16 -10z"/>
<path d="M3835 2120 c-3 -5 -1 -10 4 -10 6 0 11 5 11 10 0 6 -2 10 -4 10 -3 0
-8 -4 -11 -10z"/>
<path d="M3230 2000 c0 -11 5 -20 10 -20 6 0 10 9 10 20 0 11 -4 20 -10 20 -5
0 -10 -9 -10 -20z"/>
<path d="M3385 1990 c10 -11 20 -20 23 -20 3 0 -3 9 -13 20 -10 11 -20 20 -23
20 -3 0 3 -9 13 -20z"/>
<path d="M3430 1930 c20 -29 40 -39 40 -22 0 12 -39 52 -51 52 -6 0 -1 -13 11
-30z"/>
<path d="M3210 1920 c0 -11 7 -20 15 -20 13 0 14 4 5 20 -6 11 -13 20 -15 20
-3 0 -5 -9 -5 -20z"/>
<path d="M3337 1875 c10 -13 24 -25 31 -25 6 0 12 -4 12 -10 0 -5 7 -10 15
-10 9 0 16 -14 20 -37 8 -48 18 -67 39 -71 10 -2 16 3 16 16 0 16 5 19 22 14
l21 -5 -21 21 c-12 12 -22 28 -22 36 0 8 -3 22 -7 32 -7 20 -10 20 80 -20 32
-15 55 -21 51 -14 -6 10 -5 10 8 0 13 -10 17 -10 21 2 4 9 -4 18 -21 24 -15 6
-36 13 -47 17 l-20 8 20 -17 c20 -17 20 -17 -5 -10 -38 10 -73 30 -94 53 -26
29 -44 27 -38 -4 3 -19 0 -25 -14 -25 -24 0 -39 10 -47 33 -3 9 -13 17 -22 17
-14 0 -14 -3 2 -25z"/>
<path d="M3235 1870 c3 -5 8 -10 11 -10 2 0 4 5 4 10 0 6 -5 10 -11 10 -5 0
-7 -4 -4 -10z"/>
<path d="M3270 1833 c0 -5 7 -18 15 -29 12 -16 14 -16 15 -3 0 9 -7 22 -15 29
-8 7 -15 8 -15 3z"/>
<path d="M4310 1781 c0 -6 -7 -11 -15 -11 -18 0 -31 -48 -17 -62 18 -18 52 9
52 42 0 16 -4 32 -10 35 -5 3 -10 1 -10 -4z"/>
<path d="M3222 1725 c6 -14 15 -25 20 -25 5 0 1 11 -8 25 -9 14 -18 25 -20 25
-2 0 2 -11 8 -25z"/>
<path d="M4420 1716 c0 -2 7 -6 15 -10 8 -3 15 -1 15 4 0 6 -7 10 -15 10 -8 0
-15 -2 -15 -4z"/>
<path d="M4695 1710 c29 -13 104 -13 85 0 -8 5 -35 9 -60 9 -34 0 -40 -2 -25
-9z"/>
<path d="M4510 1700 c0 -5 5 -10 10 -10 6 0 10 5 10 10 0 6 -4 10 -10 10 -5 0
-10 -4 -10 -10z"/>
<path d="M3210 1662 c0 -24 8 -69 18 -100 l17 -57 3 62 c2 47 -2 71 -17 100
l-20 38 -1 -43z"/>
<path d="M3420 1672 c0 -10 43 -52 53 -52 9 0 -4 32 -19 48 -14 14 -34 16 -34
4z"/>
<path d="M4350 1660 c0 -5 -10 -11 -22 -13 -20 -4 -19 -4 5 -6 15 0 27 4 27
10 0 6 8 8 19 4 11 -3 22 -2 25 3 3 5 -8 9 -24 10 -17 0 -30 -3 -30 -8z"/>
<path d="M3270 1657 c0 -2 9 -14 20 -27 22 -26 27 -15 6 13 -12 15 -26 23 -26
14z"/>
<path d="M4155 1603 c-43 -13 -84 -28 -89 -33 -15 -15 1 -12 98 18 110 35 102
47 -9 15z"/>
<path d="M4025 1599 c-9 -14 -2 -20 14 -10 8 6 9 11 3 15 -6 3 -14 1 -17 -5z"/>
<path d="M3277 1567 c-9 -24 5 -136 19 -148 30 -25 31 98 1 141 -11 16 -16 18
-20 7z"/>
<path d="M4640 1559 c0 -5 -4 -7 -10 -4 -5 3 -10 1 -10 -5 0 -7 8 -9 23 -5 33
11 45 25 19 25 -12 0 -22 -5 -22 -11z"/>
<path d="M4706 1555 c-4 -10 1 -15 17 -16 12 0 32 -2 45 -5 17 -3 22 1 22 16
0 17 -7 20 -39 20 -25 0 -41 -5 -45 -15z"/>
<path d="M3625 1551 c-6 -11 -1 -15 45 -29 73 -22 90 -23 90 -8 0 10 -16 17
-47 22 -27 3 -56 10 -65 15 -10 5 -19 5 -23 0z"/>
<path d="M3943 1542 c-30 -8 -53 -21 -53 -28 0 -17 -8 -18 73 9 37 13 64 26
61 30 -9 9 -18 8 -81 -11z"/>
<path d="M4515 1551 c-22 -4 -50 -12 -62 -19 -12 -7 -30 -12 -41 -12 -11 0
-22 -7 -26 -15 -4 -12 0 -14 22 -9 15 4 32 9 37 13 6 3 15 6 20 6 81 7 135 20
135 31 0 15 -19 16 -85 5z"/>
<path d="M3420 1510 c0 -14 49 -44 58 -35 4 3 -4 15 -17 26 -26 21 -41 24 -41
9z"/>
<path d="M3780 1510 c0 -5 20 -10 45 -10 25 0 45 5 45 10 0 6 -20 10 -45 10
-25 0 -45 -4 -45 -10z"/>
<path d="M4348 1504 c-6 -5 -31 -12 -54 -13 -6 -1 -11 -8 -11 -16 0 -8 5 -15
11 -14 19 1 82 27 68 28 -7 1 -10 6 -7 11 7 11 2 14 -7 4z"/>
<path d="M4185 1453 c-168 -64 -304 -77 -477 -43 -57 11 -105 20 -108 20 -13
-2 80 -45 120 -56 l45 -12 -40 -2 c-22 -1 -55 -1 -72 0 -18 1 -33 -3 -33 -9 0
-14 -29 -14 -86 1 -37 10 -46 18 -51 39 -3 14 -18 33 -33 43 -28 16 -29 16
-40 -4 -6 -11 -8 -25 -5 -30 3 -6 2 -10 -2 -10 -5 0 -15 16 -22 36 -9 24 -18
34 -29 32 -20 -4 -26 -27 -12 -48 9 -13 11 -13 21 0 8 12 9 10 4 -7 -5 -18 -1
-25 19 -33 18 -7 26 -17 26 -34 0 -27 33 -56 62 -56 11 0 18 7 18 20 0 19 2
19 38 6 91 -35 135 -38 193 -17 30 12 70 32 89 46 23 17 47 25 74 25 l40 0
-40 -29 c-48 -35 -193 -111 -214 -111 -8 0 -26 -9 -40 -20 -15 -12 -18 -18 -7
-14 30 11 18 -14 -18 -36 -19 -12 -40 -18 -46 -14 -8 4 -9 3 -5 -4 7 -12 -8
-16 -50 -13 -12 1 -49 -8 -84 -20 -48 -16 -64 -18 -70 -9 -6 10 -8 10 -12 0
-3 -10 -9 -10 -26 -1 -13 7 -20 16 -17 21 3 5 1 11 -5 15 -6 4 -10 -33 -10
-108 0 -94 3 -116 15 -121 13 -5 15 0 9 29 l-6 35 43 2 c24 0 58 1 74 2 33 1
78 30 128 81 18 18 43 35 57 39 24 7 24 6 6 -8 -65 -52 84 34 236 136 143 96
298 187 349 205 34 12 49 23 49 35 0 21 -3 21 -55 1z m-825 -13 c0 -5 -4 -10
-10 -10 -5 0 -10 5 -10 10 0 6 5 10 10 10 6 0 10 -4 10 -10z m5 -460 c3 -6 -1
-7 -9 -4 -18 7 -21 14 -7 14 6 0 13 -4 16 -10z"/>
<path d="M4534 1426 c-41 -7 -59 -15 -57 -23 3 -7 0 -13 -5 -13 -6 0 -12 4
-14 10 -5 16 -46 -1 -51 -22 -4 -14 -2 -18 10 -14 8 3 18 6 21 6 4 0 0 5 -8
11 -11 8 -7 9 16 4 18 -3 69 3 120 15 132 31 136 32 130 21 -7 -10 81 -27 91
-18 3 4 3 13 -1 22 -4 13 -22 15 -98 13 -51 -1 -120 -6 -154 -12z"/>
<path d="M4332 1371 c-29 -10 -55 -21 -59 -25 -11 -11 14 -29 28 -20 8 4 21 9
30 9 22 2 69 33 69 45 0 13 -6 12 -68 -9z m45 -7 c-3 -3 -12 -4 -19 -1 -8 3
-5 6 6 6 11 1 17 -2 13 -5z"/>
<path d="M3230 1375 c0 -5 5 -17 10 -25 5 -8 10 -10 10 -5 0 6 -5 17 -10 25
-5 8 -10 11 -10 5z"/>
<path d="M4154 1301 c-44 -21 -117 -59 -162 -85 -45 -26 -104 -59 -130 -73
-241 -136 -244 -138 -257 -169 l-13 -32 81 43 c67 34 222 123 367 211 14 8 66
35 117 59 77 38 90 48 86 65 -3 11 -6 20 -7 20 -1 0 -38 -17 -82 -39z"/>
<path d="M4667 1333 c-31 -3 -55 -11 -68 -24 -14 -14 -15 -19 -5 -19 8 0 17 4
20 9 3 5 21 11 40 13 19 2 32 0 30 -4 -3 -4 9 -8 26 -8 24 0 31 4 28 17 -4 19
-8 20 -71 16z"/>
<path d="M4550 1320 c-12 -8 -12 -10 5 -10 11 0 27 5 35 10 12 8 12 10 -5 10
-11 0 -27 -5 -35 -10z"/>
<path d="M3280 1287 c0 -10 7 -25 15 -33 21 -21 21 5 0 32 -13 18 -14 18 -15
1z"/>
<path d="M4515 1290 c-3 -5 1 -10 9 -10 8 0 18 5 21 10 3 6 -1 10 -9 10 -8 0
-18 -4 -21 -10z"/>
<path d="M4424 1282 c4 -7 1 -12 -8 -12 -9 0 -16 -4 -16 -10 0 -13 19 -12 55
5 18 8 23 14 13 14 -9 1 -24 4 -34 8 -12 4 -15 3 -10 -5z"/>
<path d="M4336 1261 c-27 -10 -56 -27 -64 -39 l-14 -21 61 22 c33 12 63 28 66
36 8 20 5 20 -49 2z"/>
<path d="M3210 1140 c1 -134 16 -217 36 -198 3 4 5 58 5 122 -1 97 -4 121 -21
148 l-20 33 0 -105z"/>
<path d="M3380 1210 c0 -16 46 -30 95 -30 67 0 62 15 -9 28 -77 15 -86 15 -86
2z"/>
<path d="M4194 1201 c-55 -25 -191 -103 -289 -166 -44 -28 -111 -71 -150 -95
-104 -64 -145 -92 -151 -102 -10 -16 94 40 215 116 120 75 301 178 384 217 26
13 47 29 47 36 0 17 -7 16 -56 -6z"/>
<path d="M4633 1155 c-17 -18 5 -24 80 -21 31 1 57 -2 57 -6 0 -4 5 -8 10 -8
6 0 10 8 10 19 0 22 -27 31 -85 30 -35 -1 -37 -2 -15 -9 24 -8 24 -8 -7 -9
-17 -1 -33 3 -35 8 -1 5 -9 3 -15 -4z"/>
<path d="M4505 1141 c-19 -8 -19 -8 3 -15 13 -4 26 -5 29 -2 4 3 0 6 -8 7 -8
0 -6 4 6 9 26 11 -2 12 -30 1z"/>
<path d="M4566 1131 c-3 -4 6 -6 19 -3 14 2 25 6 25 8 0 8 -39 4 -44 -5z"/>
<path d="M4461 1121 c-10 -7 -10 -10 -1 -16 6 -4 16 -3 22 3 13 13 -4 23 -21
13z"/>
<path d="M4415 1110 c-3 -5 -1 -10 4 -10 6 0 11 5 11 10 0 6 -2 10 -4 10 -3 0
-8 -4 -11 -10z"/>
<path d="M4325 1080 c-38 -16 -77 -33 -85 -38 -8 -5 -45 -25 -82 -45 -60 -32
-266 -159 -370 -227 -21 -14 -38 -28 -38 -32 0 -14 57 -8 70 7 7 8 17 15 22
15 5 0 28 13 51 29 70 48 147 95 247 151 52 30 97 57 98 62 2 4 7 8 12 8 5 0
40 14 79 32 50 22 71 37 71 50 0 10 -1 18 -2 18 -2 0 -34 -14 -73 -30z"/>
<path d="M4624 1001 c3 -5 -6 -12 -21 -16 -16 -4 -29 -2 -33 6 -10 15 -60 3
-60 -14 0 -13 -87 -53 -96 -44 -3 2 9 10 27 16 18 6 30 14 26 17 -10 11 -365
-169 -387 -196 -3 -3 -16 -14 -30 -23 -24 -17 -22 -17 69 -17 108 0 271 19
271 32 0 5 4 7 9 4 9 -6 114 10 141 21 8 3 24 8 35 9 11 2 38 11 60 20 115 47
144 72 152 133 5 37 3 41 -21 51 -35 13 -99 13 -91 0 3 -5 -3 -10 -14 -10 -12
0 -21 5 -21 10 0 6 -5 10 -11 10 -5 0 -8 -4 -5 -9z m13 -113 c-2 -8 -19 -12
-38 -12 -19 1 -29 0 -22 -3 7 -2 9 -11 6 -19 -6 -17 8 -18 26 -1 11 10 14 10
18 0 3 -7 9 -13 14 -13 4 0 6 7 3 15 -4 8 -1 15 6 15 6 0 8 -5 4 -12 -5 -8 -2
-9 9 -5 10 3 17 2 17 -3 0 -10 -20 -14 -52 -12 -10 1 -17 -4 -15 -10 1 -8 -13
-13 -39 -14 -35 -2 -41 1 -37 16 3 10 -2 20 -12 24 -14 5 -16 2 -12 -14 3 -11
2 -20 -1 -20 -11 1 -42 27 -42 35 0 5 3 5 7 2 3 -4 17 0 31 9 13 8 30 13 38
10 8 -3 12 -2 9 3 -5 9 19 15 68 20 11 0 17 -4 14 -11z m-181 -73 c1 -14 -2
-25 -7 -25 -5 0 -9 11 -9 25 0 33 15 33 16 0z"/>
<path d="M3575 980 c-3 -6 1 -7 9 -4 18 7 21 14 7 14 -6 0 -13 -4 -16 -10z"/>
<path d="M3443 930 c-34 -15 -41 -22 -36 -39 8 -33 74 -22 96 16 5 7 14 10 20
6 9 -5 8 -2 0 9 -7 8 -11 17 -8 19 12 13 -36 5 -72 -11z"/>
<path d="M3460 788 c0 -4 6 -8 14 -8 8 0 21 -3 30 -6 10 -4 16 -1 16 9 0 11
-9 15 -30 15 -16 -1 -30 -5 -30 -10z"/>
<path d="M3320 776 c0 -2 8 -10 18 -17 15 -13 16 -12 3 4 -13 16 -21 21 -21
13z"/>
</g>
</svg>
