<?xml version="1.0" standalone="no"?>
<!DOCTYPE svg PUBLIC "-//W3C//DTD SVG 20010904//EN"
 "http://www.w3.org/TR/2001/REC-SVG-20010904/DTD/svg10.dtd">
<svg version="1.0" xmlns="http://www.w3.org/2000/svg"
 width="800.000000pt" height="550.000000pt" viewBox="0 0 800.000000 550.000000"
 preserveAspectRatio="xMidYMid meet">

<g transform="translate(0.000000,550.000000) scale(0.100000,-0.100000)"
fill="#000000" stroke="none">
<path d="M3584 4819 c-121 -10 -314 -45 -330 -62 -2 -2 -1 -18 2 -36 6 -29 9
-31 44 -29 21 2 36 6 33 11 -2 4 3 7 11 7 12 0 14 5 6 24 -12 33 5 46 74 53
46 5 56 3 56 -9 0 -17 27 -44 36 -35 3 3 0 14 -7 26 -7 11 -10 23 -7 26 4 4
43 9 88 12 83 6 99 0 100 -33 0 -10 -59 -27 -100 -28 -8 -1 -19 -6 -25 -13 -5
-6 -19 -13 -30 -16 -15 -4 -14 -5 7 -6 15 0 29 3 32 8 3 4 46 8 96 7 83 -1 88
0 69 14 -14 11 -18 22 -13 35 7 17 8 17 15 -3 6 -15 14 -19 29 -15 12 3 19 11
16 18 -6 17 56 34 105 28 25 -4 50 -1 66 8 21 11 27 11 30 2 6 -16 33 -17 33
-2 0 9 28 11 98 7 53 -3 84 -2 67 2 -41 10 -464 9 -601 -1z m-302 -96 c-3 -16
-7 -22 -10 -15 -4 13 4 42 11 42 2 0 2 -12 -1 -27z"/>
<path d="M4298 4813 c12 -2 30 -2 40 0 9 3 -1 5 -23 4 -22 0 -30 -2 -17 -4z"/>
<path d="M4408 4803 c6 -2 18 -2 25 0 6 3 1 5 -13 5 -14 0 -19 -2 -12 -5z"/>
<path d="M4503 4793 c9 -2 23 -2 30 0 6 3 -1 5 -18 5 -16 0 -22 -2 -12 -5z"/>
<path d="M4614 4771 c38 -11 72 -24 75 -29 3 -5 14 -9 25 -9 18 0 18 1 0 14
-21 16 -73 31 -129 38 -26 4 -16 -1 29 -14z"/>
<path d="M3854 4625 c11 -8 26 -15 33 -15 7 0 13 -3 13 -8 0 -11 93 -57 109
-54 13 3 13 1 1 -15 -8 -10 -11 -15 -6 -11 4 3 19 0 34 -8 17 -9 30 -10 36 -4
14 14 26 12 24 -2 -2 -7 5 -12 15 -10 12 2 17 -4 17 -21 0 -24 17 -47 34 -47
6 0 5 5 -2 12 -20 20 -14 26 21 23 23 -2 36 -10 47 -29 12 -22 20 -26 43 -22
22 5 30 2 34 -12 7 -28 60 -55 92 -49 16 3 33 1 38 -4 7 -7 11 -2 11 15 0 14
-7 31 -14 37 -11 9 -14 8 -14 -6 0 -10 -3 -15 -7 -11 -4 4 -8 15 -8 23 0 20
-32 26 -39 7 -9 -24 -29 -16 -24 10 6 28 -13 41 -32 23 -7 -7 -10 -7 -8 -2 3
6 0 15 -7 22 -10 9 -14 8 -18 -8 -10 -38 -33 -17 -28 26 1 16 -56 47 -64 35
-9 -14 -58 -13 -73 2 -7 7 -12 22 -12 34 0 12 -7 24 -15 28 -8 3 -12 11 -9 19
7 18 -84 37 -175 37 -60 -1 -64 -2 -47 -15z"/>
<path d="M3797 4613 c-4 -3 -7 -11 -7 -17 0 -6 5 -5 12 2 6 6 9 14 7 17 -3 3
-9 2 -12 -2z"/>
<path d="M3657 4602 c-20 -4 -18 -22 4 -33 8 -4 41 -21 74 -38 154 -79 321
-151 350 -151 15 0 -40 42 -67 52 -16 6 -28 14 -28 19 0 5 -6 9 -14 9 -7 0
-19 7 -26 15 -6 8 -15 13 -18 12 -11 -3 -72 27 -72 35 0 5 -8 8 -17 8 -27 0
-78 36 -61 44 8 3 5 5 -7 4 -22 -1 -75 11 -90 22 -5 3 -18 5 -28 2z"/>
<path d="M3835 4600 c3 -5 8 -10 11 -10 2 0 4 5 4 10 0 6 -5 10 -11 10 -5 0
-7 -4 -4 -10z"/>
<path d="M3415 4590 c-3 -5 1 -10 9 -10 9 0 16 5 16 10 0 6 -4 10 -9 10 -6 0
-13 -4 -16 -10z"/>
<path d="M3815 4570 c-19 -8 -19 -9 3 -9 12 -1 22 4 22 9 0 6 -1 10 -2 9 -2 0
-12 -4 -23 -9z"/>
<path d="M4140 4569 c0 -6 -5 -7 -11 -3 -7 4 -10 -1 -7 -12 2 -10 12 -20 22
-22 14 -3 17 0 13 13 -4 9 -3 14 3 10 6 -3 10 -2 10 3 0 6 -7 12 -15 16 -8 3
-15 1 -15 -5z"/>
<path d="M3250 4560 c0 -5 5 -10 10 -10 6 0 10 5 10 10 0 6 -4 10 -10 10 -5 0
-10 -4 -10 -10z"/>
<path d="M3888 4523 c6 -2 18 -2 25 0 6 3 1 5 -13 5 -14 0 -19 -2 -12 -5z"/>
<path d="M3640 4450 c0 -11 -7 -20 -15 -20 -14 0 -13 -4 2 -25 16 -23 23 -25
61 -21 24 3 41 2 38 -3 -3 -4 7 -6 22 -5 15 2 21 1 15 -2 -28 -13 -10 -19 44
-16 32 2 78 -4 103 -12 l45 -14 -50 -1 c-71 -2 -116 -16 -177 -58 -64 -43 -92
-74 -75 -85 9 -5 9 -10 -1 -20 -25 -25 -11 -29 21 -6 46 36 135 82 183 96 23
7 70 13 105 13 35 1 53 4 39 6 -14 3 -30 9 -35 13 -13 11 -64 4 -123 -16 -23
-8 -47 -12 -52 -9 -6 3 -10 1 -10 -4 0 -6 -4 -11 -10 -11 -5 0 -19 -9 -31 -21
-11 -11 -23 -19 -25 -16 -7 7 7 37 18 37 6 0 16 8 23 17 7 9 26 16 44 16 17 0
27 4 20 8 -26 15 33 30 109 27 61 -3 85 -8 109 -26 37 -26 51 -29 32 -6 -7 9
-34 26 -59 38 -31 15 -44 27 -42 39 2 10 -4 17 -14 17 -9 0 -77 20 -152 45
-74 25 -141 45 -149 45 -7 0 -13 -9 -13 -20z m193 -67 c-7 -2 -19 -2 -25 0 -7
3 -2 5 12 5 14 0 19 -2 13 -5z m97 -13 c10 -7 1 -8 -30 -4 -56 8 -64 14 -19
14 19 0 41 -5 49 -10z m-241 -171 c-16 -10 -23 -4 -14 10 3 6 11 8 17 5 6 -4
5 -9 -3 -15z"/>
<path d="M3420 4440 c0 -5 5 -10 10 -10 6 0 10 5 10 10 0 6 -4 10 -10 10 -5 0
-10 -4 -10 -10z"/>
<path d="M3578 4413 c7 -3 16 -2 19 1 4 3 -2 6 -13 5 -11 0 -14 -3 -6 -6z"/>
<path d="M3497 4396 c-7 -17 -57 -22 -57 -6 0 6 -4 10 -9 10 -10 0 -24 -45
-23 -77 0 -13 0 -45 1 -73 1 -27 5 -50 10 -50 15 0 34 59 33 104 -1 45 17 74
38 61 5 -3 10 0 11 7 0 7 4 4 8 -6 4 -11 10 -15 13 -10 2 5 -1 19 -7 32 -10
19 -14 20 -18 8z"/>
<path d="M3180 4376 c0 -15 37 -29 52 -20 13 9 -12 34 -33 34 -11 0 -19 -6
-19 -14z"/>
<path d="M3250 4379 c0 -5 5 -7 10 -4 6 3 10 8 10 11 0 2 -4 4 -10 4 -5 0 -10
-5 -10 -11z"/>
<path d="M3575 4381 c-3 -6 3 -9 14 -8 11 0 17 5 15 9 -7 11 -22 10 -29 -1z"/>
<path d="M3685 4360 c4 -7 -2 -14 -13 -17 -19 -4 -38 -31 -29 -39 3 -3 68 26
96 44 7 4 -3 9 -32 16 -20 5 -27 3 -22 -4z"/>
<path d="M4573 4338 c0 -34 15 -38 135 -38 l92 0 0 34 0 33 -113 -1 -114 -1 0
-27z"/>
<path d="M3990 4356 c0 -5 88 -46 97 -46 9 1 -78 49 -89 50 -5 0 -8 -2 -8 -4z"/>
<path d="M4465 4340 c-3 -5 -1 -10 4 -10 6 0 11 5 11 10 0 6 -2 10 -4 10 -3 0
-8 -4 -11 -10z"/>
<path d="M4100 4302 c0 -9 50 -35 56 -29 2 2 -10 11 -26 21 -17 9 -30 13 -30
8z"/>
<path d="M3185 4260 c-7 -11 35 -30 66 -30 11 0 19 7 19 16 0 11 -6 13 -19 9
-11 -3 -22 -1 -26 5 -8 13 -32 13 -40 0z"/>
<path d="M4117 4235 c16 -22 43 -41 43 -30 0 6 -50 55 -56 55 -3 0 3 -11 13
-25z"/>
<path d="M4180 4250 c0 -5 5 -10 10 -10 6 0 10 5 10 10 0 6 -4 10 -10 10 -5 0
-10 -4 -10 -10z"/>
<path d="M3325 4220 c3 -5 8 -10 11 -10 2 0 4 5 4 10 0 6 -5 10 -11 10 -5 0
-7 -4 -4 -10z"/>
<path d="M3874 4220 c-60 -12 -156 -63 -200 -106 -35 -34 -37 -38 -19 -42 11
-2 23 -9 27 -16 6 -8 8 -8 8 1 0 6 -5 15 -11 19 -17 10 60 54 95 54 60 0 109
-24 167 -82 32 -31 60 -53 63 -47 2 5 3 4 2 -3 -2 -7 6 -24 16 -38 19 -24 19
-25 1 -29 -10 -2 -21 -8 -24 -13 -10 -15 -81 62 -75 79 3 8 2 11 -4 8 -5 -3
-31 6 -58 20 -70 36 -138 36 -186 0 -33 -25 -36 -32 -36 -79 l0 -51 65 -19
c50 -14 77 -30 122 -71 l59 -53 -1 -88 0 -89 -55 -27 c-30 -15 -70 -30 -88
-33 l-34 -7 18 34 c9 18 34 74 54 125 l37 92 -27 26 c-15 15 -30 23 -33 18 -3
-4 -19 -49 -35 -98 -16 -50 -41 -116 -55 -147 -14 -32 -21 -58 -16 -58 6 0 14
10 17 23 6 19 7 17 12 -13 5 -36 11 -38 60 -24 l25 7 -22 -24 c-32 -35 -44
-74 -33 -105 14 -36 32 -20 24 22 -4 24 -2 34 6 34 7 0 10 7 6 16 -5 14 -4 15
9 4 12 -10 18 -7 32 19 10 17 23 32 28 35 19 7 55 -13 55 -31 0 -11 3 -14 8
-7 4 6 17 14 28 18 18 5 26 0 44 -29 16 -25 29 -35 47 -35 l26 0 -25 23 c-28
26 -73 117 -57 117 5 0 9 7 9 15 0 16 -15 21 -23 8 -2 -5 -3 -3 -1 4 1 6 0 14
-4 17 -10 11 -9 150 2 186 15 45 37 80 53 80 7 0 13 6 13 13 0 14 45 37 72 37
10 0 18 4 18 9 0 5 9 7 20 4 11 -3 20 -1 20 5 0 11 18 11 36 -1 7 -4 15 0 18
9 9 24 7 31 -5 14 -8 -12 -9 -9 -5 13 4 15 2 27 -3 27 -5 0 -18 23 -30 50 -12
28 -26 48 -31 45 -6 -3 -7 1 -4 9 4 9 -1 18 -10 22 -9 3 -13 10 -10 15 3 5 0
9 -5 9 -6 0 -11 7 -11 14 0 24 -66 67 -107 71 -21 2 -57 0 -79 -5z m-19 -244
c35 -15 95 -79 95 -102 0 -32 -31 -24 -89 24 -33 27 -78 58 -100 68 -22 9 -37
22 -34 27 7 11 86 0 128 -17z"/>
<path d="M4270 4190 c0 -5 5 -10 11 -10 5 0 7 5 4 10 -3 6 -8 10 -11 10 -2 0
-4 -4 -4 -10z"/>
<path d="M3192 4105 c0 -67 3 -85 14 -85 19 0 18 -10 -3 -25 -9 -7 -13 -17 -9
-23 9 -15 36 -16 36 -1 0 5 -6 7 -12 3 -9 -5 -8 -2 1 9 11 14 11 23 3 42 -7
15 -8 25 -2 25 15 0 7 44 -9 51 -11 4 -11 8 3 21 13 14 14 17 1 22 -8 3 -15
10 -15 17 0 6 7 9 15 5 8 -3 15 -1 15 3 0 7 -23 21 -34 21 -2 0 -3 -38 -4 -85z"/>
<path d="M4130 4181 c0 -6 4 -13 10 -16 6 -3 7 1 4 9 -7 18 -14 21 -14 7z"/>
<path d="M4305 4170 c-3 -5 -2 -10 3 -10 9 0 47 -37 104 -101 80 -91 91 -101
98 -89 5 9 9 9 14 1 4 -6 5 -15 2 -20 -3 -5 3 -20 14 -32 11 -13 19 -19 20
-12 0 6 -7 18 -15 27 -10 10 -12 17 -5 21 18 11 -10 36 -31 30 -14 -5 -17 -2
-13 9 3 9 1 16 -5 16 -6 0 -8 6 -5 13 2 7 -14 28 -37 47 -22 19 -55 48 -72 63
-43 38 -64 49 -72 37z"/>
<path d="M3422 4141 c-6 -17 -7 -31 -3 -31 10 0 25 50 18 57 -3 2 -9 -10 -15
-26z"/>
<path d="M4181 4103 c0 -4 4 -17 9 -28 8 -19 9 -19 9 2 1 12 -3 25 -9 28 -5 3
-10 3 -9 -2z"/>
<path d="M3420 4095 c0 -5 5 -17 10 -25 5 -8 10 -10 10 -5 0 6 -5 17 -10 25
-5 8 -10 11 -10 5z"/>
<path d="M4211 4044 c0 -11 3 -14 6 -6 3 7 2 16 -1 19 -3 4 -6 -2 -5 -13z"/>
<path d="M3426 4034 c-3 -9 -6 -23 -6 -32 1 -15 3 -14 15 2 17 22 20 46 6 46
-5 0 -12 -7 -15 -16z"/>
<path d="M3423 3948 c-10 -13 -11 -17 -16 -74 -1 -17 -10 -38 -19 -48 -29 -29
-21 -27 26 5 25 16 61 36 81 44 20 9 33 20 29 26 -4 7 2 7 16 -1 12 -6 24 -9
28 -6 3 3 -1 6 -9 7 -8 0 -6 4 6 9 17 7 15 9 -12 9 -20 1 -36 -5 -42 -16 -9
-16 -10 -16 -11 -2 0 10 -7 16 -17 15 -10 0 -22 9 -28 22 -11 25 -18 27 -32
10z"/>
<path d="M4774 3913 c-4 -15 -18 -42 -31 -61 -21 -32 -27 -35 -72 -35 -40 1
-56 -5 -86 -30 -34 -28 -36 -31 -19 -41 11 -6 19 -20 20 -31 0 -11 4 -30 8
-41 5 -17 1 -24 -24 -34 -16 -7 -30 -17 -30 -22 0 -5 3 -7 8 -5 4 3 14 -3 24
-12 15 -15 14 -19 -7 -56 -12 -22 -29 -39 -36 -37 -11 3 -11 1 -2 -9 10 -10
16 -8 30 8 10 11 28 25 41 32 25 13 28 10 36 -44 7 -45 8 -44 15 5 5 38 9 44
26 42 11 -2 29 -12 39 -22 16 -15 17 -22 7 -34 -15 -18 -85 -60 -76 -46 4 7
-3 8 -20 4 -19 -5 -35 0 -58 17 -20 14 -27 16 -18 6 14 -18 10 -29 -12 -33 -7
-1 -24 -4 -39 -7 -18 -4 -28 -1 -28 6 0 8 -3 8 -9 -1 -6 -10 -30 -13 -87 -11
-57 2 -78 0 -76 -9 1 -7 -2 -12 -8 -12 -5 0 -10 9 -10 21 0 11 -4 17 -10 14
-21 -13 -9 -35 26 -50 57 -23 139 -19 230 13 44 16 85 27 91 25 6 -2 -8 -22
-30 -43 -38 -35 -43 -38 -54 -23 -12 16 -13 16 -13 0 0 -9 -12 -23 -27 -31
-16 -8 -24 -15 -20 -16 16 0 107 33 113 41 3 5 14 9 25 9 10 0 24 9 31 20 7
11 16 20 20 20 12 0 74 63 87 88 7 12 16 20 20 17 24 -14 29 175 6 219 -19 35
-19 44 0 62 10 11 15 36 15 85 0 73 -5 86 -16 42z m-94 -119 c0 -10 -52 -94
-58 -94 -8 0 -42 58 -42 71 0 4 15 13 33 18 38 11 67 13 67 5z m42 -11 c29
-34 28 -41 -6 -62 -44 -28 -49 -27 -41 12 11 52 16 67 24 67 4 0 15 -8 23 -17z
m46 -111 l3 -41 -33 16 c-18 9 -34 17 -36 18 -7 5 44 54 53 52 6 -2 11 -22 13
-45z m-94 2 c19 -50 -6 -114 -44 -114 -32 0 -41 69 -14 108 18 26 49 29 58 6z
m96 -73 c0 -27 -21 -81 -31 -81 -12 0 -50 62 -46 75 3 9 37 22 65 24 6 1 12
-7 12 -18z"/>
<path d="M4627 3630 c-6 -24 12 -38 24 -19 10 16 7 31 -8 36 -6 2 -13 -5 -16
-17z"/>
<path d="M3197 3923 c-4 -3 -7 -17 -7 -31 0 -18 4 -23 16 -18 9 3 18 6 20 6 2
0 4 11 4 25 0 24 -18 34 -33 18z"/>
<path d="M3591 3913 c0 -11 3 -13 6 -5 2 6 9 12 14 12 6 0 7 -4 4 -10 -3 -5
-1 -10 4 -10 6 0 11 7 11 15 0 8 -9 15 -20 15 -13 0 -20 -6 -19 -17z"/>
<path d="M3252 3899 c2 -6 8 -10 13 -10 5 0 11 4 13 10 2 6 -4 11 -13 11 -9 0
-15 -5 -13 -11z"/>
<path d="M4090 3873 c-89 -30 -127 -82 -134 -182 -2 -37 -10 -67 -17 -72 -8
-4 -10 -11 -6 -16 5 -4 12 -2 16 5 6 9 12 8 25 -7 16 -17 16 -20 1 -35 -15
-15 -15 -16 4 -16 14 0 21 -6 21 -20 0 -11 5 -19 12 -17 7 1 17 -8 23 -20 5
-13 13 -23 18 -23 5 0 23 -11 40 -24 18 -13 57 -28 90 -33 56 -10 57 -10 57
14 0 16 -7 27 -20 30 -11 3 -20 9 -20 14 0 5 -5 9 -10 9 -23 0 -87 64 -104
104 -31 75 -21 154 26 199 35 34 77 34 94 -1 22 -45 34 -49 34 -10 0 46 -31
84 -78 98 -40 11 -49 11 -72 3z"/>
<path d="M3208 3842 c-10 -2 -18 -12 -18 -23 0 -21 8 -23 28 -10 19 12 11 37
-10 33z"/>
<path d="M3255 3830 c-3 -5 -1 -10 4 -10 6 0 11 5 11 10 0 6 -2 10 -4 10 -3 0
-8 -4 -11 -10z"/>
<path d="M3487 3803 c-12 -11 -8 -21 13 -26 22 -6 23 -5 14 17 -7 17 -16 20
-27 9z"/>
<path d="M3696 3778 c-9 -36 -7 -41 9 -28 16 13 21 50 6 50 -5 0 -11 -10 -15
-22z"/>
<path d="M3935 3770 c-3 -5 -1 -10 4 -10 6 0 11 5 11 10 0 6 -2 10 -4 10 -3 0
-8 -4 -11 -10z"/>
<path d="M4145 3770 c-16 -7 -17 -9 -3 -9 9 -1 20 4 23 9 7 11 7 11 -20 0z"/>
<path d="M3490 3760 c0 -5 4 -10 9 -10 5 0 20 -27 33 -60 12 -33 26 -60 30
-60 11 0 10 7 -2 28 -10 17 -31 73 -32 82 0 20 -38 40 -38 20z"/>
<path d="M3580 3760 c0 -5 5 -10 11 -10 5 0 7 5 4 10 -3 6 -8 10 -11 10 -2 0
-4 -4 -4 -10z"/>
<path d="M3320 3750 c-13 -8 -12 -10 3 -10 9 0 17 5 17 10 0 12 -1 12 -20 0z"/>
<path d="M3207 3739 c-12 -7 -17 -22 -16 -57 0 -44 1 -45 12 -22 6 14 14 27
17 30 26 22 15 64 -13 49z"/>
<path d="M4154 3734 c3 -9 6 -18 6 -20 0 -2 7 -4 15 -4 8 0 15 7 15 16 0 8 -4
12 -10 9 -5 -3 -10 -1 -10 4 0 6 -5 11 -11 11 -6 0 -8 -7 -5 -16z"/>
<path d="M3590 3720 c6 -11 12 -20 14 -20 2 0 2 9 -1 20 -3 11 -9 20 -15 20
-5 0 -4 -9 2 -20z"/>
<path d="M4132 3722 c4 -12 2 -22 -3 -22 -19 0 -8 -19 14 -22 18 -2 22 -9 20
-33 -1 -19 0 -22 3 -8 4 15 11 20 22 17 15 -5 15 -4 0 9 -10 8 -18 20 -18 26
0 7 -4 9 -10 6 -5 -3 -10 3 -10 14 0 11 -5 23 -12 27 -8 5 -9 0 -6 -14z"/>
<path d="M4310 3731 c0 -6 4 -13 10 -16 6 -3 7 1 4 9 -7 18 -14 21 -14 7z"/>
<path d="M4220 3719 c0 -5 5 -7 10 -4 6 3 10 8 10 11 0 2 -4 4 -10 4 -5 0 -10
-5 -10 -11z"/>
<path d="M3440 3706 c0 -8 5 -18 10 -21 6 -3 10 1 10 9 0 8 -4 18 -10 21 -5 3
-10 -1 -10 -9z"/>
<path d="M4505 3688 c-7 -18 -10 -37 -7 -43 3 -5 9 4 13 21 3 17 9 36 13 42 4
7 4 12 1 12 -3 0 -12 -15 -20 -32z"/>
<path d="M4185 3690 c4 -6 11 -8 16 -5 14 9 11 15 -7 15 -8 0 -12 -5 -9 -10z"/>
<path d="M3796 3651 c-19 -37 -20 -41 -2 -41 17 0 33 19 38 44 5 31 -20 29
-36 -3z"/>
<path d="M4300 3668 c0 -4 5 -8 12 -8 9 0 9 -3 0 -12 -29 -29 -8 -58 44 -58
39 0 18 -27 -23 -28 -43 -2 -47 -5 -38 -30 5 -18 12 -20 53 -15 26 2 49 6 51
8 1 2 15 -1 29 -6 15 -6 41 -8 59 -4 32 6 32 6 28 58 -3 49 -25 82 -25 38 0
-12 -6 -21 -15 -21 -8 0 -15 5 -15 12 0 6 -3 8 -7 5 -3 -4 -15 0 -25 10 -17
15 -18 15 -18 -5 0 -11 -4 -24 -10 -27 -5 -3 -10 -1 -10 5 0 20 -58 87 -75 87
-8 0 -15 -4 -15 -9z"/>
<path d="M4125 3660 c-3 -5 -12 -7 -20 -4 -12 5 -11 -2 3 -36 26 -65 114 -122
129 -84 4 10 0 22 -10 29 -9 7 -15 14 -13 16 3 2 -7 5 -21 6 -15 0 -30 8 -35
17 -5 9 -16 16 -23 16 -20 0 -19 16 0 24 16 6 21 26 6 26 -6 0 -12 -4 -16 -10z"/>
<path d="M3265 3564 c5 -87 15 -95 15 -11 0 36 -4 68 -9 71 -5 3 -7 -23 -6
-60z"/>
<path d="M3577 3600 c3 -11 9 -22 13 -25 5 -3 6 4 3 15 -3 11 -9 22 -13 25 -5
3 -6 -4 -3 -15z"/>
<path d="M3192 3580 c0 -19 2 -27 5 -17 2 9 2 25 0 35 -3 9 -5 1 -5 -18z"/>
<path d="M3410 3580 c0 -5 5 -10 10 -10 6 0 10 5 10 10 0 6 -4 10 -10 10 -5 0
-10 -4 -10 -10z"/>
<path d="M3209 3553 c-16 -92 -16 -152 0 -200 8 -24 18 -43 23 -43 13 0 9 68
-6 105 -11 25 -11 34 -3 32 11 -2 14 32 8 96 -1 16 -20 25 -22 10z"/>
<path d="M4260 3546 c0 -8 5 -18 10 -21 6 -3 10 3 10 14 0 12 -4 21 -10 21 -5
0 -10 -6 -10 -14z"/>
<path d="M3273 3445 c0 -22 2 -30 4 -17 2 12 2 30 0 40 -3 9 -5 -1 -4 -23z"/>
<path d="M3292 3425 c0 -16 2 -22 5 -12 2 9 2 23 0 30 -3 6 -5 -1 -5 -18z"/>
<path d="M3827 3410 c-4 -16 -28 -73 -53 -126 l-47 -96 16 -52 c9 -28 23 -61
31 -71 14 -19 15 -19 53 11 80 64 112 143 93 225 -12 49 -63 139 -79 139 -4 0
-11 -13 -14 -30z"/>
<path d="M3896 3427 c3 -10 9 -15 12 -12 3 3 0 11 -7 18 -10 9 -11 8 -5 -6z"/>
<path d="M3420 3405 c0 -21 -5 -25 -31 -25 -17 0 -29 -5 -27 -11 2 -6 7 -9 11
-7 5 2 13 -5 19 -16 8 -15 12 -16 19 -5 7 11 9 10 9 -3 0 -10 6 -18 14 -18 16
0 28 52 20 86 -8 32 -34 31 -34 -1z"/>
<path d="M3545 3416 c-11 -8 -26 -11 -35 -8 -11 3 -12 2 -5 -6 8 -9 19 -9 43
0 18 7 32 16 32 20 0 12 -14 10 -35 -6z"/>
<path d="M3470 3385 c0 -9 6 -12 15 -9 8 4 15 7 15 9 0 2 -7 5 -15 9 -9 3 -15
0 -15 -9z"/>
<path d="M3654 3368 c-12 -36 -13 -48 -4 -48 5 0 13 8 19 17 8 14 12 15 25 4
20 -17 20 -7 0 24 -20 31 -30 31 -40 3z"/>
<path d="M4777 3384 c-4 -4 -7 -14 -7 -23 0 -11 3 -12 11 -4 6 6 10 16 7 23
-2 6 -7 8 -11 4z"/>
<path d="M3261 3290 c0 -30 4 -64 9 -75 6 -14 9 -5 9 35 0 30 -4 64 -9 75 -6
14 -9 5 -9 -35z"/>
<path d="M3590 3319 c0 -5 5 -7 10 -4 6 3 10 8 10 11 0 2 -4 4 -10 4 -5 0 -10
-5 -10 -11z"/>
<path d="M3563 3273 c-28 -39 -35 -53 -29 -53 9 0 59 70 53 76 -2 3 -14 -7
-24 -23z"/>
<path d="M3201 3238 c-1 -16 4 -28 9 -28 12 0 12 8 0 35 -8 18 -9 17 -9 -7z"/>
<path d="M4541 3063 c1 -130 5 -203 13 -212 8 -11 8 -13 -1 -7 -10 5 -13 -4
-13 -33 0 -23 2 -41 5 -41 2 0 23 13 47 29 40 27 42 32 39 71 -2 29 3 48 15
61 23 25 28 24 43 -7 11 -25 13 -25 30 -10 10 9 26 31 36 50 l18 33 -68 132
-69 131 -48 0 -48 0 1 -197z m97 -7 c-2 -11 -9 -21 -15 -24 -9 -2 -13 9 -13
40 1 40 2 42 16 23 8 -11 13 -29 12 -39z"/>
<path d="M3302 3220 c0 -14 2 -19 5 -12 2 6 2 18 0 25 -3 6 -5 1 -5 -13z"/>
<path d="M4776 3221 c-4 -7 -5 -15 -2 -18 9 -9 19 4 14 18 -4 11 -6 11 -12 0z"/>
<path d="M4295 2994 c6 -235 13 -334 23 -334 4 0 30 14 59 30 54 31 79 62 67
82 -4 7 -3 8 4 4 14 -8 46 39 37 54 -3 5 -2 10 3 10 15 0 25 92 17 150 -4 28
-19 67 -35 92 -30 45 -108 102 -154 114 l-27 7 6 -209z m103 -26 c15 -15 15
-40 0 -73 -18 -40 -28 -29 -28 30 0 56 6 65 28 43z m33 -205 c13 -16 12 -17
-3 -4 -17 13 -22 21 -14 21 2 0 10 -8 17 -17z"/>
<path d="M3201 2973 c1 -206 1 -215 14 -158 31 141 31 375 -1 375 -12 0 -14
-36 -13 -217z"/>
<path d="M4183 3167 l-53 -10 0 -93 c0 -52 -3 -94 -7 -94 -3 0 -44 20 -90 45
-46 25 -83 42 -83 38 0 -5 23 -104 52 -220 l53 -213 48 0 c41 0 48 2 43 18 -8
26 -26 125 -24 128 2 1 28 -20 58 -47 89 -81 85 -83 83 44 -5 220 -15 417 -22
416 -3 -1 -30 -6 -58 -12z"/>
<path d="M3418 3075 c-10 -10 7 -78 22 -83 12 -3 12 -2 3 8 -9 10 -9 17 0 31
9 15 8 22 -4 34 -8 9 -18 13 -21 10z"/>
<path d="M3852 3012 c-23 -15 -42 -33 -42 -40 0 -7 24 -81 53 -163 l52 -150
35 6 c19 4 38 10 43 14 6 6 -75 318 -92 348 -4 9 -18 4 -49 -15z"/>
<path d="M3420 2912 c0 -50 3 -60 15 -56 10 4 15 20 15 49 0 26 -6 47 -15 55
-13 11 -15 5 -15 -48z"/>
<path d="M3645 2909 c-60 -32 -76 -45 -67 -54 4 -4 -1 -5 -10 -2 -10 4 -18 5
-18 4 0 -1 14 -40 31 -87 16 -47 39 -114 51 -150 11 -36 34 -102 50 -147 32
-89 34 -91 100 -73 l37 11 -14 46 c-8 26 -13 49 -11 51 2 1 33 -13 70 -33 l66
-37 20 47 c40 93 42 88 -59 130 -50 21 -91 39 -91 40 0 1 7 22 16 46 30 85 0
189 -61 215 -46 19 -63 18 -110 -7z m69 -125 c9 -22 7 -57 -3 -73 -6 -9 -13 0
-24 32 -11 34 -12 47 -4 51 20 8 25 6 31 -10z m-74 -50 c0 -8 -4 -12 -10 -9
-5 3 -10 10 -10 16 0 5 5 9 10 9 6 0 10 -7 10 -16z"/>
<path d="M3265 2817 c-4 -48 -11 -89 -16 -93 -5 -3 -9 -18 -9 -33 0 -15 -5
-32 -10 -39 -6 -6 -7 -10 -4 -7 4 2 16 -2 28 -10 11 -8 24 -15 29 -15 10 0 7
235 -3 265 -5 12 -10 -15 -15 -68z"/>
<path d="M4761 2881 c-11 -20 -11 -22 1 -16 7 4 0 -4 -17 -19 -16 -14 -35 -25
-42 -26 -13 0 -33 -31 -33 -49 0 -6 13 -11 28 -11 15 0 33 -5 40 -12 7 -7 12
-8 12 -4 0 5 7 3 15 -4 21 -17 27 19 17 100 -7 61 -9 63 -21 41z"/>
<path d="M3430 2820 c-9 -6 -10 -10 -3 -10 6 0 15 5 18 10 8 12 4 12 -15 0z"/>
<path d="M3467 2767 l-38 -33 27 -27 c15 -15 24 -27 20 -27 -4 0 -2 -9 5 -21
7 -14 14 -18 21 -11 6 6 7 16 2 24 -15 24 -12 36 13 47 18 8 23 16 18 29 -4 9
-10 25 -12 35 -7 23 -12 22 -56 -16z m43 -15 c0 -25 -35 -58 -45 -42 -9 15 14
60 32 60 7 0 13 -8 13 -18z"/>
<path d="M3482 2748 c-7 -7 -12 -16 -12 -21 0 -5 7 -1 16 8 9 9 14 18 12 20
-2 3 -10 -1 -16 -7z"/>
<path d="M3375 2699 c-10 -15 3 -25 16 -12 7 7 7 13 1 17 -6 3 -14 1 -17 -5z"/>
<path d="M3531 2688 c-6 -13 -9 -15 -7 -5 3 9 0 17 -5 17 -7 0 -9 -9 -6 -22 3
-12 2 -29 -3 -38 -6 -12 -2 -27 16 -53 14 -21 29 -37 35 -37 6 0 7 -5 4 -10
-6 -9 31 -80 41 -80 2 0 12 8 22 18 20 20 18 42 -4 42 -17 0 -19 -17 -2 -22 9
-3 9 -6 0 -12 -7 -4 -12 -2 -12 4 0 6 -4 8 -10 5 -16 -10 -12 6 6 26 17 19 12
55 -5 44 -6 -3 -21 -3 -34 0 -23 6 -24 9 -14 41 9 29 13 32 26 21 8 -6 12 -7
10 -2 -3 6 -13 27 -23 48 -9 20 -18 37 -20 37 -2 0 -8 -10 -15 -22z m27 -33
c-3 -3 -9 2 -12 12 -6 14 -5 15 5 6 7 -7 10 -15 7 -18z m-15 -19 c4 -10 1 -13
-9 -9 -15 6 -19 23 -5 23 5 0 11 -7 14 -14z m44 -107 c2 -16 -1 -19 -9 -11 -5
5 -7 15 -4 21 10 15 12 14 13 -10z"/>
<path d="M3396 2665 c-3 -9 -10 -14 -15 -11 -9 6 -31 -76 -31 -114 0 -11 -4
-20 -9 -20 -21 0 -21 -35 0 -51 16 -11 19 -22 14 -38 -6 -19 -4 -21 23 -16 26
4 31 1 36 -21 4 -15 5 -29 1 -32 -3 -3 -5 2 -5 11 0 10 -7 17 -15 17 -8 0 -15
-7 -15 -15 0 -8 5 -15 10 -15 6 0 10 -5 10 -11 0 -5 -6 -7 -12 -3 -7 4 -2 -5
11 -19 13 -15 27 -24 32 -22 4 3 10 28 14 55 4 28 11 50 16 50 5 0 9 -4 9 -10
0 -5 5 -10 11 -10 7 0 5 10 -5 25 -9 14 -13 25 -8 25 12 0 37 -49 29 -57 -4
-3 0 -17 8 -30 9 -13 12 -23 8 -23 -5 0 0 -5 10 -11 9 -6 15 -14 12 -18 -2 -5
2 -14 10 -21 13 -11 21 -7 50 26 19 21 35 41 35 44 0 3 -20 32 -45 65 -25 33
-45 64 -45 69 0 5 -7 3 -15 -4 -8 -7 -12 -17 -9 -22 4 -6 9 -6 14 2 5 8 10 8
14 2 3 -5 -1 -12 -9 -16 -9 -3 -23 6 -35 25 -12 16 -25 27 -28 25 -4 -2 -8 7
-9 21 0 15 2 22 5 16 4 -5 15 -12 24 -16 11 -4 16 -13 12 -24 -5 -15 -4 -15 7
1 10 16 9 22 -10 37 -12 10 -22 20 -21 23 1 18 -1 19 -11 6 -8 -12 -9 -11 -6
5 4 22 -24 85 -46 103 -12 10 -16 9 -21 -3z m22 -39 c2 -24 -3 -38 -15 -45
-17 -10 -17 -12 0 -21 9 -6 17 -18 17 -26 0 -8 -4 -13 -9 -9 -5 3 -12 1 -16
-5 -3 -6 1 -13 9 -16 18 -7 21 -41 6 -64 -9 -13 -11 -13 -20 0 -5 8 -10 21
-10 28 0 7 -4 11 -9 7 -12 -7 -26 15 -15 24 5 3 10 30 11 59 1 49 23 102 41
102 4 0 9 -15 10 -34z m62 -166 c0 -5 -2 -10 -4 -10 -3 0 -8 5 -11 10 -3 6 -1
10 4 10 6 0 11 -4 11 -10z m84 -36 c3 -8 2 -12 -4 -9 -6 3 -10 1 -10 -5 0 -6
-5 -8 -10 -5 -7 4 -9 -2 -5 -18 7 -27 -12 -48 -25 -27 -9 14 20 71 32 64 5 -3
8 0 8 5 0 16 7 13 14 -5z m18 -53 c-4 -10 -1 -13 9 -9 10 4 15 -1 15 -12 0
-10 -5 -18 -11 -17 -5 1 -9 -6 -7 -17 2 -11 -1 -15 -8 -11 -6 4 -9 17 -6 30 4
15 1 25 -9 29 -21 8 -19 25 4 23 12 -1 17 -6 13 -16z"/>
<path d="M3390 2481 c0 -6 4 -13 10 -16 6 -3 7 1 4 9 -7 18 -14 21 -14 7z"/>
<path d="M4461 2614 c0 -11 3 -14 6 -6 3 7 2 16 -1 19 -3 4 -6 -2 -5 -13z"/>
<path d="M4557 2623 c-3 -5 -1 -26 3 -48 l8 -40 1 48 c1 45 -2 56 -12 40z"/>
<path d="M4338 2613 c-11 -3 -19 -23 -27 -67 -6 -34 -11 -66 -11 -69 0 -14 20
-6 40 15 17 19 24 21 40 10 11 -6 26 -9 34 -6 11 4 9 16 -12 65 -25 58 -29 61
-64 52z m23 -76 c-8 -8 -11 -3 -11 19 1 25 2 27 11 11 8 -14 8 -22 0 -30z"/>
<path d="M3214 2537 c4 -31 22 -132 41 -224 l33 -168 1 201 1 200 -41 24 -42
23 7 -56z"/>
<path d="M4196 2569 c-47 -37 -30 -119 24 -119 17 0 30 4 30 10 0 5 7 7 15 4
10 -4 15 0 15 15 0 18 -3 20 -19 11 -15 -7 -23 -6 -35 6 -22 21 -20 29 9 52
14 11 25 25 25 31 0 18 -35 13 -64 -10z"/>
<path d="M4086 2461 c-23 -25 -17 -55 12 -59 28 -4 53 14 45 34 -7 19 -23 18
-23 -1 0 -8 -4 -15 -10 -15 -5 0 -10 9 -10 20 0 11 5 20 10 20 6 0 10 5 10 10
0 16 -15 12 -34 -9z"/>
<path d="M4034 2424 c3 -9 6 -24 6 -33 0 -10 6 -18 14 -18 11 0 12 7 5 31 -5
17 -9 32 -9 33 0 2 -5 3 -11 3 -6 0 -8 -7 -5 -16z"/>
<path d="M4302 2416 c-19 -7 -37 -17 -40 -22 -4 -5 -25 -10 -47 -11 -26 -1
-70 -18 -128 -49 -100 -54 -192 -144 -241 -235 -16 -30 -31 -56 -32 -58 -2 -2
-24 15 -49 38 -43 40 -81 61 -110 61 -23 0 -5 -38 24 -48 32 -11 101 -72 82
-72 -8 0 -22 10 -32 22 -11 11 -19 18 -19 14 0 -3 -13 0 -29 9 -28 14 -30 14
-36 -5 -4 -11 -10 -18 -14 -15 -5 2 -16 -2 -27 -9 -17 -13 -16 -13 9 -11 18 2
27 -1 27 -11 0 -22 1 -28 11 -45 4 -9 4 -20 -1 -25 -11 -11 -14 -76 -6 -109 2
-11 5 -22 6 -25 0 -3 7 3 14 13 9 12 16 14 21 7 8 -13 -12 -40 -30 -40 -14 0
-28 -34 -26 -65 l1 -20 -12 20 c-15 22 -38 31 -38 14 0 -8 -4 -8 -15 1 -11 10
-18 9 -30 -4 -9 -9 -22 -16 -28 -16 -6 0 5 -9 26 -20 24 -13 47 -18 59 -14 14
4 18 2 14 -5 -4 -6 -1 -14 7 -17 8 -3 17 -14 20 -25 4 -16 12 -19 34 -16 47 9
93 28 87 38 -3 5 0 9 5 9 6 0 11 -14 11 -32 0 -29 -1 -30 -13 -14 -12 16 -14
16 -26 2 -11 -14 -11 -16 3 -16 14 0 14 -2 -1 -20 -11 -12 -36 -22 -65 -26
-53 -7 -64 -28 -23 -44 32 -12 32 -20 -1 -14 -18 3 -23 1 -18 -7 7 -12 -34 -9
-66 4 -8 4 -22 2 -30 -3 -13 -8 -13 -13 -2 -31 11 -18 12 -23 1 -30 -16 -10
-17 -9 49 -42 l52 -27 0 26 c0 22 4 25 28 22 23 -3 27 -8 27 -33 0 -28 -2 -30
-35 -28 l-35 1 45 -23 c25 -13 41 -25 35 -26 -5 -1 -14 -2 -20 -4 -5 -1 -18
-3 -27 -3 -29 -3 -20 -22 12 -29 30 -5 30 -6 10 -20 -50 -35 3 -41 56 -6 17
11 24 24 24 49 0 69 100 79 132 13 l15 -29 25 20 c29 22 59 25 88 10 15 -8 40
1 118 40 54 27 99 55 100 62 1 7 5 28 8 46 4 19 2 43 -4 55 -6 12 -13 31 -17
42 -7 18 -9 17 -21 -12 -8 -18 -22 -34 -32 -35 -9 -1 -24 -2 -32 -3 -8 0 -21
-4 -28 -9 -21 -13 -123 -35 -163 -36 -20 0 -41 6 -47 13 -6 7 -21 50 -33 97
-31 120 -24 260 18 383 61 173 149 283 281 347 47 23 82 47 82 55 0 8 5 15 10
15 6 0 10 -4 10 -9 0 -5 30 -1 68 8 37 10 72 16 79 14 6 -2 25 3 42 11 22 12
31 13 34 3 3 -6 6 -2 6 11 1 21 -2 22 -76 21 -43 -1 -93 -7 -111 -13z m-608
-451 c9 -14 12 -25 7 -25 -5 0 -16 11 -25 25 -9 14 -12 25 -7 25 5 0 16 -11
25 -25z m-24 -100 c0 -8 -2 -15 -4 -15 -2 0 -6 7 -10 15 -3 8 -1 15 4 15 6 0
10 -7 10 -15z m140 -49 c18 -23 8 -61 -17 -64 -30 -4 -53 39 -33 63 16 19 34
19 50 1z m-40 -91 c0 -8 -7 -15 -15 -15 -8 0 -15 7 -15 15 0 8 7 15 15 15 8 0
15 -7 15 -15z m-180 -25 c0 -5 -7 -10 -15 -10 -8 0 -15 5 -15 10 0 6 7 10 15
10 8 0 15 -4 15 -10z m200 -197 c0 -12 -5 -23 -11 -23 -6 0 -9 7 -5 15 3 8 1
15 -4 15 -6 0 -10 4 -10 8 0 5 7 9 15 9 9 0 15 -10 15 -24z m-46 1 c9 -3 16
-10 16 -14 0 -10 -38 -1 -46 11 -6 10 7 12 30 3z m-159 -44 c-3 -5 -13 -10
-21 -10 -8 0 -12 5 -9 10 3 6 13 10 21 10 8 0 12 -4 9 -10z m15 -40 c0 -5 -7
-10 -15 -10 -8 0 -15 5 -15 10 0 6 7 10 15 10 8 0 15 -4 15 -10z m482 -26 c10
-22 10 -28 -6 -40 -13 -9 -24 -10 -37 -3 -18 9 -26 49 -12 62 15 16 44 5 55
-19z m-99 -16 c6 -19 -3 -38 -18 -38 -18 0 -28 17 -21 35 7 18 33 20 39 3z"/>
<path d="M3770 1791 c0 -21 26 -36 36 -20 9 15 -3 39 -21 39 -8 0 -15 -9 -15
-19z"/>
<path d="M4030 1385 c0 -26 18 -33 37 -14 16 16 5 39 -18 39 -14 0 -19 -7 -19
-25z"/>
<path d="M4594 2419 c-24 -30 -24 -49 0 -64 12 -8 37 -35 55 -60 18 -25 37
-43 42 -40 5 3 6 -2 2 -11 -4 -12 -3 -15 6 -10 6 4 10 4 9 -1 -2 -8 59 -163
69 -173 3 -3 3 41 2 98 -3 73 -7 102 -16 102 -7 0 -19 12 -27 28 -8 15 -33 45
-55 66 -22 22 -38 43 -36 47 3 4 -4 5 -14 2 -13 -3 -20 1 -23 13 -2 14 -5 15
-14 3z"/>
<path d="M3986 2411 c-8 -12 17 -71 30 -71 13 0 13 48 1 68 -9 14 -23 16 -31
3z"/>
<path d="M3951 2400 c-1 -8 -10 -21 -21 -28 -24 -15 -28 -70 -5 -78 36 -14 86
52 54 71 -6 4 -14 17 -19 29 -5 13 -9 15 -9 6z m9 -66 c0 -9 -5 -14 -12 -12
-18 6 -21 28 -4 28 9 0 16 -7 16 -16z"/>
<path d="M4510 2390 c0 -5 5 -10 10 -10 6 0 10 5 10 10 0 6 -4 10 -10 10 -5 0
-10 -4 -10 -10z"/>
<path d="M3867 2333 c-3 -15 2 -37 10 -50 8 -13 11 -23 7 -23 -5 0 -15 10 -22
21 -10 15 -17 18 -24 11 -8 -8 -6 -18 6 -36 18 -28 35 -33 54 -14 17 17 15 38
-7 81 l-19 37 -5 -27z"/>
<path d="M3310 2289 c0 -11 4 -18 10 -14 5 3 7 12 3 20 -7 21 -13 19 -13 -6z"/>
<path d="M4484 2275 c-3 -14 -1 -31 5 -38 8 -10 7 -19 -4 -33 -19 -25 -19 -35
1 -27 13 5 15 2 9 -18 -10 -34 -25 -47 -26 -23 -1 10 -5 -6 -9 -36 -4 -31 -2
-58 3 -61 5 -4 5 -9 -2 -13 -6 -4 -11 -22 -11 -39 1 -27 2 -29 11 -14 6 9 11
35 11 57 0 22 4 37 9 34 5 -3 9 -4 9 -2 0 2 9 46 20 98 25 122 25 140 0 140
-13 0 -22 -9 -26 -25z"/>
<path d="M3201 2215 c0 -66 7 -89 27 -93 16 -3 9 57 -14 118 l-13 35 0 -60z"/>
<path d="M3808 2255 c0 -6 -1 -17 -2 -25 -1 -8 -8 -15 -16 -15 -23 0 -23 -13
-1 -43 15 -21 22 -24 32 -15 10 10 9 16 -2 29 -12 15 -12 16 8 10 33 -11 39
13 9 42 -14 15 -27 22 -28 17z"/>
<path d="M4192 2243 c-6 -3 -10 -9 -7 -13 3 -5 -3 -7 -14 -5 -11 2 -25 -3 -32
-12 -11 -13 -10 -17 5 -28 10 -8 15 -18 12 -23 -3 -5 3 -20 14 -32 11 -13 20
-29 20 -37 0 -7 8 -13 18 -13 11 0 13 -3 5 -8 -8 -5 -7 -12 4 -27 15 -20 15
-20 9 2 -4 12 -3 24 2 27 13 8 6 119 -9 148 -8 14 -20 23 -27 21z"/>
<path d="M4471 2214 c0 -11 3 -14 6 -6 3 7 2 16 -1 19 -3 4 -6 -2 -5 -13z"/>
<path d="M3313 2173 c1 -23 5 -39 10 -36 10 6 9 45 -3 63 -6 10 -8 2 -7 -27z"/>
<path d="M4290 2186 c0 -23 30 -86 40 -86 13 0 13 16 -1 63 -9 35 -39 53 -39
23z"/>
<path d="M3354 2179 c-3 -6 -2 -15 4 -21 6 -6 12 -6 17 3 5 8 4 10 -3 5 -7 -4
-12 -3 -12 3 0 5 6 12 13 14 9 4 9 6 0 6 -6 1 -15 -4 -19 -10z"/>
<path d="M3441 2143 c-1 -12 4 -25 9 -28 12 -7 12 2 0 30 -8 19 -9 19 -9 -2z"/>
<path d="M4090 2128 c0 -7 10 -29 22 -48 16 -26 23 -31 26 -18 4 20 -24 78
-38 78 -6 0 -10 -6 -10 -12z"/>
<path d="M3220 2090 c0 -11 5 -20 10 -20 6 0 10 9 10 20 0 11 -4 20 -10 20 -5
0 -10 -9 -10 -20z"/>
<path d="M3250 2073 c0 -6 -8 -13 -17 -15 -16 -3 -15 -6 5 -26 13 -13 24 -32
25 -43 1 -10 5 -19 10 -19 4 0 6 -4 2 -9 -3 -5 -1 -12 4 -15 12 -8 17 19 13
59 -4 30 -41 92 -42 68z"/>
<path d="M3417 2036 c-4 -24 -1 -60 4 -81 12 -43 5 -111 -14 -134 -9 -12 -9
-13 1 -7 9 5 12 -7 12 -53 0 -33 5 -63 10 -66 6 -3 10 -11 10 -16 0 -6 -4 -7
-10 -4 -6 4 -10 -5 -10 -20 0 -15 -5 -35 -10 -46 -10 -17 -8 -18 15 -9 36 14
35 14 35 -26 0 -21 4 -33 10 -29 6 3 10 -3 10 -14 0 -11 -4 -22 -9 -25 -4 -3
-11 -28 -14 -55 -5 -40 -20 -85 -45 -133 -2 -5 3 -8 11 -8 8 0 20 -7 27 -15
22 -27 29 -4 31 108 1 62 5 107 11 107 6 0 7 7 2 18 -4 9 -8 28 -9 42 -1 14
-9 49 -18 78 -15 50 -14 82 3 82 10 0 -7 91 -20 104 -13 13 -13 49 -1 41 24
-14 12 165 -12 190 -12 12 -15 8 -20 -29z"/>
<path d="M4271 2039 c-1 -43 21 -92 43 -95 13 -2 12 5 -6 39 -11 23 -24 53
-29 67 -6 22 -7 21 -8 -11z"/>
<path d="M4542 2026 c-17 -38 -15 -55 4 -28 8 12 14 30 12 39 -2 13 -6 10 -16
-11z"/>
<path d="M3212 2005 c0 -16 2 -22 5 -12 2 9 2 23 0 30 -3 6 -5 -1 -5 -18z"/>
<path d="M4640 2010 c-22 -22 -27 -45 -7 -34 22 13 47 37 47 46 0 14 -19 9
-40 -12z"/>
<path d="M3216 1962 c-3 -5 1 -18 9 -28 14 -18 14 -18 15 3 0 23 -15 39 -24
25z"/>
<path d="M4010 1927 c0 -24 36 -47 73 -47 46 0 47 12 3 39 -38 24 -76 28 -76
8z"/>
<path d="M4329 1893 c-13 -16 -12 -17 4 -4 9 7 17 15 17 17 0 8 -8 3 -21 -13z"/>
<path d="M3342 1875 c6 -14 13 -23 16 -21 7 7 -9 46 -18 46 -5 0 -4 -11 2 -25z"/>
<path d="M3907 1873 c-4 -3 -7 -26 -7 -49 0 -52 -5 -49 162 -67 104 -11 118
-11 122 3 2 9 4 7 5 -6 1 -13 9 -24 21 -27 16 -4 20 0 20 19 0 18 -4 22 -17
18 -17 -5 -17 -5 -1 8 26 22 12 60 -21 57 -14 -1 -37 1 -51 4 -14 3 -63 13
-110 22 -47 9 -92 18 -101 21 -8 2 -18 1 -22 -3z"/>
<path d="M4452 1850 c0 -14 2 -19 5 -12 2 6 2 18 0 25 -3 6 -5 1 -5 -13z"/>
<path d="M3210 1767 c0 -54 5 -108 11 -119 6 -11 7 -23 2 -27 -10 -7 -15 -101
-5 -101 4 0 14 4 22 10 12 7 12 14 2 44 -9 25 -10 41 -3 55 17 30 8 183 -12
211 -16 24 -17 21 -17 -73z"/>
<path d="M4750 1831 c0 -7 -8 -11 -17 -10 -10 1 -31 -3 -46 -9 -16 -7 -53 -12
-83 -12 -30 0 -54 -4 -54 -10 0 -5 8 -10 18 -10 10 0 22 -4 28 -9 9 -9 49 -18
87 -20 10 -1 16 -5 12 -10 -9 -15 14 -24 29 -11 11 8 15 8 20 -2 4 -9 5 -8 4
2 -1 8 2 34 6 58 4 24 5 46 2 49 -3 4 -6 1 -6 -6z m-30 -91 c0 -5 -5 -10 -11
-10 -5 0 -7 5 -4 10 3 6 8 10 11 10 2 0 4 -4 4 -10z"/>
<path d="M4373 1755 c0 -11 4 -12 14 -4 7 6 13 13 13 15 0 2 -6 4 -13 4 -8 0
-14 -7 -14 -15z"/>
<path d="M3271 1651 c2 -85 5 -101 18 -99 28 6 22 186 -7 196 -10 3 -13 -18
-11 -97z"/>
<path d="M4350 1656 c0 -14 -4 -27 -9 -30 -4 -3 -8 -24 -8 -48 0 -42 -27 -78
-59 -78 -8 0 -14 -8 -14 -17 0 -35 13 -63 27 -63 13 0 13 3 3 15 -11 13 -8 14
21 9 25 -4 30 -3 19 5 -18 12 -13 17 28 26 20 4 32 3 32 -4 0 -6 4 -11 10 -11
5 0 7 6 4 14 -3 9 4 15 20 18 14 3 26 1 26 -3 0 -5 4 -9 9 -9 4 0 6 11 4 24
-6 29 12 66 32 66 20 0 38 -38 32 -68 -5 -25 -4 -25 9 -7 10 14 14 15 15 4 0
-8 5 2 12 21 10 28 18 35 39 36 18 1 25 -3 21 -13 -4 -10 8 -13 48 -13 30 0
64 -3 76 -6 20 -6 21 -2 25 66 1 40 0 77 -4 84 -5 7 -8 6 -8 -4 0 -10 -3 -11
-8 -4 -4 6 -16 10 -27 8 -11 -2 -50 -6 -86 -9 -37 -3 -81 -10 -98 -15 -28 -8
-33 -6 -41 13 l-9 22 0 -21 c-1 -12 -8 -25 -17 -28 -13 -5 -15 -2 -11 13 3 13
1 18 -9 14 -7 -2 -14 -14 -16 -26 -2 -14 -14 -24 -36 -31 -37 -10 -48 -5 -34
20 10 19 5 54 -9 54 -5 0 -9 -11 -9 -24z"/>
<path d="M3923 1654 c-6 -17 12 -34 38 -34 23 0 53 25 45 38 -11 18 -76 15
-83 -4z"/>
<path d="M3376 1595 c-3 -8 -1 -15 4 -15 6 0 10 7 10 15 0 8 -2 15 -4 15 -2 0
-6 -7 -10 -15z"/>
<path d="M4282 1559 c-26 -24 -29 -42 -6 -37 21 4 48 44 36 52 -5 3 -19 -4
-30 -15z"/>
<path d="M4481 1546 c-14 -16 -9 -46 7 -46 5 0 15 7 22 16 11 12 11 18 -2 30
-13 13 -16 13 -27 0z"/>
<path d="M4576 1533 c-4 -9 -1 -21 5 -27 9 -8 10 -7 6 6 -3 9 -1 18 6 21 8 2
8 5 0 10 -6 4 -14 -1 -17 -10z"/>
<path d="M3233 1476 c-8 -10 -10 -29 -4 -65 12 -77 21 -73 21 7 0 40 -1 72 -2
72 -2 -1 -8 -7 -15 -14z"/>
<path d="M3280 1468 c0 -9 7 -19 16 -22 25 -10 27 -1 4 19 -17 15 -20 16 -20
3z"/>
<path d="M4713 1383 c-14 -5 -18 -33 -5 -33 10 0 32 22 32 32 0 9 -8 9 -27 1z"/>
<path d="M4555 1369 c-4 -6 -19 -7 -35 -4 -33 7 -50 -10 -20 -20 26 -8 57 2
64 20 6 17 0 20 -9 4z"/>
<path d="M3779 1319 c-11 -11 -18 -27 -15 -36 3 -8 6 -19 6 -24 0 -20 20 -7
26 17 5 18 12 24 24 21 30 -8 44 8 25 27 -22 22 -41 20 -66 -5z"/>
<path d="M3210 1206 c0 -79 3 -98 20 -117 l19 -24 1 107 c0 97 -2 108 -20 118
-19 10 -20 8 -20 -84z"/>
<path d="M3405 1288 c-3 -7 -3 -22 -1 -33 3 -11 5 -23 5 -27 2 -14 42 -8 47 7
7 17 -21 65 -37 65 -5 0 -12 -6 -14 -12z"/>
<path d="M3977 1293 c-4 -3 -7 -12 -7 -20 0 -11 4 -11 19 -1 11 7 17 16 15 20
-6 10 -18 10 -27 1z"/>
<path d="M3354 1275 c-16 -13 -17 -16 -4 -25 22 -14 25 -13 25 15 0 14 0 25
-1 25 0 0 -9 -7 -20 -15z"/>
<path d="M3802 1258 c-15 -41 -9 -45 33 -25 23 11 35 24 35 37 0 23 -10 26
-28 8 -9 -9 -12 -9 -12 0 0 23 -16 12 -28 -20z"/>
<path d="M4280 1280 c0 -5 7 -7 15 -4 8 4 15 8 15 10 0 2 -7 4 -15 4 -8 0 -15
-4 -15 -10z"/>
<path d="M4152 1255 c-29 -13 -51 -30 -50 -37 2 -8 -6 -12 -19 -11 -19 2 -136
-53 -168 -79 -18 -15 -228 -138 -235 -138 -13 0 -40 -37 -33 -45 5 -4 1 -6 -8
-2 -13 4 -16 1 -12 -14 4 -14 11 -18 22 -13 9 4 34 10 56 14 22 4 34 8 27 9
-22 2 -6 16 55 46 32 17 63 35 68 41 10 11 82 54 91 54 2 0 4 -4 4 -10 0 -5
-6 -10 -14 -10 -20 0 -9 -38 13 -43 14 -4 14 -5 -1 -6 -10 0 -18 -5 -18 -11 0
-5 -3 -9 -7 -8 -13 3 -73 -32 -73 -42 0 -6 -17 -11 -37 -11 -21 -1 -30 -3 -20
-6 29 -8 -30 -48 -67 -46 -17 1 -23 -1 -13 -3 9 -3 17 -9 17 -14 0 -12 -44
-21 -48 -10 -2 6 -8 10 -13 10 -5 0 -4 -10 3 -21 11 -18 11 -23 0 -26 -15 -6
-62 -54 -62 -65 0 -11 127 -23 238 -23 95 0 105 2 122 22 20 26 67 46 87 39 8
-3 13 2 13 14 0 13 25 35 78 69 43 28 85 62 92 77 16 30 65 58 83 48 7 -4 9
-4 5 1 -4 4 -3 14 3 21 7 8 7 14 -1 19 -22 13 -11 73 20 109 22 24 27 37 19
42 -7 4 -9 3 -6 -3 4 -6 0 -13 -7 -16 -9 -4 -17 1 -19 11 -4 16 -5 15 -6 0 0
-10 -9 -18 -18 -17 -11 0 -13 3 -5 6 6 2 12 9 12 14 0 16 -30 -3 -31 -20 0
-10 -2 -11 -6 -3 -8 20 -25 14 -18 -7 4 -14 0 -20 -17 -25 -33 -8 -45 -7 -28
4 26 16 4 21 -26 5 -16 -8 -39 -15 -51 -15 -13 0 -23 -4 -23 -10 0 -10 -52
-40 -70 -40 -6 0 -8 4 -5 10 3 6 -1 7 -9 4 -9 -3 -15 -9 -14 -12 3 -27 -5 -42
-22 -42 -11 0 -20 4 -20 9 0 5 -3 16 -6 24 -3 8 2 17 10 20 10 4 13 1 9 -9 -3
-7 -1 -14 5 -14 11 0 11 18 0 36 -4 6 11 20 35 32 23 12 49 26 57 32 8 5 43
26 77 45 43 25 60 40 57 50 -8 19 -10 19 -72 -10z m116 -158 c2 -10 -3 -17
-12 -17 -10 0 -16 9 -16 21 0 24 23 21 28 -4z m-120 -35 c2 -7 -3 -12 -12 -12
-9 0 -16 7 -16 16 0 17 22 14 28 -4z m-183 -22 c3 -5 -1 -10 -10 -10 -9 0 -13
5 -10 10 3 6 8 10 10 10 2 0 7 -4 10 -10z m53 -42 c29 -29 -5 -79 -39 -57 -12
8 -12 10 1 8 33 -3 41 2 38 23 -4 32 -36 35 -47 6 -6 -14 -10 -17 -10 -7 -1
17 18 39 34 39 6 0 16 -5 23 -12z m-68 -158 c0 -5 -4 -10 -10 -10 -5 0 -10 5
-10 10 0 6 5 10 10 10 6 0 10 -4 10 -10z"/>
<path d="M3276 1261 c-3 -5 -4 -16 0 -24 7 -20 46 -9 42 12 -4 18 -33 27 -42
12z"/>
<path d="M3885 1226 c-34 -22 -95 -62 -137 -89 -75 -47 -116 -83 -106 -92 4
-4 214 133 293 191 54 40 10 32 -50 -10z"/>
<path d="M4460 1250 c0 -5 5 -10 10 -10 18 0 10 -29 -10 -35 -27 -9 -44 3 -30
20 8 9 8 15 0 20 -16 10 -27 -2 -32 -35 -3 -23 0 -31 14 -36 10 -3 26 -16 34
-30 13 -20 14 -32 6 -66 -12 -45 -4 -76 9 -40 5 14 14 20 24 16 9 -4 15 -1 15
9 0 22 81 39 168 35 40 -1 76 -6 78 -10 15 -25 24 1 24 71 0 63 -3 80 -16 85
-9 3 -19 4 -23 2 -4 -3 -36 -6 -72 -7 -35 -1 -75 -6 -89 -10 -69 -21 -78 -20
-84 6 -6 24 -26 36 -26 15z"/>
<path d="M3470 1233 c0 -11 7 -20 15 -20 18 0 16 28 -2 35 -8 2 -13 -5 -13
-15z"/>
<path d="M3716 1194 c-26 -13 -56 -30 -65 -37 -17 -12 -26 -37 -14 -37 12 0
98 43 110 56 7 7 18 14 25 17 9 3 10 8 3 15 -7 8 -24 4 -59 -14z"/>
<path d="M3432 1193 c-7 -3 -19 -18 -27 -34 -9 -15 -24 -33 -35 -39 -16 -8
-25 -4 -55 27 l-36 37 3 -69 c2 -39 7 -69 13 -69 6 1 23 4 38 8 17 4 26 3 23
-3 -3 -5 17 -12 44 -16 41 -6 56 -3 76 12 15 10 43 28 63 40 l36 23 -34 0
c-37 0 -81 38 -84 71 -1 20 -4 21 -25 12z m-57 -93 c3 -5 -1 -10 -10 -10 -9 0
-13 5 -10 10 3 6 8 10 10 10 2 0 7 -4 10 -10z m-45 -16 c0 -8 -5 -12 -10 -9
-6 4 -8 11 -5 16 9 14 15 11 15 -7z"/>
<path d="M4380 1152 c-56 -20 -50 -120 7 -110 28 5 54 39 51 66 -3 28 -36 52
-58 44z"/>
<path d="M3600 1030 c-8 -5 -10 -10 -5 -10 6 0 17 5 25 10 8 5 11 10 5 10 -5
0 -17 -5 -25 -10z"/>
<path d="M3860 1000 c0 -5 4 -10 9 -10 6 0 13 5 16 10 3 6 -1 10 -9 10 -9 0
-16 -4 -16 -10z"/>
<path d="M3835 980 c3 -5 8 -10 11 -10 2 0 4 5 4 10 0 6 -5 10 -11 10 -5 0 -7
-4 -4 -10z"/>
<path d="M4280 975 c-14 -8 -19 -14 -10 -14 8 0 26 6 40 14 14 8 19 14 10 14
-8 0 -26 -6 -40 -14z"/>
<path d="M3442 934 c-43 -26 -51 -41 -14 -30 23 8 81 56 67 56 -5 0 -29 -12
-53 -26z"/>
<path d="M3210 936 c0 -15 24 -66 31 -66 17 0 9 35 -11 53 -11 9 -20 15 -20
13z"/>
<path d="M4740 905 c0 -8 2 -15 4 -15 2 0 6 7 10 15 3 8 1 15 -4 15 -6 0 -10
-7 -10 -15z"/>
<path d="M3448 868 c-28 -10 -35 -31 -18 -58 7 -12 12 -12 29 4 11 10 20 29
19 42 -1 13 -3 24 -3 23 0 0 -12 -5 -27 -11z"/>
<path d="M4340 830 c-9 -17 -14 -19 -26 -9 -10 8 -14 8 -14 0 0 -6 -7 -11 -15
-11 -8 0 -15 -4 -15 -10 0 -5 -8 -10 -17 -10 -16 0 -16 -2 -3 -11 12 -9 10
-10 -9 -5 -16 3 -36 -4 -60 -20 l-36 -26 45 7 c51 9 90 31 90 52 0 8 4 11 10
8 10 -6 65 19 75 34 3 5 1 12 -4 16 -6 3 -15 -4 -21 -15z"/>
</g>
</svg>
