<?xml version="1.0" standalone="no"?>
<!DOCTYPE svg PUBLIC "-//W3C//DTD SVG 20010904//EN"
 "http://www.w3.org/TR/2001/REC-SVG-20010904/DTD/svg10.dtd">
<svg version="1.0" xmlns="http://www.w3.org/2000/svg"
 width="390.000000pt" height="590.000000pt" viewBox="0 0 390.000000 590.000000"
 preserveAspectRatio="xMidYMid meet">

<g transform="translate(0.000000,590.000000) scale(0.100000,-0.100000)"
fill="#000000" stroke="none">
<path d="M2027 5376 c-4 -10 -47 -16 -179 -22 -95 -5 -184 -8 -198 -6 -14 1
-90 -3 -170 -9 -80 -6 -153 -12 -162 -12 -10 -1 -18 -4 -18 -7 0 -3 -18 -4
-39 -4 l-40 2 2 -38 1 -38 21 23 c13 16 33 25 60 27 38 3 40 2 36 -22 -1 -14
-9 -36 -16 -50 -7 -14 -16 -35 -20 -48 -7 -23 -6 -23 14 -5 12 9 22 27 22 38
1 17 2 18 6 2 3 -10 -1 -24 -7 -32 -10 -12 -10 -18 -1 -29 9 -11 8 -14 -5 -12
-9 0 -19 -5 -22 -13 -3 -10 1 -12 14 -8 18 7 18 6 0 -8 -11 -8 -21 -25 -23
-37 -2 -12 -8 -27 -14 -34 -6 -7 -8 -18 -4 -24 3 -5 1 -10 -6 -10 -7 0 -29
-17 -49 -38 -21 -21 -43 -36 -49 -34 -29 10 -45 -37 -61 -180 -10 -89 -14
-108 -34 -145 -10 -19 -15 -22 -16 -11 0 9 -3 19 -8 21 -4 3 -8 -28 -9 -68 -2
-40 -7 -84 -12 -98 -7 -18 -6 -28 3 -36 9 -8 17 3 31 47 11 31 41 89 67 127
46 68 168 199 168 180 0 -6 -7 -46 -15 -90 -8 -44 -14 -90 -15 -103 0 -23 0
-23 38 7 172 140 392 278 602 379 69 34 163 84 209 111 88 53 96 57 86 42 -3
-6 -16 -56 -29 -113 -13 -57 -31 -130 -39 -163 -9 -33 -18 -73 -22 -88 -4 -21
-10 -27 -22 -23 -12 5 -13 4 -5 -7 9 -10 2 -55 -27 -183 -22 -93 -51 -230 -66
-304 -15 -74 -32 -143 -37 -154 -7 -13 -7 -16 2 -11 6 4 17 -1 25 -11 12 -17
8 -21 -36 -46 -27 -16 -49 -31 -49 -34 0 -6 45 19 295 164 99 58 187 111 195
118 9 7 37 25 62 38 26 14 55 32 65 40 10 9 34 29 53 46 19 16 30 30 23 30 -7
0 -16 -8 -22 -17 -5 -10 -13 -15 -17 -10 -4 4 1 16 11 27 17 19 17 19 -8 7
-16 -7 -24 -18 -22 -29 2 -10 -1 -20 -6 -24 -5 -3 -8 0 -7 7 2 6 -3 14 -10 16
-11 4 -12 1 -3 -15 13 -25 3 -35 -17 -16 -18 19 -33 6 -35 -30 -2 -29 -9 -33
-27 -12 -6 8 -19 12 -28 10 -15 -5 -15 -4 1 6 9 6 22 8 28 4 7 -4 10 -1 7 7
-3 9 22 31 68 61 39 25 82 56 94 68 16 16 25 19 33 11 17 -17 24 -13 22 14 -2
18 5 31 27 46 17 12 27 27 24 35 -3 8 0 13 7 11 7 -1 11 5 9 14 -1 9 5 20 14
23 14 5 15 4 4 -9 -7 -8 -8 -15 -2 -15 14 0 88 99 111 150 30 66 27 109 -14
183 -19 35 -35 70 -35 77 0 7 -17 36 -38 64 -54 70 -86 156 -78 204 l6 38
-123 13 c-67 7 -129 14 -137 15 -24 3 -23 20 2 28 22 6 22 6 1 7 -12 1 -28 -6
-36 -14 -16 -15 -80 -20 -152 -11 -22 3 -79 6 -127 7 -51 1 -88 5 -88 11 0 6
7 8 15 4 8 -3 15 -1 15 4 0 15 -37 12 -43 -4z m-387 -53 c0 -5 38 -7 85 -6 67
2 87 0 91 -11 3 -9 12 -12 22 -9 13 6 13 8 -4 14 -16 6 -15 8 9 8 27 1 36 -12
17 -24 -18 -11 -11 -35 10 -35 11 0 20 -4 20 -10 0 -12 -7 -12 -48 -1 -18 6
-30 6 -28 2 6 -10 -66 -8 -81 2 -9 6 -11 3 -6 -9 5 -13 2 -15 -17 -9 -19 6
-22 4 -17 -10 4 -9 7 -19 7 -21 0 -9 25 -3 39 10 14 13 16 12 17 -10 2 -31
-37 -44 -61 -20 -20 19 -32 21 -17 3 9 -10 4 -16 -20 -25 -29 -11 -30 -10 -14
7 16 18 12 31 -8 31 -6 0 -4 -5 4 -10 13 -8 12 -10 -2 -10 -10 0 -18 -5 -18
-11 0 -6 -7 -9 -15 -5 -8 3 -15 1 -15 -4 0 -6 -5 -10 -11 -10 -5 0 -7 6 -4 13
4 6 -1 3 -10 -8 -17 -20 -17 -20 -10 3 8 27 -2 62 -18 62 -8 0 -8 -3 1 -12 16
-16 15 -38 -2 -38 -18 0 -55 -51 -49 -67 3 -7 -2 -13 -11 -13 -10 0 -13 -6
-10 -15 4 -8 1 -15 -4 -15 -6 0 -13 -8 -16 -18 -3 -9 -16 -23 -28 -31 -22 -14
-22 -13 3 20 27 36 103 187 114 228 7 24 7 24 -31 -5 -22 -17 -55 -41 -74 -55
l-35 -24 17 26 c9 14 21 44 27 67 12 44 18 46 141 55 25 2 48 4 53 5 4 1 7 -1
7 -5z m290 -15 c0 -32 -13 -56 -26 -51 -8 3 -11 10 -8 15 4 6 -2 8 -15 3 -26
-8 -27 -2 -4 25 19 22 53 27 53 8z m584 -15 c3 -7 13 -13 23 -12 11 0 13 3 6
6 -29 11 -10 23 30 17 58 -8 87 -23 79 -42 -5 -13 -7 -12 -14 4 -5 12 -6 5 -3
-22 5 -51 35 -139 91 -266 23 -54 37 -95 30 -92 -6 3 0 -3 14 -15 23 -18 23
-20 4 -15 -19 5 -21 2 -16 -22 4 -21 7 -24 11 -12 4 13 10 15 21 8 12 -8 12
-10 1 -10 -8 0 -11 -7 -8 -20 3 -11 1 -20 -4 -20 -5 0 -9 5 -9 11 0 5 -4 8 -9
5 -8 -5 -6 -29 5 -85 4 -18 8 -21 17 -12 6 6 16 11 22 11 5 0 2 -5 -7 -11 -10
-5 -18 -21 -18 -34 0 -16 -6 -25 -15 -25 -8 0 -15 5 -15 11 0 5 5 7 10 4 11
-7 14 28 3 38 -11 11 -32 -14 -26 -31 4 -14 3 -14 -5 -3 -8 11 -21 5 -68 -31
-33 -24 -66 -48 -74 -53 -13 -8 -13 -7 0 10 8 10 14 27 12 38 -3 13 0 17 9 12
8 -5 10 -4 5 3 -4 7 -13 12 -21 12 -7 0 -12 10 -11 24 0 13 4 22 9 19 4 -2 7
1 7 6 0 6 -4 11 -10 11 -5 0 -10 9 -10 20 0 11 -7 20 -15 20 -8 0 -15 5 -15
11 0 5 5 7 10 4 6 -3 10 -1 10 6 0 7 -8 9 -21 6 -15 -4 -19 -2 -15 9 4 9 -4
18 -21 25 -26 10 -25 21 2 25 8 1 15 -3 15 -9 0 -7 9 -18 21 -25 12 -8 18 -9
14 -3 -3 6 -2 11 4 11 7 0 7 8 1 25 -7 20 -6 25 5 25 8 0 15 5 15 11 0 5 -4 8
-8 5 -13 -8 -35 11 -27 24 6 9 9 10 15 0 5 -9 9 -9 14 -1 4 6 0 14 -10 18 -22
8 -48 -25 -33 -43 5 -7 6 -14 2 -17 -12 -6 -73 0 -81 9 -4 4 1 4 10 1 24 -8
33 9 11 22 -15 8 -16 13 -5 30 8 14 8 21 1 21 -5 0 -7 5 -4 10 7 12 3 12 -21
3 -16 -6 -16 -7 -1 -12 15 -5 14 -10 -3 -48 -20 -44 -39 -54 -59 -29 -13 15 1
32 18 22 5 -3 12 1 15 9 8 21 -20 31 -39 15 -10 -8 -15 -9 -15 -2 0 6 4 13 9
17 6 3 8 14 6 24 -3 15 1 18 18 13 12 -3 16 -7 9 -10 -9 -3 -8 -7 2 -18 21
-20 42 -19 25 2 -10 13 -10 17 2 25 10 6 10 9 2 9 -7 0 -13 4 -13 10 0 5 17 3
38 -4 36 -13 38 -13 37 5 -1 10 -4 22 -8 25 -15 15 -7 36 11 29 13 -5 14 -3 5
5 -8 9 -19 6 -42 -11 -22 -16 -34 -20 -42 -12 -7 7 -3 16 15 30 24 19 24 21 8
44 -9 13 -28 34 -42 46 -14 12 -19 23 -12 23 6 0 12 -5 12 -11 0 -17 71 -42
84 -29 8 8 7 10 -4 5 -9 -3 -24 2 -35 11 -18 14 -18 15 -2 10 11 -4 16 -2 11
5 -3 6 -14 9 -23 6 -10 -2 -26 2 -36 9 -18 14 -18 14 1 30 18 14 18 15 -3 4
-15 -7 -23 -20 -23 -35 0 -14 -3 -25 -7 -25 -5 0 -8 31 -8 68 -1 65 1 68 21
64 12 -2 25 1 28 7 5 7 -2 11 -18 11 -14 0 -27 4 -30 9 -3 5 27 8 69 8 50 -1
76 -6 79 -14z m-264 -3 c-19 -13 -30 -13 -30 0 0 6 10 10 23 10 18 0 19 -2 7
-10z m-340 -84 c0 -3 -4 -8 -10 -11 -5 -3 -10 -1 -10 4 0 6 5 11 10 11 6 0 10
-2 10 -4z m-310 -79 c0 -8 -6 -14 -14 -14 -8 0 -12 6 -9 14 3 7 9 13 14 13 5
0 9 -6 9 -13z m250 -7 c0 -5 -4 -10 -10 -10 -5 0 -10 5 -10 10 0 6 5 10 10 10
6 0 10 -4 10 -10z m534 -16 c3 -8 2 -12 -4 -9 -6 3 -10 10 -10 16 0 14 7 11
14 -7z m-693 -26 c1 -18 3 -45 5 -60 2 -21 -3 -31 -19 -39 -18 -9 -20 -9 -9 2
6 7 12 24 12 39 0 20 -2 22 -10 10 -8 -13 -10 -12 -10 3 0 9 -5 17 -11 17 -6
0 -8 7 -5 18 7 16 6 16 -10 0 -15 -15 -16 -22 -6 -45 11 -24 10 -26 -1 -11 -8
10 -17 15 -20 11 -4 -3 -7 0 -7 8 1 26 55 78 83 79 4 0 8 -15 8 -32z m759 2
c0 -4 -6 -10 -13 -13 -7 -3 -13 3 -13 13 0 10 6 16 13 13 7 -3 13 -9 13 -13z
m-55 -18 c-3 -3 -11 0 -18 7 -9 10 -8 11 6 5 10 -3 15 -9 12 -12z m-921 -28
c-10 -8 -13 -12 -5 -8 9 5 12 3 7 -4 -10 -17 -26 -15 -26 3 0 7 8 18 17 24 25
14 30 4 7 -15z m73 20 c-3 -3 -12 -4 -19 -1 -8 3 -5 6 6 6 11 1 17 -2 13 -5z
m873 -8 c0 -3 -4 -8 -10 -11 -5 -3 -10 -1 -10 4 0 6 5 11 10 11 6 0 10 -2 10
-4z m-873 -36 c1 -11 -3 -20 -8 -20 -6 0 -7 5 -4 10 3 6 3 10 0 10 -11 0 -73
-51 -78 -63 -6 -16 30 -20 39 -5 5 8 1 9 -12 4 -18 -7 -18 -6 -1 11 13 14 20
15 25 6 7 -10 12 -10 28 2 26 19 35 19 27 -2 -5 -16 -4 -16 9 0 13 17 18 18
59 6 24 -7 53 -11 64 -10 19 2 19 2 -1 -13 -12 -8 -30 -12 -43 -9 -15 4 -19 8
-11 13 7 4 -2 10 -21 14 -18 3 -34 4 -37 1 -3 -3 1 -5 9 -5 21 -1 67 -42 51
-47 -6 -3 -10 -8 -8 -12 3 -4 1 -13 -5 -21 -6 -10 -9 -11 -9 -2 0 6 -5 12 -11
12 -6 0 -9 -7 -6 -15 4 -8 1 -17 -5 -21 -7 -4 -8 -3 -4 4 17 27 -26 8 -107
-47 -64 -44 -87 -55 -87 -43 1 42 30 151 50 185 12 20 19 37 15 37 -4 0 -27
-13 -52 -30 -55 -38 -59 -37 -31 0 12 17 28 28 35 26 7 -3 12 0 10 6 -1 8 11
11 34 9 23 -1 40 3 48 13 18 22 36 20 38 -4z m847 11 c3 -5 -1 -11 -9 -14 -9
-4 -12 -1 -8 9 6 16 10 17 17 5z m-664 -5 c0 -3 -4 -8 -10 -11 -5 -3 -10 -1
-10 4 0 6 5 11 10 11 6 0 10 -2 10 -4z m682 -28 c-7 -7 -12 -8 -12 -2 0 14 12
26 19 19 2 -3 -1 -11 -7 -17z m78 12 c12 -8 11 -10 -7 -10 -13 0 -23 5 -23 10
0 13 11 13 30 0z m-730 -20 c0 -5 -7 -10 -16 -10 -8 0 -12 5 -9 10 3 6 10 10
16 10 5 0 9 -4 9 -10z m-223 -6 c-3 -3 -12 -4 -19 -1 -8 3 -5 6 6 6 11 1 17
-2 13 -5z m873 -169 c-4 -11 -15 -19 -23 -17 -9 1 -18 -2 -22 -8 -4 -6 1 -7
12 -3 14 5 14 2 -4 -16 -24 -23 -30 -41 -13 -41 6 0 10 -4 10 -10 0 -5 -7 -7
-16 -3 -17 6 -16 23 6 104 10 35 12 36 34 26 18 -9 22 -16 16 -32z m150 25 c0
-5 -2 -10 -4 -10 -3 0 -8 5 -11 10 -3 6 -1 10 4 10 6 0 11 -4 11 -10z m-160
-75 c-9 -11 -10 -19 -1 -28 8 -10 7 -14 -4 -14 -8 0 -12 4 -9 8 2 4 -2 9 -8
12 -9 3 -7 10 7 21 25 20 31 20 15 1z m94 -37 c9 -36 7 -90 -4 -83 -5 3 -7 19
-4 34 3 16 1 38 -5 50 -7 11 -8 21 -3 21 6 0 12 -10 16 -22z m66 -28 c0 -5 -8
-10 -17 -10 -15 0 -16 2 -3 10 19 12 20 12 20 0z m-194 -8 c-2 -4 -1 -14 4
-22 7 -12 11 -12 27 1 17 13 17 13 4 -4 -8 -10 -27 -25 -41 -32 -23 -12 -30
-34 -21 -62 3 -9 0 -13 -6 -10 -5 1 -7 7 -5 12 1 6 -5 1 -13 -9 -8 -11 -11
-22 -7 -25 11 -8 23 -41 14 -39 -4 1 -18 -4 -30 -11 -13 -7 -26 -10 -29 -7 -3
3 6 11 20 17 20 9 24 16 17 29 -12 22 -2 60 16 60 20 0 17 18 -3 23 -16 3 -16
5 2 12 30 13 36 27 17 42 -15 12 -14 13 6 3 26 -13 29 -3 5 16 -17 12 -16 13
5 14 13 0 21 -4 18 -8z m44 -136 c-8 -8 -9 -6 -5 7 8 20 -5 23 -23 5 -19 -19
-14 3 5 24 17 19 17 19 25 -3 5 -14 4 -27 -2 -33z m78 30 c-1 -14 -5 -24 -8
-23 -3 1 -15 -4 -27 -11 -13 -7 -23 -9 -23 -3 0 5 7 12 16 15 8 3 12 11 8 17
-4 7 -3 9 3 6 6 -4 13 0 17 8 8 23 16 18 14 -9z m49 -22 c-3 -3 -12 -4 -19 -1
-8 3 -5 6 6 6 11 1 17 -2 13 -5z m-147 -84 c0 -5 -5 -10 -11 -10 -5 0 -7 5 -4
10 3 6 8 10 11 10 2 0 4 -4 4 -10z m-102 -29 c-7 -11 -16 -17 -20 -15 -4 3 -8
2 -8 -3 0 -4 -3 -18 -6 -31 -5 -18 -3 -21 10 -16 9 3 13 11 9 17 -3 6 -1 7 5
3 20 -12 33 3 22 25 -7 13 -7 19 0 19 5 0 10 -7 10 -15 0 -8 4 -15 9 -15 5 0
16 7 25 15 19 19 32 20 16 0 -19 -23 -100 -65 -115 -59 -24 9 19 93 48 94 4 0
2 -9 -5 -19z m215 -114 c-7 -11 -23 2 -23 19 0 12 2 12 14 2 8 -7 12 -16 9
-21z m-120 -38 c-4 -15 -9 -17 -17 -9 -8 8 -7 13 4 20 8 5 16 10 17 10 0 0 -1
-9 -4 -21z m-43 -19 c-6 -11 -16 -18 -21 -14 -6 3 -28 -14 -51 -38 -22 -23
-44 -42 -50 -40 -5 1 -7 -2 -4 -7 4 -5 2 -12 -4 -16 -5 -3 -10 1 -10 9 0 9 -4
16 -10 16 -5 0 -9 -6 -7 -12 1 -8 -6 -12 -18 -10 -19 2 -19 2 -2 -9 17 -10 16
-13 -13 -31 -18 -10 -39 -17 -47 -14 -8 3 -11 2 -8 -3 3 -5 1 -12 -4 -16 -9
-5 -37 33 -29 39 2 2 26 15 53 30 95 54 138 78 183 107 55 35 56 35 42 9z
m-290 -185 c0 -32 -26 -43 -48 -21 -16 16 -16 18 2 32 29 21 46 17 46 -11z"/>
<path d="M1686 5286 c5 -13 4 -17 -4 -12 -7 4 -12 2 -12 -3 0 -14 17 -14 26 0
3 6 1 16 -5 22 -9 9 -10 7 -5 -7z"/>
<path d="M1650 5246 c0 -2 8 -10 18 -17 15 -13 16 -12 3 4 -13 16 -21 21 -21
13z"/>
<path d="M1574 5219 c15 -11 33 -18 41 -15 17 6 20 36 4 36 -5 0 -8 -4 -4 -9
10 -17 -15 -23 -31 -7 -8 9 -20 16 -26 16 -6 0 1 -9 16 -21z"/>
<path d="M2421 5261 c-19 -12 -6 -41 19 -41 11 0 20 5 20 10 0 6 -6 10 -13 8
-7 -2 -12 2 -12 7 0 6 3 9 8 8 4 -2 7 2 7 7 0 12 -10 13 -29 1z"/>
<path d="M2474 5259 c-3 -6 0 -18 9 -26 10 -10 17 -11 21 -4 4 6 0 11 -8 11
-19 0 -21 16 -3 23 9 4 9 6 0 6 -6 1 -15 -4 -19 -10z"/>
<path d="M2389 5258 c-5 -9 -5 -48 -1 -43 8 7 13 45 7 45 -3 0 -6 -1 -6 -2z"/>
<path d="M2520 5222 c0 -10 22 -32 32 -32 15 0 8 15 -12 28 -11 7 -20 9 -20 4z"/>
<path d="M2465 5190 c-8 -13 3 -30 18 -30 8 0 7 3 -2 9 -7 5 -10 14 -7 20 4 6
5 11 2 11 -3 0 -8 -4 -11 -10z"/>
<path d="M2550 5162 c0 -5 7 -15 15 -22 8 -7 15 -9 15 -6 0 4 -7 14 -15 22 -8
9 -15 11 -15 6z"/>
<path d="M2513 5085 c0 -8 4 -12 9 -9 5 3 6 10 3 15 -9 13 -12 11 -12 -6z"/>
<path d="M2445 5039 c-9 -14 -2 -20 14 -10 8 6 9 11 3 15 -6 3 -14 1 -17 -5z"/>
<path d="M2560 5041 c0 -11 29 -35 35 -29 2 2 -4 12 -15 21 -11 9 -20 13 -20
8z"/>
<path d="M2658 5044 c-8 -12 27 -64 43 -64 17 0 9 22 -10 27 -11 3 -21 15 -23
27 -2 13 -6 17 -10 10z"/>
<path d="M2552 4983 c6 -7 14 -13 18 -13 3 0 7 6 7 13 0 7 -8 13 -18 13 -13 0
-15 -3 -7 -13z"/>
<path d="M2540 4951 c0 -5 7 -11 15 -15 8 -3 15 -1 15 3 0 5 -7 11 -15 15 -8
3 -15 1 -15 -3z"/>
<path d="M2696 4895 c-8 -31 9 -65 32 -65 16 1 16 1 0 11 -24 13 -25 74 -2 65
8 -3 12 -2 9 4 -11 19 -33 10 -39 -15z"/>
<path d="M2636 4815 c-6 -16 19 -33 31 -21 4 3 1 6 -5 6 -7 0 -12 5 -12 11 0
5 5 7 10 4 6 -3 10 -1 10 4 0 17 -27 13 -34 -4z"/>
<path d="M2580 4771 c0 -6 4 -13 10 -16 6 -3 7 1 4 9 -7 18 -14 21 -14 7z"/>
<path d="M2604 4739 c-10 -16 23 -46 36 -33 6 6 8 18 4 27 -7 19 -29 22 -40 6z
m36 -20 c0 -6 -4 -7 -10 -4 -5 3 -10 11 -10 16 0 6 5 7 10 4 6 -3 10 -11 10
-16z"/>
<path d="M2714 4725 c-7 -18 4 -37 17 -29 6 4 6 11 -1 19 -8 10 -7 14 7 18 17
4 17 5 0 6 -10 0 -20 -6 -23 -14z"/>
<path d="M2685 4689 c-4 -6 -5 -12 -2 -15 2 -3 7 2 10 11 7 17 1 20 -8 4z"/>
<path d="M2617 4675 c-7 -16 8 -29 23 -20 15 9 12 35 -4 35 -8 0 -16 -7 -19
-15z"/>
<path d="M1510 4930 c0 -5 7 -7 15 -4 8 4 15 8 15 10 0 2 -7 4 -15 4 -8 0 -15
-4 -15 -10z"/>
<path d="M2095 5380 c3 -5 13 -10 21 -10 8 0 12 5 9 10 -3 6 -13 10 -21 10 -8
0 -12 -4 -9 -10z"/>
<path d="M1658 5373 c6 -2 18 -2 25 0 6 3 1 5 -13 5 -14 0 -19 -2 -12 -5z"/>
<path d="M2300 5370 c0 -5 5 -10 10 -10 6 0 10 5 10 10 0 6 -4 10 -10 10 -5 0
-10 -4 -10 -10z"/>
<path d="M1267 5251 c-4 -17 -3 -21 5 -13 5 5 8 16 6 23 -3 8 -7 3 -11 -10z"/>
<path d="M1221 5212 c-17 -31 -13 -40 5 -14 9 13 14 26 11 29 -3 2 -10 -4 -16
-15z"/>
<path d="M1200 5165 c0 -5 5 -17 10 -25 5 -8 10 -10 10 -5 0 6 -5 17 -10 25
-5 8 -10 11 -10 5z"/>
<path d="M1174 5116 c-3 -8 0 -25 6 -37 10 -18 10 -24 -3 -34 -9 -6 -19 -23
-22 -37 -7 -28 -29 -42 -48 -32 -7 4 -4 -2 6 -12 18 -19 19 -18 43 9 13 15 24
35 24 44 0 9 7 25 17 35 9 10 11 18 6 18 -17 0 -25 31 -12 46 9 11 9 14 0 14
-6 0 -14 -6 -17 -14z"/>
<path d="M1260 5090 c-12 -16 -19 -30 -16 -30 10 0 56 43 56 52 0 17 -20 7
-40 -22z"/>
<path d="M1152 5060 c-18 -29 -15 -38 4 -12 9 13 14 25 12 27 -2 2 -9 -5 -16
-15z"/>
<path d="M1277 5053 c-4 -3 -7 -11 -7 -17 0 -6 5 -5 12 2 6 6 9 14 7 17 -3 3
-9 2 -12 -2z"/>
<path d="M1237 5020 c5 -20 15 -25 26 -14 6 6 -16 34 -26 34 -3 0 -3 -9 0 -20z"/>
<path d="M1203 5008 c-21 -27 -22 -36 -7 -42 10 -4 14 -1 11 6 -2 7 0 21 5 31
10 20 5 23 -9 5z"/>
<path d="M1071 4913 c-10 -26 -10 -27 4 -9 8 11 15 23 15 28 0 15 -7 8 -19
-19z"/>
<path d="M1050 4855 c0 -17 5 -25 18 -25 14 0 14 2 3 9 -8 5 -11 16 -8 25 4 9
2 16 -3 16 -6 0 -10 -11 -10 -25z"/>
<path d="M1059 4804 c-20 -24 -23 -121 -3 -121 7 0 14 4 14 9 0 4 -4 8 -10 8
-5 0 -10 5 -10 11 0 5 5 7 12 3 7 -4 8 -3 4 4 -4 7 -1 12 8 12 22 0 29 17 16
39 -7 13 -16 18 -28 14 -13 -4 -13 -2 3 10 11 8 17 18 14 21 -3 4 -12 -1 -20
-10z m29 -52 c6 -18 -15 -14 -22 4 -4 10 -1 14 6 12 6 -2 14 -10 16 -16z"/>
<path d="M2083 4765 c-3 -9 -3 -18 -1 -21 3 -3 8 4 11 16 6 23 -1 27 -10 5z"/>
<path d="M1774 4700 c-32 -17 -97 -56 -144 -88 -71 -48 -89 -66 -112 -111 -36
-70 -37 -71 -31 -20 7 50 12 52 -113 -47 l-91 -72 -6 -98 c-3 -55 -13 -135
-20 -179 -8 -44 -20 -123 -26 -175 -37 -302 -63 -478 -77 -515 -4 -11 24 10
62 47 38 36 83 78 100 92 28 23 32 32 37 103 14 163 111 670 135 703 28 38
130 106 142 94 10 -10 -88 -520 -111 -575 -6 -15 -10 -35 -8 -45 1 -11 0 -26
-4 -34 -3 -8 -12 -35 -20 -60 -8 -25 -18 -53 -23 -64 -5 -12 22 1 82 41 49 33
117 76 152 97 62 37 62 38 62 84 0 44 17 130 91 477 50 228 51 238 46 288 -4
46 -28 87 -52 87 -6 0 -38 -14 -71 -30z"/>
<path d="M2077 4671 c-4 -17 -3 -21 5 -13 5 5 8 16 6 23 -3 8 -7 3 -11 -10z"/>
<path d="M1086 4673 c-4 -4 -15 -8 -23 -8 -25 0 -27 -22 -3 -35 20 -11 21 -10
10 10 -7 13 -8 20 -2 16 5 -3 15 1 22 9 13 15 9 21 -4 8z"/>
<path d="M2685 4501 c-3 -5 -2 -12 3 -15 5 -3 9 1 9 9 0 17 -3 19 -12 6z"/>
<path d="M2831 4492 c-14 -26 -14 -52 0 -52 5 0 9 8 7 18 -1 9 1 23 6 30 4 7
6 16 3 19 -3 2 -10 -4 -16 -15z"/>
<path d="M2831 4414 c0 -11 3 -14 6 -6 3 7 2 16 -1 19 -3 4 -6 -2 -5 -13z"/>
<path d="M2832 4370 c0 -14 2 -19 5 -12 2 6 2 18 0 25 -3 6 -5 1 -5 -13z"/>
<path d="M2750 4374 c0 -13 18 -39 24 -34 2 3 -2 14 -10 24 -8 11 -14 16 -14
10z"/>
<path d="M1110 4355 c0 -9 -9 -34 -21 -57 -28 -56 -41 -128 -39 -223 1 -68 -2
-85 -19 -107 -21 -26 -29 -54 -12 -44 23 15 29 -39 21 -204 -1 -26 -1 -282 0
-410 0 -25 3 -58 7 -75 5 -29 6 -28 37 30 23 45 35 88 47 170 9 61 15 111 13
113 -1 2 -17 -28 -36 -67 -18 -39 -36 -71 -39 -71 -15 0 20 554 36 581 5 8 27
39 50 69 37 48 43 64 49 125 4 39 10 79 13 90 5 18 3 18 -20 -4 -15 -13 -37
-39 -49 -57 -13 -19 -25 -34 -29 -34 -3 0 -2 30 2 68 11 94 11 122 -1 122 -5
0 -10 -7 -10 -15z m-50 -405 c0 -5 -4 -10 -10 -10 -5 0 -10 5 -10 10 0 6 5 10
10 10 6 0 10 -4 10 -10z"/>
<path d="M2620 4278 c-50 -41 -80 -73 -89 -97 -34 -90 -133 -339 -145 -366 -8
-16 -44 -100 -81 -185 -67 -152 -112 -251 -184 -400 -20 -41 -42 -88 -49 -105
l-12 -30 4 30 c2 17 25 125 50 240 26 116 61 273 78 350 16 77 45 182 64 234
18 52 32 96 31 97 -1 2 -38 -19 -82 -45 -104 -62 -233 -138 -317 -186 l-68
-39 0 -53 c0 -29 -9 -98 -20 -154 -10 -55 -19 -104 -18 -108 1 -3 -2 -13 -5
-21 -7 -16 -37 -153 -97 -440 -21 -102 -46 -216 -55 -255 -21 -89 -22 -94 -51
-250 -14 -71 -28 -140 -31 -153 -5 -22 -4 -22 40 8 25 17 117 72 203 123 101
59 163 101 171 117 7 14 35 72 62 130 27 58 67 143 89 190 171 367 308 679
380 868 25 67 50 122 54 122 4 0 3 -10 -2 -22 -5 -13 -26 -108 -45 -213 -20
-104 -45 -235 -55 -290 -21 -110 -104 -513 -116 -559 -8 -34 -16 -37 106 45
209 139 311 235 295 276 -6 17 -7 17 -21 -1 -8 -11 -12 -28 -9 -37 3 -9 -1
-19 -9 -22 -12 -5 -14 0 -9 23 3 20 1 30 -6 30 -7 0 -9 5 -6 10 4 6 12 7 18 3
7 -4 6 0 -2 10 -7 9 -10 25 -6 34 8 22 5 28 -15 28 -8 0 -14 5 -12 10 2 6 10
9 18 7 8 -2 14 3 15 10 0 7 2 23 3 35 1 12 -1 20 -5 18 -4 -3 -9 1 -12 9 -4 9
0 12 11 10 17 -5 46 39 34 51 -11 11 -31 4 -35 -12 -4 -14 -5 -12 -6 5 0 12 4
22 10 22 6 0 9 6 6 13 -2 6 -11 11 -18 9 -8 -2 -10 0 -6 5 5 4 14 8 20 8 7 0
13 8 15 18 2 9 -2 17 -9 17 -8 0 -5 9 8 23 30 33 26 64 -9 58 -5 0 -5 15 -2
35 4 28 3 35 -8 29 -10 -6 -10 -5 -1 5 6 7 9 19 6 28 -5 11 -3 13 8 7 8 -5 6
0 -4 12 -12 14 -15 23 -7 28 5 3 8 10 6 14 -3 4 -1 13 4 20 4 8 4 26 0 42 -6
21 -4 29 7 33 9 4 13 14 10 26 -3 11 -1 20 4 20 16 0 10 19 -11 37 -23 20 -27
35 -7 27 8 -3 20 2 27 11 7 9 8 15 2 15 -6 0 -12 -6 -14 -12 -3 -8 -10 -3 -17
11 -12 22 -11 23 4 17 15 -5 16 -4 6 8 -7 8 -9 21 -5 27 4 7 3 9 -3 6 -6 -4
-13 2 -16 13 -3 11 -1 20 4 20 4 0 6 8 3 18 -3 9 2 6 10 -8 l16 -25 -6 29 c-6
23 -4 27 7 21 8 -5 7 0 -4 12 -9 11 -14 23 -11 26 12 12 10 61 -3 88 -11 24
-11 27 5 23 18 -4 62 54 62 82 0 26 -17 15 -23 -15 -4 -17 -16 -35 -28 -42
-18 -9 -21 -9 -16 3 3 8 1 21 -3 29 -6 8 -4 19 5 29 17 19 23 52 10 56 -5 1
-44 -25 -85 -58z m63 -799 c-5 -5 -9 3 -11 19 -1 24 0 25 9 9 7 -11 7 -23 2
-28z m-43 11 c0 -5 -5 -10 -11 -10 -5 0 -7 5 -4 10 3 6 8 10 11 10 2 0 4 -4 4
-10z"/>
<path d="M2820 4311 c0 -16 -4 -31 -10 -33 -11 -4 -1 -48 11 -48 5 0 9 25 9
55 0 30 -2 55 -5 55 -3 0 -5 -13 -5 -29z"/>
<path d="M2770 4270 c0 -5 5 -10 11 -10 5 0 7 5 4 10 -3 6 -8 10 -11 10 -2 0
-4 -4 -4 -10z"/>
<path d="M2880 4225 c0 -15 4 -24 10 -20 6 3 10 12 10 20 0 8 -4 17 -10 20 -6
4 -10 -5 -10 -20z"/>
<path d="M2755 4230 c-3 -5 -1 -10 4 -10 6 0 11 5 11 10 0 6 -2 10 -4 10 -3 0
-8 -4 -11 -10z"/>
<path d="M2780 4211 c0 -11 -6 -21 -12 -24 -7 -2 -10 -8 -6 -12 4 -4 14 0 23
9 9 9 18 16 20 16 7 0 -7 -96 -15 -104 -14 -14 -12 -38 5 -60 13 -17 14 -15
12 23 -2 22 0 41 3 41 10 0 10 91 0 110 -14 25 -30 26 -30 1z"/>
<path d="M2872 4110 c-2 -46 -9 -93 -37 -240 -24 -128 -27 -163 -7 -86 10 39
21 66 24 60 9 -14 -11 -138 -22 -142 -14 -5 -13 -32 1 -32 6 0 9 -9 6 -20 -3
-11 -1 -20 5 -20 6 0 8 13 6 30 -3 17 -1 30 4 30 4 0 7 3 6 8 -1 4 2 40 7 80
5 47 11 69 16 60 11 -17 10 1 -1 27 -5 11 -9 14 -9 8 -1 -7 -5 -13 -9 -13 -5
0 -6 15 -4 32 4 28 6 30 13 13 4 -11 8 -15 8 -8 1 6 4 19 8 29 3 10 2 15 -3
12 -5 -4 -8 24 -6 66 2 40 2 90 -1 112 l-4 39 -1 -45z"/>
<path d="M2740 4100 c0 -5 5 -10 11 -10 5 0 7 5 4 10 -3 6 -8 10 -11 10 -2 0
-4 -4 -4 -10z"/>
<path d="M2745 4070 c-3 -5 -1 -10 4 -10 6 0 11 5 11 10 0 6 -2 10 -4 10 -3 0
-8 -4 -11 -10z"/>
<path d="M2760 3990 c0 -13 3 -20 7 -17 3 4 12 2 20 -4 10 -9 13 -7 13 11 0
13 -3 20 -7 17 -3 -4 -12 -2 -20 4 -10 9 -13 7 -13 -11z"/>
<path d="M1870 3960 c0 -5 5 -10 11 -10 5 0 7 5 4 10 -3 6 -8 10 -11 10 -2 0
-4 -4 -4 -10z"/>
<path d="M2764 3905 c-4 -9 0 -24 10 -33 16 -16 17 -15 20 25 1 22 -22 29 -30
8z"/>
<path d="M1010 3901 c0 -6 4 -13 10 -16 6 -3 7 1 4 9 -7 18 -14 21 -14 7z"/>
<path d="M2723 3813 c4 -3 0 -14 -9 -24 -11 -12 -12 -19 -4 -24 14 -9 16 -7
24 28 4 18 2 27 -5 27 -7 0 -9 -3 -6 -7z"/>
<path d="M2764 3776 c-8 -21 3 -49 16 -41 5 3 10 15 10 25 0 25 -18 36 -26 16z"/>
<path d="M2796 3695 c-3 -8 -1 -15 4 -15 6 0 10 7 10 15 0 8 -2 15 -4 15 -2 0
-6 -7 -10 -15z"/>
<path d="M2767 3685 c-4 -8 -2 -17 3 -20 6 -4 10 3 10 14 0 25 -6 27 -13 6z"/>
<path d="M2790 3631 c0 -12 5 -21 10 -21 6 0 10 6 10 14 0 8 -4 18 -10 21 -5
3 -10 -3 -10 -14z"/>
<path d="M1575 3619 c-100 -54 -257 -172 -362 -273 -94 -92 -126 -149 -143
-266 -7 -41 -14 -82 -17 -90 -3 -8 -5 -76 -5 -151 0 -125 -1 -136 -18 -132
-19 5 -36 -32 -19 -43 5 -3 7 -9 4 -14 -3 -4 1 -10 9 -13 20 -8 25 -54 9 -77
-10 -14 -11 -25 -3 -39 14 -26 13 -35 -3 -25 -7 5 -5 2 4 -7 13 -12 17 -35 18
-105 0 -49 -3 -105 -8 -125 -5 -21 -5 -43 -1 -50 5 -7 4 -24 -1 -37 -6 -14 -7
-33 -4 -41 8 -21 8 -228 0 -241 -3 -5 0 -10 8 -10 9 0 26 19 40 43 14 23 42
60 61 82 20 22 36 45 36 52 0 6 13 19 29 30 16 10 71 50 122 89 l94 71 38 159
c53 217 50 203 35 180 -32 -47 -78 -92 -155 -153 -47 -36 -80 -69 -77 -75 5
-7 2 -8 -6 -3 -8 5 -36 -17 -82 -65 -38 -40 -71 -70 -73 -68 -5 4 -6 95 -3
173 3 71 20 97 131 202 40 37 80 79 90 93 10 14 15 19 11 11 -12 -23 13 -9
133 73 102 70 111 78 116 113 6 43 91 465 107 531 16 66 13 174 -6 200 -19 28
-57 28 -109 1z m-41 -204 c-4 -8 -11 -12 -16 -9 -6 4 -5 10 3 15 19 12 19 11
13 -6z m-184 -230 c0 -9 -9 -73 -20 -143 l-21 -127 -84 -82 c-47 -45 -85 -81
-85 -80 0 31 33 271 41 294 6 19 38 58 76 93 66 60 93 73 93 45z m-90 -382 c0
-2 -8 -3 -17 -1 -11 2 -17 -2 -15 -10 1 -8 -2 -11 -8 -7 -5 3 -10 1 -10 -6 0
-7 -3 -9 -7 -6 -10 11 27 46 43 40 8 -3 14 -7 14 -10z m-17 -85 c-10 -12 -12
-18 -4 -18 7 0 10 -4 6 -9 -3 -5 -1 -12 5 -16 5 -3 10 -11 10 -18 0 -6 -6 -3
-13 8 -13 17 -15 17 -30 -6 -10 -13 -17 -18 -17 -12 0 6 7 16 15 23 8 7 13 23
11 35 -5 27 -2 32 19 32 13 0 13 -3 -2 -19z m30 -395 c-3 -6 -12 -9 -21 -5
-15 5 -15 4 -3 -12 18 -22 21 -53 8 -89 -6 -19 -6 -36 1 -52 13 -29 -6 -50
-37 -40 -21 6 -38 36 -19 32 20 -4 21 33 1 55 -11 14 -13 18 -3 13 26 -16 52
-13 44 4 -4 9 -7 24 -8 33 0 12 -5 14 -17 7 -12 -6 -19 -4 -22 5 -3 8 1 13 11
12 9 0 17 6 17 14 0 8 4 20 9 25 13 15 45 13 39 -2z m58 -30 c-8 -15 -10 -15
-11 -2 0 17 10 32 18 25 2 -3 -1 -13 -7 -23z m-51 -113 c0 -5 -2 -10 -4 -10
-3 0 -8 5 -11 10 -3 6 -1 10 4 10 6 0 11 -4 11 -10z"/>
<path d="M2744 3606 c-4 -10 -2 -22 4 -28 8 -8 13 -7 18 6 4 10 2 22 -4 28 -8
8 -13 7 -18 -6z"/>
<path d="M2822 3595 c-7 -14 -8 -27 -2 -30 5 -3 12 6 16 20 9 35 0 41 -14 10z"/>
<path d="M2710 3569 c0 -5 5 -7 10 -4 6 3 10 8 10 11 0 2 -4 4 -10 4 -5 0 -10
-5 -10 -11z"/>
<path d="M2754 3516 c-4 -10 -2 -22 4 -28 8 -8 13 -7 18 6 4 10 2 22 -4 28 -8
8 -13 7 -18 -6z"/>
<path d="M2811 3494 c0 -11 3 -14 6 -6 3 7 2 16 -1 19 -3 4 -6 -2 -5 -13z"/>
<path d="M2801 3463 c0 -6 -4 -20 -7 -30 -5 -14 -4 -15 5 -7 7 7 11 20 8 30
-3 11 -5 14 -6 7z"/>
<path d="M2724 3447 c-8 -23 3 -50 19 -44 13 4 11 36 -4 51 -5 6 -11 3 -15 -7z"/>
<path d="M2876 3350 c-4 -19 -8 -54 -9 -77 -1 -24 -5 -43 -8 -43 -4 0 -10 -25
-14 -55 -3 -30 -10 -53 -15 -50 -5 3 -12 1 -15 -5 -4 -6 -1 -9 7 -8 7 2 13 -1
12 -7 -1 -24 -17 -95 -36 -157 -18 -58 -19 -70 -7 -85 12 -16 12 -17 -2 -6
-13 11 -21 7 -50 -24 -19 -19 -76 -71 -128 -114 -72 -60 -100 -78 -115 -73
-15 4 -17 3 -8 -4 10 -7 1 -18 -35 -44 -94 -67 -385 -248 -400 -248 -2 0 -23
-13 -46 -28 -72 -49 -197 -113 -207 -107 -5 3 -7 -1 -4 -9 3 -9 -3 -17 -18
-22 -22 -7 -136 -74 -265 -156 -35 -22 -60 -45 -56 -51 3 -6 1 -7 -6 -3 -13 8
-119 -64 -183 -124 -22 -22 -44 -40 -48 -42 -24 -9 -111 -102 -106 -114 3 -8
1 -13 -5 -11 -6 1 -19 -13 -29 -31 -22 -40 -36 -55 -26 -27 4 11 4 16 0 12 -4
-3 -6 -72 -5 -151 2 -104 -1 -150 -11 -165 -10 -17 -10 -25 0 -41 16 -26 15
-55 -3 -70 -16 -13 -15 -48 2 -58 6 -4 11 -51 12 -109 2 -84 -1 -107 -16 -130
-14 -21 -14 -25 -3 -19 12 7 13 6 3 -5 -17 -17 -16 -32 1 -26 11 4 14 -15 15
-100 1 -67 7 -115 16 -132 25 -47 110 -122 151 -132 143 -37 450 -59 799 -59
197 0 253 2 442 21 62 6 119 9 127 6 8 -3 17 1 20 9 3 8 10 14 16 14 6 0 9 -4
6 -8 -7 -12 49 -8 65 4 8 6 28 16 46 23 43 17 153 133 153 162 0 12 8 28 18
35 11 9 13 16 6 21 -6 5 -12 16 -12 26 -4 40 -6 47 -13 47 -3 0 -9 9 -12 20
-3 11 -1 17 4 14 6 -3 16 0 24 6 17 14 11 55 -11 81 -11 12 -14 58 -14 199 0
101 -2 181 -4 179 -3 -3 -10 -54 -16 -114 -13 -139 -17 -166 -42 -300 -11 -60
-20 -118 -20 -127 1 -10 -4 -17 -10 -15 -6 1 -13 -4 -16 -12 -2 -8 0 -11 5 -8
7 4 7 -10 2 -41 -13 -67 -19 -82 -32 -83 -49 -5 -109 -3 -113 3 -3 5 -10 5
-16 2 -7 -4 -8 -2 -4 4 4 6 14 8 24 5 15 -6 15 -5 -1 12 -13 13 -15 20 -7 25
8 5 7 9 -5 13 -10 5 -14 3 -9 -5 5 -7 3 -8 -6 -3 -10 6 -9 11 5 22 11 7 13 13
7 13 -7 0 -12 7 -12 16 0 10 5 12 13 7 20 -13 49 -14 41 -2 -3 6 0 15 7 20 7
4 10 11 6 15 -3 4 -14 1 -22 -6 -24 -20 -44 3 -27 31 8 12 11 23 9 25 -2 3
-12 -12 -22 -31 -9 -20 -19 -34 -22 -32 -2 3 0 15 7 26 6 12 8 26 4 32 -4 6
-1 15 7 19 7 5 14 16 15 24 1 9 -2 13 -8 10 -6 -4 -2 6 8 22 11 15 14 25 8 21
-7 -4 -15 0 -18 9 -8 22 -8 26 4 19 6 -3 10 3 10 14 0 23 -15 28 -23 9 -3 -8
-6 -7 -6 4 -1 9 4 20 9 23 6 4 8 10 5 15 -3 5 1 23 10 40 8 16 12 30 8 30 -4
0 2 7 13 16 10 8 14 13 7 10 -22 -11 -25 14 -3 32 21 17 21 17 -10 18 -36 1
-50 12 -31 23 9 6 10 11 2 15 -6 4 -11 13 -11 19 0 8 3 8 9 -1 7 -11 9 -11 14
2 4 9 1 15 -5 13 -6 -1 -13 4 -16 12 -3 10 0 11 9 5 10 -6 10 -1 -2 16 -9 14
-26 30 -38 36 -32 17 -34 22 -6 17 14 -3 25 -9 25 -14 0 -5 12 -9 28 -9 19 0
23 3 13 9 -7 5 -10 14 -7 20 4 6 12 9 17 6 13 -9 11 9 -3 23 -10 10 -10 15 2
22 8 5 11 10 5 10 -5 0 -17 -5 -25 -11 -12 -8 -12 -12 -2 -16 10 -4 10 -8 1
-19 -6 -8 -16 -14 -21 -14 -6 0 -5 7 2 15 8 9 9 15 2 15 -6 0 -14 -4 -17 -10
-3 -5 -10 -10 -15 -10 -5 0 10 18 35 41 24 22 49 38 54 34 6 -3 8 0 5 8 -3 8
2 17 10 20 11 4 13 15 9 39 -6 42 17 69 42 48 10 -8 15 -9 15 -2 0 6 -7 15
-17 20 -14 9 -14 10 5 16 22 7 31 26 12 26 -5 0 -10 -5 -10 -12 0 -6 -3 -9 -6
-5 -3 3 6 42 21 87 15 44 24 88 21 96 -3 8 -2 13 3 10 11 -7 15 3 31 87 8 37
17 67 22 67 11 0 -2 -131 -14 -146 -5 -7 -6 -30 -2 -53 4 -22 1 -92 -6 -154
-11 -101 -15 -114 -31 -110 -11 3 -19 -2 -24 -16 -7 -23 0 -41 17 -41 7 0 7 4
-1 13 -13 16 -5 27 21 27 21 0 22 -3 6 -33 -28 -54 -28 -56 -13 -50 13 4 14 1
6 -19 -5 -13 -11 -60 -14 -103 -5 -71 -5 -75 5 -37 6 23 14 42 18 42 3 0 5 14
2 31 -2 17 0 40 6 52 6 12 13 44 16 70 3 27 9 53 12 59 4 6 8 27 10 47 2 20
12 106 23 191 12 85 21 211 21 280 0 115 2 126 20 138 16 9 19 19 14 40 -4 15
-11 33 -17 39 -5 7 -11 62 -14 123 -3 87 -1 114 11 131 13 19 13 25 0 50 -21
42 -19 111 5 126 22 14 19 46 -7 76 -13 15 -16 41 -13 139 1 67 6 128 10 136
5 8 5 31 0 51 -5 20 -9 93 -9 164 0 106 2 127 15 127 8 0 16 3 16 8 7 47 5 64
-11 84 l-18 23 -6 -35z m25 -46 c-9 -28 -9 -29 -10 -3 -1 14 2 29 6 32 11 12
13 2 4 -29z m-41 -383 c0 -25 -5 -53 -10 -61 -9 -13 -12 -12 -25 4 -17 23 -19
63 -5 101 16 42 40 15 40 -44z m-95 -110 c-3 -5 -1 -12 5 -16 5 -3 10 -11 10
-18 0 -6 -7 -2 -15 9 -12 16 -14 16 -15 3 0 -9 7 -22 15 -29 8 -7 15 -18 15
-24 0 -6 -5 -3 -11 7 -9 15 -13 16 -27 5 -15 -11 -15 -11 -5 3 7 9 10 18 7 22
-9 8 6 47 17 47 6 0 8 -4 4 -9z m52 -63 c-3 -8 -6 -5 -6 6 -1 11 2 17 5 13 3
-3 4 -12 1 -19z m-72 -38 c10 -11 13 -20 7 -20 -6 0 -16 9 -22 20 -6 11 -9 20
-7 20 2 0 12 -9 22 -20z m127 -47 c0 -10 0 -25 -1 -33 -1 -8 -2 -52 -3 -97 0
-46 -5 -83 -9 -83 -4 0 -5 -31 -2 -68 4 -45 1 -76 -7 -91 -8 -15 -8 -21 -1
-17 14 9 14 3 -1 -29 -6 -14 -15 -25 -20 -25 -4 0 -8 -10 -8 -22 -1 -30 -77
-120 -170 -200 -82 -70 -172 -140 -176 -136 -1 2 1 22 6 46 8 47 29 77 37 54
3 -6 10 -9 15 -6 7 4 8 2 4 -4 -4 -6 -14 -8 -23 -5 -13 5 -15 2 -11 -15 4 -12
2 -20 -3 -16 -5 3 -9 -4 -9 -16 0 -19 6 -16 49 22 36 30 47 46 40 54 -8 9 -4
11 13 8 20 -5 21 -4 6 6 -10 6 -18 16 -18 22 0 9 3 9 12 0 7 -7 19 -12 28 -11
10 0 11 2 3 6 -7 2 -13 12 -13 20 0 11 -6 14 -22 10 -23 -6 -23 -6 1 12 13 10
21 24 18 32 -4 11 -6 10 -6 -2 -1 -20 -27 -32 -52 -24 -26 8 -24 35 2 35 13 0
18 -4 14 -12 -4 -7 1 -4 9 7 9 10 15 24 13 30 -6 16 -39 18 -48 3 -7 -11 -9
-11 -9 1 0 8 8 20 18 28 9 8 11 11 3 7 -9 -5 -12 -3 -7 5 4 6 16 9 26 6 10 -3
21 -1 25 4 3 7 0 8 -9 5 -9 -3 -16 -1 -16 5 0 6 4 11 9 11 5 0 7 10 4 23 -3
12 -2 19 2 15 4 -4 14 0 22 10 13 16 14 16 9 0 -3 -11 -1 -15 8 -12 9 4 11 -4
8 -27 -3 -20 0 -34 9 -40 19 -12 59 -11 59 1 0 6 -7 10 -15 10 -18 0 -20 38
-3 75 14 32 30 33 22 1 -4 -17 0 -30 14 -44 l20 -20 -5 36 c-6 33 -5 36 10 24
13 -11 15 -10 10 7 -4 16 -1 21 13 21 14 0 15 3 6 12 -8 8 -15 8 -27 -2 -13
-11 -15 -8 -15 21 0 26 -3 30 -10 19 -8 -12 -10 -11 -10 8 0 32 -16 27 -30
-10 -23 -63 -32 -76 -47 -71 -8 3 -12 12 -9 20 3 8 -7 1 -23 -14 -16 -16 -30
-38 -33 -49 -4 -23 -33 -30 -53 -14 -21 18 -18 39 4 37 15 -1 17 -4 9 -14 -8
-10 -7 -12 5 -7 18 7 31 39 22 54 -10 17 -43 11 -58 -10 -8 -11 -17 -17 -22
-12 -4 4 0 -7 9 -25 9 -18 24 -37 33 -43 17 -11 17 -11 1 -6 -11 3 -18 0 -18
-8 0 -8 -11 -21 -24 -30 l-25 -16 4 91 c2 50 5 92 7 93 92 68 177 136 209 171
24 25 49 43 55 41 8 -3 11 1 7 10 -3 7 0 14 6 14 6 0 11 7 11 15 0 9 7 18 16
22 8 3 20 16 25 29 11 30 44 33 36 4 -3 -11 0 -23 6 -27 7 -3 9 -3 5 2 -4 4
-3 14 2 20 7 9 6 16 -4 24 -15 13 -11 40 8 53 18 12 26 9 28 -9z m-116 -20
c-2 -15 -9 -29 -17 -31 -11 -3 -10 -1 1 7 11 8 11 11 2 11 -10 0 -10 5 -2 20
15 27 19 25 16 -7z m54 7 c0 -5 -2 -10 -4 -10 -3 0 -8 5 -11 10 -3 6 -1 10 4
10 6 0 11 -4 11 -10z m-27 -35 c-3 -9 -8 -14 -10 -11 -3 3 -2 9 2 15 9 16 15
13 8 -4z m-58 -75 c-10 -11 -21 -18 -23 -15 -3 3 3 12 14 20 27 20 30 18 9 -5z
m120 -436 c-35 -177 -112 -442 -172 -589 -27 -66 -115 -160 -140 -151 -8 3
-11 2 -8 -4 7 -11 -147 -121 -310 -223 -145 -89 -174 -105 -208 -109 -15 -2
-42 -18 -59 -35 -29 -27 -210 -143 -224 -143 -3 0 -57 -32 -121 -70 -64 -39
-117 -69 -118 -68 -2 2 3 21 12 43 8 22 25 76 39 120 14 44 40 129 59 189 19
60 33 111 31 114 -3 2 -20 -5 -38 -16 -18 -11 -70 -40 -115 -65 l-81 -45 30
52 c65 108 236 404 272 468 33 60 46 72 102 104 35 19 69 32 75 28 7 -4 9 -3
5 4 -8 13 75 64 107 66 19 1 22 7 19 37 -2 32 1 37 40 59 24 13 57 33 73 45
17 12 47 32 67 44 l38 23 -7 -33 -6 -32 49 29 c27 16 88 54 136 86 48 32 89
58 91 58 2 0 -7 -42 -20 -92 -13 -51 -25 -111 -27 -133 -3 -22 -7 -48 -11 -57
-12 -30 6 -21 95 47 104 80 184 156 250 238 28 34 56 69 64 77 7 8 16 28 20
44 4 15 9 26 11 24 3 -3 -6 -63 -20 -134z m-557 69 c16 -23 15 -40 -4 -47 -8
-3 -12 -11 -9 -16 4 -6 3 -19 -1 -28 -4 -9 -8 -21 -8 -25 -2 -15 -171 -117
-193 -117 -14 0 -23 -6 -23 -15 0 -8 -20 -26 -44 -40 -53 -31 -80 -60 -73 -78
3 -9 -33 -36 -114 -82 -119 -68 -120 -70 -159 -141 -36 -64 -48 -76 -121 -123
-44 -28 -85 -49 -90 -45 -5 3 -9 -2 -9 -10 0 -17 -15 -21 -24 -7 -4 5 0 11 6
14 7 2 10 8 5 13 -4 4 -17 -2 -29 -14 l-22 -22 -22 21 c-13 12 -27 18 -33 14
-16 -9 -3 -25 14 -18 9 3 15 -1 15 -10 0 -8 -6 -18 -12 -20 -10 -4 -10 -6 -1
-6 6 -1 15 4 18 10 5 6 12 4 20 -8 11 -15 16 -16 27 -5 11 11 10 12 -4 7 -10
-4 -18 -3 -18 3 0 13 28 23 35 12 3 -5 -3 -23 -14 -42 -21 -36 -51 -141 -51
-179 0 -13 -7 -37 -15 -52 -8 -16 -9 -25 -3 -21 7 5 9 2 6 -8 -4 -9 -10 -37
-13 -64 -5 -31 -15 -56 -29 -67 -17 -16 -18 -18 -3 -13 15 5 17 2 12 -14 -10
-32 8 -24 111 46 53 36 98 63 102 60 3 -3 11 3 19 14 8 11 19 20 25 20 7 0 7
-4 -1 -14 -6 -7 -12 -32 -14 -54 -1 -22 -4 -38 -6 -36 -7 7 -100 -277 -101
-306 0 -19 -12 -32 -45 -53 -24 -16 -48 -26 -53 -23 -4 2 -38 6 -75 8 -63 2
-68 4 -73 28 -9 42 -12 46 -13 18 -1 -29 -16 -45 -26 -28 -4 6 -11 7 -17 4 -6
-4 -14 -1 -18 5 -11 18 1 63 15 57 8 -3 10 4 7 20 -4 22 -6 23 -17 7 -11 -15
-12 -14 -12 9 0 19 4 25 14 21 11 -4 12 -1 2 21 -10 20 -10 29 -1 38 17 17 15
48 -3 54 -12 5 -13 10 -4 20 6 8 9 20 6 29 -4 8 -2 17 3 20 16 10 12 21 -12
33 -22 11 -22 11 3 6 28 -6 43 13 33 41 -10 26 -25 16 -18 -11 5 -19 4 -25 -5
-20 -6 4 -11 14 -11 22 0 8 -4 13 -8 10 -5 -3 -9 1 -9 8 0 8 6 12 14 9 15 -6
8 21 -11 46 -8 11 -8 13 2 7 7 -4 12 -2 12 6 0 9 3 9 10 -2 7 -11 8 -5 3 19
-4 25 -3 32 5 27 7 -4 12 -2 12 3 0 6 -5 11 -10 11 -6 0 -4 15 5 37 8 20 13
38 10 41 -3 3 -5 1 -5 -5 0 -6 -9 -9 -20 -6 -22 6 -22 6 -14 27 3 8 13 13 22
10 15 -5 14 -3 -1 9 -12 10 -14 17 -8 22 8 4 6 11 -4 21 -8 9 -14 23 -14 32 1
15 2 15 6 0 5 -21 23 -24 24 -5 0 6 2 20 4 29 2 10 -2 21 -7 25 -7 4 -9 -2 -6
-15 4 -13 2 -20 -4 -16 -5 3 -7 16 -3 28 3 11 8 32 11 46 2 14 8 39 13 55 l9
30 10 -25 c9 -22 11 -23 11 -4 1 11 -3 24 -9 30 -7 7 -1 21 18 43 25 30 29 32
41 17 18 -21 28 -20 41 5 9 17 7 26 -14 54 -30 39 -36 59 -7 24 l19 -24 32 24
c24 17 35 20 43 12 9 -9 8 -14 -3 -21 -9 -6 -10 -10 -3 -10 18 0 26 19 14 34
-13 16 -4 26 22 26 16 0 17 -3 7 -15 -10 -12 -10 -15 0 -15 6 0 14 9 17 20 4
15 9 17 22 11 23 -13 56 12 47 35 -6 16 -5 16 14 -1 18 -16 20 -16 20 -2 0 10
5 17 10 17 6 0 10 -10 10 -22 1 -22 1 -23 15 -4 15 20 15 20 15 -1 0 -11 -9
-28 -20 -38 -11 -10 -18 -20 -15 -23 8 -9 45 30 45 48 0 9 7 25 15 36 20 27
18 51 -5 57 -32 8 -24 23 30 56 28 17 50 26 50 20 0 -6 -9 -13 -20 -16 -11 -3
-17 -9 -14 -14 8 -14 44 9 44 29 1 27 275 187 308 179 25 -5 72 21 72 41 0 22
72 65 94 56 12 -5 15 -2 10 12 -3 11 -2 15 3 8 4 -6 23 -11 40 -11 24 0 30 3
23 12 -5 7 -6 15 -2 20 4 4 -4 2 -17 -5 -17 -9 -21 -9 -16 0 20 32 89 34 113
3z m30 -72 c3 -8 -1 -12 -9 -9 -7 2 -15 10 -17 17 -3 8 1 12 9 9 7 -2 15 -10
17 -17z m-302 -36 c-11 -8 -27 -15 -35 -15 -10 1 -7 6 9 15 33 19 50 18 26 0z
m301 -15 c0 -22 -5 -30 -18 -30 -9 0 -20 -7 -23 -16 -10 -26 -18 -10 -10 20 3
14 11 23 17 19 6 -4 7 -1 2 7 -4 7 -2 16 6 21 22 14 26 11 26 -21z m243 -21
c0 -6 -7 -9 -15 -5 -8 3 -21 -2 -30 -10 -16 -16 -18 -14 -10 8 7 16 55 22 55
7z m5 -43 c0 -15 -5 -22 -12 -19 -7 3 -13 9 -13 15 0 5 -4 6 -10 3 -5 -3 -10
-1 -10 5 0 7 7 10 15 7 8 -4 17 -2 20 3 9 14 10 13 10 -14z m-1113 -58 c1 -7
2 -31 4 -53 1 -22 5 -53 8 -70 7 -29 6 -29 -10 5 -18 37 -27 130 -12 130 4 0
9 -6 10 -12z m-201 -137 c-7 -5 -10 -14 -7 -20 4 -6 2 -11 -3 -11 -6 0 -11 -7
-11 -15 0 -8 -5 -15 -11 -15 -5 0 -8 4 -5 9 3 4 10 20 15 35 6 14 16 26 23 26
10 0 10 -2 -1 -9z m263 -7 c3 -8 2 -12 -4 -9 -6 3 -10 10 -10 16 0 14 7 11 14
-7z m-46 -41 c-9 -10 -13 -24 -11 -30 3 -7 -1 -14 -9 -14 -7 -1 -26 -3 -42 -5
-33 -4 -33 -4 25 35 51 35 58 38 37 14z m102 13 c0 -3 -4 -8 -10 -11 -5 -3
-10 -1 -10 4 0 6 5 11 10 11 6 0 10 -2 10 -4z m-312 -61 c-3 -3 -9 2 -12 12
-6 14 -5 15 5 6 7 -7 10 -15 7 -18z m-18 -8 c12 -17 12 -18 -6 -15 -11 2 -18
-2 -16 -9 1 -7 -3 -13 -9 -13 -6 0 -8 6 -5 13 3 6 9 20 12 30 4 10 7 16 8 15
1 -2 8 -11 16 -21z m-42 -72 c-3 -3 -9 2 -12 12 -6 14 -5 15 5 6 7 -7 10 -15
7 -18z m54 -47 c-8 -8 -15 -8 -28 2 -15 13 -14 15 3 21 23 9 41 -7 25 -23z
m1267 -311 c-2 -1 -13 -9 -24 -17 -19 -14 -19 -14 -6 3 7 9 18 17 24 17 6 0 8
-1 6 -3z m-1418 -30 c-10 -9 -11 -8 -5 6 3 10 9 15 12 12 3 -3 0 -11 -7 -18z
m1489 -7 c0 -18 -3 -19 -20 -8 -18 12 -19 13 -2 20 9 3 18 7 20 7 1 1 2 -8 2
-19z m-63 -16 c-2 -2 -12 -1 -22 3 -18 6 -18 7 1 13 17 7 33 -5 21 -16z m-117
-27 c-19 -19 -39 -33 -45 -33 -5 1 -9 -5 -7 -12 1 -8 -2 -11 -8 -7 -5 3 -10
-1 -10 -9 0 -25 29 -19 42 8 6 14 18 28 26 31 13 5 13 3 -1 -13 -9 -10 -17
-24 -17 -30 0 -7 -4 -12 -10 -12 -5 0 -10 -5 -10 -11 0 -5 5 -7 10 -4 16 10
11 -1 -7 -16 -11 -10 -14 -10 -9 -1 6 11 2 13 -24 15 -3 0 -12 7 -21 17 -14
15 -10 20 50 62 79 56 87 58 41 15z m-1270 2 c0 -6 -7 -8 -16 -5 -13 5 -14 3
-7 -6 13 -16 13 -48 0 -48 -5 0 -7 7 -3 15 3 8 -1 21 -9 29 -11 11 -12 16 -2
19 21 9 37 7 37 -4z m1365 -18 c3 -5 1 -12 -5 -16 -5 -3 -10 1 -10 9 0 18 6
21 15 7z m110 -41 c25 0 17 -17 -10 -22 -14 -3 -25 -1 -25 3 0 5 -7 9 -16 9
-8 0 -12 5 -9 11 4 6 13 8 21 5 9 -3 11 1 8 12 -5 15 -4 15 6 0 6 -10 18 -18
25 -18z m-170 -36 c-14 -11 -20 -11 -31 1 -18 18 -18 31 0 16 11 -9 17 -9 28
3 8 9 14 10 17 3 2 -5 -4 -16 -14 -23z m-1325 16 c0 -5 -4 -10 -10 -10 -5 0
-10 5 -10 10 0 6 5 10 10 10 6 0 10 -4 10 -10z m1155 -13 c-13 -21 -13 -24 0
-24 8 0 15 6 15 13 0 7 8 10 20 7 11 -3 17 -10 13 -16 -3 -6 -1 -7 6 -3 6 4
19 2 27 -5 11 -9 18 -9 26 -1 7 7 17 12 22 12 6 0 1 -7 -10 -15 -15 -10 -20
-22 -17 -40 3 -14 0 -31 -6 -39 -10 -11 -8 -17 6 -26 17 -11 17 -11 -1 -5 -20
6 -20 6 0 -16 10 -12 13 -19 5 -14 -17 10 -32 -14 -21 -35 7 -13 3 -15 -26
-12 -39 5 -52 18 -34 35 10 9 11 9 6 0 -5 -9 0 -13 13 -13 26 0 49 38 27 46
-24 9 -61 0 -58 -15 2 -8 -3 -11 -12 -8 -13 5 -13 2 -4 -18 6 -14 20 -27 30
-31 12 -3 17 -12 14 -20 -7 -18 -1 -18 16 -1 20 20 78 2 78 -23 0 -11 -2 -20
-4 -20 -2 0 -13 -3 -23 -6 -16 -5 -17 -5 -1 6 24 15 11 40 -19 38 -31 -3 -50
-25 -35 -40 15 -15 3 -38 -16 -31 -13 4 -12 2 3 -11 l20 -16 -20 -16 c-19 -14
-18 -15 15 -10 19 3 29 3 23 0 -7 -3 -13 -16 -13 -29 0 -13 6 -26 13 -29 6 -3
-2 -3 -19 0 -24 4 -33 1 -38 -12 -4 -10 -2 -22 4 -28 7 -7 10 -5 10 7 0 9 6
17 14 17 8 0 14 -8 13 -19 -1 -11 -6 -17 -14 -14 -8 3 -13 0 -11 -8 2 -9 -6
-14 -24 -14 -14 0 -30 -3 -34 -7 -4 -4 -13 -3 -21 4 -10 8 -20 8 -36 0 -50
-24 -60 -24 -53 0 3 13 11 48 18 78 6 30 18 59 26 63 10 6 12 20 7 48 -7 42 0
49 22 22 8 -10 11 -12 7 -4 -5 11 -3 13 10 8 12 -5 15 -3 9 6 -10 16 -10 39 1
55 12 17 -2 15 -20 -2 -17 -17 -19 -30 -3 -20 7 4 10 2 8 -5 -7 -19 -24 -8
-23 14 2 53 46 231 61 247 22 25 26 23 8 -5z m348 -10 c3 -8 2 -20 -3 -27 -6
-10 -10 -8 -19 7 -10 19 -6 33 10 33 4 0 9 -6 12 -13z m-37 -18 c11 -19 -12
-32 -33 -19 -15 10 -15 11 -1 6 20 -6 34 10 16 17 -9 4 -10 6 -1 6 6 1 15 -4
19 -10z m-69 -15 c-3 -3 -12 -4 -19 -1 -8 3 -5 6 6 6 11 1 17 -2 13 -5z m37
-39 c-7 -18 -20 -19 -30 -3 -4 6 -3 8 4 4 6 -3 13 -2 17 4 9 15 15 12 9 -5z
m46 1 c0 -3 -4 -8 -10 -11 -5 -3 -10 -1 -10 4 0 6 5 11 10 11 6 0 10 -2 10 -4z
m-10 -81 c0 -13 -4 -26 -9 -29 -4 -3 -8 10 -7 28 1 38 16 39 16 1z m-170 11
c0 -3 -4 -8 -10 -11 -5 -3 -10 -1 -10 4 0 6 5 11 10 11 6 0 10 -2 10 -4z m73
-13 c-3 -7 -9 -13 -13 -13 -4 0 -10 6 -13 13 -3 7 3 13 13 13 10 0 16 -6 13
-13z m67 -13 c0 -5 -4 -10 -10 -10 -5 0 -10 5 -10 10 0 6 5 10 10 10 6 0 10
-4 10 -10z m50 -24 c0 -3 -4 -8 -10 -11 -5 -3 -10 -1 -10 4 0 6 5 11 10 11 6
0 10 -2 10 -4z m-90 -26 c0 -5 -4 -10 -10 -10 -5 0 -10 5 -10 10 0 6 5 10 10
10 6 0 10 -4 10 -10z m-55 -10 c-3 -5 -12 -10 -18 -10 -7 0 -6 4 3 10 19 12
23 12 15 0z m-1342 -31 c4 -16 3 -18 -9 -8 -16 13 -19 29 -5 29 5 0 11 -9 14
-21z m1253 -1 c4 -7 3 -8 -4 -4 -7 4 -12 1 -12 -8 0 -18 -15 -21 -25 -7 -3 6
3 14 12 20 23 13 21 13 29 -1z m208 -22 c-7 -19 -44 -42 -44 -27 0 5 6 11 13
14 6 2 9 8 5 12 -4 4 -14 2 -23 -5 -8 -7 -15 -8 -15 -2 0 12 29 24 41 16 5 -3
9 3 9 12 0 13 3 15 10 8 6 -6 8 -18 4 -28z m-74 10 c0 -3 -4 -8 -10 -11 -5 -3
-10 -1 -10 4 0 6 5 11 10 11 6 0 10 -2 10 -4z m-120 -65 c0 -18 -17 -20 -36
-6 -18 14 -18 14 9 15 15 0 27 -4 27 -9z m-1323 -53 c-3 -8 -6 -5 -6 6 -1 11
2 17 5 13 3 -3 4 -12 1 -19z m1513 -27 c-9 -19 -30 -29 -30 -16 0 7 34 42 38
39 2 -1 -1 -12 -8 -23z m-150 9 c0 -5 -4 -10 -10 -10 -5 0 -10 5 -10 10 0 6 5
10 10 10 6 0 10 -4 10 -10z m20 -20 c0 -5 -5 -10 -11 -10 -5 0 -7 5 -4 10 3 6
8 10 11 10 2 0 4 -4 4 -10z m-570 -20 c-24 -15 -36 -11 -14 4 10 8 21 12 24
10 2 -3 -2 -9 -10 -14z m140 16 c0 -2 -8 -22 -18 -45 -14 -30 -21 -38 -30 -29
-8 8 -15 8 -27 -2 -27 -22 -16 5 13 33 16 15 32 24 36 20 4 -4 4 0 0 10 -4 12
-1 17 10 17 9 0 16 -2 16 -4z m460 -6 c0 -5 -4 -10 -10 -10 -5 0 -10 5 -10 10
0 6 5 10 10 10 6 0 10 -4 10 -10z m140 -11 c0 -14 -17 -10 -23 5 -4 10 -1 13
9 9 7 -3 14 -9 14 -14z m-256 -15 c3 -8 2 -12 -4 -9 -6 3 -10 10 -10 16 0 14
7 11 14 -7z m176 6 c0 -5 -5 -10 -11 -10 -5 0 -7 5 -4 10 3 6 8 10 11 10 2 0
4 -4 4 -10z m-100 -4 c0 -3 -4 -8 -10 -11 -5 -3 -10 -1 -10 4 0 6 5 11 10 11
6 0 10 -2 10 -4z"/>
<path d="M2830 2880 c0 -5 5 -10 11 -10 5 0 7 5 4 10 -3 6 -8 10 -11 10 -2 0
-4 -4 -4 -10z"/>
<path d="M2805 2529 c-4 -12 -2 -26 5 -33 10 -8 11 -8 6 2 -4 7 -3 19 4 27 7
8 7 15 1 19 -5 4 -13 -3 -16 -15z"/>
<path d="M2760 2515 c0 -8 2 -15 4 -15 2 0 6 7 10 15 3 8 1 15 -4 15 -6 0 -10
-7 -10 -15z"/>
<path d="M2659 2420 c-23 -19 -23 -20 -5 -35 10 -8 24 -11 30 -7 7 4 5 8 -6
10 -19 4 -24 17 -9 26 5 4 11 1 13 -6 3 -8 7 -6 11 5 10 25 -8 29 -34 7z"/>
<path d="M2796 2433 c-9 -10 -7 -51 3 -58 5 -3 13 0 17 6 4 8 3 9 -4 5 -8 -5
-12 0 -12 13 0 10 5 21 12 23 8 3 9 6 1 11 -5 4 -13 4 -17 0z"/>
<path d="M2831 2394 c0 -11 3 -14 6 -6 3 7 2 16 -1 19 -3 4 -6 -2 -5 -13z"/>
<path d="M2755 2359 c-11 -16 -1 -19 13 -3 7 8 8 14 3 14 -5 0 -13 -5 -16 -11z"/>
<path d="M2535 2322 c-3 -7 2 -20 10 -28 8 -9 15 -12 15 -7 0 5 -5 14 -12 21
-9 9 -9 12 1 12 8 0 20 -8 28 -17 13 -16 13 -16 4 3 -6 12 -8 23 -6 26 2 2 -5
4 -15 4 -11 0 -22 -6 -25 -14z"/>
<path d="M2790 2329 c0 -5 5 -7 10 -4 6 3 10 8 10 11 0 2 -4 4 -10 4 -5 0 -10
-5 -10 -11z"/>
<path d="M2499 2305 c-1 -3 -2 -8 -3 -12 -1 -5 -5 -14 -10 -21 -7 -11 -4 -11
13 0 12 7 17 14 11 16 -6 2 -8 8 -4 13 3 5 3 9 0 9 -3 0 -7 -2 -7 -5z"/>
<path d="M2472 2188 c1 -17 7 -24 15 -21 11 4 11 9 1 22 -7 9 -14 18 -15 20
-2 3 -2 -7 -1 -21z"/>
<path d="M2460 2140 c0 -5 7 -7 15 -4 8 4 15 8 15 10 0 2 -7 4 -15 4 -8 0 -15
-4 -15 -10z"/>
<path d="M2727 2129 c7 -7 15 -10 18 -7 3 3 -2 9 -12 12 -14 6 -15 5 -6 -5z"/>
<path d="M2600 2122 c0 -7 5 -12 10 -12 6 0 10 -9 10 -19 0 -11 5 -23 11 -27
8 -4 9 1 4 16 -5 15 -2 26 6 32 11 8 10 9 -2 5 -9 -3 -22 0 -28 6 -8 8 -11 8
-11 -1z"/>
<path d="M2775 2029 c-9 -17 -15 -32 -13 -34 7 -7 24 10 35 38 17 37 -3 35
-22 -4z"/>
<path d="M2750 1964 c0 -10 -12 -51 -26 -89 -14 -39 -35 -97 -46 -130 -22 -65
-45 -100 -34 -52 4 16 11 58 16 95 5 37 12 85 16 107 l7 40 -55 -50 c-52 -48
-57 -57 -114 -208 -32 -87 -60 -151 -62 -143 -4 16 31 197 44 229 5 13 -12 5
-53 -25 -58 -42 -60 -45 -66 -98 -4 -30 -22 -125 -41 -210 -19 -85 -33 -156
-32 -157 0 -1 26 15 56 36 53 36 57 42 98 147 24 60 55 143 69 184 27 78 51
120 39 65 -12 -49 -54 -280 -52 -282 1 -2 25 16 53 40 54 45 77 90 137 282 62
195 67 218 57 228 -8 8 -11 5 -11 -9z m-155 -184 c3 -5 1 -10 -4 -10 -6 0 -11
5 -11 10 0 6 2 10 4 10 3 0 8 -4 11 -10z m96 -43 c-10 -9 -11 -8 -5 6 3 10 9
15 12 12 3 -3 0 -11 -7 -18z"/>
<path d="M2334 1942 c-21 -15 -50 -33 -64 -40 -45 -24 -57 -37 -63 -72 -10
-61 -45 -214 -53 -234 -7 -17 -4 -17 36 5 23 13 44 29 45 34 2 6 11 55 21 110
15 78 24 105 44 125 34 34 35 17 7 -107 l-23 -102 29 17 c41 24 42 27 66 137
34 164 29 180 -45 127z"/>
<path d="M2088 1844 c-21 -13 -38 -32 -38 -43 0 -10 -8 -29 -18 -42 -27 -34
-34 -59 -18 -59 11 0 10 -16 -5 -77 -32 -132 -26 -142 54 -98 51 29 61 40 72
74 l7 23 -31 -18 c-17 -10 -32 -16 -35 -13 -11 10 33 163 49 172 28 15 55 46
55 62 0 19 -5 19 -35 -1 -25 -16 -25 -16 -19 15 8 37 9 36 -38 5z"/>
<path d="M1949 1710 c-31 -17 -42 -33 -78 -117 -39 -92 -60 -135 -61 -122 0 3
9 44 19 92 10 48 17 87 16 87 -2 0 -20 -9 -39 -21 -36 -21 -42 -30 -187 -294
-56 -102 -56 -100 -26 -80 15 9 49 60 77 113 65 123 82 142 65 75 -7 -26 -15
-65 -19 -86 l-7 -37 45 27 c40 24 49 37 82 115 20 49 42 92 47 95 7 4 8 -1 4
-12 -4 -10 -12 -38 -19 -64 -6 -25 -15 -54 -20 -63 -11 -23 -9 -23 45 7 l45
26 16 87 c9 48 23 111 30 140 8 28 11 52 8 52 -4 -1 -23 -9 -43 -20z"/>
<path d="M2207 1583 c-72 -44 -117 -78 -133 -102 -14 -22 -35 -86 -53 -167
-38 -166 -42 -207 -20 -212 9 -2 72 30 139 70 118 71 124 76 136 118 8 25 14
46 14 46 0 1 -37 -23 -82 -52 -45 -30 -86 -54 -91 -54 -7 0 -1 70 6 76 1 1 43
27 94 58 l91 57 16 72 c23 102 25 151 6 154 -8 1 -64 -27 -123 -64z m30 -80
c-3 -10 -8 -29 -11 -43 -3 -16 -21 -34 -46 -48 l-41 -23 6 38 c5 25 18 48 38
66 36 31 61 36 54 10z"/>
<path d="M1950 1432 c-126 -66 -239 -135 -234 -143 5 -8 -62 -266 -101 -385
l-13 -41 104 58 c57 33 106 59 109 59 19 0 110 81 125 111 41 80 82 346 55
356 -6 2 -26 -5 -45 -15z m-64 -159 c-4 -21 -14 -60 -21 -88 -8 -27 -17 -62
-19 -76 -5 -23 -81 -87 -92 -77 -2 2 5 33 16 68 10 36 26 91 34 122 12 43 23
61 44 72 40 22 45 20 38 -21z"/>
<path d="M2409 1293 c-13 -17 -13 -17 6 -3 11 8 22 16 24 17 2 2 0 3 -6 3 -6
0 -17 -8 -24 -17z"/>
<path d="M2106 2122 c-3 -5 1 -9 9 -9 8 0 12 4 9 9 -3 4 -7 8 -9 8 -2 0 -6 -4
-9 -8z"/>
<path d="M2144 2081 c-1 -14 1 -20 3 -13 3 6 12 12 21 12 15 -1 15 -2 -1 -15
-20 -15 -47 -10 -60 12 -4 7 -13 13 -18 13 -6 0 -3 -7 6 -16 23 -23 16 -59
-12 -59 -22 -1 -52 -29 -53 -50 0 -5 5 -3 10 5 8 13 10 12 10 -4 0 -14 -5 -17
-21 -13 -15 4 -18 2 -10 -7 8 -9 4 -19 -13 -35 -18 -17 -25 -19 -29 -9 -4 10
-7 10 -18 1 -19 -18 -20 -43 -2 -36 12 5 12 7 1 15 -9 7 -6 8 11 4 19 -4 32 3
59 32 20 20 40 37 46 38 23 1 56 16 56 25 0 5 6 9 14 9 7 0 19 7 26 15 8 9 8
15 2 15 -6 0 -12 -5 -14 -12 -3 -7 -11 -9 -24 -4 -17 8 -16 10 11 22 17 7 26
13 20 14 -5 0 -2 7 8 14 20 15 14 42 -11 48 -13 4 -17 -2 -18 -21z m-29 -93
c-19 -11 -30 -5 -21 11 4 6 14 7 22 4 15 -5 14 -7 -1 -15z m-40 2 c3 -5 1 -10
-4 -10 -6 0 -11 5 -11 10 0 6 2 10 4 10 3 0 8 -4 11 -10z"/>
<path d="M2229 2088 c-7 -13 -4 -46 3 -42 4 3 5 10 2 16 -4 6 0 14 7 19 10 6
11 9 2 9 -7 0 -14 -1 -14 -2z"/>
<path d="M2083 2045 c0 -8 4 -12 9 -9 5 3 6 10 3 15 -9 13 -12 11 -12 -6z"/>
<path d="M1875 1980 c-10 -17 4 -28 28 -23 21 4 22 4 3 -11 -11 -9 -15 -16 -9
-16 6 0 16 7 23 15 10 12 10 18 0 30 -14 17 -36 20 -45 5z"/>
<path d="M1973 1943 c-30 -21 -29 -31 3 -27 32 3 58 24 30 24 -9 0 -14 5 -11
10 8 13 4 12 -22 -7z"/>
<path d="M1775 1930 c-3 -5 -1 -10 4 -10 6 0 11 5 11 10 0 6 -2 10 -4 10 -3 0
-8 -4 -11 -10z"/>
<path d="M1858 1933 c7 -3 16 -2 19 1 4 3 -2 6 -13 5 -11 0 -14 -3 -6 -6z"/>
<path d="M1777 1883 c-14 -13 -6 -25 12 -20 12 3 22 -1 25 -9 3 -8 10 -14 16
-14 6 0 3 11 -6 25 -16 25 -34 32 -47 18z"/>
<path d="M1844 1878 c-4 -7 -2 -8 4 -4 6 4 21 2 32 -4 15 -8 18 -8 15 3 -7 16
-42 20 -51 5z"/>
<path d="M1695 1840 c-3 -6 1 -7 9 -4 18 7 21 14 7 14 -6 0 -13 -4 -16 -10z"/>
<path d="M1773 1831 c0 -11 5 -18 9 -15 4 3 5 11 1 19 -7 21 -12 19 -10 -4z"/>
<path d="M1818 1823 c7 -3 16 -2 19 1 4 3 -2 6 -13 5 -11 0 -14 -3 -6 -6z"/>
<path d="M1705 1810 c-3 -5 1 -10 10 -10 9 0 13 5 10 10 -3 6 -8 10 -10 10 -2
0 -7 -4 -10 -10z"/>
<path d="M1845 1800 c-3 -5 -13 -7 -23 -4 -13 5 -14 4 -3 -4 8 -6 10 -15 6
-23 -5 -8 1 -6 12 4 11 9 26 17 34 17 10 -1 8 -5 -5 -15 -11 -8 -15 -15 -10
-15 20 0 34 23 23 37 -13 15 -26 17 -34 3z"/>
<path d="M1640 1740 c0 -9 39 -25 45 -18 2 2 -7 8 -21 15 -13 6 -24 7 -24 3z"/>
<path d="M1716 1741 c-3 -5 3 -11 15 -14 16 -4 18 -3 8 9 -13 16 -16 17 -23 5z"/>
<path d="M1590 1681 c0 -5 7 -11 14 -14 10 -4 13 -1 9 9 -6 15 -23 19 -23 5z"/>
<path d="M1705 1680 c-3 -5 -1 -10 4 -10 6 0 11 5 11 10 0 6 -2 10 -4 10 -3 0
-8 -4 -11 -10z"/>
<path d="M1447 1663 c-4 -3 -7 -11 -7 -17 0 -6 5 -5 12 2 6 6 9 14 7 17 -3 3
-9 2 -12 -2z"/>
<path d="M1378 1633 c6 -2 9 -10 6 -15 -4 -7 -2 -8 5 -4 13 9 5 26 -12 25 -9
0 -8 -2 1 -6z"/>
<path d="M1540 1601 c0 -5 7 -11 14 -14 10 -4 13 -1 9 9 -6 15 -23 19 -23 5z"/>
<path d="M1334 1568 c-5 -8 -2 -9 9 -5 19 7 22 -3 7 -21 -5 -7 -3 -6 6 2 9 8
13 19 10 25 -9 14 -23 14 -32 -1z"/>
<path d="M1387 1548 c-20 -21 -31 -75 -16 -83 5 -4 9 0 9 7 1 9 5 7 14 -4 18
-24 29 -23 16 1 -15 29 -12 33 11 20 13 -7 19 -17 16 -29 -3 -13 0 -17 9 -13
8 3 11 10 8 15 -4 6 0 15 7 20 11 8 11 9 -3 5 -12 -4 -18 3 -22 28 -9 45 -26
57 -49 33z"/>
<path d="M1275 1540 c-3 -5 1 -10 10 -10 9 0 13 5 10 10 -3 6 -8 10 -10 10 -2
0 -7 -4 -10 -10z"/>
<path d="M1550 1540 c0 -5 5 -10 10 -10 6 0 10 5 10 10 0 6 -4 10 -10 10 -5 0
-10 -4 -10 -10z"/>
<path d="M1290 1520 c-12 -8 -9 -10 13 -10 27 0 37 -14 17 -23 -6 -3 -5 -4 2
-3 18 4 16 40 -2 43 -8 2 -22 -1 -30 -7z"/>
<path d="M1460 1516 c0 -2 7 -7 16 -10 8 -3 12 -2 9 4 -6 10 -25 14 -25 6z"/>
<path d="M1216 1493 c6 -4 14 -15 17 -23 5 -11 6 -9 4 4 -1 11 -9 21 -17 23
-10 3 -11 2 -4 -4z"/>
<path d="M1173 1412 c19 -21 22 -38 7 -45 -6 -3 -5 -4 2 -3 29 6 15 66 -15 66
-5 0 -3 -8 6 -18z"/>
<path d="M1154 1390 c0 -13 4 -16 10 -10 7 7 7 13 0 20 -6 6 -10 3 -10 -10z"/>
<path d="M1205 1350 c-3 -5 -1 -10 5 -10 7 0 9 -7 6 -16 -3 -8 -2 -12 4 -9 13
8 13 32 1 40 -5 3 -12 1 -16 -5z"/>
<path d="M1284 1331 c0 -11 4 -17 8 -15 4 3 8 12 8 20 0 8 -4 14 -8 14 -4 0
-8 -9 -8 -19z"/>
<path d="M1314 1308 c-5 -7 -2 -8 6 -3 7 4 15 2 20 -5 5 -9 8 -8 13 2 6 17
-29 22 -39 6z"/>
<path d="M1150 1256 c0 -2 8 -10 18 -17 15 -13 16 -12 3 4 -13 16 -21 21 -21
13z"/>
<path d="M1204 1115 c0 -103 -8 -139 -26 -114 -7 11 -8 9 -4 -4 3 -10 6 -37 7
-60 1 -36 2 -38 9 -17 4 14 8 19 9 11 1 -8 4 -11 7 -8 4 4 1 14 -6 23 -11 12
-11 20 -1 35 16 27 24 134 13 189 -7 38 -8 29 -8 -55z"/>
<path d="M1280 1189 c0 -7 3 -9 7 -6 3 4 13 1 21 -6 13 -10 14 -9 10 3 -6 19
-38 26 -38 9z"/>
<path d="M1315 1120 c-3 -5 -1 -10 4 -10 6 0 11 5 11 10 0 6 -2 10 -4 10 -3 0
-8 -4 -11 -10z"/>
<path d="M1257 1074 c-11 -12 -8 -26 4 -18 9 5 10 -1 5 -20 -7 -30 -1 -34 13
-7 11 20 -8 59 -22 45z"/>
<path d="M1166 1047 c3 -10 9 -15 12 -12 3 3 0 11 -7 18 -10 9 -11 8 -5 -6z"/>
<path d="M1400 945 c-11 -13 -10 -14 4 -9 9 3 16 10 16 15 0 13 -6 11 -20 -6z"/>
<path d="M1443 947 c-7 -8 -4 -17 8 -29 15 -14 19 -15 30 -2 10 12 9 13 -5 8
-12 -4 -15 -2 -10 9 7 19 -11 31 -23 14z"/>
<path d="M1242 908 c-7 -7 -12 -26 -12 -42 0 -23 3 -27 9 -17 13 20 38 22 52
5 17 -21 3 -47 -23 -41 -20 6 -20 5 -4 -11 16 -16 19 -15 42 11 30 35 30 49 0
84 l-24 28 -22 -25 c-20 -23 -20 -23 -10 -2 12 25 10 28 -8 10z"/>
<path d="M1457 883 c-4 -3 -7 -11 -7 -17 0 -6 5 -5 12 2 6 6 9 14 7 17 -3 3
-9 2 -12 -2z"/>
<path d="M1192 855 c0 -11 3 -29 8 -40 11 -25 11 1 0 35 -6 20 -8 21 -8 5z"/>
<path d="M1346 842 c-7 -11 15 -22 47 -23 12 0 16 -3 10 -6 -7 -2 -13 -9 -13
-15 0 -7 5 -7 13 1 8 6 18 7 23 3 5 -4 0 3 -10 16 -11 13 -26 20 -35 17 -8 -3
-18 -1 -21 6 -5 7 -10 8 -14 1z"/>
<path d="M1420 836 c0 -2 7 -7 16 -10 8 -3 12 -2 9 4 -6 10 -25 14 -25 6z"/>
<path d="M1165 770 c3 -5 8 -10 11 -10 2 0 4 5 4 10 0 6 -5 10 -11 10 -5 0 -7
-4 -4 -10z"/>
<path d="M1380 769 c0 -5 5 -7 10 -4 21 13 9 -13 -12 -28 -19 -12 -21 -18 -10
-28 9 -10 12 -10 12 -1 0 7 5 12 10 12 14 0 12 -27 -2 -33 -10 -4 -10 -6 0 -6
17 -1 27 28 14 41 -8 8 -8 15 -1 24 11 14 4 34 -12 34 -5 0 -9 -5 -9 -11z"/>
<path d="M1194 736 c-3 -8 -4 -25 -2 -38 3 -17 5 -13 9 15 5 38 2 47 -7 23z"/>
<path d="M1158 733 c7 -3 16 -2 19 1 4 3 -2 6 -13 5 -11 0 -14 -3 -6 -6z"/>
<path d="M1265 710 c-3 -6 1 -7 9 -4 18 7 21 14 7 14 -6 0 -13 -4 -16 -10z"/>
<path d="M1280 690 c-9 -6 -10 -10 -3 -10 6 0 15 5 18 10 8 12 4 12 -15 0z"/>
<path d="M1366 661 c-4 -6 0 -11 8 -11 10 0 13 -6 9 -17 -5 -15 -3 -16 8 -5
11 10 11 15 -3 28 -11 11 -18 12 -22 5z"/>
<path d="M1157 653 c-4 -3 -7 -11 -7 -17 0 -6 5 -5 12 2 6 6 9 14 7 17 -3 3
-9 2 -12 -2z"/>
<path d="M1125 630 c3 -5 8 -10 11 -10 2 0 4 5 4 10 0 6 -5 10 -11 10 -5 0 -7
-4 -4 -10z"/>
<path d="M1205 630 c3 -5 8 -10 11 -10 2 0 4 5 4 10 0 6 -5 10 -11 10 -5 0 -7
-4 -4 -10z"/>
<path d="M1332 606 c7 -8 17 -12 22 -9 4 3 2 9 -5 14 -22 13 -31 11 -17 -5z"/>
<path d="M2283 1018 c0 -13 1 -17 4 -10 3 6 11 12 19 12 8 0 14 5 14 10 0 6
-8 10 -18 10 -11 0 -18 -8 -19 -22z"/>
<path d="M2255 1020 c3 -5 8 -10 11 -10 2 0 4 5 4 10 0 6 -5 10 -11 10 -5 0
-7 -4 -4 -10z"/>
<path d="M2309 1003 c-12 -15 -12 -16 4 -10 10 4 23 7 28 7 5 0 9 5 9 10 0 16
-26 12 -41 -7z"/>
<path d="M2238 893 c7 -3 16 -2 19 1 4 3 -2 6 -13 5 -11 0 -14 -3 -6 -6z"/>
<path d="M2267 793 c-4 -3 -7 -15 -7 -25 0 -12 -7 -18 -21 -18 -16 0 -20 -5
-16 -19 2 -10 1 -25 -4 -33 -4 -7 -3 -20 3 -28 8 -12 9 -12 4 3 -6 19 4 23 21
6 8 -8 13 -7 18 2 5 7 4 10 -2 6 -6 -4 -16 0 -23 8 -10 12 -9 15 6 16 11 1 26
1 34 0 13 -2 13 -1 0 9 -13 9 -13 11 0 20 10 6 11 10 3 10 -7 0 -13 7 -13 15
0 8 7 15 15 15 8 0 15 5 15 10 0 11 -23 14 -33 3z m-12 -63 c3 -5 -1 -10 -9
-10 -9 0 -16 5 -16 10 0 6 4 10 9 10 6 0 13 -4 16 -10z"/>
<path d="M2287 679 c7 -7 15 -10 18 -7 3 3 -2 9 -12 12 -14 6 -15 5 -6 -5z"/>
<path d="M2180 671 c0 -6 4 -13 10 -16 6 -3 7 1 4 9 -7 18 -14 21 -14 7z"/>
<path d="M2270 660 c0 -6 -4 -8 -10 -5 -5 3 -10 2 -10 -3 0 -6 -9 -8 -20 -5
-11 3 -20 0 -20 -6 0 -5 7 -8 15 -5 8 4 15 1 15 -5 0 -10 -14 -15 -33 -12 -5
1 -6 -3 -2 -8 3 -6 13 -7 22 -4 11 4 14 3 9 -5 -4 -7 -1 -12 9 -12 9 0 13 5
10 10 -3 6 1 10 10 10 9 0 14 -4 11 -8 -2 -4 4 -8 14 -8 14 0 16 3 8 13 -6 7
-19 13 -29 13 -11 0 -19 5 -19 11 0 6 7 8 16 5 8 -3 13 -2 9 3 -3 5 0 11 7 13
9 3 9 6 0 12 -7 4 -12 2 -12 -4z"/>
<path d="M2715 3290 c3 -5 11 -10 16 -10 6 0 7 5 4 10 -3 6 -11 10 -16 10 -6
0 -7 -4 -4 -10z"/>
<path d="M2696 3244 c-8 -20 7 -39 22 -30 13 8 9 39 -5 43 -6 2 -13 -4 -17
-13z"/>
<path d="M2740 3250 c0 -5 5 -10 10 -10 6 0 10 5 10 10 0 6 -4 10 -10 10 -5 0
-10 -4 -10 -10z"/>
<path d="M2680 3175 c0 -9 5 -15 11 -13 6 2 11 8 11 13 0 5 -5 11 -11 13 -6 2
-11 -4 -11 -13z"/>
<path d="M2364 2674 c-18 -14 -18 -15 4 -4 12 6 22 13 22 15 0 8 -5 6 -26 -11z"/>
<path d="M2120 2436 c0 -2 7 -7 16 -10 8 -3 12 -2 9 4 -6 10 -25 14 -25 6z"/>
<path d="M1065 1740 c-4 -12 -5 -24 -2 -27 3 -2 8 5 12 17 4 12 5 24 2 27 -3
2 -8 -5 -12 -17z"/>
<path d="M2884 1692 c1 -44 3 -50 14 -35 14 20 16 43 3 43 -5 0 -11 10 -13 23
-3 12 -4 -2 -4 -31z"/>
<path d="M2875 1403 c0 -54 1 -88 3 -76 2 12 12 25 22 28 30 9 30 29 2 90
l-27 56 0 -98z m35 -22 c0 -6 -4 -13 -10 -16 -5 -3 -10 1 -10 9 0 9 5 16 10
16 6 0 10 -4 10 -9z"/>
<path d="M2690 1453 c0 -15 18 -35 23 -27 3 5 -1 15 -9 22 -8 7 -14 9 -14 5z"/>
<path d="M2727 1425 c-4 -8 -13 -15 -21 -15 -23 0 -28 -16 -8 -31 15 -13 16
-12 3 4 -12 15 -11 17 7 17 18 0 39 27 28 37 -2 2 -6 -3 -9 -12z"/>
<path d="M2679 1273 c-13 -17 -13 -17 6 -3 11 8 22 16 24 17 2 2 0 3 -6 3 -6
0 -17 -8 -24 -17z"/>
<path d="M2710 1074 c-31 -29 -39 -41 -34 -58 6 -19 5 -20 -11 -6 -16 13 -18
13 -13 0 2 -8 19 -17 36 -21 28 -6 35 -2 57 27 24 31 33 94 13 94 -4 0 -26
-16 -48 -36z m33 -48 c-21 -30 -43 -34 -43 -8 0 11 11 24 25 30 14 6 26 17 26
24 1 7 3 5 6 -4 2 -10 -4 -29 -14 -42z"/>
<path d="M2670 938 c0 -19 2 -20 10 -8 13 19 13 30 0 30 -5 0 -10 -10 -10 -22z"/>
<path d="M2713 904 c-18 -8 -33 -20 -33 -27 0 -8 3 -7 10 3 8 13 11 12 25 -5
9 -11 13 -14 10 -7 -4 7 1 22 11 33 20 22 20 22 -23 3z"/>
<path d="M2756 873 c-6 -14 -5 -15 5 -6 7 7 10 15 7 18 -3 3 -9 -2 -12 -12z"/>
<path d="M2666 844 c-9 -24 -7 -27 9 -10 17 17 19 26 6 26 -5 0 -12 -7 -15
-16z"/>
<path d="M2787 823 c-4 -3 -7 -13 -7 -22 1 -13 3 -13 11 2 11 19 8 33 -4 20z"/>
<path d="M2705 811 c-3 -5 -1 -12 4 -15 5 -3 11 1 15 9 6 16 -9 21 -19 6z"/>
<path d="M2731 756 c-13 -23 -9 -46 9 -46 4 0 6 9 3 20 -4 14 0 20 12 20 9 0
15 5 13 12 -7 21 -24 19 -37 -6z"/>
<path d="M2676 691 c-15 -16 -15 -19 -1 -31 9 -7 18 -10 22 -6 3 3 1 6 -5 6
-7 0 -12 7 -12 15 0 8 7 15 15 15 8 0 15 5 15 10 0 16 -15 12 -34 -9z"/>
<path d="M2725 629 c-4 -11 -4 -23 -1 -26 3 -4 6 1 6 10 0 10 5 17 10 17 6 0
10 5 10 10 0 18 -19 10 -25 -11z"/>
</g>
</svg>
