<?xml version="1.0" standalone="no"?>
<!DOCTYPE svg PUBLIC "-//W3C//DTD SVG 20010904//EN"
 "http://www.w3.org/TR/2001/REC-SVG-20010904/DTD/svg10.dtd">
<svg version="1.0" xmlns="http://www.w3.org/2000/svg"
 width="800.000000pt" height="550.000000pt" viewBox="0 0 800.000000 550.000000"
 preserveAspectRatio="xMidYMid meet">

<g transform="translate(0.000000,550.000000) scale(0.100000,-0.100000)"
fill="#000000" stroke="none">
<path d="M3812 4874 c-6 -11 -17 -15 -30 -12 -16 5 -19 2 -14 -11 5 -14 4 -14
-13 -1 -17 14 -18 13 -13 -2 9 -22 2 -24 -174 -44 -212 -25 -233 -24 -233 3 0
29 -10 36 -25 18 -16 -19 -16 -60 0 -90 10 -19 9 -32 -5 -72 -10 -26 -28 -77
-41 -113 l-23 -65 -1 -1793 c0 -1648 1 -1796 17 -1825 9 -17 38 -59 65 -92 26
-33 48 -66 48 -74 0 -11 3 -11 15 -1 13 11 15 9 13 -11 -2 -16 2 -24 12 -24 8
0 18 -4 21 -9 4 -4 10 -3 13 3 4 6 2 11 -3 11 -6 0 -11 8 -11 19 0 10 -9 30
-20 43 -10 14 -16 28 -13 32 3 3 1 6 -6 6 -7 0 -9 4 -6 10 3 5 0 10 -8 10 -17
0 -57 45 -57 66 0 8 4 13 8 10 5 -3 53 -7 109 -11 55 -3 114 -10 131 -14 17
-5 33 -7 36 -4 2 3 9 2 15 -2 17 -10 -10 -32 -38 -31 -13 1 -26 -4 -28 -11 -3
-7 5 -10 21 -9 14 2 26 -1 26 -6 0 -5 4 -7 9 -3 5 3 12 1 16 -5 3 -5 -2 -10
-12 -11 -14 0 -12 -3 7 -11 l25 -11 -25 -7 c-25 -8 -25 -8 -2 -9 13 -1 21 -5
18 -10 -3 -5 4 -11 16 -14 18 -5 19 -8 8 -21 -21 -26 6 -19 36 9 26 24 26 25
5 25 -11 0 -21 5 -21 10 0 6 7 10 15 10 13 0 14 4 5 21 -9 16 -14 18 -25 9
-15 -13 -35 -6 -35 12 0 6 8 8 19 5 24 -6 51 10 51 30 0 14 -3 13 -21 -3 -22
-19 -22 -19 -8 3 16 26 52 27 43 1 -3 -11 0 -18 8 -18 7 0 65 -2 128 -5 63 -3
138 -1 165 4 l50 9 -60 3 c-33 1 -70 3 -82 3 -13 0 -23 4 -23 8 0 4 62 7 138
7 89 -1 122 -4 94 -8 -23 -4 -48 -13 -55 -20 -10 -11 -1 -12 52 -7 35 3 79 6
97 6 24 0 34 5 34 15 0 8 -7 15 -15 15 -8 0 -15 -4 -15 -10 0 -5 -4 -10 -10
-10 -5 0 -10 7 -10 15 0 12 17 15 88 16 48 0 101 2 117 4 90 10 295 24 326 22
l35 -2 -15 -27 c-9 -14 -19 -24 -23 -22 -10 6 -74 -95 -70 -109 2 -5 -3 -7
-11 -4 -8 3 -13 -3 -14 -15 -1 -14 4 -18 20 -16 24 3 72 82 61 100 -4 6 -2 8
3 5 11 -7 83 73 83 92 0 6 5 11 10 11 7 0 9 603 8 1833 l-3 1832 -34 83 c-31
75 -33 87 -23 116 16 44 15 82 -3 100 -16 16 -78 37 -105 35 -8 0 0 -5 18 -10
17 -5 32 -16 32 -23 0 -8 3 -21 6 -29 8 -21 -13 -25 -86 -16 -36 4 -128 13
-205 19 -77 6 -164 13 -192 16 -53 5 -69 18 -35 27 13 4 11 5 -5 6 -13 0 -23
-3 -23 -9 0 -5 -15 -9 -32 -9 -22 1 -26 3 -13 6 48 12 55 43 9 43 -30 0 -32
-20 -1 -21 12 -1 3 -5 -20 -11 -24 -5 -43 -15 -44 -21 0 -7 -4 -3 -9 8 -8 18
-9 18 -10 -5 -1 -23 -2 -23 -11 -6 -12 20 5 40 29 31 6 -2 12 -1 12 4 0 17
-50 19 -60 2 -6 -10 -13 -12 -17 -6 -5 6 -19 11 -33 11 -14 1 -55 4 -92 8 -57
6 -68 5 -76 -10z m311 -51 c-7 -2 -19 -2 -25 0 -7 3 -2 5 12 5 14 0 19 -2 13
-5z m-503 -42 c0 -14 -10 -18 -60 -25 -47 -7 -77 4 -66 23 9 13 126 15 126 2z
m960 -1 c0 -6 10 -10 23 -11 l22 0 -21 -9 c-12 -5 -30 -7 -40 -5 -11 2 -29 4
-41 4 -41 2 -25 26 17 28 22 2 40 -2 40 -7z m-1022 -341 c9 -142 11 -184 12
-276 0 -56 0 -105 -1 -110 -1 -4 0 -10 1 -13 7 -20 7 -50 -1 -107 -7 -47 -6
-70 2 -79 8 -10 8 -14 1 -14 -6 0 -14 5 -17 10 -12 20 -35 10 -35 -15 0 -27
18 -33 38 -13 14 14 14 23 14 -179 1 -84 2 -153 4 -153 1 0 31 25 65 55 72 62
177 118 264 140 78 20 231 19 308 -1 123 -32 235 -101 331 -205 31 -33 56 -56
56 -51 0 5 -11 19 -25 32 -14 13 -24 29 -21 35 2 7 0 18 -6 26 -8 11 -9 10 -4
-4 3 -10 2 -16 -3 -13 -5 3 -11 15 -14 27 -4 15 -2 19 9 15 8 -3 14 1 14 8 0
8 -7 17 -16 20 -11 4 -13 12 -8 28 7 24 7 108 -1 151 -4 18 -2 26 5 22 18 -11
35 7 18 19 -15 11 -32 149 -20 161 3 3 4 62 3 131 -2 97 1 129 11 135 7 5 8 9
2 9 -7 0 -10 24 -8 68 2 37 3 88 4 113 0 57 15 78 62 85 51 9 66 -9 67 -77 1
-86 3 -99 12 -99 5 0 9 -5 9 -11 0 -5 -3 -8 -7 -6 -5 3 -8 -14 -8 -38 0 -24 3
-41 8 -38 11 7 8 -46 -4 -68 -6 -12 -7 -28 -3 -37 4 -9 9 -55 11 -101 4 -73 2
-83 -11 -78 -11 5 -16 0 -16 -14 0 -15 5 -19 15 -15 11 4 15 -2 15 -23 0 -20
-6 -30 -20 -34 -21 -5 -28 -27 -9 -27 6 0 17 -6 24 -14 12 -12 12 -16 0 -26
-8 -7 -12 -17 -9 -22 4 -6 10 -37 13 -69 6 -46 4 -59 -5 -55 -18 7 -26 -22 -8
-32 12 -7 15 -34 15 -147 0 -92 -4 -141 -11 -145 -8 -5 -8 -9 2 -12 10 -4 13
-48 11 -209 -2 -306 -4 -339 -25 -339 -20 0 -24 -26 -8 -50 9 -13 10 -13 11 0
1 8 5 -14 9 -50 5 -40 4 -67 -2 -71 -7 -4 -6 -9 0 -13 7 -4 6 -15 -4 -34 -7
-15 -14 -40 -14 -55 0 -16 -4 -26 -9 -23 -5 4 -4 -5 2 -19 7 -14 15 -25 19
-25 4 0 7 -16 6 -35 -1 -19 -5 -32 -9 -29 -5 3 -6 -2 -3 -10 3 -9 1 -29 -4
-46 -6 -16 -7 -30 -3 -30 4 0 8 -24 9 -54 1 -38 -3 -56 -13 -60 -16 -6 -14
-40 3 -72 6 -12 9 -24 6 -27 -3 -2 -6 -40 -8 -83 -5 -124 -18 -234 -27 -234
-5 0 -9 -9 -9 -19 0 -29 -19 -36 -24 -9 -5 23 -13 110 -17 178 -1 19 -6 41
-11 47 -6 7 -8 19 -5 26 3 8 -4 13 -22 12 l-26 0 0 105 c0 101 1 105 23 108
15 2 22 -2 22 -12 0 -18 16 -21 26 -5 9 16 -11 32 -43 33 -23 1 -29 6 -31 29
-3 22 1 27 18 27 13 0 24 -8 27 -19 6 -25 33 -16 33 10 0 13 -7 19 -22 19 -23
0 -23 2 -24 133 -1 72 0 124 3 115 4 -18 52 -26 54 -10 5 57 2 82 -12 90 -13
8 -21 4 -38 -19 -13 -17 -17 -29 -10 -29 7 0 10 -3 6 -6 -3 -3 -11 -3 -17 1
-8 5 -6 14 5 31 24 36 9 29 -53 -27 -66 -58 -189 -122 -281 -145 -92 -23 -253
-15 -345 16 -76 26 -187 95 -253 158 -45 42 -50 43 -32 10 10 -18 9 -20 -7
-14 -17 7 -17 6 1 -14 10 -11 14 -20 8 -20 -6 0 -10 -29 -10 -67 0 -38 -1
-114 -3 -169 -1 -56 1 -108 5 -115 5 -7 4 -10 -1 -6 -6 3 -11 -10 -11 -31 l-1
-37 14 27 c18 35 43 48 89 48 29 0 45 -8 71 -34 38 -38 45 -85 20 -135 -23
-44 -91 -65 -137 -41 -17 10 -19 7 -19 -35 0 -38 -3 -45 -19 -45 -11 0 -21 6
-24 13 -2 6 -8 9 -12 5 -9 -9 -10 -70 -2 -173 6 -80 -2 -207 -13 -200 -4 2 -5
-8 -2 -23 4 -23 3 -25 -10 -15 -19 17 -28 7 -28 -31 0 -24 3 -27 10 -16 9 13
10 13 11 0 0 -10 3 -9 10 5 8 17 8 15 4 -7 -3 -15 -1 -36 3 -45 17 -33 30 -83
21 -77 -12 7 -11 -3 1 -27 6 -10 7 -19 2 -19 -5 0 -9 -31 -10 -69 -2 -58 -19
-144 -21 -103 -2 24 -31 12 -31 -13 0 -18 5 -25 19 -25 11 0 22 6 24 13 4 8 6
9 6 0 1 -6 -6 -18 -14 -27 -18 -18 -19 -36 -2 -36 6 0 4 -5 -6 -11 -10 -6 -22
-9 -28 -7 -17 6 -19 102 -4 132 8 15 10 24 5 21 -6 -4 -10 4 -10 17 0 19 -2
20 -11 8 -8 -12 -9 -10 -4 7 3 13 3 28 -2 35 -16 27 -11 42 6 20 17 -23 19
-23 35 -7 21 21 3 49 -25 40 -26 -8 -25 -14 -9 155 8 80 8 116 1 118 -6 2 -11
11 -11 19 0 9 6 13 15 9 20 -7 19 1 -4 25 -18 20 -20 56 -4 82 3 6 1 7 -5 3
-7 -4 -11 50 -11 181 -1 104 -5 223 -9 265 -8 75 -7 77 15 81 20 4 23 0 24
-27 1 -28 2 -27 11 12 10 46 22 54 31 20 9 -32 -3 -68 -21 -68 -13 0 -14 -2
-3 -12 21 -21 54 27 45 66 -13 62 -40 87 -51 46 -4 -16 -7 -17 -19 -6 -7 8
-18 16 -23 18 -16 5 -36 1158 -21 1158 8 0 3 217 -5 230 -5 7 -4 11 1 7 5 -3
8 82 8 206 -2 211 -2 211 22 230 25 19 34 80 14 92 -6 4 -10 -8 -10 -29 0 -19
-5 -38 -11 -42 -8 -4 -10 44 -7 165 1 94 6 171 11 171 4 0 6 5 5 12 -2 7 13
17 32 24 50 18 74 0 78 -57z m1155 -16 c4 -18 3 -33 -2 -33 -12 0 -21 26 -21
58 0 34 15 17 23 -25z m-1283 7 c0 -5 -4 -10 -10 -10 -5 0 -10 5 -10 10 0 6 5
10 10 10 6 0 10 -4 10 -10z m115 -589 c3 -5 1 -12 -5 -16 -5 -3 -10 1 -10 9 0
18 6 21 15 7z m-163 -93 c-2 -10 -8 -18 -13 -18 -11 0 -12 31 -2 56 6 16 7 16
13 -2 4 -10 5 -27 2 -36z m-17 -247 c3 -5 1 -12 -5 -16 -5 -3 -10 1 -10 9 0
18 6 21 15 7z m1375 -301 c15 -28 9 -75 -10 -75 -11 0 -16 13 -18 48 -3 50 9
62 28 27z m-55 -460 c3 -5 1 -10 -4 -10 -6 0 -11 5 -11 10 0 6 2 10 4 10 3 0
8 -4 11 -10z m-95 -201 c0 -10 -4 -19 -10 -19 -5 0 -10 12 -10 26 0 14 4 23
10 19 6 -3 10 -15 10 -26z m-1190 12 c0 -6 -4 -13 -10 -16 -5 -3 -10 1 -10 9
0 9 5 16 10 16 6 0 10 -4 10 -9z m1310 -93 c0 -10 -4 -18 -10 -18 -5 0 -10 15
-10 33 0 24 3 28 10 17 5 -8 10 -23 10 -32z m-13 -170 c-3 -8 -6 -5 -6 6 -1
11 2 17 5 13 3 -3 4 -12 1 -19z m-737 -113 c30 -15 60 -61 60 -89 0 -24 -21
-31 -99 -31 -85 0 -102 -15 -48 -41 32 -15 37 -15 66 -1 31 15 61 14 61 -3 0
-18 -52 -40 -93 -40 -54 0 -91 26 -107 75 -32 96 68 177 160 130z m267 -2
c103 -49 65 -203 -50 -203 -23 0 -49 5 -57 10 -12 8 -16 1 -20 -38 -4 -39 -9
-47 -25 -47 -19 0 -20 7 -20 112 0 105 1 113 25 138 44 47 89 56 147 28z m233
2 c20 -24 2 -35 -44 -29 -73 10 -73 -37 0 -49 49 -8 64 -23 64 -63 0 -46 -34
-68 -95 -62 -58 7 -82 25 -62 46 12 11 19 12 36 2 30 -15 75 -9 79 12 2 12
-11 20 -51 32 -30 9 -58 23 -61 32 -20 53 13 94 78 94 26 0 48 -6 56 -15z
m-900 -353 c0 -7 -4 -10 -10 -7 -5 3 -10 16 -10 28 0 18 2 19 10 7 5 -8 10
-21 10 -28z m990 -6 c0 -2 -7 -9 -15 -16 -13 -11 -14 -10 -9 4 5 14 24 23 24
12z m-990 -56 c0 -5 -5 -10 -11 -10 -5 0 -7 5 -4 10 3 6 8 10 11 10 2 0 4 -4
4 -10z m1050 -198 c0 8 50 -40 50 -47 0 -3 -8 -5 -17 -6 -10 0 -13 -3 -7 -5 7
-3 9 -32 7 -80 -3 -51 -1 -74 6 -69 6 3 1 -10 -12 -29 -26 -41 -33 -44 -40
-13 -22 87 -18 291 4 256 5 -8 9 -11 9 -7z m-79 -145 c-10 -9 -11 -8 -5 6 3
10 9 15 12 12 3 -3 0 -11 -7 -18z m-954 -119 c-3 -8 -6 -5 -6 6 -1 11 2 17 5
13 3 -3 4 -12 1 -19z m1043 -58 c0 -5 -4 -10 -10 -10 -5 0 -10 5 -10 10 0 6 5
10 10 10 6 0 10 -4 10 -10z m-1110 -291 c0 -5 -4 -9 -10 -9 -5 0 -10 7 -10 16
0 8 5 12 10 9 6 -3 10 -10 10 -16z m-207 -99 c3 -11 2 -20 -3 -20 -4 0 -10 9
-13 20 -3 11 -2 20 3 20 4 0 10 -9 13 -20z m354 -44 c0 -8 -8 -11 -20 -8 -14
4 -16 7 -5 13 19 12 25 11 25 -5z m-277 -46 c0 -5 -4 -10 -10 -10 -5 0 -10 5
-10 10 0 6 5 10 10 10 6 0 10 -4 10 -10z"/>
<path d="M4605 4450 c3 -5 8 -10 11 -10 2 0 4 5 4 10 0 6 -5 10 -11 10 -5 0
-7 -4 -4 -10z"/>
<path d="M4600 4290 c0 -5 4 -10 9 -10 6 0 13 5 16 10 3 6 -1 10 -9 10 -9 0
-16 -4 -16 -10z"/>
<path d="M4647 4271 c-3 -11 -1 -23 3 -26 14 -8 22 13 12 31 -8 14 -10 14 -15
-5z"/>
<path d="M4600 4239 c0 -5 5 -7 10 -4 6 3 10 8 10 11 0 2 -4 4 -10 4 -5 0 -10
-5 -10 -11z"/>
<path d="M4650 4036 c0 -15 4 -25 9 -22 5 4 12 0 15 -6 3 -7 3 -2 0 12 -9 38
-24 48 -24 16z"/>
<path d="M4560 4010 c0 -11 4 -20 9 -20 6 0 9 9 8 20 -1 11 -5 20 -9 20 -4 0
-8 -9 -8 -20z"/>
<path d="M4607 4014 c-9 -9 3 -34 17 -34 6 0 12 9 12 20 0 19 -16 27 -29 14z"/>
<path d="M3456 3985 c-3 -8 -1 -15 4 -15 6 0 10 7 10 15 0 8 -2 15 -4 15 -2 0
-6 -7 -10 -15z"/>
<path d="M3474 3739 c-4 -8 -3 -9 4 -5 7 4 12 1 12 -8 0 -8 -6 -17 -12 -19 -8
-3 -6 -6 5 -6 10 -1 17 6 17 18 0 24 -16 36 -26 20z"/>
<path d="M4545 3700 c-8 -24 1 -40 21 -40 19 0 19 46 0 53 -9 4 -17 -2 -21
-13z"/>
<path d="M4595 3659 c-10 -15 3 -25 16 -12 7 7 7 13 1 17 -6 3 -14 1 -17 -5z"/>
<path d="M3972 3649 c-82 -12 -156 -41 -228 -88 -70 -45 -188 -167 -180 -187
3 -7 0 -16 -6 -20 -7 -5 -8 -2 -3 6 5 9 4 11 -3 6 -9 -5 -9 -12 0 -25 6 -10 8
-27 4 -37 -4 -11 -9 -68 -12 -127 -2 -60 -9 -117 -15 -129 -7 -14 -8 -28 0
-46 10 -29 21 -130 23 -225 2 -83 16 -93 99 -66 148 48 389 213 505 346 102
117 219 320 246 426 12 47 12 49 -12 67 -36 27 -139 76 -185 88 -63 16 -165
21 -233 11z"/>
<path d="M4640 3606 c0 -22 3 -27 11 -19 8 8 8 16 0 30 -9 16 -10 14 -11 -11z"/>
<path d="M3441 3604 c0 -11 3 -14 6 -6 3 7 2 16 -1 19 -3 4 -6 -2 -5 -13z"/>
<path d="M3553 3475 c0 -8 4 -12 9 -9 5 3 6 10 3 15 -9 13 -12 11 -12 -6z"/>
<path d="M4657 3484 c-8 -8 1 -24 14 -24 5 0 9 7 9 15 0 15 -12 20 -23 9z"/>
<path d="M3460 3464 c0 -8 5 -12 10 -9 6 4 8 11 5 16 -9 14 -15 11 -15 -7z"/>
<path d="M4580 3148 c0 -41 -58 -147 -107 -196 -91 -90 -202 -134 -515 -206
-218 -50 -334 -82 -343 -95 -10 -17 115 -120 189 -156 52 -26 102 -42 170 -53
87 -14 103 -14 178 1 104 20 225 79 299 146 59 53 132 152 134 183 1 10 7 24
13 30 7 7 12 17 12 23 0 5 -4 4 -9 -4 -6 -9 -9 9 -8 51 1 36 8 72 15 80 10 13
10 18 -1 30 -8 7 -14 20 -14 28 -1 8 -2 38 -4 65 -1 28 1 60 5 73 5 13 3 22
-3 22 -6 0 -11 -10 -11 -22z"/>
<path d="M4630 3060 c0 -11 7 -20 15 -20 17 0 18 2 9 24 -9 23 -24 20 -24 -4z"/>
<path d="M4616 2713 c-6 -14 -5 -15 5 -6 7 7 10 15 7 18 -3 3 -9 -2 -12 -12z"/>
<path d="M4566 2633 c-6 -14 -5 -15 5 -6 7 7 10 15 7 18 -3 3 -9 -2 -12 -12z"/>
<path d="M3515 2530 c3 -5 8 -10 11 -10 2 0 4 5 4 10 0 6 -5 10 -11 10 -5 0
-7 -4 -4 -10z"/>
<path d="M3611 2124 c-12 -15 -21 -34 -21 -44 0 -10 9 -29 21 -44 39 -50 109
-24 109 40 0 70 -68 100 -109 48z"/>
<path d="M3450 1973 c0 -15 2 -15 9 -4 7 11 10 10 14 -5 4 -16 5 -16 6 4 1 13
-5 22 -14 22 -8 0 -15 -8 -15 -17z"/>
<path d="M4600 1943 c0 -6 -3 -18 -6 -27 -4 -11 -1 -16 10 -16 9 0 16 6 16 13
0 16 -20 46 -20 30z"/>
<path d="M4631 1924 c0 -11 3 -14 6 -6 3 7 2 16 -1 19 -3 4 -6 -2 -5 -13z"/>
<path d="M3470 1659 c-9 -15 -9 -24 -1 -32 8 -8 11 -7 11 4 0 12 2 12 10 -1 8
-12 10 -9 10 12 0 35 -16 44 -30 17z"/>
<path d="M3856 2129 c-14 -11 -26 -25 -26 -30 0 -5 34 -9 75 -9 41 0 75 4 75
9 0 16 -52 51 -75 51 -12 0 -34 -9 -49 -21z"/>
<path d="M4122 2130 c-27 -26 -29 -80 -4 -103 50 -45 122 -17 122 49 0 65 -71
98 -118 54z"/>
<path d="M4590 1524 c0 -31 23 -28 28 4 2 15 -2 22 -12 22 -11 0 -16 -9 -16
-26z"/>
<path d="M4248 4883 c7 -3 16 -2 19 1 4 3 -2 6 -13 5 -11 0 -14 -3 -6 -6z"/>
<path d="M3500 819 c0 -5 5 -7 10 -4 6 3 10 8 10 11 0 2 -4 4 -10 4 -5 0 -10
-5 -10 -11z"/>
<path d="M4480 805 c10 -12 9 -15 -8 -15 -12 0 -23 -9 -28 -22 -6 -20 -7 -21
-19 -4 -17 22 -24 4 -17 -44 4 -29 3 -33 -9 -25 -8 6 -5 1 8 -10 13 -12 23
-31 23 -43 0 -20 3 -21 20 -12 11 6 24 8 29 5 5 -3 17 3 27 12 17 17 17 18 -5
21 -13 2 -27 -2 -32 -10 -6 -10 -11 -9 -23 7 -19 25 -15 39 11 43 12 2 24 10
27 19 4 11 2 14 -9 9 -11 -4 -15 1 -15 20 0 18 5 25 18 23 9 -1 28 3 42 9 14
6 23 11 20 11 -3 1 -20 5 -38 11 -29 8 -32 7 -22 -5z"/>
<path d="M4300 800 c0 -5 5 -10 10 -10 6 0 10 5 10 10 0 6 -4 10 -10 10 -5 0
-10 -4 -10 -10z"/>
<path d="M4335 800 c-4 -6 6 -10 24 -10 16 0 33 5 36 10 4 6 -6 10 -24 10 -16
0 -33 -4 -36 -10z"/>
<path d="M3720 668 c0 -10 6 -18 13 -19 6 0 3 -4 -8 -9 -16 -7 -17 -9 -3 -9 9
-1 20 4 23 9 3 6 16 10 28 9 l22 0 -22 -9 c-31 -12 -29 -19 5 -20 15 0 107 -2
205 -4 170 -5 177 -4 177 15 0 12 7 19 18 19 30 0 34 -13 10 -27 -21 -11 -19
-12 25 -13 30 0 46 4 42 10 -3 6 1 10 9 10 8 0 18 -4 21 -10 3 -5 12 -10 18
-9 9 0 9 2 0 6 -7 2 -13 13 -13 24 0 14 -7 19 -26 19 -14 0 -23 -4 -19 -10 3
-5 2 -10 -4 -10 -5 0 -11 5 -13 11 -2 7 -27 8 -77 3 -46 -4 -68 -10 -59 -15
10 -7 10 -9 -2 -9 -9 0 -20 4 -26 10 -5 5 -82 13 -169 16 -99 4 -163 11 -167
18 -5 7 -8 4 -8 -6z m120 -28 c0 -5 -8 -10 -17 -10 -15 0 -16 2 -3 10 19 12
20 12 20 0z m165 -10 c3 -5 -1 -10 -10 -10 -9 0 -13 5 -10 10 3 6 8 10 10 10
2 0 7 -4 10 -10z"/>
<path d="M3567 656 c-3 -8 1 -17 9 -20 9 -4 14 1 14 14 0 23 -15 27 -23 6z"/>
<path d="M4310 646 c0 -9 7 -12 20 -9 11 3 20 0 20 -6 0 -6 10 -11 23 -10 21
0 21 1 2 9 -19 8 -19 8 5 18 22 10 20 11 -22 11 -35 1 -48 -3 -48 -13z"/>
<path d="M3610 640 c20 -13 40 -13 40 0 0 6 -12 10 -27 10 -22 0 -25 -2 -13
-10z"/>
</g>
</svg>
